<?xml version="1.0" encoding="utf-8"?>
<!-- Generator: Adobe Illustrator 24.2.3, SVG Export Plug-In . SVG Version: 6.00 Build 0)  -->
<svg version="1.1" id="Layer_1" xmlns="http://www.w3.org/2000/svg" xmlns:xlink="http://www.w3.org/1999/xlink" x="0px" y="0px"
	 viewBox="0 0 571 104" style="enable-background:new 0 0 571 104;" xml:space="preserve">
<style type="text/css">
	.st0{display:none;}
	.st1{display:inline;}
</style>
<g id="White" class="st0">
	<path class="st1" d="M50.6,72.6V57.4h-9.4c-2.9,0-5.5,0.2-8.1,0.6c-2.5,0.4-4.7,1-6.6,1.9c-1.9,0.9-3.3,2.1-4.4,3.5
		c-1.1,1.4-1.6,3.1-1.6,5.1c0,2.9,1.1,5.2,3.3,7c2.2,1.8,5.1,2.7,8.6,2.7c3,0,6.1-0.5,9.1-1.4C44.6,75.8,47.6,74.4,50.6,72.6z
		 M71.1,93.2H50.6v-4.4c-3.6,2.5-7.4,4.2-11.5,5.1c-4,0.9-8.2,1.4-12.5,1.4c-4,0-7.6-0.6-10.8-1.8c-3.2-1.2-6-2.9-8.4-5.1
		c-2.4-2.2-4.2-4.9-5.5-7.9C0.6,77.4,0,74.1,0,70.4c0-4.7,1-8.7,3.1-12.2c2-3.5,4.8-6.4,8.3-8.7c3.5-2.3,7.6-4.1,12.3-5.2
		c4.7-1.1,9.8-1.7,15.2-1.7h11.8c0-4.8-1.6-8.7-4.7-11.5c-3.1-2.8-7.7-4.3-13.5-4.3c-2.9,0-5.8,0.5-8.8,1.6c-3,1-6.1,2.9-9.1,5.7
		L2.4,21.7c4.4-4.2,9.4-7.4,15.2-9.7s11.7-3.4,17.8-3.4c5.7,0,10.8,0.9,15.2,2.7c4.5,1.8,8,4.1,10.8,7C65,21.9,67.5,26,69,30.4
		c1.5,4.5,2.2,10.2,2.2,17.1V93.2z"/>
	<path class="st1" d="M154.7,80.8c-4.2,4.8-9.2,8.4-15.1,10.8c-5.9,2.5-12.1,3.7-18.5,3.7c-6,0-11.6-1.1-17-3.3
		c-5.3-2.2-9.9-5.2-13.9-9.1c-3.9-3.8-7-8.4-9.3-13.8c-2.3-5.3-3.4-11.1-3.4-17.3c0-6.1,1.1-11.8,3.4-17c2.3-5.3,5.3-9.9,9.2-13.8
		c3.9-3.9,8.5-7,13.8-9.2c5.3-2.2,11-3.3,17.1-3.3c6.3,0,12.2,1.1,17.9,3.4c5.7,2.3,10.6,5.8,14.8,10.4l-13.8,14.1
		c-2.1-2.8-4.6-5-7.6-6.8c-3-1.8-6.6-2.7-10.9-2.7c-3.1,0-6.1,0.7-8.9,2c-2.8,1.3-5.3,3.1-7.4,5.3c-2.1,2.2-3.8,4.9-5.1,7.9
		c-1.2,3-1.9,6.3-1.9,9.7c0,3.4,0.6,6.7,1.9,9.7c1.2,3,2.9,5.7,5,7.9c2.1,2.2,4.6,4,7.4,5.3c2.9,1.3,5.8,2,9,2c4.1,0,7.8-1,11.1-2.9
		c3.3-1.9,6-4.4,8-7.5L154.7,80.8z"/>
	<path class="st1" d="M235.5,93.2H215v-6.3c-1.3,1.3-2.9,2.5-4.6,3.5c-1.8,1-3.6,1.9-5.6,2.6c-1.9,0.7-3.9,1.3-6,1.6
		c-2,0.4-4,0.6-5.8,0.6c-4.2,0-8.2-0.7-12-2c-3.8-1.3-7.2-3.4-10.2-6.1c-2.9-2.8-5.3-6.3-7.1-10.7c-1.8-4.4-2.6-9.6-2.6-15.5v-50
		h20.5v49c0,2.9,0.4,5.5,1.4,7.8c0.9,2.2,2.1,4.1,3.6,5.6c1.5,1.5,3.2,2.6,5.1,3.3c1.9,0.7,4,1.1,6.1,1.1c6.7,0,12.4-2.3,17.3-6.8
		V10.8h20.5V93.2z"/>
	<path class="st1" d="M364,93.2h-20.5V44c0-5.8-1.4-10.2-4.2-13.2c-2.8-3-6.3-4.5-10.3-4.5c-3.1,0-6.1,0.5-8.9,1.5
		c-2.8,1-5.5,2.6-8.2,4.9c0.9,3.3,1.3,7.1,1.3,11.3v49.2h-20.5V44c0-5.8-1.4-10.2-4.2-13.2c-2.8-3-6.2-4.5-10.2-4.5
		c-3.1,0-5.9,0.5-8.3,1.6c-2.4,1.1-4.8,2.8-7.4,5.2v60H242V10.8h20.5l0,6.1c2.6-2.5,5.6-4.5,9.1-6c3.5-1.5,7-2.3,10.6-2.3
		c4,0,8,0.9,12.1,2.7c4,1.8,7.6,4.4,10.6,7.8c4.3-3.8,8.6-6.5,13-8.1c4.4-1.6,9.2-2.4,14.4-2.4c4.3,0,8.3,0.6,12.2,1.9
		c3.9,1.3,7.2,3.3,10.1,6.1s5.1,6.4,6.9,10.7c1.7,4.3,2.6,9.5,2.6,15.6V93.2z"/>
	<path class="st1" d="M436.9,43.8c-1.6-5.2-4.5-9.4-8.6-12.6c-4.1-3.2-8.8-4.8-14-4.8c-5.1,0-9.7,1.6-13.8,4.8
		c-4.1,3.2-6.9,7.4-8.6,12.6H436.9z M458.4,51.8c0,1.3-0.1,2.7-0.2,4.1c-0.1,1.4-0.3,2.9-0.5,4.4h-65.9c0.8,2.4,1.8,4.6,3.2,6.8
		s3.1,4,5.1,5.6s4.3,2.8,6.8,3.7c2.5,0.9,5.3,1.4,8.3,1.4c3.7,0,7.4-0.6,11.1-1.9s6.8-3,9.3-5.2l13,13c-5.7,4.3-11.3,7.3-16.8,9.1
		c-5.5,1.8-11.2,2.6-17.3,2.6c-6.2,0-12-1.1-17.3-3.4c-5.4-2.3-10-5.4-14-9.3c-3.9-3.9-7.1-8.5-9.3-13.8c-2.3-5.3-3.4-10.9-3.4-16.9
		c0-6,1.1-11.6,3.4-16.9c2.3-5.3,5.4-9.9,9.4-13.8c4-3.9,8.6-7,14-9.3c5.3-2.3,11-3.4,17.1-3.4c5.8,0,11.4,1.1,16.7,3.2
		c5.3,2.1,10,5.1,14.1,8.9c4.1,3.8,7.3,8.3,9.7,13.6C457.2,39.6,458.4,45.5,458.4,51.8L458.4,51.8z"/>
	<path class="st1" d="M539.8,93.2h-20.5V44c0-2.9-0.4-5.5-1.4-7.8c-0.9-2.2-2.1-4.1-3.7-5.6c-1.5-1.5-3.3-2.6-5.2-3.3
		c-2-0.7-4-1.1-6.1-1.1c-3.2,0-6.3,0.5-9.3,1.6c-3.1,1.1-5.8,2.8-8.3,5.2v60h-20.5V10.8h20.5l0.1,6.1c1.2-1.2,2.8-2.4,4.6-3.4
		s3.7-1.9,5.6-2.6c1.9-0.7,3.9-1.3,6-1.6c2-0.4,4-0.6,5.9-0.6c4.2,0,8.2,0.7,12,2c3.9,1.3,7.3,3.4,10.3,6.1c3,2.8,5.4,6.3,7.2,10.7
		c1.8,4.4,2.7,9.6,2.7,15.5L539.8,93.2z"/>
	<path class="st1" d="M550.1,72.6h20.5v20.5h-20.5V72.6z"/>
</g>
<g id="Black">
	<path d="M50.6,72.6V57.4h-9.4c-2.9,0-5.5,0.2-8.1,0.6c-2.5,0.4-4.7,1-6.6,1.9c-1.9,0.9-3.3,2.1-4.4,3.5c-1.1,1.4-1.6,3.1-1.6,5.1
		c0,2.9,1.1,5.2,3.3,7c2.2,1.8,5.1,2.7,8.6,2.7c3,0,6.1-0.5,9.1-1.4C44.6,75.8,47.6,74.4,50.6,72.6z M71.1,93.2H50.6v-4.4
		c-3.6,2.5-7.4,4.2-11.5,5.1c-4,0.9-8.2,1.4-12.5,1.4c-4,0-7.6-0.6-10.8-1.8c-3.2-1.2-6-2.9-8.4-5.1c-2.4-2.2-4.2-4.9-5.5-7.9
		C0.6,77.4,0,74.1,0,70.4c0-4.7,1-8.7,3.1-12.2c2-3.5,4.8-6.4,8.3-8.7c3.5-2.3,7.6-4.1,12.3-5.2c4.7-1.1,9.8-1.7,15.2-1.7h11.8
		c0-4.8-1.6-8.7-4.7-11.5c-3.1-2.8-7.7-4.3-13.5-4.3c-2.9,0-5.8,0.5-8.8,1.6c-3,1-6.1,2.9-9.1,5.7L2.4,21.7
		c4.4-4.2,9.4-7.4,15.2-9.7s11.7-3.4,17.8-3.4c5.7,0,10.8,0.9,15.2,2.7c4.5,1.8,8,4.1,10.8,7C65,21.9,67.5,26,69,30.4
		c1.5,4.5,2.2,10.2,2.2,17.1V93.2z"/>
	<path d="M154.7,80.8c-4.2,4.8-9.2,8.4-15.1,10.8c-5.9,2.5-12.1,3.7-18.5,3.7c-6,0-11.6-1.1-17-3.3c-5.3-2.2-9.9-5.2-13.9-9.1
		c-3.9-3.8-7-8.4-9.3-13.8c-2.3-5.3-3.4-11.1-3.4-17.3c0-6.1,1.1-11.8,3.4-17c2.3-5.3,5.3-9.9,9.2-13.8c3.9-3.9,8.5-7,13.8-9.2
		c5.3-2.2,11-3.3,17.1-3.3c6.3,0,12.2,1.1,17.9,3.4c5.7,2.3,10.6,5.8,14.8,10.4l-13.8,14.1c-2.1-2.8-4.6-5-7.6-6.8
		c-3-1.8-6.6-2.7-10.9-2.7c-3.1,0-6.1,0.7-8.9,2c-2.8,1.3-5.3,3.1-7.4,5.3c-2.1,2.2-3.8,4.9-5.1,7.9c-1.2,3-1.9,6.3-1.9,9.7
		c0,3.4,0.6,6.7,1.9,9.7c1.2,3,2.9,5.7,5,7.9c2.1,2.2,4.6,4,7.4,5.3c2.9,1.3,5.8,2,9,2c4.1,0,7.8-1,11.1-2.9c3.3-1.9,6-4.4,8-7.5
		L154.7,80.8z"/>
	<path d="M235.5,93.2H215v-6.3c-1.3,1.3-2.9,2.5-4.6,3.5c-1.8,1-3.6,1.9-5.6,2.6c-1.9,0.7-3.9,1.3-6,1.6c-2,0.4-4,0.6-5.8,0.6
		c-4.2,0-8.2-0.7-12-2c-3.8-1.3-7.2-3.4-10.2-6.1c-2.9-2.8-5.3-6.3-7.1-10.7c-1.8-4.4-2.6-9.6-2.6-15.5v-50h20.5v49
		c0,2.9,0.4,5.5,1.4,7.8c0.9,2.2,2.1,4.1,3.6,5.6c1.5,1.5,3.2,2.6,5.1,3.3c1.9,0.7,4,1.1,6.1,1.1c6.7,0,12.4-2.3,17.3-6.8V10.8h20.5
		V93.2z"/>
	<path d="M364,93.2h-20.5V44c0-5.8-1.4-10.2-4.2-13.2c-2.8-3-6.3-4.5-10.3-4.5c-3.1,0-6.1,0.5-8.9,1.5c-2.8,1-5.5,2.6-8.2,4.9
		c0.9,3.3,1.3,7.1,1.3,11.3v49.2h-20.5V44c0-5.8-1.4-10.2-4.2-13.2c-2.8-3-6.2-4.5-10.2-4.5c-3.1,0-5.9,0.5-8.3,1.6
		c-2.4,1.1-4.8,2.8-7.4,5.2v60H242V10.8h20.5l0,6.1c2.6-2.5,5.6-4.5,9.1-6c3.5-1.5,7-2.3,10.6-2.3c4,0,8,0.9,12.1,2.7
		c4,1.8,7.6,4.4,10.6,7.8c4.3-3.8,8.6-6.5,13-8.1c4.4-1.6,9.2-2.4,14.4-2.4c4.3,0,8.3,0.6,12.2,1.9c3.9,1.3,7.2,3.3,10.1,6.1
		s5.1,6.4,6.9,10.7c1.7,4.3,2.6,9.5,2.6,15.6V93.2z"/>
	<path d="M436.9,43.8c-1.6-5.2-4.5-9.4-8.6-12.6c-4.1-3.2-8.8-4.8-14-4.8c-5.1,0-9.7,1.6-13.8,4.8c-4.1,3.2-6.9,7.4-8.6,12.6H436.9z
		 M458.4,51.8c0,1.3-0.1,2.7-0.2,4.1c-0.1,1.4-0.3,2.9-0.5,4.4h-65.9c0.8,2.4,1.8,4.6,3.2,6.8s3.1,4,5.1,5.6s4.3,2.8,6.8,3.7
		c2.5,0.9,5.3,1.4,8.3,1.4c3.7,0,7.4-0.6,11.1-1.9s6.8-3,9.3-5.2l13,13c-5.7,4.3-11.3,7.3-16.8,9.1c-5.5,1.8-11.2,2.6-17.3,2.6
		c-6.2,0-12-1.1-17.3-3.4c-5.4-2.3-10-5.4-14-9.3c-3.9-3.9-7.1-8.5-9.3-13.8c-2.3-5.3-3.4-10.9-3.4-16.9c0-6,1.1-11.6,3.4-16.9
		c2.3-5.3,5.4-9.9,9.4-13.8c4-3.9,8.6-7,14-9.3c5.3-2.3,11-3.4,17.1-3.4c5.8,0,11.4,1.1,16.7,3.2c5.3,2.1,10,5.1,14.1,8.9
		c4.1,3.8,7.3,8.3,9.7,13.6C457.2,39.6,458.4,45.5,458.4,51.8L458.4,51.8z"/>
	<path d="M539.8,93.2h-20.5V44c0-2.9-0.4-5.5-1.4-7.8c-0.9-2.2-2.1-4.1-3.7-5.6c-1.5-1.5-3.3-2.6-5.2-3.3c-2-0.7-4-1.1-6.1-1.1
		c-3.2,0-6.3,0.5-9.3,1.6c-3.1,1.1-5.8,2.8-8.3,5.2v60h-20.5V10.8h20.5l0.1,6.1c1.2-1.2,2.8-2.4,4.6-3.4s3.7-1.9,5.6-2.6
		c1.9-0.7,3.9-1.3,6-1.6c2-0.4,4-0.6,5.9-0.6c4.2,0,8.2,0.7,12,2c3.9,1.3,7.3,3.4,10.3,6.1c3,2.8,5.4,6.3,7.2,10.7
		c1.8,4.4,2.7,9.6,2.7,15.5L539.8,93.2z"/>
	<path d="M550.1,72.6h20.5v20.5h-20.5V72.6z"/>
</g>
</svg>
