<?xml version="1.0" encoding="utf-8"?>
<!-- Generator: Adobe Illustrator 24.2.3, SVG Export Plug-In . SVG Version: 6.00 Build 0)  -->
<svg version="1.1" xmlns="http://www.w3.org/2000/svg" xmlns:xlink="http://www.w3.org/1999/xlink" x="0px" y="0px"
	 viewBox="0 0 300 50.1" style="enable-background:new 0 0 300 50.1;" xml:space="preserve">
<style type="text/css">
	.st0{display:none;}
	.st1{display:inline;}
	.st2{display:inline;}
</style>
<g id="BBC_iPlayer_white" xmlns:cc="http://creativecommons.org/ns#" xmlns:dc="http://purl.org/dc/elements/1.1/" xmlns:inkscape="http://www.inkscape.org/namespaces/inkscape" xmlns:rdf="http://www.w3.org/1999/02/22-rdf-syntax-ns#" xmlns:sodipodi="http://sodipodi.sourceforge.net/DTD/sodipodi-0.dtd" xmlns:svg="http://www.w3.org/2000/svg" class="st0">
	<path id="path3068" inkscape:connector-curvature="0" class="st1" d="M70,23.8c0,4-5,3.8-5,3.8h-5v-7.2h5
		C70.2,20.3,70,23.8,70,23.8L70,23.8z M60.1,9.3h3.8c3.9,0.2,3.8,3.1,3.8,3.1c0,3.6-4.4,3.7-4.4,3.7h-3.2
		C60.1,16.1,60.1,9.3,60.1,9.3z M69.1,17.6c0,0,3.4-1.5,3.4-5.3c0,0,0.5-6.3-7.9-7.1h-9.3v26.5H66c0,0,8.9,0,8.9-7.5
		C74.9,24.2,75.1,19.1,69.1,17.6L69.1,17.6z M45.1,0h39.1v36.8H45.1V0z M25,23.8c0,4-5,3.8-5,3.8h-5v-7.2h5
		C25.1,20.3,25,23.8,25,23.8L25,23.8z M15,9.3h3.8c3.9,0.2,3.8,3.1,3.8,3.1c0,3.6-4.4,3.7-4.4,3.7H15V9.3L15,9.3z M24,17.6
		c0,0,3.4-1.5,3.4-5.3c0,0,0.5-6.3-7.9-7.1h-9.3v26.5h10.6c0,0,8.9,0,8.9-7.5C29.8,24.2,30,19.1,24,17.6L24,17.6z M0,0h39.1v36.8H0
		V0z M121.3,7.1V12c0,0-4.8-2.9-10.1-3c0,0-9.8-0.2-10.3,9.4c0,0-0.4,8.9,10.2,9.4c0,0,4.4,0.5,10.4-3.3v5.1c0,0-8,4.8-17.3,1.1
		c0,0-7.8-2.9-8.1-12.2c0,0-0.3-9.6,10.1-12.8c0,0,2.8-1.1,7.8-0.6C114,5,117,5.3,121.3,7.1L121.3,7.1z M90.2,36.8h39.1V0H90.2V36.8
		z"/>
	<g id="g4" transform="matrix(1.393981,0,0,1.393981,145.26811,0.008875)" class="st2">
		<path id="path6" inkscape:connector-curvature="0" class="st3" d="M78.3,10.4l1.4-3.5H73l-4,12.9h-0.1L64.6,6.9h-7.3l1,2.4h-0.1
			c-1.7-2.1-4.5-2.9-7.6-2.9c-2.9,0-4.4,0.4-6.9,1.1c0,0-1.5,4.6-1.6,4.8s0.1,0.5,0.4,0.3c1.7-0.8,3.9-1.7,6.7-1.7
			c2.4,0,4.4,0.7,4.5,3.4c-0.9-0.2-2.1-0.3-3.1-0.3c-2.9,0-7.5,0.5-9.3,3.7h-0.1V0h-6.7v6.3h-0.1C33.1,2.2,29.4,0,22.8,0h-8.4v7.1
			l2.9,5.5c0.4,0.4,0.5,0.9,0,1.4l-2.9,5.6v7.1h7v-8.5h2.7c5.4,0,9-2.5,10.1-6.4h0.1v14.9H41v-2.8h0.1c1.2,2.2,3.8,3.1,6.6,3.2
			c3.4,0.1,5.3-1.6,6-2.1c0.2-0.1,0.3-0.2,0.3,0c0,0.6,0.1,1.2,0.1,1.6h6.2c-0.3-1.6-0.4-3.1-0.4-4.7v-7.4c0-0.4,0-0.8-0.1-1.2h0.1
			L65.3,27c0,0-0.9,3.1-3.7,3.1c-1.2,0-1.9-0.2-2.9-0.7c-0.2-0.1-0.3,0-0.4,0.2l-1.6,5c1,0.5,3.4,1.3,6,1.3c5.7,0,8.2-6.3,9.9-10.7
			l4.1-10.5h0.1c-0.1,0.6-0.1,1.2-0.1,1.9c0,6.5,4.9,10.4,11.4,10.4c2,0,4.1-0.4,5.8-1c0,0,1.4-4.1,1.7-5c0.1-0.3-0.2-0.5-0.4-0.3
			c-1.7,0.9-3.6,1.8-5.8,1.8c-3.3,0-5.4-1.1-5.7-3.8h13.1v7.9h6.7v-8.4c0-4.3,2.3-6.2,4.9-6.2c0.6,0,1.1,0.2,1.1,0.2L111,7
			c0-0.2,0-0.3-0.2-0.4c-0.6-0.1-1.3-0.2-2-0.2c-2.9,0-5,1.6-6.2,4.1h-0.1V6.9h-6.1v6.5h-0.1c-1.1-4-3.9-6.9-9.3-6.9
			C83.3,6.5,80.2,7.9,78.3,10.4z M23.2,13.1h-1.8v-8h1.8c2.4,0,4.3,1.3,4.3,4C27.5,11.9,25.6,13.1,23.2,13.1L23.2,13.1z M49.4,22.6
			c-1.6,0-2.8-0.8-2.8-2.2c0-1.9,1.8-2.6,4.1-2.6c1,0,2,0.1,2.8,0.1C53.6,20.2,52,22.6,49.4,22.6L49.4,22.6z M83.2,14.9
			c0.1-2.3,1.3-4.1,3.7-4.1c2.7,0,3.7,1.9,3.7,4.1H83.2L83.2,14.9z"/>
		<path id="path8" inkscape:connector-curvature="0" class="st3" d="M6.6,0H0v6.7h6.6V3.9l10.7,9.4L6.6,22.8V10H0v16.7h6.6
			l14.8-13.4L6.6,0z"/>
	</g>
</g>
<g id="BBC_iPlayer_black" inkscape:version="0.48.5 r10040" sodipodi:docname="HtmlToSvg-64.svg" xmlns:cc="http://creativecommons.org/ns#" xmlns:dc="http://purl.org/dc/elements/1.1/" xmlns:inkscape="http://www.inkscape.org/namespaces/inkscape" xmlns:rdf="http://www.w3.org/1999/02/22-rdf-syntax-ns#" xmlns:sodipodi="http://sodipodi.sourceforge.net/DTD/sodipodi-0.dtd" xmlns:svg="http://www.w3.org/2000/svg">
	<path id="path3068_1_" inkscape:connector-curvature="0" d="M70,23.8c0,4-5,3.8-5,3.8h-5v-7.2h5C70.2,20.3,70,23.8,70,23.8L70,23.8
		z M60.1,9.3h3.8c3.9,0.2,3.8,3.1,3.8,3.1c0,3.6-4.4,3.7-4.4,3.7h-3.2C60.1,16.1,60.1,9.3,60.1,9.3z M69.1,17.6c0,0,3.4-1.5,3.4-5.3
		c0,0,0.5-6.3-7.9-7.1h-9.3v26.5H66c0,0,8.9,0,8.9-7.5C74.9,24.2,75.1,19.1,69.1,17.6L69.1,17.6z M45.1,0h39.1v36.8H45.1V0z
		 M25,23.8c0,4-5,3.8-5,3.8h-5v-7.2h5C25.1,20.3,25,23.8,25,23.8L25,23.8z M15,9.3h3.8c3.9,0.2,3.8,3.1,3.8,3.1
		c0,3.6-4.4,3.7-4.4,3.7H15V9.3L15,9.3z M24,17.6c0,0,3.4-1.5,3.4-5.3c0,0,0.5-6.3-7.9-7.1h-9.3v26.5h10.6c0,0,8.9,0,8.9-7.5
		C29.8,24.2,30,19.1,24,17.6L24,17.6z M0,0h39.1v36.8H0V0z M121.3,7.1V12c0,0-4.8-2.9-10.1-3c0,0-9.8-0.2-10.3,9.4
		c0,0-0.4,8.9,10.2,9.4c0,0,4.4,0.5,10.4-3.3v5.1c0,0-8,4.8-17.3,1.1c0,0-7.8-2.9-8.1-12.2c0,0-0.3-9.6,10.1-12.8
		c0,0,2.8-1.1,7.8-0.6C114,5,117,5.3,121.3,7.1L121.3,7.1z M90.2,36.8h39.1V0H90.2V36.8z"/>
	<g id="g4_1_" transform="matrix(1.393981,0,0,1.393981,145.26811,0.008875)">
		<path id="path6_1_" inkscape:connector-curvature="0" d="M78.3,10.4l1.4-3.5H73l-4,12.9h-0.1L64.6,6.9h-7.3l1,2.4h-0.1
			c-1.7-2.1-4.5-2.9-7.6-2.9c-2.9,0-4.4,0.4-6.9,1.1c0,0-1.5,4.6-1.6,4.8s0.1,0.5,0.4,0.3c1.7-0.8,3.9-1.7,6.7-1.7
			c2.4,0,4.4,0.7,4.5,3.4c-0.9-0.2-2.1-0.3-3.1-0.3c-2.9,0-7.5,0.5-9.3,3.7h-0.1V0h-6.7v6.3h-0.1C33.1,2.2,29.4,0,22.8,0h-8.4v7.1
			l2.9,5.5c0.4,0.4,0.5,0.9,0,1.4l-2.9,5.6v7.1h7v-8.5h2.7c5.4,0,9-2.5,10.1-6.4h0.1v14.9H41v-2.8h0.1c1.2,2.2,3.8,3.1,6.6,3.2
			c3.4,0.1,5.3-1.6,6-2.1c0.2-0.1,0.3-0.2,0.3,0c0,0.6,0.1,1.2,0.1,1.6h6.2c-0.3-1.6-0.4-3.1-0.4-4.7v-7.4c0-0.4,0-0.8-0.1-1.2h0.1
			L65.3,27c0,0-0.9,3.1-3.7,3.1c-1.2,0-1.9-0.2-2.9-0.7c-0.2-0.1-0.3,0-0.4,0.2l-1.6,5c1,0.5,3.4,1.3,6,1.3c5.7,0,8.2-6.3,9.9-10.7
			l4.1-10.5h0.1c-0.1,0.6-0.1,1.2-0.1,1.9c0,6.5,4.9,10.4,11.4,10.4c2,0,4.1-0.4,5.8-1c0,0,1.4-4.1,1.7-5c0.1-0.3-0.2-0.5-0.4-0.3
			c-1.7,0.9-3.6,1.8-5.8,1.8c-3.3,0-5.4-1.1-5.7-3.8h13.1v7.9h6.7v-8.4c0-4.3,2.3-6.2,4.9-6.2c0.6,0,1.1,0.2,1.1,0.2L111,7
			c0-0.2,0-0.3-0.2-0.4c-0.6-0.1-1.3-0.2-2-0.2c-2.9,0-5,1.6-6.2,4.1h-0.1V6.9h-6.1v6.5h-0.1c-1.1-4-3.9-6.9-9.3-6.9
			C83.3,6.5,80.2,7.9,78.3,10.4z M23.2,13.1h-1.8v-8h1.8c2.4,0,4.3,1.3,4.3,4C27.5,11.9,25.6,13.1,23.2,13.1L23.2,13.1z M49.4,22.6
			c-1.6,0-2.8-0.8-2.8-2.2c0-1.9,1.8-2.6,4.1-2.6c1,0,2,0.1,2.8,0.1C53.6,20.2,52,22.6,49.4,22.6L49.4,22.6z M83.2,14.9
			c0.1-2.3,1.3-4.1,3.7-4.1c2.7,0,3.7,1.9,3.7,4.1H83.2L83.2,14.9z"/>
		<path id="path8_1_" inkscape:connector-curvature="0" d="M6.6,0H0v6.7h6.6V3.9l10.7,9.4L6.6,22.8V10H0v16.7h6.6l14.8-13.4L6.6,0z"
			/>
	</g>
</g>
</svg>
