<?xml version="1.0" encoding="utf-8"?>
<!-- Generator: Adobe Illustrator 24.2.3, SVG Export Plug-In . SVG Version: 6.00 Build 0)  -->
<svg version="1.1" id="Layer_1" xmlns="http://www.w3.org/2000/svg" xmlns:xlink="http://www.w3.org/1999/xlink" x="0px" y="0px"
	 viewBox="0 0 591.9 212.6" style="enable-background:new 0 0 591.9 212.6;" xml:space="preserve">
<style type="text/css">
	.st0{fill-rule:evenodd;clip-rule:evenodd;}
	.st1{display:none;}
	.st2{display:inline;fill-rule:evenodd;clip-rule:evenodd;}
	.st3{display:inline;}
</style>
<g id="BBC_radio_4_black" xmlns:svg="http://www.w3.org/2000/svg">
	<path id="BBC_radio" class="st0" d="M0,0v98.8h105V0H0z M121,0v98.8h105V0H121z M242,0v98.8h105V0H242z M298,13c0.4,0,0.7,0,1.1,0
		c0.9,0,1.9,0.1,2.9,0.1c0.5,0,1.1,0.1,1.7,0.1c0.8,0.1,1.6,0.1,2.4,0.3h0.6c0.4,0.1,0.9,0.2,1.4,0.3c0.6,0.1,1.1,0.2,1.6,0.3
		c0.6,0.1,1.1,0.2,1.6,0.3c0.3,0.1,0.6,0.2,0.9,0.2c0.5,0.1,1,0.3,1.5,0.4c0.4,0.1,0.8,0.2,1.1,0.3l0.3,0.1c0.4,0.1,0.9,0.2,1.3,0.3
		c0.5,0.2,1,0.3,1.5,0.5c0.4,0.1,0.9,0.3,1.3,0.4c0.5,0.2,1,0.4,1.5,0.5c0.8,0.3,1.6,0.6,2.2,0.8c1.4,0.6,2.2,0.9,2.2,0.9v13.3
		l-1.4-0.8c-0.5-0.3-1.1-0.6-1.9-1c-0.4-0.2-0.9-0.5-1.4-0.7c-0.6-0.2-1.2-0.6-1.8-0.8c-0.8-0.4-1.6-0.7-2.5-1.1
		c-0.6-0.2-1.3-0.5-1.9-0.8c0,0-0.4-0.1-1.2-0.4c-0.4-0.1-1-0.3-1.6-0.5c-0.4-0.2-0.9-0.3-1.4-0.4c-0.8-0.2-1.7-0.4-2.7-0.6
		c-0.6-0.1-1.3-0.2-1.9-0.3c-0.8-0.1-1.6-0.2-2.4-0.3c-0.4,0-0.9-0.1-1.4-0.1c-0.7,0-1.3,0-2,0c-0.3,0-0.6,0-1,0
		c-0.9,0-1.9,0-2.9,0.1c-0.5,0-1,0.1-1.6,0.1c-0.5,0.1-1,0.1-1.5,0.3c-0.4,0.1-1,0.2-1.4,0.3c-0.4,0.1-1,0.3-1.4,0.4
		c-0.5,0.2-1,0.3-1.5,0.5s-0.9,0.3-1.4,0.5s-0.9,0.4-1.4,0.6c-2.9,1.3-5.6,3.2-8.1,5.6c-0.2,0.2-0.3,0.4-0.5,0.5
		c-0.3,0.3-0.6,0.7-0.9,1c-0.2,0.3-0.4,0.5-0.6,0.8c-0.6,0.8-1.1,1.5-1.5,2.3c-0.2,0.3-0.4,0.7-0.6,1.1c-0.2,0.4-0.5,0.9-0.7,1.4
		c-0.1,0.3-0.3,0.7-0.4,1c-0.2,0.5-0.4,1-0.5,1.5c-0.2,0.5-0.3,1-0.4,1.5c-0.2,0.8-0.3,1.5-0.4,2.2c-0.1,1.1-0.2,2.1-0.3,2.9v0.8
		c0,0.4,0,0.9,0,1.4c0,0.4,0,0.7,0.1,1.1c0.1,1.1,0.3,2.4,0.6,3.8c0.1,0.5,0.3,1,0.5,1.5c0.2,0.7,0.4,1.3,0.7,2
		c0.2,0.4,0.3,0.8,0.5,1.2c0.2,0.5,0.5,1,0.8,1.4c0.2,0.4,0.4,0.6,0.6,1c0.2,0.3,0.4,0.7,0.7,1c0.3,0.3,0.6,0.7,0.8,1
		c0.5,0.6,1.1,1.2,1.7,1.8L278,67l0.1,0.1l0.2,0.2l0.4,0.4c0.4,0.2,0.7,0.6,1.1,0.9s0.7,0.6,1.1,0.8c0.3,0.2,0.7,0.5,1,0.7
		s0.6,0.3,0.9,0.5c0.7,0.4,1.3,0.7,2,1c0.3,0.1,0.6,0.3,0.9,0.4c0.2,0.1,0.4,0.2,0.5,0.2c0.3,0.1,0.6,0.2,0.9,0.3
		c1.9,0.7,3.8,1.2,5.8,1.5c1.2,0.2,2.4,0.4,3.5,0.4c1,0.1,2,0.1,3,0.1c0.5,0,1-0.1,1.5-0.1c0.7,0,1.6-0.1,2.5-0.2
		c0.6,0,1.2-0.1,1.9-0.3c0.3,0,0.6-0.1,0.9-0.1c2.4-0.4,5-1.1,8-2.2c1.5-0.5,3.1-1.2,4.8-2c1-0.5,2-1,3-1.5c0.9-0.5,1.7-1,2.7-1.6
		l0.9-0.5c0.1-0.1,0.3-0.2,0.5-0.3v13.5c-0.3,0.1-0.5,0.2-0.7,0.3c-0.6,0.3-1.2,0.5-1.6,0.8c-0.6,0.2-1.1,0.5-1.6,0.7
		c-0.8,0.4-1.7,0.7-2.3,0.9c-0.5,0.2-0.9,0.3-1.2,0.5l-0.6,0.2c-0.6,0.2-1.3,0.5-1.9,0.6c-0.6,0.2-1.1,0.3-1.7,0.5
		c-0.8,0.2-1.7,0.4-2.6,0.6c-0.6,0.1-1.2,0.3-1.8,0.3c-1,0.2-2,0.3-3.1,0.5c-0.7,0.1-1.4,0.2-2.2,0.3h-0.4c-1.9,0.2-3.9,0.3-6.1,0.3
		h-0.8c-0.6,0-1.2-0.1-1.9-0.1c-1.2-0.1-2.4-0.1-3.5-0.3c-1.2-0.1-2.3-0.3-3.4-0.5c-1.3-0.3-2.6-0.6-3.8-0.9c-0.7-0.2-1.4-0.4-2-0.6
		c-0.7-0.2-1.4-0.5-2-0.7c-1.7-0.7-3.2-1.4-4.6-2.2c-0.7-0.4-1.3-0.8-2-1.2c-0.6-0.4-1.1-0.7-1.6-1.1c-0.4-0.3-0.8-0.7-1.2-1
		c-0.4-0.3-0.8-0.7-1.2-1c-0.5-0.5-1-1-1.5-1.4l-0.3-0.3c-0.6-0.5-1.1-1.1-1.6-1.8c-0.5-0.5-1-1-1.4-1.6c-0.4-0.5-0.8-1.1-1.2-1.7
		c-0.3-0.4-0.6-0.9-1-1.4c-0.3-0.6-0.7-1.2-1.1-1.9c-0.6-1.1-1.1-2.3-1.6-3.5c-0.3-0.7-0.6-1.5-0.9-2.3c-0.2-0.7-0.4-1.4-0.6-2
		c-0.1-0.5-0.2-1.1-0.3-1.6c0-0.3-0.1-0.5-0.1-0.8c-0.1-0.6-0.2-1.3-0.3-2v-0.4c0-0.6-0.1-1.2-0.2-1.7c0-0.6,0-1.1,0-1.6
		c0-0.7,0-1.5,0.1-2.2c0.1-1,0.1-1.9,0.3-2.8c0.4-2.9,1.1-5.6,2.1-8.2c0.8-2,1.7-4,2.9-5.7c0.1-0.3,0.3-0.6,0.5-0.9
		c0.3-0.4,0.5-0.9,0.9-1.3c0.4-0.6,0.8-1.1,1.3-1.6c0.4-0.5,0.8-1,1.3-1.5c0.4-0.5,0.8-1,1.3-1.4c0.5-0.5,1-1,1.6-1.5
		s1.2-1.1,1.9-1.6c0.3-0.3,0.6-0.4,1-0.7c0.4-0.3,0.8-0.6,1.2-0.8c0.7-0.5,1.4-0.9,2.2-1.3c0.8-0.5,1.6-0.9,2.4-1.3
		c1-0.5,2.1-0.9,3.2-1.4c2.1-0.8,4.4-1.5,6.9-2c0.4-0.1,0.8-0.2,1.2-0.3c0.3-0.1,0.6-0.1,0.9-0.2l0.7-0.1h0.6h0.5
		c0.6-0.1,1.2-0.2,1.9-0.2c0.4,0,0.8-0.1,1.3-0.1C296.4,13,297.2,13,298,13z M27.6,13.8h23.1c12.4,0,17.9,6.5,17.9,6.5s5,4.4,5,11.9
		s-3.4,10.6-4.4,11.5c-2,2-4.7,3.3-4.7,3.3s5.9,1.3,10.5,5.9c5.4,5.4,5,12.5,5,12.5s0.4,6.8-5.4,12.7C67.4,85.4,54.4,85,54.4,85
		H27.6V13.8z M148.5,13.8h23.1c12.4,0,17.9,6.5,17.9,6.5s5,4.4,5,11.9s-3.4,10.6-4.4,11.5c-2.1,2-4.7,3.3-4.7,3.3s5.9,1.3,10.6,5.9
		c5.4,5.4,5,12.5,5,12.5s0.4,6.8-5.4,12.7c-7.2,7.2-20.3,6.8-20.3,6.8h-26.8L148.5,13.8L148.5,13.8z M40.3,25.2v18.4h6.1
		c0,0,0.4,0,0.9,0c0.4,0,1,0,1.4-0.1c1.2-0.1,3-0.2,4.7-0.7c0.4-0.1,0.7-0.2,1-0.3c1.3-0.5,2.7-1.2,3.7-2.2c0.8-0.8,1.4-1.7,1.7-2.5
		c0.4-1.1,0.6-2.1,0.6-2.7c0.1-0.7,0.1-1.1,0.1-1.1v-0.8c-0.1-0.8-0.3-2.1-0.9-3.3c-0.3-0.6-0.7-1.2-1.3-1.8
		c-0.7-0.7-1.5-1.2-2.4-1.6c-1.7-0.7-3.7-1.1-5.4-1.2c-0.7,0-1.4,0-1.9,0h-8.3V25.2z M161.3,25.2v18.4h6.1c0,0,0.4,0,1,0
		c0.5,0,0.9,0,1.4-0.1c1.2-0.1,3-0.2,4.7-0.7c0.4-0.1,0.7-0.2,1-0.3c1.4-0.5,2.7-1.2,3.7-2.2c0.8-0.8,1.3-1.7,1.6-2.5
		c0.4-1.1,0.6-2.1,0.7-2.7c0-0.7,0-1.1,0-1.1s0-0.3,0-0.8c0-0.8-0.2-2.1-0.8-3.3c-0.3-0.6-0.7-1.2-1.3-1.8c-0.7-0.7-1.5-1.2-2.4-1.6
		c-1.7-0.7-3.7-1.1-5.4-1.2c-0.7,0-1.4,0-1.9,0h-8.4V25.2z M40.3,54.7v19.4h12.6c0,0,0.3,0,0.7,0s1-0.1,1.8-0.1
		c1.4-0.2,3.1-0.4,4.9-1c1.6-0.5,3.1-1.3,4.3-2.5c0.5-0.5,0.8-1,1.1-1.4c1-1.5,1.2-3.1,1.3-4c0-0.4,0-0.7,0-0.7V64
		c0-0.4-0.1-1.1-0.3-1.9c-0.2-0.9-0.7-2-1.5-3c-0.1-0.2-0.3-0.3-0.5-0.5c-0.4-0.4-0.7-0.7-1.1-1c-0.7-0.5-1.5-0.9-2.4-1.3
		c-1.1-0.5-2.4-0.9-3.8-1.1c-0.7-0.1-1.4-0.2-2.2-0.3c-0.5-0.1-1-0.1-1.5-0.1c-0.4,0-0.9,0-1.4,0h-12V54.7z M161.3,54.7v19.4h12.6
		c0,0,0.3,0,0.6,0c0.5,0,1-0.1,1.8-0.1c1.3-0.2,3.2-0.4,4.9-1c1.6-0.5,3.1-1.3,4.3-2.5c0.4-0.5,0.8-1,1.1-1.4c1-1.5,1.2-3.1,1.3-4
		c0-0.4,0-0.7,0-0.7s0-0.2,0-0.4c0-0.4,0-1.1-0.3-1.9c-0.2-0.9-0.7-2-1.4-3c-0.2-0.2-0.4-0.3-0.5-0.5c-0.3-0.4-0.7-0.7-1.1-1
		c-0.7-0.5-1.5-0.9-2.3-1.3c-1.1-0.5-2.4-0.9-3.8-1.1c-0.7-0.1-1.4-0.2-2.2-0.3c-0.5-0.1-1-0.1-1.5-0.1c-0.4,0-0.9,0-1.4,0h-12.1
		V54.7z M309.9,122.2c-26.5,0-43.8,19.3-43.8,41.9c0,22.2,16.9,41.9,43.6,41.9c27.7,0,44.2-19.9,44.2-41.9
		C353.8,141.4,336.8,122.2,309.9,122.2z M97.6,122.8l-34.8,81.5c-5.2-7.2-7.4-10.1-10.8-15.6c-6.2-10.2-10.7-17.7-18.2-22.6
		c8.7-3.5,13.6-10.5,13.6-20c0-14.1-10.3-22.9-26.8-22.9H0v81.7h11.7v-35.5h4.9c6,0,10.9,1.9,21.7,18.7l10.8,16.8h14h11.3l10.3-24.1
		h34.7l10.9,24.1h11.9l-36.5-82.1C105.7,122.8,97.6,122.8,97.6,122.8z M152.1,123.3V205H184c27,0,43.4-19.9,43.4-40.9
		c0-19.2-13.3-40.9-43.4-40.9L152.1,123.3L152.1,123.3z M240.8,123.3V205h11.7v-81.7H240.8z M309.9,133c18.3,0,31.8,13.2,31.8,31.1
		c0,17.8-13.5,31.2-31.8,31.2c-18.2,0-31.8-13.3-31.8-31.2S291.7,133,309.9,133z M11.8,133.4h7.6c11.4,0,15.9,4.7,16,12.3
		c0.1,6.8-3.5,13.3-16,13.3h-7.6C11.8,159,11.8,133.4,11.8,133.4z M163.8,133.8h18c22.9,0,33.3,13.9,33.3,30.3
		c0,10.1-6.1,30.3-32.6,30.3h-18.7V133.8z M101.5,140.8l13.2,29.5H89.3L101.5,140.8z"/>
	<g id="_x34_">
		<path d="M499.8,120.2c-3.9,11.1-12.3,21.6-23.3,26.5c8.2-6,11.8-13.3,13.2-23l-5.5-1c-7.1-1.3-12.6-7.3-12.8-14.5
			c-0.2-8.4,6.5-15.4,14.9-15.6C501.5,92.4,503.7,109,499.8,120.2z"/>
		<path id="path376" d="M486.4,92.7c-8.4,0.2-15.1,7.1-14.9,15.6c0.2,7.3,5.6,13.3,12.8,14.5l5.5,1c-1.4,9.7-5,17-13.2,23
			c11-4.9,19.4-15.4,23.3-26.5C503.7,109,501.5,92.4,486.4,92.7z M486.4,92.7c-8.4,0.2-15.1,7.1-14.9,15.6
			c0.2,7.3,5.6,13.3,12.8,14.5l5.5,1c-1.4,9.7-5,17-13.2,23c11-4.9,19.4-15.4,23.3-26.5C503.7,109,501.5,92.4,486.4,92.7z M485.7,0
			C427,0,379.4,47.6,379.4,106.3S427,212.6,485.7,212.6S591.9,165,591.9,106.3C592,47.6,544.4,0,485.7,0z M543.4,148.5h-21.6
			l0.1,27.4h-38.7v-24.6c0,0,0-2.7-3.3-2.8h-55.4v-22.7c0-3.3,1.7-8.2,3.6-10.8l59.2-79.4c2-2.7,6.3-4.8,9.6-4.8h25v85.9l21.6-0.1
			L543.4,148.5z M486.4,92.7c-8.4,0.2-15.1,7.1-14.9,15.6c0.2,7.3,5.6,13.3,12.8,14.5l5.5,1c-1.4,9.7-5,17-13.2,23
			c11-4.9,19.4-15.4,23.3-26.5C503.7,109,501.5,92.4,486.4,92.7z"/>
	</g>
</g>
<g id="BBC_radio_4_black_copy" xmlns:svg="http://www.w3.org/2000/svg" class="st1">
	<path id="BBC_radio_1_" class="st2" d="M0,0v98.8h105V0H0z M121,0v98.8h105V0H121z M242,0v98.8h105V0H242z M298,13
		c0.4,0,0.7,0,1.1,0c0.9,0,1.9,0.1,2.9,0.1c0.5,0,1.1,0.1,1.7,0.1c0.8,0.1,1.6,0.1,2.4,0.3h0.6c0.4,0.1,0.9,0.2,1.4,0.3
		c0.6,0.1,1.1,0.2,1.6,0.3c0.6,0.1,1.1,0.2,1.6,0.3c0.3,0.1,0.6,0.2,0.9,0.2c0.5,0.1,1,0.3,1.5,0.4c0.4,0.1,0.8,0.2,1.1,0.3l0.3,0.1
		c0.4,0.1,0.9,0.2,1.3,0.3c0.5,0.2,1,0.3,1.5,0.5c0.4,0.1,0.9,0.3,1.3,0.4c0.5,0.2,1,0.4,1.5,0.5c0.8,0.3,1.6,0.6,2.2,0.8
		c1.4,0.6,2.2,0.9,2.2,0.9v13.3l-1.4-0.8c-0.5-0.3-1.1-0.6-1.9-1c-0.4-0.2-0.9-0.5-1.4-0.7c-0.6-0.2-1.2-0.6-1.8-0.8
		c-0.8-0.4-1.6-0.7-2.5-1.1c-0.6-0.2-1.3-0.5-1.9-0.8c0,0-0.4-0.1-1.2-0.4c-0.4-0.1-1-0.3-1.6-0.5c-0.4-0.2-0.9-0.3-1.4-0.4
		c-0.8-0.2-1.7-0.4-2.7-0.6c-0.6-0.1-1.3-0.2-1.9-0.3c-0.8-0.1-1.6-0.2-2.4-0.3c-0.4,0-0.9-0.1-1.4-0.1c-0.7,0-1.3,0-2,0
		c-0.3,0-0.6,0-1,0c-0.9,0-1.9,0-2.9,0.1c-0.5,0-1,0.1-1.6,0.1c-0.5,0.1-1,0.1-1.5,0.3c-0.4,0.1-1,0.2-1.4,0.3
		c-0.4,0.1-1,0.3-1.4,0.4c-0.5,0.2-1,0.3-1.5,0.5s-0.9,0.3-1.4,0.5s-0.9,0.4-1.4,0.6c-2.9,1.3-5.6,3.2-8.1,5.6
		c-0.2,0.2-0.3,0.4-0.5,0.5c-0.3,0.3-0.6,0.7-0.9,1c-0.2,0.3-0.4,0.5-0.6,0.8c-0.6,0.8-1.1,1.5-1.5,2.3c-0.2,0.3-0.4,0.7-0.6,1.1
		c-0.2,0.4-0.5,0.9-0.7,1.4c-0.1,0.3-0.3,0.7-0.4,1c-0.2,0.5-0.4,1-0.5,1.5c-0.2,0.5-0.3,1-0.4,1.5c-0.2,0.8-0.3,1.5-0.4,2.2
		c-0.1,1.1-0.2,2.1-0.3,2.9v0.8c0,0.4,0,0.9,0,1.4c0,0.4,0,0.7,0.1,1.1c0.1,1.1,0.3,2.4,0.6,3.8c0.1,0.5,0.3,1,0.5,1.5
		c0.2,0.7,0.4,1.3,0.7,2c0.2,0.4,0.3,0.8,0.5,1.2c0.2,0.5,0.5,1,0.8,1.4c0.2,0.4,0.4,0.6,0.6,1c0.2,0.3,0.4,0.7,0.7,1
		c0.3,0.3,0.6,0.7,0.8,1c0.5,0.6,1.1,1.2,1.7,1.8L278,67l0.1,0.1l0.2,0.2l0.4,0.4c0.4,0.2,0.7,0.6,1.1,0.9s0.7,0.6,1.1,0.8
		c0.3,0.2,0.7,0.5,1,0.7s0.6,0.3,0.9,0.5c0.7,0.4,1.3,0.7,2,1c0.3,0.1,0.6,0.3,0.9,0.4c0.2,0.1,0.4,0.2,0.5,0.2
		c0.3,0.1,0.6,0.2,0.9,0.3c1.9,0.7,3.8,1.2,5.8,1.5c1.2,0.2,2.4,0.4,3.5,0.4c1,0.1,2,0.1,3,0.1c0.5,0,1-0.1,1.5-0.1
		c0.7,0,1.6-0.1,2.5-0.2c0.6,0,1.2-0.1,1.9-0.3c0.3,0,0.6-0.1,0.9-0.1c2.4-0.4,5-1.1,8-2.2c1.5-0.5,3.1-1.2,4.8-2c1-0.5,2-1,3-1.5
		c0.9-0.5,1.7-1,2.7-1.6l0.9-0.5c0.1-0.1,0.3-0.2,0.5-0.3v13.5c-0.3,0.1-0.5,0.2-0.7,0.3c-0.6,0.3-1.2,0.5-1.6,0.8
		c-0.6,0.2-1.1,0.5-1.6,0.7c-0.8,0.4-1.7,0.7-2.3,0.9c-0.5,0.2-0.9,0.3-1.2,0.5l-0.6,0.2c-0.6,0.2-1.3,0.5-1.9,0.6
		c-0.6,0.2-1.1,0.3-1.7,0.5c-0.8,0.2-1.7,0.4-2.6,0.6c-0.6,0.1-1.2,0.3-1.8,0.3c-1,0.2-2,0.3-3.1,0.5c-0.7,0.1-1.4,0.2-2.2,0.3h-0.4
		c-1.9,0.2-3.9,0.3-6.1,0.3h-0.8c-0.6,0-1.2-0.1-1.9-0.1c-1.2-0.1-2.4-0.1-3.5-0.3c-1.2-0.1-2.3-0.3-3.4-0.5
		c-1.3-0.3-2.6-0.6-3.8-0.9c-0.7-0.2-1.4-0.4-2-0.6c-0.7-0.2-1.4-0.5-2-0.7c-1.7-0.7-3.2-1.4-4.6-2.2c-0.7-0.4-1.3-0.8-2-1.2
		c-0.6-0.4-1.1-0.7-1.6-1.1c-0.4-0.3-0.8-0.7-1.2-1c-0.4-0.3-0.8-0.7-1.2-1c-0.5-0.5-1-1-1.5-1.4l-0.3-0.3c-0.6-0.5-1.1-1.1-1.6-1.8
		c-0.5-0.5-1-1-1.4-1.6c-0.4-0.5-0.8-1.1-1.2-1.7c-0.3-0.4-0.6-0.9-1-1.4c-0.3-0.6-0.7-1.2-1.1-1.9c-0.6-1.1-1.1-2.3-1.6-3.5
		c-0.3-0.7-0.6-1.5-0.9-2.3c-0.2-0.7-0.4-1.4-0.6-2c-0.1-0.5-0.2-1.1-0.3-1.6c0-0.3-0.1-0.5-0.1-0.8c-0.1-0.6-0.2-1.3-0.3-2v-0.4
		c0-0.6-0.1-1.2-0.2-1.7c0-0.6,0-1.1,0-1.6c0-0.7,0-1.5,0.1-2.2c0.1-1,0.1-1.9,0.3-2.8c0.4-2.9,1.1-5.6,2.1-8.2c0.8-2,1.7-4,2.9-5.7
		c0.1-0.3,0.3-0.6,0.5-0.9c0.3-0.4,0.5-0.9,0.9-1.3c0.4-0.6,0.8-1.1,1.3-1.6c0.4-0.5,0.8-1,1.3-1.5c0.4-0.5,0.8-1,1.3-1.4
		c0.5-0.5,1-1,1.6-1.5s1.2-1.1,1.9-1.6c0.3-0.3,0.6-0.4,1-0.7c0.4-0.3,0.8-0.6,1.2-0.8c0.7-0.5,1.4-0.9,2.2-1.3
		c0.8-0.5,1.6-0.9,2.4-1.3c1-0.5,2.1-0.9,3.2-1.4c2.1-0.8,4.4-1.5,6.9-2c0.4-0.1,0.8-0.2,1.2-0.3c0.3-0.1,0.6-0.1,0.9-0.2l0.7-0.1
		h0.6h0.5c0.6-0.1,1.2-0.2,1.9-0.2c0.4,0,0.8-0.1,1.3-0.1C296.4,13,297.2,13,298,13z M27.6,13.8h23.1c12.4,0,17.9,6.5,17.9,6.5
		s5,4.4,5,11.9s-3.4,10.6-4.4,11.5c-2,2-4.7,3.3-4.7,3.3s5.9,1.3,10.5,5.9c5.4,5.4,5,12.5,5,12.5s0.4,6.8-5.4,12.7
		C67.4,85.4,54.4,85,54.4,85H27.6V13.8z M148.5,13.8h23.1c12.4,0,17.9,6.5,17.9,6.5s5,4.4,5,11.9s-3.4,10.6-4.4,11.5
		c-2.1,2-4.7,3.3-4.7,3.3s5.9,1.3,10.6,5.9c5.4,5.4,5,12.5,5,12.5s0.4,6.8-5.4,12.7c-7.2,7.2-20.3,6.8-20.3,6.8h-26.8L148.5,13.8
		L148.5,13.8z M40.3,25.2v18.4h6.1c0,0,0.4,0,0.9,0c0.4,0,1,0,1.4-0.1c1.2-0.1,3-0.2,4.7-0.7c0.4-0.1,0.7-0.2,1-0.3
		c1.3-0.5,2.7-1.2,3.7-2.2c0.8-0.8,1.4-1.7,1.7-2.5c0.4-1.1,0.6-2.1,0.6-2.7c0.1-0.7,0.1-1.1,0.1-1.1v-0.8c-0.1-0.8-0.3-2.1-0.9-3.3
		c-0.3-0.6-0.7-1.2-1.3-1.8c-0.7-0.7-1.5-1.2-2.4-1.6c-1.7-0.7-3.7-1.1-5.4-1.2c-0.7,0-1.4,0-1.9,0h-8.3V25.2z M161.3,25.2v18.4h6.1
		c0,0,0.4,0,1,0c0.5,0,0.9,0,1.4-0.1c1.2-0.1,3-0.2,4.7-0.7c0.4-0.1,0.7-0.2,1-0.3c1.4-0.5,2.7-1.2,3.7-2.2c0.8-0.8,1.3-1.7,1.6-2.5
		c0.4-1.1,0.6-2.1,0.7-2.7c0-0.7,0-1.1,0-1.1s0-0.3,0-0.8c0-0.8-0.2-2.1-0.8-3.3c-0.3-0.6-0.7-1.2-1.3-1.8c-0.7-0.7-1.5-1.2-2.4-1.6
		c-1.7-0.7-3.7-1.1-5.4-1.2c-0.7,0-1.4,0-1.9,0h-8.4V25.2z M40.3,54.7v19.4h12.6c0,0,0.3,0,0.7,0s1-0.1,1.8-0.1
		c1.4-0.2,3.1-0.4,4.9-1c1.6-0.5,3.1-1.3,4.3-2.5c0.5-0.5,0.8-1,1.1-1.4c1-1.5,1.2-3.1,1.3-4c0-0.4,0-0.7,0-0.7V64
		c0-0.4-0.1-1.1-0.3-1.9c-0.2-0.9-0.7-2-1.5-3c-0.1-0.2-0.3-0.3-0.5-0.5c-0.4-0.4-0.7-0.7-1.1-1c-0.7-0.5-1.5-0.9-2.4-1.3
		c-1.1-0.5-2.4-0.9-3.8-1.1c-0.7-0.1-1.4-0.2-2.2-0.3c-0.5-0.1-1-0.1-1.5-0.1c-0.4,0-0.9,0-1.4,0h-12V54.7z M161.3,54.7v19.4h12.6
		c0,0,0.3,0,0.6,0c0.5,0,1-0.1,1.8-0.1c1.3-0.2,3.2-0.4,4.9-1c1.6-0.5,3.1-1.3,4.3-2.5c0.4-0.5,0.8-1,1.1-1.4c1-1.5,1.2-3.1,1.3-4
		c0-0.4,0-0.7,0-0.7s0-0.2,0-0.4c0-0.4,0-1.1-0.3-1.9c-0.2-0.9-0.7-2-1.4-3c-0.2-0.2-0.4-0.3-0.5-0.5c-0.3-0.4-0.7-0.7-1.1-1
		c-0.7-0.5-1.5-0.9-2.3-1.3c-1.1-0.5-2.4-0.9-3.8-1.1c-0.7-0.1-1.4-0.2-2.2-0.3c-0.5-0.1-1-0.1-1.5-0.1c-0.4,0-0.9,0-1.4,0h-12.1
		V54.7z M309.9,122.2c-26.5,0-43.8,19.3-43.8,41.9c0,22.2,16.9,41.9,43.6,41.9c27.7,0,44.2-19.9,44.2-41.9
		C353.8,141.4,336.8,122.2,309.9,122.2z M97.6,122.8l-34.8,81.5c-5.2-7.2-7.4-10.1-10.8-15.6c-6.2-10.2-10.7-17.7-18.2-22.6
		c8.7-3.5,13.6-10.5,13.6-20c0-14.1-10.3-22.9-26.8-22.9H0v81.7h11.7v-35.5h4.9c6,0,10.9,1.9,21.7,18.7l10.8,16.8h14h11.3l10.3-24.1
		h34.7l10.9,24.1h11.9l-36.5-82.1C105.7,122.8,97.6,122.8,97.6,122.8z M152.1,123.3V205H184c27,0,43.4-19.9,43.4-40.9
		c0-19.2-13.3-40.9-43.4-40.9L152.1,123.3L152.1,123.3z M240.8,123.3V205h11.7v-81.7H240.8z M309.9,133c18.3,0,31.8,13.2,31.8,31.1
		c0,17.8-13.5,31.2-31.8,31.2c-18.2,0-31.8-13.3-31.8-31.2S291.7,133,309.9,133z M11.8,133.4h7.6c11.4,0,15.9,4.7,16,12.3
		c0.1,6.8-3.5,13.3-16,13.3h-7.6C11.8,159,11.8,133.4,11.8,133.4z M163.8,133.8h18c22.9,0,33.3,13.9,33.3,30.3
		c0,10.1-6.1,30.3-32.6,30.3h-18.7V133.8z M101.5,140.8l13.2,29.5H89.3L101.5,140.8z"/>
	<g id="_x34__1_" class="st3">
		<path class="st4" d="M489.8,120.2c-3.9,11.1-12.3,21.6-23.3,26.5c8.2-6,11.8-13.3,13.2-23l-5.5-1c-7.1-1.3-12.6-7.3-12.8-14.5
			c-0.2-8.4,6.5-15.4,14.9-15.6C491.5,92.4,493.7,109,489.8,120.2z"/>
		<path id="path376_1_" class="st4" d="M476.4,92.7c-8.4,0.2-15.1,7.1-14.9,15.6c0.2,7.3,5.6,13.3,12.8,14.5l5.5,1
			c-1.4,9.7-5,17-13.2,23c11-4.9,19.4-15.4,23.3-26.5C493.7,109,491.5,92.4,476.4,92.7z M476.4,92.7c-8.4,0.2-15.1,7.1-14.9,15.6
			c0.2,7.3,5.6,13.3,12.8,14.5l5.5,1c-1.4,9.7-5,17-13.2,23c11-4.9,19.4-15.4,23.3-26.5C493.7,109,491.5,92.4,476.4,92.7z M475.7,0
			C417,0,369.4,47.6,369.4,106.3S417,212.6,475.7,212.6S581.9,165,581.9,106.3C582,47.6,534.4,0,475.7,0z M533.4,148.5h-21.6
			l0.1,27.4h-38.7v-24.6c0,0,0-2.7-3.3-2.8h-55.4v-22.7c0-3.3,1.7-8.2,3.6-10.8l59.2-79.4c2-2.7,6.3-4.8,9.6-4.8h25v85.9l21.6-0.1
			L533.4,148.5z M476.4,92.7c-8.4,0.2-15.1,7.1-14.9,15.6c0.2,7.3,5.6,13.3,12.8,14.5l5.5,1c-1.4,9.7-5,17-13.2,23
			c11-4.9,19.4-15.4,23.3-26.5C493.7,109,491.5,92.4,476.4,92.7z"/>
	</g>
</g>
</svg>
