<?xml version="1.0" encoding="utf-8"?>
<!-- Generator: Adobe Illustrator 24.2.3, SVG Export Plug-In . SVG Version: 6.00 Build 0)  -->
<svg version="1.1" id="Layer_1" xmlns="http://www.w3.org/2000/svg" xmlns:xlink="http://www.w3.org/1999/xlink" x="0px" y="0px"
	 viewBox="0 0 612 103.8" style="enable-background:new 0 0 612 103.8;" xml:space="preserve">
<style type="text/css">
	.st0{display:none;}
	.st1{display:inline;}
	.st2{display:inline;}
</style>
<g id="BBC_R_x26_D_black" xmlns:svg="http://www.w3.org/2000/svg">
	<path id="BBC" d="M52.8,26.2H42.2v19.2h9.1c0,0,12.2-0.2,12.2-10.4C63.5,35.1,63.9,26.8,52.8,26.2z M56.2,57.2h-14v20.3h14
		c0,0,14,0.7,14-10.6C70.2,67,70.6,57.1,56.2,57.2z M56.2,57.2h-14v20.3h14c0,0,14,0.7,14-10.6C70.2,67,70.6,57.1,56.2,57.2z
		 M63.5,35.1c0,0,0.4-8.2-10.7-8.8H42.2v19.2h9.1C51.2,45.5,63.5,45.3,63.5,35.1z M0,0.1v103.5h109.9V0.1H0z M83.8,68.1
		c0,21.1-25,21-25,21H28.9V14.7H55c23.5,2.1,22.1,19.9,22.1,19.9c0.1,10.8-9.5,14.9-9.5,14.9C84.4,53.7,83.8,68.1,83.8,68.1z
		 M56.2,57.2h-14v20.3h14c0,0,14,0.7,14-10.6C70.2,67,70.6,57.1,56.2,57.2z M63.5,35.1c0,0,0.4-8.2-10.7-8.8H42.2v19.2h9.1
		C51.2,45.5,63.5,45.3,63.5,35.1z M179.5,26.2h-10.7v19.2h9.1c0,0,12.2-0.2,12.2-10.4C190.2,35.1,190.6,26.8,179.5,26.2z
		 M182.8,57.2h-14v20.3h14c0,0,14,0.7,14-10.6C196.8,67,197.2,57.1,182.8,57.2z M182.8,57.2h-14v20.3h14c0,0,14,0.7,14-10.6
		C196.8,67,197.2,57.1,182.8,57.2z M179.5,26.2h-10.7v19.2h9.1c0,0,12.2-0.2,12.2-10.4C190.2,35.1,190.6,26.8,179.5,26.2z
		 M179.5,26.2h-10.7v19.2h9.1c0,0,12.2-0.2,12.2-10.4C190.2,35.1,190.6,26.8,179.5,26.2z M182.8,57.2h-14v20.3h14
		c0,0,14,0.7,14-10.6C196.8,67,197.2,57.1,182.8,57.2z M182.8,57.2h-14v20.3h14c0,0,14,0.7,14-10.6C196.8,67,197.2,57.1,182.8,57.2z
		 M190.2,35.1c0,0,0.4-8.2-10.7-8.8h-10.7v19.2h9.1C177.9,45.5,190.2,45.3,190.2,35.1z M126.7,0.1v103.5h109.9V0.1H126.7z
		 M210.5,68.1c0,21.1-25,21-25,21h-29.9V14.7h26.1c23.5,2.1,22,19.9,22,19.9c0.1,10.8-9.5,14.9-9.5,14.9
		C211.1,53.7,210.5,68.1,210.5,68.1z M182.8,57.2h-14v20.3h14c0,0,14,0.7,14-10.6C196.8,67,197.2,57.1,182.8,57.2z M190.2,35.1
		c0,0,0.4-8.2-10.7-8.8h-10.7v19.2h9.1C177.9,45.5,190.2,45.3,190.2,35.1z M179.5,26.2h-10.7v19.2h9.1c0,0,12.2-0.2,12.2-10.4
		C190.2,35.1,190.6,26.8,179.5,26.2z M182.8,57.2h-14v20.3h14c0,0,14,0.7,14-10.6C196.8,67,197.2,57.1,182.8,57.2z M182.8,57.2h-14
		v20.3h14c0,0,14,0.7,14-10.6C196.8,67,197.2,57.1,182.8,57.2z M179.5,26.2h-10.7v19.2h9.1c0,0,12.2-0.2,12.2-10.4
		C190.2,35.1,190.6,26.8,179.5,26.2z M253.5,0.1v103.5h109.9V0.1H253.5z M341.6,83.2c0,0-22.6,13.4-48.8,3.1c0,0-22-8-22.8-34.4
		c0,0-0.9-27.1,28.4-36.1c0,0,7.8-3,21.9-1.7c0,0,8.4,0.8,20.6,5.9v13.8c0,0-13.4-8.2-28.2-8.4c0,0-27.7-0.5-28.9,26.5
		c0,0-1,24.9,28.6,26.3c0,0,12.4,1.5,29.2-9.2L341.6,83.2L341.6,83.2z"/>
	<g id="R_x26_D">
		<path id="path14" d="M429,54.1c2.3,0.8,4.5,2.4,6.6,5c2.2,2.5,4.4,6,6.5,10.4L452.9,91h-11.4l-10-20.2c-2.6-5.3-5.1-8.8-7.6-10.5
			c-2.4-1.7-5.7-2.6-10-2.6h-11.6V91h-10.6V12.2h24c9,0,15.7,1.9,20.1,5.6c4.4,3.8,6.6,9.4,6.6,17c0,5-1.2,9.1-3.5,12.3
			C436.8,50.5,433.4,52.8,429,54.1L429,54.1z M402.3,21v27.9h13.4c5.1,0,9-1.2,11.6-3.5c2.6-2.4,4-5.9,4-10.5s-1.3-8.1-4-10.4
			c-2.6-2.4-6.5-3.5-11.6-3.5"/>
		<path id="path16" d="M479.9,48.6c-3.2,2.8-5.6,5.7-7.1,8.5s-2.2,5.8-2.2,8.9c0,5.1,1.9,9.4,5.6,12.8s8.4,5.1,14,5.1
			c3.3,0,6.5-0.5,9.4-1.6s5.7-2.8,8.2-5.1L479.9,48.6z M487.3,42.7l26.8,27.4c2.1-3.1,3.7-6.5,4.9-10c1.2-3.6,1.8-7.4,2.1-11.4h9.8
			c-0.4,4.6-1.5,9.2-3.4,13.8c-1.8,4.5-4.4,9-7.6,13.4l14.7,15h-13.3l-7.5-7.8c-3.7,3.1-7.5,5.5-11.5,7s-8.3,2.3-12.9,2.3
			c-8.5,0-15.4-2.4-20.8-7.2c-5.4-4.9-8.1-11.1-8.1-18.6c0-4.5,1.2-8.7,3.5-12.7c2.4-4,5.9-7.7,10.6-11.2c-1.7-2.2-3-4.4-3.9-6.6
			c-0.9-2.2-1.3-4.4-1.3-6.5c0-5.7,2-10.3,5.9-13.7c3.9-3.5,9.1-5.2,15.6-5.2c2.9,0,5.8,0.3,8.7,0.9c2.9,0.6,5.9,1.6,8.9,2.8V24
			c-3.1-1.7-6-2.9-8.8-3.7c-2.8-0.9-5.4-1.3-7.8-1.3c-3.7,0-6.7,1-9,3c-2.3,1.9-3.4,4.4-3.4,7.5c0,1.8,0.5,3.6,1.5,5.4
			C482,36.9,484.1,39.4,487.3,42.7"/>
		<path id="path18" d="M556.5,21v61.2h12.9c10.9,0,18.8-2.5,23.8-7.4c5.1-4.9,7.6-12.7,7.6-23.3c0-10.5-2.5-18.3-7.6-23.2
			c-5-4.9-13-7.4-23.8-7.4h-12.9V21z M545.9,12.2h21.8c15.3,0,26.5,3.2,33.6,9.5S612,37.9,612,51.4c0,13.6-3.6,23.5-10.8,29.9
			s-18.4,9.5-33.5,9.5h-21.9"/>
	</g>
</g>
<g id="BBC_R_x26_D_black_1_" xmlns:svg="http://www.w3.org/2000/svg" class="st0">
	<path id="BBC_1_" class="st1" d="M52.8,26.2H42.2v19.2h9.1c0,0,12.2-0.2,12.2-10.4C63.5,35.1,63.9,26.8,52.8,26.2z M56.2,57.2h-14
		v20.3h14c0,0,14,0.7,14-10.6C70.2,67,70.6,57.1,56.2,57.2z M56.2,57.2h-14v20.3h14c0,0,14,0.7,14-10.6C70.2,67,70.6,57.1,56.2,57.2
		z M63.5,35.1c0,0,0.4-8.2-10.7-8.8H42.2v19.2h9.1C51.2,45.5,63.5,45.3,63.5,35.1z M0,0.1v103.5h109.9V0.1H0z M83.8,68.1
		c0,21.1-25,21-25,21H28.9V14.7H55c23.5,2.1,22.1,19.9,22.1,19.9c0.1,10.8-9.5,14.9-9.5,14.9C84.4,53.7,83.8,68.1,83.8,68.1z
		 M56.2,57.2h-14v20.3h14c0,0,14,0.7,14-10.6C70.2,67,70.6,57.1,56.2,57.2z M63.5,35.1c0,0,0.4-8.2-10.7-8.8H42.2v19.2h9.1
		C51.2,45.5,63.5,45.3,63.5,35.1z M179.5,26.2h-10.7v19.2h9.1c0,0,12.2-0.2,12.2-10.4C190.2,35.1,190.6,26.8,179.5,26.2z
		 M182.8,57.2h-14v20.3h14c0,0,14,0.7,14-10.6C196.8,67,197.2,57.1,182.8,57.2z M182.8,57.2h-14v20.3h14c0,0,14,0.7,14-10.6
		C196.8,67,197.2,57.1,182.8,57.2z M179.5,26.2h-10.7v19.2h9.1c0,0,12.2-0.2,12.2-10.4C190.2,35.1,190.6,26.8,179.5,26.2z
		 M179.5,26.2h-10.7v19.2h9.1c0,0,12.2-0.2,12.2-10.4C190.2,35.1,190.6,26.8,179.5,26.2z M182.8,57.2h-14v20.3h14
		c0,0,14,0.7,14-10.6C196.8,67,197.2,57.1,182.8,57.2z M182.8,57.2h-14v20.3h14c0,0,14,0.7,14-10.6C196.8,67,197.2,57.1,182.8,57.2z
		 M190.2,35.1c0,0,0.4-8.2-10.7-8.8h-10.7v19.2h9.1C177.9,45.5,190.2,45.3,190.2,35.1z M126.7,0.1v103.5h109.9V0.1H126.7z
		 M210.5,68.1c0,21.1-25,21-25,21h-29.9V14.7h26.1c23.5,2.1,22,19.9,22,19.9c0.1,10.8-9.5,14.9-9.5,14.9
		C211.1,53.7,210.5,68.1,210.5,68.1z M182.8,57.2h-14v20.3h14c0,0,14,0.7,14-10.6C196.8,67,197.2,57.1,182.8,57.2z M190.2,35.1
		c0,0,0.4-8.2-10.7-8.8h-10.7v19.2h9.1C177.9,45.5,190.2,45.3,190.2,35.1z M179.5,26.2h-10.7v19.2h9.1c0,0,12.2-0.2,12.2-10.4
		C190.2,35.1,190.6,26.8,179.5,26.2z M182.8,57.2h-14v20.3h14c0,0,14,0.7,14-10.6C196.8,67,197.2,57.1,182.8,57.2z M182.8,57.2h-14
		v20.3h14c0,0,14,0.7,14-10.6C196.8,67,197.2,57.1,182.8,57.2z M179.5,26.2h-10.7v19.2h9.1c0,0,12.2-0.2,12.2-10.4
		C190.2,35.1,190.6,26.8,179.5,26.2z M253.5,0.1v103.5h109.9V0.1H253.5z M341.6,83.2c0,0-22.6,13.4-48.8,3.1c0,0-22-8-22.8-34.4
		c0,0-0.9-27.1,28.4-36.1c0,0,7.8-3,21.9-1.7c0,0,8.4,0.8,20.6,5.9v13.8c0,0-13.4-8.2-28.2-8.4c0,0-27.7-0.5-28.9,26.5
		c0,0-1,24.9,28.6,26.3c0,0,12.4,1.5,29.2-9.2L341.6,83.2L341.6,83.2z"/>
	<g id="R_x26_D_1_" class="st2">
		<path id="path14_1_" class="st3" d="M429,54.1c2.3,0.8,4.5,2.4,6.6,5c2.2,2.5,4.4,6,6.5,10.4L452.9,91h-11.4l-10-20.2
			c-2.6-5.3-5.1-8.8-7.6-10.5c-2.4-1.7-5.7-2.6-10-2.6h-11.6V91h-10.6V12.2h24c9,0,15.7,1.9,20.1,5.6c4.4,3.8,6.6,9.4,6.6,17
			c0,5-1.2,9.1-3.5,12.3C436.8,50.5,433.4,52.8,429,54.1L429,54.1z M402.3,21v27.9h13.4c5.1,0,9-1.2,11.6-3.5c2.6-2.4,4-5.9,4-10.5
			s-1.3-8.1-4-10.4c-2.6-2.4-6.5-3.5-11.6-3.5"/>
		<path id="path16_1_" class="st3" d="M479.9,48.6c-3.2,2.8-5.6,5.7-7.1,8.5s-2.2,5.8-2.2,8.9c0,5.1,1.9,9.4,5.6,12.8
			s8.4,5.1,14,5.1c3.3,0,6.5-0.5,9.4-1.6s5.7-2.8,8.2-5.1L479.9,48.6z M487.3,42.7l26.8,27.4c2.1-3.1,3.7-6.5,4.9-10
			c1.2-3.6,1.8-7.4,2.1-11.4h9.8c-0.4,4.6-1.5,9.2-3.4,13.8c-1.8,4.5-4.4,9-7.6,13.4l14.7,15h-13.3l-7.5-7.8
			c-3.7,3.1-7.5,5.5-11.5,7s-8.3,2.3-12.9,2.3c-8.5,0-15.4-2.4-20.8-7.2c-5.4-4.9-8.1-11.1-8.1-18.6c0-4.5,1.2-8.7,3.5-12.7
			c2.4-4,5.9-7.7,10.6-11.2c-1.7-2.2-3-4.4-3.9-6.6c-0.9-2.2-1.3-4.4-1.3-6.5c0-5.7,2-10.3,5.9-13.7c3.9-3.5,9.1-5.2,15.6-5.2
			c2.9,0,5.8,0.3,8.7,0.9c2.9,0.6,5.9,1.6,8.9,2.8V24c-3.1-1.7-6-2.9-8.8-3.7c-2.8-0.9-5.4-1.3-7.8-1.3c-3.7,0-6.7,1-9,3
			c-2.3,1.9-3.4,4.4-3.4,7.5c0,1.8,0.5,3.6,1.5,5.4C482,36.9,484.1,39.4,487.3,42.7"/>
		<path id="path18_1_" class="st3" d="M556.5,21v61.2h12.9c10.9,0,18.8-2.5,23.8-7.4c5.1-4.9,7.6-12.7,7.6-23.3
			c0-10.5-2.5-18.3-7.6-23.2c-5-4.9-13-7.4-23.8-7.4h-12.9V21z M545.9,12.2h21.8c15.3,0,26.5,3.2,33.6,9.5S612,37.9,612,51.4
			c0,13.6-3.6,23.5-10.8,29.9s-18.4,9.5-33.5,9.5h-21.9"/>
	</g>
</g>
</svg>
