<?xml version="1.0" encoding="utf-8"?>
<!-- Generator: Adobe Illustrator 24.2.3, SVG Export Plug-In . SVG Version: 6.00 Build 0)  -->
<svg version="1.1" xmlns="http://www.w3.org/2000/svg" xmlns:xlink="http://www.w3.org/1999/xlink" x="0px" y="0px"
	 viewBox="0 0 208.1 112.2" style="enable-background:new 0 0 208.1 112.2;" xml:space="preserve">
<style type="text/css">
	.st0{display:none;}
	.st1{display:inline;}
</style>
<g id="cci_black">
	<g>
		<g>
			<path d="M111.2,90.9c0.9,0,1.9,0,2.9,0c0,0.4,0,0.7,0,1c0,5.4,0,10.7,0,16.1c0,1.3,0.4,1.6,1.6,1.6c1,0,1.3-0.4,1.3-1.5
				c0-2.4,0-4.7,0-7.1c0-3.3,0-6.6,0-10c0.9,0,1.8,0,2.7,0c0,0.3,0,0.6,0,0.9c0,5.3,0,10.6,0,15.8c0,2.2-1,3.6-2.6,4.2
				c-1.7,0.6-3.7,0.3-5-1.3c-0.5-0.6-0.7-1.4-1-2.1C111.2,102.7,111.2,96.8,111.2,90.9z"/>
			<path d="M125.4,98.9c0,4.2,0,8.5,0,12.8c-0.8,0-1.7,0-2.5,0c0-6.9,0-13.8,0-20.8c0.7,0,1.5,0,2.3,0c0.2,0,0.4,0.3,0.4,0.5
				c1.2,4.1,2.3,8.3,3.5,12.4c0,0.1,0.1,0.1,0.3,0.2c0-4.4,0-8.7,0-13.1c0.9,0,1.7,0,2.5,0c0,6.9,0,13.8,0,20.8c-0.8,0-1.5,0-2.3,0
				c-1.3-4.3-2.7-8.6-4.1-12.8C125.5,98.9,125.5,98.9,125.4,98.9z"/>
			<path d="M167.9,101.7c1.6,0.7,2.1,1.9,2,3.4c0,0.9,0,1.7,0,2.6c0.1,1.4,0.2,2.8,0.3,4.3c-0.5,0-1.2,0.1-1.8,0
				c-0.7-0.1-1.2-0.9-1.2-1.9c0-1.7,0-3.3,0-5c0-0.4-0.1-0.8-0.1-1.2c-0.1-0.8-0.5-1.1-1.3-1c-0.4,0-0.8,0-1.3,0c0,3,0,5.9,0,8.8
				c-1,0-1.9,0-2.9,0c0-6.9,0-13.8,0-20.8c2.1,0.1,4.3-0.4,6.3,0.4c1.2,0.4,1.8,1.5,1.8,2.7c0.1,1.8,0,3.6,0,5.4
				C169.7,100.5,169,101.2,167.9,101.7z M164.5,100.5c0.4,0,0.8,0,1.1,0c1.1,0,1.4-0.3,1.4-1.3c0-1.5,0-3.1,0-4.6
				c0-0.6-0.2-1.2-0.9-1.3c-0.5,0-1.1,0-1.6,0C164.5,95.8,164.5,98.1,164.5,100.5z"/>
			<path d="M180.7,97.2c-0.8,0-1.5,0-2.3,0c-0.1-1-0.1-2-0.3-3c-0.1-0.9-0.7-1.3-1.5-1.2c-0.8,0.1-1.3,0.7-1.4,1.5
				c-0.1,2,0.8,3.6,2,5.2c1.5,2.1,3.1,4.1,3.6,6.7c0.4,2,0.1,4.2-1.9,5.2c-1.6,0.9-3.3,0.8-4.8-0.2c-1.3-0.8-1.6-2.1-1.7-3.6
				c0-0.7,0-1.3,0-2c0.9,0,1.7,0,2.5,0c0.1,1,0.1,1.9,0.3,2.9c0.2,0.9,0.9,1.3,1.7,1.2c0.9-0.1,1.4-0.8,1.4-1.7
				c0.1-2.1-0.9-3.8-2.1-5.4c-1.3-1.9-2.7-3.7-3.3-5.9c-0.6-2-0.5-3.9,1.2-5.3c1.4-1.2,3-1.4,4.6-0.6c1.4,0.6,2.1,1.8,2.1,3.4
				C180.7,95.3,180.7,96.3,180.7,97.2z"/>
			<path d="M140.2,90.9c0.9,0,1.8,0,2.9,0c0.6,4.9,1.1,9.8,1.7,14.7c0.1,0,0.1,0,0.2,0c0.3-2.5,0.6-4.9,0.9-7.4
				c0.3-2.3,0.6-4.6,0.9-6.8c0-0.2,0.3-0.5,0.5-0.5c0.7-0.1,1.4,0,2.2,0c-0.1,1-0.2,2-0.4,3c-0.3,2-0.7,4-1,6
				c-0.3,2.1-0.7,4.1-1,6.2c-0.3,1.6-0.5,3.3-0.7,4.9c-0.1,0.5-0.2,0.8-0.8,0.8c-0.2,0-0.5,0-0.7,0c-1.5,0-1.5,0-1.7-1.5
				c-0.3-2.1-0.6-4.1-0.9-6.2c-0.3-1.7-0.6-3.4-0.8-5.1c-0.4-2.6-0.8-5.2-1.2-7.8C140.1,91.2,140.2,91.1,140.2,90.9z"/>
			<path d="M154.6,99.8c1,0,2,0,3,0c0,0.8,0,1.5,0,2.4c-1,0-1.9,0-2.9,0c0,2.4,0,4.8,0,7.2c1.3,0,2.7,0,4.2,0c0,0.8,0,1.6,0,2.4
				c-2.3,0-4.6,0-6.9,0c0-6.9,0-13.8,0-20.8c2.3,0,4.6,0,6.9,0c0,0.7,0,1.5,0,2.3c-1.4,0-2.7,0-4.2,0
				C154.6,95.5,154.6,97.6,154.6,99.8z"/>
			<path d="M204.7,111.8c-1,0-1.9,0-2.8,0c0-0.2-0.1-0.4-0.1-0.7c0-1.5-0.1-3,0-4.5c0.2-3-0.6-5.7-1.4-8.5c-0.6-2.4-1.2-4.8-1.8-7.2
				c0.9,0,1.8,0,2.8,0c0.6,3,1.3,6,1.9,8.9c0.1,0,0.1,0,0.2,0c0.6-3,1.3-5.9,1.9-8.9c0.9,0,1.8,0,2.7,0c-1.1,4.1-2.2,8.1-3.3,12.1
				c-0.1,0.3-0.1,0.6-0.1,0.9C204.7,106.5,204.7,109.1,204.7,111.8z"/>
			<path d="M191.7,93.5c-1.1,0-2,0-2.9,0c0-0.9,0-1.6,0-2.5c2.8,0,5.6,0,8.4,0c0,0.8,0,1.6,0,2.5c-0.8,0-1.7,0-2.7,0
				c0,6.2,0,12.2,0,18.3c-1,0-1.9,0-2.9,0C191.7,105.7,191.7,99.7,191.7,93.5z"/>
			<path d="M135.1,90.9c0.9,0,1.8,0,2.8,0c0,6.9,0,13.9,0,20.8c-0.9,0-1.8,0-2.8,0C135.1,104.8,135.1,97.9,135.1,90.9z"/>
			<path d="M186.5,111.8c-0.9,0-1.8,0-2.8,0c0-6.9,0-13.9,0-20.8c0.9,0,1.8,0,2.8,0C186.5,97.9,186.5,104.8,186.5,111.8z"/>
		</g>
		<g>
			<path d="M0,112.3c0-7.2,0-14.4,0-21.6c1.9,0,3.9-0.3,5.8,0.1c2,0.3,2.4,1.3,2.7,3.6c0.1,1.5-0.1,3-0.1,4.5c0,1.1-0.6,1.9-1.5,2.2
				c0.5,0.8,1.1,1.5,1.5,2.4c0.2,0.5,0.1,1.2,0.1,1.8c0,1.3,0,2.7-0.2,4c-0.3,2-1.2,2.8-3.3,3c-1.4,0.1-2.8,0-4.2,0
				C0.6,112.3,0.3,112.3,0,112.3z M3,102.3c0,2.5,0,4.9,0,7.4c0.5,0,0.9,0,1.3,0c1.1,0,1.2-0.1,1.2-1.2c0-1.5,0-3.1,0-4.6
				c0-1.2-0.3-1.6-1.6-1.6C3.6,102.3,3.3,102.3,3,102.3z M2.9,100.1c0.6,0,1,0,1.5,0c0.7,0,1.1-0.3,1.1-1c0-1.7,0-3.3,0-5
				c0-0.4-0.5-0.9-0.8-1c-0.5-0.2-1.1,0-1.7,0C2.9,95.4,2.9,97.7,2.9,100.1z"/>
			<path d="M11.2,101.4c0-2.2,0-4.4,0-6.7c0-2.4,1.4-4.2,3.8-4.5c2.3-0.3,4.1,0.6,5,3c0.2,0.5,0.3,1.1,0.3,1.6c0,4.3,0.1,8.6,0,13
				c0,2.1-0.8,3.8-3,4.5c-3,0.8-5.8-0.5-6-3.9C11.1,106.1,11.2,103.8,11.2,101.4z M14.2,101.5c0,2.3,0,4.5,0,6.8
				c0,1,0.5,1.6,1.4,1.7c1.3,0.1,1.7-0.6,1.7-1.6c0.1-4.6,0-9.2,0-13.9c0-0.5-0.4-1.2-0.8-1.4c-1.3-0.7-2.3,0-2.3,1.5
				C14.2,96.9,14.2,99.2,14.2,101.5z"/>
			<path d="M85,112.3c-1,0-2,0-3,0c-0.1-1.4-0.3-2.8-0.4-4.2c-1,0-1.9,0-2.9,0c-0.2,1.4-0.3,2.7-0.5,4.1c-0.8,0-1.7,0-2.6,0
				c1-7.2,2.1-14.3,3.1-21.5c1.1,0,2.1,0,3.3,0C82.9,97.8,83.9,105,85,112.3z M80.3,96.2c-0.1,0-0.2,0-0.2,0
				c-0.4,3.1-0.7,6.1-1.1,9.2c0.7,0,1.4,0,2.2,0C80.9,102.3,80.6,99.2,80.3,96.2z"/>
			<path d="M55.3,106c1,0,1.8,0,2.8,0c0,0.8,0,1.6,0,2.5c-0.1,1.2,0.5,1.7,1.5,1.7c1,0,1.8-0.4,1.8-1.7c0.1-1.6-0.5-3-1.3-4.4
				c-1.3-2-2.6-3.9-3.7-6c-1-1.8-1.3-3.8-0.3-5.8c0.8-1.6,3-2.6,4.7-2.1c2.1,0.5,3.2,1.9,3.2,3.9c0,0.9,0,1.8,0,2.8
				c-0.9,0-1.7,0-2.6,0c0-0.9,0-1.7,0-2.6c0-0.7-0.1-1.4-0.8-1.6c-0.5-0.1-1.2-0.1-1.6,0.2c-0.7,0.4-0.8,1.2-0.7,1.9
				c0.2,2.5,1.9,4.3,3.2,6.2c1.5,2.2,2.8,4.4,2.7,7.2c-0.1,2.4-1.9,4.1-4.2,4.2c-3.2,0.2-4.7-1.9-4.7-4.7
				C55.3,107.2,55.3,106.7,55.3,106z"/>
			<path d="M29.2,106c0.9,0,1.7,0,2.6,0c0,0.8,0,1.6,0,2.4c0.1,1.6,1.4,2.3,2.7,1.5c0.3-0.2,0.6-0.8,0.6-1.2c0.2-2-0.6-3.6-1.7-5.2
				c-1.2-1.8-2.4-3.6-3.4-5.5c-1-1.9-1.2-4,0.1-6c1-1.6,3.3-1.9,4.6-1.6c2.2,0.5,3.1,2.2,3.1,4.2c0,0.8,0,1.6,0,2.5
				c-0.8,0-1.6,0-2.6,0c0-0.8,0-1.7,0-2.5c-0.1-1.4-1.1-2.2-2.3-1.6c-0.4,0.2-0.8,0.8-0.8,1.2c-0.3,2.1,0.7,3.7,1.9,5.3
				c1.3,1.8,2.7,3.6,3.5,5.8c0.8,2.3,0.7,4.8-1.1,6.3c-1.5,1.2-3.2,1.2-4.9,0.6c-1.6-0.6-2.4-1.9-2.4-3.6
				C29.2,107.7,29.2,106.9,29.2,106z"/>
			<path d="M102.9,102.3c-1,0-2,0-3,0c0,2.5,0,4.9,0,7.4c1.4,0,2.9,0,4.3,0c0,0.9,0,1.7,0,2.5c-2.4,0-4.8,0-7.3,0
				c0-7.2,0-14.3,0-21.5c2.4,0,4.8,0,7.3,0c0,0.8,0,1.5,0,2.3c-1.4,0-2.9,0-4.3,0c0,2.3,0,4.5,0,6.8c1,0,2,0,3,0
				C102.9,100.7,102.9,101.5,102.9,102.3z"/>
			<path d="M48.2,109.7c0,0.9,0,1.7,0,2.5c-2.4,0-4.8,0-7.3,0c0-7.2,0-14.3,0-21.5c2.4,0,4.8,0,7.3,0c0,0.8,0,1.5,0,2.3
				c-1.4,0-2.8,0-4.3,0c0,2.3,0,4.5,0,6.9c0.9,0,1.9,0,2.8,0c0,0.8,0,1.6,0,2.4c-0.9,0-1.9,0-2.9,0c0,2.5,0,4.9,0,7.4
				C45.2,109.7,46.7,109.7,48.2,109.7z"/>
			<path d="M88.6,93.2c-1,0-1.9,0-2.8,0c0-0.9,0-1.6,0-2.5c2.8,0,5.7,0,8.6,0c0,0.8,0,1.6,0,2.5c-0.9,0-1.9,0-2.9,0
				c0,6.4,0,12.7,0,19.1c-1,0-1.9,0-2.9,0C88.6,105.9,88.6,99.6,88.6,93.2z"/>
			<path d="M74.7,90.7c0,0.8,0,1.6,0,2.5c-0.9,0-1.8,0-2.7,0c0,6.4,0,12.7,0,19.1c-1,0-1.9,0-2.9,0c0-6.3,0-12.6,0-19c-1,0-2,0-3,0
				c0-0.9,0-1.7,0-2.5C68.9,90.7,71.7,90.7,74.7,90.7z"/>
			<path d="M26.3,112.2c-1,0-1.9,0-2.8,0c0-7.2,0-14.4,0-21.6c0.9,0,1.8,0,2.8,0C26.3,97.8,26.3,105,26.3,112.2z"/>
		</g>
	</g>
	<g>
		<path d="M14.1,0c0.8,0.2,1.6,0.3,2.4,0.5c3.1,0.8,5.1,2.7,6.3,5.6c0.8,1.9,1.2,4,1.2,6.1c0,5.5,0.1,11,0.1,16.5c0,0,0,0,0,0.1
			c-2.6,0-5.1,0-7.8,0c0-0.2,0-0.4,0-0.7c0-4.8,0-9.6,0-14.4c0-0.7-0.2-1.5-0.3-2.2c-0.3-1.2-1-1.9-2.2-2.1c-1-0.2-1.9-0.2-2.9,0.2
			c-1.1,0.5-1.6,1.5-1.8,2.6c-0.1,0.5-0.1,1.1-0.1,1.7c0,19.3,0,38.5,0,57.8c0,0.7,0.2,1.5,0.4,2.1c0.4,1,1.2,1.7,2.2,1.9
			c1.7,0.4,3.4-0.1,4-1.5c0.4-0.9,0.6-1.9,0.7-2.9c0.1-5.6,0-11.2,0-16.9c0-0.2,0-0.5,0-0.8c2.6,0,5.2,0,7.9,0c0,0.2,0,0.4,0,0.6
			c0,5.9,0,11.8,0,17.6c0,2.7-0.4,5.4-1.6,7.8c-1.3,2.6-3.4,4.2-6.2,4.8c-2,0.5-4,0.4-6,0.2c-1.9-0.2-3.8-0.8-5.4-1.8
			c-2.3-1.6-3.6-3.8-4.3-6.5c-0.3-1.1-0.3-2.2-0.5-3.2c0-0.1-0.1-0.1-0.1-0.2c0-20.3,0-40.6,0-60.9c0-0.1,0.1-0.1,0.1-0.2
			c0.1-0.9,0.2-1.9,0.4-2.8c0.4-2.3,1.4-4.3,3-6C5,1.7,6.9,0.8,9,0.4C9.6,0.2,10.3,0.1,11,0C12,0,13,0,14.1,0z"/>
		<path d="M42.4,0c0.8,0.2,1.6,0.3,2.4,0.5c3.1,0.8,5.1,2.7,6.3,5.6c0.9,2,1.2,4.2,1.2,6.4c0,5.4,0.1,10.7,0.1,16.1
			c0,0.1,0,0.1,0,0.2c-2.6,0-5.2,0-7.8,0c0-0.2,0-0.5,0-0.7c0-4.8,0-9.5,0-14.3c0-0.8-0.2-1.6-0.4-2.3c-0.3-1.3-1.2-2-2.4-2.2
			c-0.7-0.1-1.5,0-2.3,0.2c-1.3,0.3-1.9,1.4-2.2,2.6c-0.1,0.5-0.1,1.1-0.1,1.6c0,19.4,0,38.8,0,58.2c0,1.4,0.4,2.7,1.7,3.5
			c1.2,0.8,4.1,0.8,5-1c0.3-0.5,0.5-1.1,0.6-1.7c0.1-0.6,0.1-1.2,0.1-1.8c0-5.5,0-10.9,0-16.4c0-0.2,0-0.5,0-0.8c2.6,0,5.2,0,7.9,0
			c0,0.2,0,0.4,0,0.6c0,5.7,0.1,11.4,0,17.1c0,2.4-0.3,4.8-1.2,7.1c-1.2,3.2-3.4,5.2-6.7,6c-2,0.5-4,0.4-6,0.2
			c-1.9-0.2-3.7-0.7-5.3-1.8c-2.2-1.4-3.5-3.5-4.2-6c-0.3-1.1-0.5-2.2-0.6-3.4c-0.1-1.8-0.1-3.5-0.1-5.3c0-18.6,0-37.1,0-55.7
			c0-3.3,0.8-6.4,2.9-9c1.4-1.7,3.3-2.8,5.5-3.3c0.9-0.2,1.7-0.3,2.6-0.5C40.4,0,41.4,0,42.4,0z"/>
		<path d="M68.5,9.7c-0.7,0-1.3,0-2,0c0,16.5,0,33,0,49.5c0.6,0,1.3,0,2,0c0,3,0,6,0,8.9c-4.2,0-8.4,0-12.6,0c0-2.9,0-5.9,0-8.9
			c0.6,0,1.3,0,2,0c0-16.5,0-33,0-49.5c-0.7,0-1.3,0-2,0c0-3,0-5.9,0-8.8c4.2,0,8.4,0,12.6,0C68.5,3.8,68.5,6.7,68.5,9.7z"/>
		<path d="M66.5,74.2c0,3.2,0,6.4,0,9.6c-2.8,0-5.7,0-8.5,0c0-3.2,0-6.4,0-9.6C60.8,74.2,63.6,74.2,66.5,74.2z"/>
	</g>
	<g>
		<path d="M77.1,0.6c43.6,0,87.3,0,131,0c0,28,0,55.9,0,84c-43.7,0-87.4,0-131,0C77.1,56.6,77.1,28.6,77.1,0.6z M109.2,12.5
			c0,20.9,0,41.7,0,62.5c1.9,0,3.7,0,5.6,0c0-9.5,0-18.8,0-28.2c1.4,0,2.8,0,4.1,0c1.4,9.4,2.7,18.8,4.1,28.3c1.9,0,3.9,0,6,0
			c-0.1-0.8-0.2-1.6-0.3-2.3c-0.4-2.8-0.8-5.7-1.2-8.5c-0.4-2.6-0.9-5.1-1.3-7.6c-0.6-3.3-1.2-6.7-1.8-10c-0.1-0.7-0.1-1.2,0.6-1.6
			c2.6-1.8,3.4-4.6,3.5-7.6c0.1-5.1,0.1-10.2,0-15.2c0-1.6-0.4-3.2-0.9-4.7c-1.2-3.4-4.1-4.8-7.5-5
			C116.4,12.3,112.9,12.5,109.2,12.5z M156.1,52.1c0,4.3,0,8.5,0,12.8c0,1.4,0.2,2.9,0.5,4.3c0.6,3.2,2.4,5.4,5.7,6.2
			c2.1,0.5,4.2,0.5,6.3,0c2.5-0.6,4.3-2.1,5.1-4.5c0.6-1.7,0.9-3.6,0.9-5.5c0.1-3.3,0.1-6.6,0-9.9c0-1.3-0.2-2.6-0.3-3.9
			c-0.4-3-2.2-5.2-4.1-7.3c-2.1-2.4-4.3-4.8-6.5-7.2c-0.9-1.1-1.9-2.3-1.9-3.8c-0.1-4,0-8,0-12c0-1.7,1.2-3.1,2.5-3.4
			c1.6-0.4,3.3,0.2,4,1.6c0.4,0.8,0.6,1.8,0.7,2.7c0.1,3.4,0,6.8,0,10.2c0,0.4,0,0.8,0,1.2c1.9,0,3.6,0,5.4,0c0-2.8,0.1-5.6,0-8.4
			c-0.1-2.5-0.1-4.9-0.5-7.3c-0.3-2.3-1.5-4.2-3.7-5.2c-2.4-1.1-4.9-1.2-7.4-0.7c-2.9,0.5-5.1,2.1-5.9,5c-0.5,1.8-0.8,3.6-0.9,5.5
			c-0.1,3.2-0.1,6.4,0,9.5c0,1.3,0.2,2.7,0.4,4c0.4,2.7,2.2,4.5,3.9,6.4c2.2,2.5,4.4,4.9,6.6,7.4c1,1.2,1.9,2.5,1.9,4.1
			c0,4.3,0,8.5,0,12.8c0,2-2.1,3.5-4,3.1c-2-0.4-3.1-1.4-3.1-4.1c-0.1-4.1,0-8.2,0-12.3c0-0.4,0-0.8,0-1.3
			C159.8,52.1,158,52.1,156.1,52.1z M181,52.1c0,3.7-0.1,7.2,0,10.7c0,2.1,0.1,4.2,0.5,6.2c0.5,3.1,2.2,5.4,5.3,6.3
			c2.2,0.7,4.4,0.7,6.7,0.1c2.3-0.6,4.2-1.8,5-4.1c0.6-1.7,1.1-3.5,1.1-5.3c0.1-4.1-0.2-8.3-0.1-12.4c0.1-3.7-1.6-6.5-4-9.1
			c-2.3-2.5-4.5-4.9-6.7-7.4c-1-1.2-1.9-2.5-1.9-4.1c0-3.8-0.1-7.7,0-11.5c0-1.9,0.7-2.8,2.1-3.3c2.7-0.9,5,0.3,5,3.7
			c0.1,3.5,0,7.1,0,10.6c0,0.4,0,0.8,0,1.2c1.9,0,3.6,0,5.4,0c0-2.5,0-5,0-7.4c0-2.4,0-4.9-0.3-7.3c-0.3-3-1.6-5.5-4.7-6.5
			c-2.1-0.7-4.3-0.8-6.6-0.3c-2.9,0.6-5.1,2.1-5.9,5c-0.5,2-0.8,4.1-0.9,6.2c-0.1,3.7,0.1,7.5,0.2,11.2c0,1.7,0.4,3.4,1.5,4.7
			c2.6,3.1,5.2,6.2,8,9.2c2.1,2.2,3.3,4.7,3.3,7.8c0,3.4-0.2,6.9-0.2,10.3c0,2.9-3,4.2-5.3,3c-1.5-0.8-1.9-2.2-1.9-3.6
			c-0.1-4.1,0-8.3,0-12.4c0-0.4,0-0.8,0-1.2C184.6,52.1,182.9,52.1,181,52.1z M85,12.5c0,20.9,0,41.7,0,62.5c1.9,0,3.7,0,5.6,0
			c0-9.8,0-19.6,0-29.4c1.9-0.1,3.7-0.2,5.5-0.3c3-0.3,5.4-1.4,6.8-4.2c1-2,1.3-4.2,1.3-6.4c0-4.4,0-8.9-0.2-13.3
			c-0.3-5.5-3.1-8.3-8.2-8.8C92.3,12.2,88.7,12.5,85,12.5z M141.3,18.5c3.4,0,6.6,0,9.9,0c0-2,0-4,0-6c-5.2,0-10.3,0-15.4,0
			c0,20.9,0,41.7,0,62.5c5.3,0,10.6,0,15.9,0c0-1.9,0-3.8,0-5.8c-3.5,0-6.9,0-10.3,0c0-7.7,0-15.3,0-23c2.3,0,4.6,0,6.8,0
			c0-2.1,0-4,0-6.1c-2.3,0-4.6,0-6.8,0C141.3,32.9,141.3,25.8,141.3,18.5z"/>
		<path d="M114.8,41.3c0-7.7,0-15.2,0-22.8c1.6,0,3.1-0.1,4.7,0c1.7,0.1,3.1,1.6,3.1,3.4c0.2,4.8,0.2,9.6,0.3,14.5
			c0,0.6-0.1,1.3-0.3,1.9c-0.3,1.6-1.7,2.9-3.5,3C117.7,41.4,116.3,41.3,114.8,41.3z"/>
		<path d="M90.6,18.4c1.8,0.1,3.5,0.2,5.1,0.3c1.3,0.1,2,1,2.4,2.2c0.3,0.9,0.5,1.9,0.5,2.8c0.1,3.7,0.1,7.4,0,11
			c0,1.6-0.4,3.4-2,4.2c-0.9,0.5-2,0.6-3.1,0.7c-1,0.1-1.9,0-3,0C90.6,32.6,90.6,25.6,90.6,18.4z"/>
	</g>
</g>
<g id="cci_white" class="st0">
	<g class="st1">
		<g>
			<path class="st2" d="M111.2,90.9c0.9,0,1.9,0,2.9,0c0,0.4,0,0.7,0,1c0,5.4,0,10.7,0,16.1c0,1.3,0.4,1.6,1.6,1.6
				c1,0,1.3-0.4,1.3-1.5c0-2.4,0-4.7,0-7.1c0-3.3,0-6.6,0-10c0.9,0,1.8,0,2.7,0c0,0.3,0,0.6,0,0.9c0,5.3,0,10.6,0,15.8
				c0,2.2-1,3.6-2.6,4.2c-1.7,0.6-3.7,0.3-5-1.3c-0.5-0.6-0.7-1.4-1-2.1C111.2,102.7,111.2,96.8,111.2,90.9z"/>
			<path class="st2" d="M125.4,98.9c0,4.2,0,8.5,0,12.8c-0.8,0-1.7,0-2.5,0c0-6.9,0-13.8,0-20.8c0.7,0,1.5,0,2.3,0
				c0.2,0,0.4,0.3,0.4,0.5c1.2,4.1,2.3,8.3,3.5,12.4c0,0.1,0.1,0.1,0.3,0.2c0-4.4,0-8.7,0-13.1c0.9,0,1.7,0,2.5,0
				c0,6.9,0,13.8,0,20.8c-0.8,0-1.5,0-2.3,0c-1.3-4.3-2.7-8.6-4.1-12.8C125.5,98.9,125.5,98.9,125.4,98.9z"/>
			<path class="st2" d="M167.9,101.7c1.6,0.7,2.1,1.9,2,3.4c0,0.9,0,1.7,0,2.6c0.1,1.4,0.2,2.8,0.3,4.3c-0.5,0-1.2,0.1-1.8,0
				c-0.7-0.1-1.2-0.9-1.2-1.9c0-1.7,0-3.3,0-5c0-0.4-0.1-0.8-0.1-1.2c-0.1-0.8-0.5-1.1-1.3-1c-0.4,0-0.8,0-1.3,0c0,3,0,5.9,0,8.8
				c-1,0-1.9,0-2.9,0c0-6.9,0-13.8,0-20.8c2.1,0.1,4.3-0.4,6.3,0.4c1.2,0.4,1.8,1.5,1.8,2.7c0.1,1.8,0,3.6,0,5.4
				C169.7,100.5,169,101.2,167.9,101.7z M164.5,100.5c0.4,0,0.8,0,1.1,0c1.1,0,1.4-0.3,1.4-1.3c0-1.5,0-3.1,0-4.6
				c0-0.6-0.2-1.2-0.9-1.3c-0.5,0-1.1,0-1.6,0C164.5,95.8,164.5,98.1,164.5,100.5z"/>
			<path class="st2" d="M180.7,97.2c-0.8,0-1.5,0-2.3,0c-0.1-1-0.1-2-0.3-3c-0.1-0.9-0.7-1.3-1.5-1.2c-0.8,0.1-1.3,0.7-1.4,1.5
				c-0.1,2,0.8,3.6,2,5.2c1.5,2.1,3.1,4.1,3.6,6.7c0.4,2,0.1,4.2-1.9,5.2c-1.6,0.9-3.3,0.8-4.8-0.2c-1.3-0.8-1.6-2.1-1.7-3.6
				c0-0.7,0-1.3,0-2c0.9,0,1.7,0,2.5,0c0.1,1,0.1,1.9,0.3,2.9c0.2,0.9,0.9,1.3,1.7,1.2c0.9-0.1,1.4-0.8,1.4-1.7
				c0.1-2.1-0.9-3.8-2.1-5.4c-1.3-1.9-2.7-3.7-3.3-5.9c-0.6-2-0.5-3.9,1.2-5.3c1.4-1.2,3-1.4,4.6-0.6c1.4,0.6,2.1,1.8,2.1,3.4
				C180.7,95.3,180.7,96.3,180.7,97.2z"/>
			<path class="st2" d="M140.2,90.9c0.9,0,1.8,0,2.9,0c0.6,4.9,1.1,9.8,1.7,14.7c0.1,0,0.1,0,0.2,0c0.3-2.5,0.6-4.9,0.9-7.4
				c0.3-2.3,0.6-4.6,0.9-6.8c0-0.2,0.3-0.5,0.5-0.5c0.7-0.1,1.4,0,2.2,0c-0.1,1-0.2,2-0.4,3c-0.3,2-0.7,4-1,6
				c-0.3,2.1-0.7,4.1-1,6.2c-0.3,1.6-0.5,3.3-0.7,4.9c-0.1,0.5-0.2,0.8-0.8,0.8c-0.2,0-0.5,0-0.7,0c-1.5,0-1.5,0-1.7-1.5
				c-0.3-2.1-0.6-4.1-0.9-6.2c-0.3-1.7-0.6-3.4-0.8-5.1c-0.4-2.6-0.8-5.2-1.2-7.8C140.1,91.2,140.2,91.1,140.2,90.9z"/>
			<path class="st2" d="M154.6,99.8c1,0,2,0,3,0c0,0.8,0,1.5,0,2.4c-1,0-1.9,0-2.9,0c0,2.4,0,4.8,0,7.2c1.3,0,2.7,0,4.2,0
				c0,0.8,0,1.6,0,2.4c-2.3,0-4.6,0-6.9,0c0-6.9,0-13.8,0-20.8c2.3,0,4.6,0,6.9,0c0,0.7,0,1.5,0,2.3c-1.4,0-2.7,0-4.2,0
				C154.6,95.5,154.6,97.6,154.6,99.8z"/>
			<path class="st2" d="M204.7,111.8c-1,0-1.9,0-2.8,0c0-0.2-0.1-0.4-0.1-0.7c0-1.5-0.1-3,0-4.5c0.2-3-0.6-5.7-1.4-8.5
				c-0.6-2.4-1.2-4.8-1.8-7.2c0.9,0,1.8,0,2.8,0c0.6,3,1.3,6,1.9,8.9c0.1,0,0.1,0,0.2,0c0.6-3,1.3-5.9,1.9-8.9c0.9,0,1.8,0,2.7,0
				c-1.1,4.1-2.2,8.1-3.3,12.1c-0.1,0.3-0.1,0.6-0.1,0.9C204.7,106.5,204.7,109.1,204.7,111.8z"/>
			<path class="st2" d="M191.7,93.5c-1.1,0-2,0-2.9,0c0-0.9,0-1.6,0-2.5c2.8,0,5.6,0,8.4,0c0,0.8,0,1.6,0,2.5c-0.8,0-1.7,0-2.7,0
				c0,6.2,0,12.2,0,18.3c-1,0-1.9,0-2.9,0C191.7,105.7,191.7,99.7,191.7,93.5z"/>
			<path class="st2" d="M135.1,90.9c0.9,0,1.8,0,2.8,0c0,6.9,0,13.9,0,20.8c-0.9,0-1.8,0-2.8,0C135.1,104.8,135.1,97.9,135.1,90.9z"
				/>
			<path class="st2" d="M186.5,111.8c-0.9,0-1.8,0-2.8,0c0-6.9,0-13.9,0-20.8c0.9,0,1.8,0,2.8,0C186.5,97.9,186.5,104.8,186.5,111.8
				z"/>
		</g>
		<g>
			<path class="st2" d="M0,112.3c0-7.2,0-14.4,0-21.6c1.9,0,3.9-0.3,5.8,0.1c2,0.3,2.4,1.3,2.7,3.6c0.1,1.5-0.1,3-0.1,4.5
				c0,1.1-0.6,1.9-1.5,2.2c0.5,0.8,1.1,1.5,1.5,2.4c0.2,0.5,0.1,1.2,0.1,1.8c0,1.3,0,2.7-0.2,4c-0.3,2-1.2,2.8-3.3,3
				c-1.4,0.1-2.8,0-4.2,0C0.6,112.3,0.3,112.3,0,112.3z M3,102.3c0,2.5,0,4.9,0,7.4c0.5,0,0.9,0,1.3,0c1.1,0,1.2-0.1,1.2-1.2
				c0-1.5,0-3.1,0-4.6c0-1.2-0.3-1.6-1.6-1.6C3.6,102.3,3.3,102.3,3,102.3z M2.9,100.1c0.6,0,1,0,1.5,0c0.7,0,1.1-0.3,1.1-1
				c0-1.7,0-3.3,0-5c0-0.4-0.5-0.9-0.8-1c-0.5-0.2-1.1,0-1.7,0C2.9,95.4,2.9,97.7,2.9,100.1z"/>
			<path class="st2" d="M11.2,101.4c0-2.2,0-4.4,0-6.7c0-2.4,1.4-4.2,3.8-4.5c2.3-0.3,4.1,0.6,5,3c0.2,0.5,0.3,1.1,0.3,1.6
				c0,4.3,0.1,8.6,0,13c0,2.1-0.8,3.8-3,4.5c-3,0.8-5.8-0.5-6-3.9C11.1,106.1,11.2,103.8,11.2,101.4z M14.2,101.5c0,2.3,0,4.5,0,6.8
				c0,1,0.5,1.6,1.4,1.7c1.3,0.1,1.7-0.6,1.7-1.6c0.1-4.6,0-9.2,0-13.9c0-0.5-0.4-1.2-0.8-1.4c-1.3-0.7-2.3,0-2.3,1.5
				C14.2,96.9,14.2,99.2,14.2,101.5z"/>
			<path class="st2" d="M85,112.3c-1,0-2,0-3,0c-0.1-1.4-0.3-2.8-0.4-4.2c-1,0-1.9,0-2.9,0c-0.2,1.4-0.3,2.7-0.5,4.1
				c-0.8,0-1.7,0-2.6,0c1-7.2,2.1-14.3,3.1-21.5c1.1,0,2.1,0,3.3,0C82.9,97.8,83.9,105,85,112.3z M80.3,96.2c-0.1,0-0.2,0-0.2,0
				c-0.4,3.1-0.7,6.1-1.1,9.2c0.7,0,1.4,0,2.2,0C80.9,102.3,80.6,99.2,80.3,96.2z"/>
			<path class="st2" d="M55.3,106c1,0,1.8,0,2.8,0c0,0.8,0,1.6,0,2.5c-0.1,1.2,0.5,1.7,1.5,1.7c1,0,1.8-0.4,1.8-1.7
				c0.1-1.6-0.5-3-1.3-4.4c-1.3-2-2.6-3.9-3.7-6c-1-1.8-1.3-3.8-0.3-5.8c0.8-1.6,3-2.6,4.7-2.1c2.1,0.5,3.2,1.9,3.2,3.9
				c0,0.9,0,1.8,0,2.8c-0.9,0-1.7,0-2.6,0c0-0.9,0-1.7,0-2.6c0-0.7-0.1-1.4-0.8-1.6c-0.5-0.1-1.2-0.1-1.6,0.2
				c-0.7,0.4-0.8,1.2-0.7,1.9c0.2,2.5,1.9,4.3,3.2,6.2c1.5,2.2,2.8,4.4,2.7,7.2c-0.1,2.4-1.9,4.1-4.2,4.2c-3.2,0.2-4.7-1.9-4.7-4.7
				C55.3,107.2,55.3,106.7,55.3,106z"/>
			<path class="st2" d="M29.2,106c0.9,0,1.7,0,2.6,0c0,0.8,0,1.6,0,2.4c0.1,1.6,1.4,2.3,2.7,1.5c0.3-0.2,0.6-0.8,0.6-1.2
				c0.2-2-0.6-3.6-1.7-5.2c-1.2-1.8-2.4-3.6-3.4-5.5c-1-1.9-1.2-4,0.1-6c1-1.6,3.3-1.9,4.6-1.6c2.2,0.5,3.1,2.2,3.1,4.2
				c0,0.8,0,1.6,0,2.5c-0.8,0-1.6,0-2.6,0c0-0.8,0-1.7,0-2.5c-0.1-1.4-1.1-2.2-2.3-1.6c-0.4,0.2-0.8,0.8-0.8,1.2
				c-0.3,2.1,0.7,3.7,1.9,5.3c1.3,1.8,2.7,3.6,3.5,5.8c0.8,2.3,0.7,4.8-1.1,6.3c-1.5,1.2-3.2,1.2-4.9,0.6c-1.6-0.6-2.4-1.9-2.4-3.6
				C29.2,107.7,29.2,106.9,29.2,106z"/>
			<path class="st2" d="M102.9,102.3c-1,0-2,0-3,0c0,2.5,0,4.9,0,7.4c1.4,0,2.9,0,4.3,0c0,0.9,0,1.7,0,2.5c-2.4,0-4.8,0-7.3,0
				c0-7.2,0-14.3,0-21.5c2.4,0,4.8,0,7.3,0c0,0.8,0,1.5,0,2.3c-1.4,0-2.9,0-4.3,0c0,2.3,0,4.5,0,6.8c1,0,2,0,3,0
				C102.9,100.7,102.9,101.5,102.9,102.3z"/>
			<path class="st2" d="M48.2,109.7c0,0.9,0,1.7,0,2.5c-2.4,0-4.8,0-7.3,0c0-7.2,0-14.3,0-21.5c2.4,0,4.8,0,7.3,0c0,0.8,0,1.5,0,2.3
				c-1.4,0-2.8,0-4.3,0c0,2.3,0,4.5,0,6.9c0.9,0,1.9,0,2.8,0c0,0.8,0,1.6,0,2.4c-0.9,0-1.9,0-2.9,0c0,2.5,0,4.9,0,7.4
				C45.2,109.7,46.7,109.7,48.2,109.7z"/>
			<path class="st2" d="M88.6,93.2c-1,0-1.9,0-2.8,0c0-0.9,0-1.6,0-2.5c2.8,0,5.7,0,8.6,0c0,0.8,0,1.6,0,2.5c-0.9,0-1.9,0-2.9,0
				c0,6.4,0,12.7,0,19.1c-1,0-1.9,0-2.9,0C88.6,105.9,88.6,99.6,88.6,93.2z"/>
			<path class="st2" d="M74.7,90.7c0,0.8,0,1.6,0,2.5c-0.9,0-1.8,0-2.7,0c0,6.4,0,12.7,0,19.1c-1,0-1.9,0-2.9,0c0-6.3,0-12.6,0-19
				c-1,0-2,0-3,0c0-0.9,0-1.7,0-2.5C68.9,90.7,71.7,90.7,74.7,90.7z"/>
			<path class="st2" d="M26.3,112.2c-1,0-1.9,0-2.8,0c0-7.2,0-14.4,0-21.6c0.9,0,1.8,0,2.8,0C26.3,97.8,26.3,105,26.3,112.2z"/>
		</g>
	</g>
	<g class="st1">
		<path class="st2" d="M14.1,0c0.8,0.2,1.6,0.3,2.4,0.5c3.1,0.8,5.1,2.7,6.3,5.6c0.8,1.9,1.2,4,1.2,6.1c0,5.5,0.1,11,0.1,16.5
			c0,0,0,0,0,0.1c-2.6,0-5.1,0-7.8,0c0-0.2,0-0.4,0-0.7c0-4.8,0-9.6,0-14.4c0-0.7-0.2-1.5-0.3-2.2c-0.3-1.2-1-1.9-2.2-2.1
			c-1-0.2-1.9-0.2-2.9,0.2c-1.1,0.5-1.6,1.5-1.8,2.6c-0.1,0.5-0.1,1.1-0.1,1.7c0,19.3,0,38.5,0,57.8c0,0.7,0.2,1.5,0.4,2.1
			c0.4,1,1.2,1.7,2.2,1.9c1.7,0.4,3.4-0.1,4-1.5c0.4-0.9,0.6-1.9,0.7-2.9c0.1-5.6,0-11.2,0-16.9c0-0.2,0-0.5,0-0.8
			c2.6,0,5.2,0,7.9,0c0,0.2,0,0.4,0,0.6c0,5.9,0,11.8,0,17.6c0,2.7-0.4,5.4-1.6,7.8c-1.3,2.6-3.4,4.2-6.2,4.8c-2,0.5-4,0.4-6,0.2
			c-1.9-0.2-3.8-0.8-5.4-1.8c-2.3-1.6-3.6-3.8-4.3-6.5c-0.3-1.1-0.3-2.2-0.5-3.2c0-0.1-0.1-0.1-0.1-0.2c0-20.3,0-40.6,0-60.9
			c0-0.1,0.1-0.1,0.1-0.2c0.1-0.9,0.2-1.9,0.4-2.8c0.4-2.3,1.4-4.3,3-6C5,1.7,6.9,0.8,9,0.4C9.6,0.2,10.3,0.1,11,0C12,0,13,0,14.1,0
			z"/>
		<path class="st2" d="M42.4,0c0.8,0.2,1.6,0.3,2.4,0.5c3.1,0.8,5.1,2.7,6.3,5.6c0.9,2,1.2,4.2,1.2,6.4c0,5.4,0.1,10.7,0.1,16.1
			c0,0.1,0,0.1,0,0.2c-2.6,0-5.2,0-7.8,0c0-0.2,0-0.5,0-0.7c0-4.8,0-9.5,0-14.3c0-0.8-0.2-1.6-0.4-2.3c-0.3-1.3-1.2-2-2.4-2.2
			c-0.7-0.1-1.5,0-2.3,0.2c-1.3,0.3-1.9,1.4-2.2,2.6c-0.1,0.5-0.1,1.1-0.1,1.6c0,19.4,0,38.8,0,58.2c0,1.4,0.4,2.7,1.7,3.5
			c1.2,0.8,4.1,0.8,5-1c0.3-0.5,0.5-1.1,0.6-1.7c0.1-0.6,0.1-1.2,0.1-1.8c0-5.5,0-10.9,0-16.4c0-0.2,0-0.5,0-0.8c2.6,0,5.2,0,7.9,0
			c0,0.2,0,0.4,0,0.6c0,5.7,0.1,11.4,0,17.1c0,2.4-0.3,4.8-1.2,7.1c-1.2,3.2-3.4,5.2-6.7,6c-2,0.5-4,0.4-6,0.2
			c-1.9-0.2-3.7-0.7-5.3-1.8c-2.2-1.4-3.5-3.5-4.2-6c-0.3-1.1-0.5-2.2-0.6-3.4c-0.1-1.8-0.1-3.5-0.1-5.3c0-18.6,0-37.1,0-55.7
			c0-3.3,0.8-6.4,2.9-9c1.4-1.7,3.3-2.8,5.5-3.3c0.9-0.2,1.7-0.3,2.6-0.5C40.4,0,41.4,0,42.4,0z"/>
		<path class="st2" d="M68.5,9.7c-0.7,0-1.3,0-2,0c0,16.5,0,33,0,49.5c0.6,0,1.3,0,2,0c0,3,0,6,0,8.9c-4.2,0-8.4,0-12.6,0
			c0-2.9,0-5.9,0-8.9c0.6,0,1.3,0,2,0c0-16.5,0-33,0-49.5c-0.7,0-1.3,0-2,0c0-3,0-5.9,0-8.8c4.2,0,8.4,0,12.6,0
			C68.5,3.8,68.5,6.7,68.5,9.7z"/>
		<path class="st2" d="M66.5,74.2c0,3.2,0,6.4,0,9.6c-2.8,0-5.7,0-8.5,0c0-3.2,0-6.4,0-9.6C60.8,74.2,63.6,74.2,66.5,74.2z"/>
	</g>
	<g class="st1">
		<path class="st2" d="M77.1,0.6c43.6,0,87.3,0,131,0c0,28,0,55.9,0,84c-43.7,0-87.4,0-131,0C77.1,56.6,77.1,28.6,77.1,0.6z
			 M109.2,12.5c0,20.9,0,41.7,0,62.5c1.9,0,3.7,0,5.6,0c0-9.5,0-18.8,0-28.2c1.4,0,2.8,0,4.1,0c1.4,9.4,2.7,18.8,4.1,28.3
			c1.9,0,3.9,0,6,0c-0.1-0.8-0.2-1.6-0.3-2.3c-0.4-2.8-0.8-5.7-1.2-8.5c-0.4-2.6-0.9-5.1-1.3-7.6c-0.6-3.3-1.2-6.7-1.8-10
			c-0.1-0.7-0.1-1.2,0.6-1.6c2.6-1.8,3.4-4.6,3.5-7.6c0.1-5.1,0.1-10.2,0-15.2c0-1.6-0.4-3.2-0.9-4.7c-1.2-3.4-4.1-4.8-7.5-5
			C116.4,12.3,112.9,12.5,109.2,12.5z M156.1,52.1c0,4.3,0,8.5,0,12.8c0,1.4,0.2,2.9,0.5,4.3c0.6,3.2,2.4,5.4,5.7,6.2
			c2.1,0.5,4.2,0.5,6.3,0c2.5-0.6,4.3-2.1,5.1-4.5c0.6-1.7,0.9-3.6,0.9-5.5c0.1-3.3,0.1-6.6,0-9.9c0-1.3-0.2-2.6-0.3-3.9
			c-0.4-3-2.2-5.2-4.1-7.3c-2.1-2.4-4.3-4.8-6.5-7.2c-0.9-1.1-1.9-2.3-1.9-3.8c-0.1-4,0-8,0-12c0-1.7,1.2-3.1,2.5-3.4
			c1.6-0.4,3.3,0.2,4,1.6c0.4,0.8,0.6,1.8,0.7,2.7c0.1,3.4,0,6.8,0,10.2c0,0.4,0,0.8,0,1.2c1.9,0,3.6,0,5.4,0c0-2.8,0.1-5.6,0-8.4
			c-0.1-2.5-0.1-4.9-0.5-7.3c-0.3-2.3-1.5-4.2-3.7-5.2c-2.4-1.1-4.9-1.2-7.4-0.7c-2.9,0.5-5.1,2.1-5.9,5c-0.5,1.8-0.8,3.6-0.9,5.5
			c-0.1,3.2-0.1,6.4,0,9.5c0,1.3,0.2,2.7,0.4,4c0.4,2.7,2.2,4.5,3.9,6.4c2.2,2.5,4.4,4.9,6.6,7.4c1,1.2,1.9,2.5,1.9,4.1
			c0,4.3,0,8.5,0,12.8c0,2-2.1,3.5-4,3.1c-2-0.4-3.1-1.4-3.1-4.1c-0.1-4.1,0-8.2,0-12.3c0-0.4,0-0.8,0-1.3
			C159.8,52.1,158,52.1,156.1,52.1z M181,52.1c0,3.7-0.1,7.2,0,10.7c0,2.1,0.1,4.2,0.5,6.2c0.5,3.1,2.2,5.4,5.3,6.3
			c2.2,0.7,4.4,0.7,6.7,0.1c2.3-0.6,4.2-1.8,5-4.1c0.6-1.7,1.1-3.5,1.1-5.3c0.1-4.1-0.2-8.3-0.1-12.4c0.1-3.7-1.6-6.5-4-9.1
			c-2.3-2.5-4.5-4.9-6.7-7.4c-1-1.2-1.9-2.5-1.9-4.1c0-3.8-0.1-7.7,0-11.5c0-1.9,0.7-2.8,2.1-3.3c2.7-0.9,5,0.3,5,3.7
			c0.1,3.5,0,7.1,0,10.6c0,0.4,0,0.8,0,1.2c1.9,0,3.6,0,5.4,0c0-2.5,0-5,0-7.4c0-2.4,0-4.9-0.3-7.3c-0.3-3-1.6-5.5-4.7-6.5
			c-2.1-0.7-4.3-0.8-6.6-0.3c-2.9,0.6-5.1,2.1-5.9,5c-0.5,2-0.8,4.1-0.9,6.2c-0.1,3.7,0.1,7.5,0.2,11.2c0,1.7,0.4,3.4,1.5,4.7
			c2.6,3.1,5.2,6.2,8,9.2c2.1,2.2,3.3,4.7,3.3,7.8c0,3.4-0.2,6.9-0.2,10.3c0,2.9-3,4.2-5.3,3c-1.5-0.8-1.9-2.2-1.9-3.6
			c-0.1-4.1,0-8.3,0-12.4c0-0.4,0-0.8,0-1.2C184.6,52.1,182.9,52.1,181,52.1z M85,12.5c0,20.9,0,41.7,0,62.5c1.9,0,3.7,0,5.6,0
			c0-9.8,0-19.6,0-29.4c1.9-0.1,3.7-0.2,5.5-0.3c3-0.3,5.4-1.4,6.8-4.2c1-2,1.3-4.2,1.3-6.4c0-4.4,0-8.9-0.2-13.3
			c-0.3-5.5-3.1-8.3-8.2-8.8C92.3,12.2,88.7,12.5,85,12.5z M141.3,18.5c3.4,0,6.6,0,9.9,0c0-2,0-4,0-6c-5.2,0-10.3,0-15.4,0
			c0,20.9,0,41.7,0,62.5c5.3,0,10.6,0,15.9,0c0-1.9,0-3.8,0-5.8c-3.5,0-6.9,0-10.3,0c0-7.7,0-15.3,0-23c2.3,0,4.6,0,6.8,0
			c0-2.1,0-4,0-6.1c-2.3,0-4.6,0-6.8,0C141.3,32.9,141.3,25.8,141.3,18.5z"/>
		<path class="st2" d="M114.8,41.3c0-7.7,0-15.2,0-22.8c1.6,0,3.1-0.1,4.7,0c1.7,0.1,3.1,1.6,3.1,3.4c0.2,4.8,0.2,9.6,0.3,14.5
			c0,0.6-0.1,1.3-0.3,1.9c-0.3,1.6-1.7,2.9-3.5,3C117.7,41.4,116.3,41.3,114.8,41.3z"/>
		<path class="st2" d="M90.6,18.4c1.8,0.1,3.5,0.2,5.1,0.3c1.3,0.1,2,1,2.4,2.2c0.3,0.9,0.5,1.9,0.5,2.8c0.1,3.7,0.1,7.4,0,11
			c0,1.6-0.4,3.4-2,4.2c-0.9,0.5-2,0.6-3.1,0.7c-1,0.1-1.9,0-3,0C90.6,32.6,90.6,25.6,90.6,18.4z"/>
	</g>
</g>
</svg>
