<?xml version="1.0" encoding="utf-8"?>
<!-- Generator: Adobe Illustrator 24.2.3, SVG Export Plug-In . SVG Version: 6.00 Build 0)  -->
<svg version="1.1" xmlns="http://www.w3.org/2000/svg" xmlns:xlink="http://www.w3.org/1999/xlink" x="0px" y="0px"
	 viewBox="0 0 209.5 36.5" style="enable-background:new 0 0 209.5 36.5;" xml:space="preserve">
<style type="text/css">
	.st0{display:none;}
	.st1{display:inline;}
</style>
<g id="cendyn_black">
	<polygon points="20.2,28 5.6,21.7 40.8,17.5 	"/>
	<polygon points="23.6,36.5 30.9,13.9 40.5,18.2 	"/>
	<polygon points="22.6,0 0,6.8 50.7,21.8 	"/>
	<path d="M76,13.3l4.4-2c0,0-2.9-5.4-11-5.5s-13.3,4.7-13.1,10.8S59.6,27.4,68.3,28s12.1-5.2,12.1-5.2l-4.3-2.3c0,0-1.5,3.6-7.2,3.4
		s-7.6-3.5-7.8-6.9s2.5-7.3,8.3-6.8S76,13.3,76,13.3z"/>
	<polygon points="83.7,6.6 83.7,27.3 105,27.3 105,23.4 88.4,23.4 88.4,18.7 101.8,18.7 101.8,14.8 88.4,14.8 88.4,10.5 104.5,10.5
		104.5,6.6 	"/>
	<polygon points="108.3,27.3 108.3,6.6 113.4,6.6 127.3,20.5 127.3,6.6 131.9,6.6 131.9,27.3 127.7,27.3 112.9,12.5 112.9,27.3 	"/>
	<polygon points="185.9,27.3 185.9,6.6 191,6.6 204.8,20.5 204.8,6.6 209.5,6.6 209.5,27.3 205.3,27.3 190.5,12.5 190.5,27.3 	"/>
	<path d="M149,6.6h-13.2v20.7h12.8c0,0,10.7-0.7,11-9.3C159.8,9.2,153.1,6.4,149,6.6z M148.2,23.1h-7.6V10.5c2.7-0.1,5.5-0.1,8.2,0
		c2.6,0.3,6.1,1.5,6.1,6.4C154.9,22,150.4,22.9,148.2,23.1z"/>
	<polygon points="159.1,6.6 164.3,6.6 171.3,16.1 178.3,6.6 183.3,6.6 173.7,20 173.7,27.3 168.9,27.3 168.9,20.1 	"/>
</g>
<g id="cendyn_white" class="st0">
	<polygon class="st1" points="20.2,28 5.6,21.7 40.8,17.5 	"/>
	<polygon class="st1" points="23.6,36.5 30.9,13.9 40.5,18.2 	"/>
	<polygon class="st1" points="22.6,0 0,6.8 50.7,21.8 	"/>
	<path class="st1" d="M76,13.3l4.4-2c0,0-2.9-5.4-11-5.5s-13.3,4.7-13.1,10.8S59.6,27.4,68.3,28s12.1-5.2,12.1-5.2l-4.3-2.3
		c0,0-1.5,3.6-7.2,3.4s-7.6-3.5-7.8-6.9s2.5-7.3,8.3-6.8S76,13.3,76,13.3z"/>
	<polygon class="st1" points="83.7,6.6 83.7,27.3 105,27.3 105,23.4 88.4,23.4 88.4,18.7 101.8,18.7 101.8,14.8 88.4,14.8
		88.4,10.5 104.5,10.5 104.5,6.6 	"/>
	<polygon class="st1" points="108.3,27.3 108.3,6.6 113.4,6.6 127.3,20.5 127.3,6.6 131.9,6.6 131.9,27.3 127.7,27.3 112.9,12.5
		112.9,27.3 	"/>
	<polygon class="st1" points="185.9,27.3 185.9,6.6 191,6.6 204.8,20.5 204.8,6.6 209.5,6.6 209.5,27.3 205.3,27.3 190.5,12.5
		190.5,27.3 	"/>
	<path class="st1" d="M149,6.6h-13.2v20.7h12.8c0,0,10.7-0.7,11-9.3C159.8,9.2,153.1,6.4,149,6.6z M148.2,23.1h-7.6V10.5
		c2.7-0.1,5.5-0.1,8.2,0c2.6,0.3,6.1,1.5,6.1,6.4C154.9,22,150.4,22.9,148.2,23.1z"/>
	<polygon class="st1" points="159.1,6.6 164.3,6.6 171.3,16.1 178.3,6.6 183.3,6.6 173.7,20 173.7,27.3 168.9,27.3 168.9,20.1 	"/>
</g>
</svg>
