<?xml version="1.0" encoding="utf-8"?>
<!-- Generator: Adobe Illustrator 24.2.3, SVG Export Plug-In . SVG Version: 6.00 Build 0)  -->
<svg version="1.1" xmlns="http://www.w3.org/2000/svg" xmlns:xlink="http://www.w3.org/1999/xlink" x="0px" y="0px"
	 viewBox="0 0 610 306.2" style="enable-background:new 0 0 610 306.2;" xml:space="preserve">
<style type="text/css">
	.st0{display:none;}
	.st1{display:inline;}
</style>
<g id="kite_white" class="st0">
	<path class="st1" d="M201.7,305.5c-15.3-1.2-22.9-2-37.4-2s-30.9,0.8-46.2,2c-2.8,0.4-4-1.6-4-4c0-3.6,2.4-7.6,7.2-7.6
		c15.7,0,12.1-11.2,6.4-17.3l-69.9-76.3V228c0,54.6,0,65.9,18.9,65.9c4.8,0,7.2,4,7.2,7.6c0,2-1.2,4.4-4,4c-15.3-1.2-23.3-2-37.8-2
		c-14.9,0-22.9,0.8-37.8,2c-3.2,0.4-4.4-2.4-4.4-4.8c0.2-3.9,3.4-6.9,7.2-6.8c19.3,0,19.3-11.7,19.3-65.9V93.8
		c0-62.7,0-70.7-20.5-70.7c-3.2,0-5.6-3.2-5.6-6.8c-0.1-2.6,1.9-4.7,4.4-4.8c0.1,0,0.3,0,0.4,0c25.3,0,33.7-2.8,52.6-8.8v192.1
		l49-46.6c17.3-16.5,14.5-25.3,2.8-25.3c-4.8,0-7.2-4.8-7.2-8c0-2,1.2-4,4-3.6c15.3,1.2,26.9,1.6,41.4,1.6s16.9-0.4,31.7-1.6
		c3.2-0.4,4.4,1.6,4.4,4c0,3.2-2.4,7.6-7.2,7.6c-19.7,0.8-37.4,14.1-46.2,22.5l-45.4,42.2l83.2,89.2c7.2,8,18.5,17.3,30.1,17.3
		c4.8,0,7.2,4.4,7.2,7.6C205.7,303.9,204.4,306,201.7,305.5z"/>
	<path class="st1" d="M299.5,305.5c-15.3-1.2-23.3-2-37.8-2c-14.9,0-22.9,0.8-37.8,2c-3.2,0.4-4.4-2-4.4-4.8
		c0.2-3.9,3.4-6.9,7.2-6.8c19.3,0,19.3-11.7,19.3-65.9v-30.1c0-62.7,0-70.3-20.5-70.3c-3.2,0-5.6-3.2-5.6-6.8c0-2.4,1.2-4.8,4.8-4.8
		c25.3,0,33.7-3.2,52.2-9.2V228c0,54.6,0,65.9,19.3,65.9c3.9-0.1,7.1,3,7.2,6.8C303.6,303.9,302.3,306,299.5,305.5z M425.3,290.1
		c-13.2,10.5-23.3,16.1-41.4,16.1c-17.3,0-30.9-12.5-30.9-39.8V128.2h-29.3v-13.3c32.6-0.2,49.5-13.2,49.5-45.9
		c0-39.7-29.2-82.7-79.4-58.5c0,0-19.3,63.5-19.3,63S223,70.8,223,70.2c0,0,3.3-51.4,3.9-51.4c0.8,0,64.6-11,64.6-11
		c65.2-27.6,99.6,23.9,99.6,64.6c0,29.9-6,41.8-6,41.8h32.5c4.4,0,6.4,4,6.4,7.2c0,3.6-2.4,6.8-6.4,6.8h-33.3v129.7
		c0,22.9,3.2,32.5,13.7,32.5c6,0,14.5-4,20.5-8.4c3.2-2.4,6.8-1.6,8.4,0.8C428.5,284.9,428.5,287.7,425.3,290.1z"/>
	<path class="st1" d="M485.5,200.5c-2.8,57,17.7,90.8,53.8,90.8c31.3,0,49.8-27.3,52.6-31.3c2.3-3.2,6.5-4.2,10-2.4
		c3.6,1.6,5.6,6,2.4,10.4c-4.4,6-24.5,38.2-66.3,38.2c-43,0-88-21.3-88-98c0-69.9,35-102.4,82.3-102.4c46.6,0,77.5,33.7,77.5,94.8
		L485.5,200.5z M531.3,118.9c-24.9,0-43,22.9-45,67.5h87.2C573.5,144.3,555,118.9,531.3,118.9z"/>
</g>
<g id="kite_black">
	<path d="M201.7,305.5c-15.3-1.2-22.9-2-37.4-2s-30.9,0.8-46.2,2c-2.8,0.4-4-1.6-4-4c0-3.6,2.4-7.6,7.2-7.6
		c15.7,0,12.1-11.2,6.4-17.3l-69.9-76.3V228c0,54.6,0,65.9,18.9,65.9c4.8,0,7.2,4,7.2,7.6c0,2-1.2,4.4-4,4c-15.3-1.2-23.3-2-37.8-2
		c-14.9,0-22.9,0.8-37.8,2c-3.2,0.4-4.4-2.4-4.4-4.8c0.2-3.9,3.4-6.9,7.2-6.8c19.3,0,19.3-11.7,19.3-65.9V93.8
		c0-62.7,0-70.7-20.5-70.7c-3.2,0-5.6-3.2-5.6-6.8c-0.1-2.6,1.9-4.7,4.4-4.8c0.1,0,0.3,0,0.4,0c25.3,0,33.7-2.8,52.6-8.8v192.1
		l49-46.6c17.3-16.5,14.5-25.3,2.8-25.3c-4.8,0-7.2-4.8-7.2-8c0-2,1.2-4,4-3.6c15.3,1.2,26.9,1.6,41.4,1.6s16.9-0.4,31.7-1.6
		c3.2-0.4,4.4,1.6,4.4,4c0,3.2-2.4,7.6-7.2,7.6c-19.7,0.8-37.4,14.1-46.2,22.5l-45.4,42.2l83.2,89.2c7.2,8,18.5,17.3,30.1,17.3
		c4.8,0,7.2,4.4,7.2,7.6C205.7,303.9,204.4,306,201.7,305.5z"/>
	<path d="M299.5,305.5c-15.3-1.2-23.3-2-37.8-2c-14.9,0-22.9,0.8-37.8,2c-3.2,0.4-4.4-2-4.4-4.8c0.2-3.9,3.4-6.9,7.2-6.8
		c19.3,0,19.3-11.7,19.3-65.9v-30.1c0-62.7,0-70.3-20.5-70.3c-3.2,0-5.6-3.2-5.6-6.8c0-2.4,1.2-4.8,4.8-4.8
		c25.3,0,33.7-3.2,52.2-9.2V228c0,54.6,0,65.9,19.3,65.9c3.9-0.1,7.1,3,7.2,6.8C303.6,303.9,302.3,306,299.5,305.5z M425.3,290.1
		c-13.2,10.5-23.3,16.1-41.4,16.1c-17.3,0-30.9-12.5-30.9-39.8V128.2h-29.3v-13.3c32.6-0.2,49.5-13.2,49.5-45.9
		c0-39.7-29.2-82.7-79.4-58.5c0,0-19.3,63.5-19.3,63S223,70.8,223,70.2c0,0,3.3-51.4,3.9-51.4c0.8,0,64.6-11,64.6-11
		c65.2-27.6,99.6,23.9,99.6,64.6c0,29.9-6,41.8-6,41.8h32.5c4.4,0,6.4,4,6.4,7.2c0,3.6-2.4,6.8-6.4,6.8h-33.3v129.7
		c0,22.9,3.2,32.5,13.7,32.5c6,0,14.5-4,20.5-8.4c3.2-2.4,6.8-1.6,8.4,0.8C428.5,284.9,428.5,287.7,425.3,290.1z"/>
	<path d="M485.5,200.5c-2.8,57,17.7,90.8,53.8,90.8c31.3,0,49.8-27.3,52.6-31.3c2.3-3.2,6.5-4.2,10-2.4c3.6,1.6,5.6,6,2.4,10.4
		c-4.4,6-24.5,38.2-66.3,38.2c-43,0-88-21.3-88-98c0-69.9,35-102.4,82.3-102.4c46.6,0,77.5,33.7,77.5,94.8L485.5,200.5z
		 M531.3,118.9c-24.9,0-43,22.9-45,67.5h87.2C573.5,144.3,555,118.9,531.3,118.9z"/>
</g>
</svg>
