<?xml version="1.0" encoding="utf-8"?>
<!-- Generator: Adobe Illustrator 24.2.3, SVG Export Plug-In . SVG Version: 6.00 Build 0)  -->
<svg version="1.1" xmlns="http://www.w3.org/2000/svg" xmlns:xlink="http://www.w3.org/1999/xlink" x="0px" y="0px"
	 viewBox="0 0 187.4 28" style="enable-background:new 0 0 187.4 28;" xml:space="preserve">
<style type="text/css">
	.st0{display:none;}
	.st1{display:inline;}
</style>
<g id="MusicBrainz_black">
	<polygon points="12,0 0,7 0,21 12,28 	"/>
	<polygon points="13,0 25,7 25,21 13,28 	"/>
	<path d="M38.2,4.5l4.4,13.9l4.4-13.9h6.3v19.9h-4.8v-4.6l0.4-9.5l-4.8,14.2H41l-4.8-14.2l0.5,9.5v4.6h-4.8V4.5H38.2L38.2,4.5z"/>
	<path d="M65,22.8c-0.4,0.6-1,1.1-1.7,1.4c-0.7,0.3-1.5,0.5-2.3,0.5c-0.7,0-1.4-0.1-2-0.3c-0.6-0.2-1.1-0.5-1.6-1
		c-0.5-0.5-0.8-1.1-1-1.7c-0.3-0.8-0.4-1.7-0.4-2.5V9.6h4.6v9.6c0,0.5,0.1,1,0.5,1.5c0.4,0.3,0.9,0.5,1.4,0.5c0.5,0,1-0.1,1.4-0.3
		c0.4-0.2,0.7-0.5,0.9-0.9V9.6h4.6v14.8h-4.3L65,22.8z"/>
	<path d="M79.8,20.3c0-0.2,0-0.4-0.1-0.5c-0.1-0.2-0.3-0.3-0.5-0.4c-0.3-0.1-0.6-0.3-0.9-0.3c-0.4-0.1-0.8-0.2-1.4-0.4
		c-0.7-0.1-1.4-0.4-2-0.6c-0.6-0.2-1.1-0.5-1.7-0.9c-0.5-0.4-0.8-0.8-1.1-1.3c-0.3-0.5-0.4-1.1-0.4-1.7c0-0.6,0.1-1.2,0.4-1.8
		c0.3-0.6,0.7-1.1,1.2-1.5c0.6-0.4,1.2-0.8,1.9-1c0.8-0.3,1.7-0.4,2.6-0.4c0.9,0,1.8,0.1,2.7,0.4c0.7,0.2,1.4,0.6,2,1
		c0.5,0.4,1,0.9,1.3,1.5c0.3,0.6,0.5,1.3,0.4,1.9h-4.6c0-0.5-0.1-0.9-0.4-1.3c-0.4-0.3-0.9-0.5-1.4-0.5c-0.2,0-0.4,0-0.7,0.1
		c-0.2,0.1-0.4,0.2-0.5,0.3c-0.2,0.1-0.3,0.3-0.4,0.4c-0.1,0.2-0.1,0.4-0.1,0.6c0,0.4,0.2,0.8,0.6,1c0.6,0.3,1.2,0.5,1.9,0.6
		c0.7,0.1,1.4,0.3,2.2,0.5c0.6,0.2,1.3,0.5,1.8,0.9c0.5,0.3,0.9,0.8,1.3,1.4c0.3,0.6,0.5,1.3,0.5,2c0,0.6-0.2,1.2-0.5,1.8
		c-0.3,0.6-0.8,1.1-1.3,1.4c-0.6,0.4-1.3,0.8-2,1c-0.9,0.2-1.8,0.4-2.7,0.4c-1,0-1.9-0.1-2.8-0.5c-0.7-0.3-1.4-0.7-2.1-1.2
		c-0.5-0.4-1-1-1.2-1.6c-0.3-0.6-0.4-1.2-0.4-1.8h4.3c0,0.6,0.2,1.1,0.7,1.5c0.5,0.3,1.1,0.5,1.7,0.5c0.5,0,1-0.1,1.4-0.4
		C79.7,21.1,79.8,20.7,79.8,20.3z"/>
	<path d="M86.3,5.8c0-0.3,0.1-0.6,0.2-0.9c0.1-0.3,0.3-0.5,0.5-0.7c0.2-0.2,0.5-0.4,0.8-0.5c0.7-0.2,1.4-0.2,2.1,0
		c0.3,0.1,0.6,0.3,0.8,0.5c0.2,0.2,0.4,0.4,0.5,0.7c0.2,0.6,0.2,1.2,0,1.8c-0.1,0.3-0.3,0.5-0.5,0.7c-0.2,0.2-0.5,0.4-0.8,0.5
		c-0.7,0.2-1.4,0.2-2.1,0c-0.3-0.1-0.6-0.2-0.8-0.5c-0.2-0.2-0.4-0.4-0.5-0.7C86.4,6.4,86.3,6.1,86.3,5.8z M91.2,24.4h-4.6V9.6h4.6
		L91.2,24.4L91.2,24.4z"/>
	<path d="M100.3,21.1c0.6,0,1.1-0.2,1.5-0.5c0.4-0.4,0.6-0.9,0.5-1.5h4.3c0,0.8-0.1,1.6-0.5,2.3c-0.3,0.7-0.8,1.3-1.3,1.8
		c-0.6,0.5-1.3,0.9-2,1.1c-1.8,0.6-3.8,0.5-5.5-0.2c-0.8-0.4-1.6-0.9-2.2-1.6c-0.6-0.7-1-1.5-1.3-2.4c-0.3-1-0.5-2-0.4-3v-0.3
		c0-1,0.1-2,0.4-3c0.3-0.9,0.7-1.7,1.3-2.4c0.6-0.7,1.3-1.2,2.2-1.6c0.9-0.4,2-0.6,3-0.6c0.9,0,1.7,0.1,2.6,0.4
		c0.7,0.2,1.4,0.6,2,1.2c0.6,0.5,1,1.2,1.3,1.9c0.3,0.8,0.5,1.7,0.5,2.5h-4.3c0-0.3,0-0.6-0.1-0.9c-0.1-0.3-0.2-0.5-0.4-0.8
		c-0.2-0.2-0.4-0.4-0.7-0.5c-0.3-0.1-0.6-0.2-0.9-0.2c-0.4,0-0.8,0.1-1.1,0.3c-0.3,0.2-0.5,0.5-0.7,0.9c-0.2,0.4-0.3,0.8-0.3,1.3
		c-0.1,0.5-0.1,1-0.1,1.5v0.3c0,0.5,0,1,0.1,1.5c0,0.4,0.1,0.9,0.3,1.3c0.1,0.3,0.4,0.6,0.7,0.9C99.5,21.1,99.9,21.2,100.3,21.1z"/>
	<path d="M108.8,24.4V4.5h7.2c1.1,0,2.2,0.1,3.3,0.3c0.9,0.2,1.7,0.5,2.5,1c0.7,0.4,1.2,1,1.5,1.7c0.4,0.8,0.6,1.6,0.5,2.4
		c0,0.4,0,0.9-0.2,1.3c-0.1,0.4-0.3,0.8-0.5,1.2c-0.2,0.4-0.5,0.7-0.9,1c-0.4,0.3-0.8,0.6-1.3,0.7c0.5,0.1,1,0.4,1.5,0.7
		c0.4,0.3,0.7,0.6,1,1c0.3,0.4,0.4,0.8,0.6,1.2c0.1,0.4,0.2,0.9,0.2,1.4c0.1,1.7-0.6,3.4-1.9,4.5c-1.7,1.1-3.6,1.6-5.6,1.5
		L108.8,24.4L108.8,24.4z M113.6,12.8h2.5c0.8,0.1,1.6-0.1,2.2-0.6c0.5-0.4,0.7-1,0.7-1.6c0.1-0.7-0.2-1.4-0.7-1.8
		c-0.7-0.4-1.5-0.6-2.3-0.6h-2.3L113.6,12.8L113.6,12.8z M113.6,16v4.8h3.1c0.4,0,0.8-0.1,1.2-0.2c0.3-0.1,0.6-0.3,0.8-0.5
		c0.2-0.2,0.4-0.4,0.5-0.7c0.1-0.3,0.2-0.6,0.2-0.9c0-0.3,0-0.7-0.1-1c-0.1-0.3-0.2-0.6-0.4-0.8c-0.2-0.2-0.5-0.4-0.8-0.5
		c-0.4-0.1-0.8-0.2-1.2-0.2L113.6,16L113.6,16z"/>
	<path d="M135.6,13.8h-0.3h-0.4h-0.4h-0.4c-0.6,0-1.2,0.1-1.8,0.3c-0.4,0.2-0.8,0.6-1,1v9.4h-4.6V9.6h4.3l0.1,1.9
		c0.3-0.6,0.8-1.2,1.4-1.6c0.6-0.4,1.2-0.6,1.9-0.6c0.2,0,0.5,0,0.7,0c0.2,0,0.4,0.1,0.6,0.1L135.6,13.8z"/>
	<path d="M145.2,24.4c-0.1-0.2-0.2-0.4-0.2-0.6c-0.1-0.2-0.1-0.5-0.2-0.7c-0.9,1.1-2.2,1.7-3.6,1.6c-0.7,0-1.3-0.1-1.9-0.3
		c-0.6-0.2-1.1-0.5-1.6-0.9c-0.5-0.4-0.8-0.9-1.1-1.4c-0.3-0.6-0.4-1.2-0.4-1.8c0-0.7,0.1-1.4,0.4-2c0.3-0.6,0.7-1.1,1.3-1.5
		c0.6-0.5,1.4-0.8,2.2-1c1-0.2,2.1-0.3,3.1-0.3h1.4v-0.8c0-0.5-0.1-1.1-0.4-1.5c-0.3-0.4-0.8-0.6-1.4-0.6c-0.4,0-0.9,0.1-1.2,0.4
		c-0.3,0.3-0.5,0.8-0.4,1.2h-4.6c0-0.7,0.2-1.3,0.5-1.9c0.3-0.6,0.8-1.1,1.3-1.5c0.6-0.4,1.3-0.8,2-1c0.9-0.3,1.8-0.4,2.7-0.4
		c0.8,0,1.7,0.1,2.4,0.3c0.7,0.2,1.4,0.5,1.9,1c0.6,0.4,1,1,1.3,1.6c0.3,0.7,0.5,1.5,0.5,2.3v6c0,0.5,0,0.9,0,1.3
		c0,0.3,0.1,0.6,0.1,0.9c0,0.2,0.1,0.5,0.2,0.7c0.1,0.2,0.2,0.4,0.3,0.6v0.2L145.2,24.4L145.2,24.4z M142.3,21.4
		c0.5,0,1-0.1,1.4-0.4c0.3-0.2,0.6-0.5,0.8-0.8v-2.4h-1.4c-0.4,0-0.7,0-1.1,0.1c-0.3,0.1-0.5,0.3-0.7,0.5c-0.2,0.2-0.3,0.4-0.4,0.7
		c-0.1,0.3-0.1,0.5-0.1,0.8c0,0.4,0.1,0.7,0.4,1C141.5,21.3,141.9,21.4,142.3,21.4L142.3,21.4z"/>
	<path d="M151.7,5.8c0-0.3,0.1-0.6,0.2-0.9c0.1-0.3,0.3-0.5,0.5-0.7c0.2-0.2,0.5-0.4,0.8-0.5c0.7-0.2,1.4-0.2,2.1,0
		c0.3,0.1,0.6,0.3,0.8,0.5c0.2,0.2,0.4,0.4,0.5,0.7c0.2,0.6,0.2,1.2,0,1.8c-0.1,0.3-0.3,0.5-0.5,0.7c-0.2,0.2-0.5,0.4-0.8,0.5
		c-0.7,0.2-1.4,0.2-2.1,0c-0.3-0.1-0.6-0.3-0.8-0.5c-0.2-0.2-0.4-0.4-0.5-0.7C151.7,6.4,151.7,6.1,151.7,5.8z M156.6,24.4H152V9.6
		h4.6L156.6,24.4L156.6,24.4z"/>
	<path d="M163.6,9.6l0.1,1.7c0.5-0.6,1.1-1.2,1.8-1.5c0.8-0.3,1.6-0.5,2.4-0.5c0.6,0,1.3,0.1,1.9,0.3c0.6,0.2,1.1,0.5,1.5,1
		c0.5,0.5,0.8,1.1,1,1.8c0.2,0.9,0.4,1.8,0.3,2.7v9.3H168v-9.3c0-0.4,0-0.7-0.1-1.1c-0.1-0.3-0.2-0.5-0.4-0.7
		c-0.2-0.2-0.4-0.3-0.7-0.3c-0.3-0.1-0.6-0.1-0.9-0.1c-0.4,0-0.8,0.1-1.2,0.3c-0.3,0.2-0.6,0.5-0.8,0.8v10.5h-4.6V9.6H163.6z"/>
	<path d="M180.6,20.9h6.7v3.5h-12.6v-2.6l6.6-8.7h-6.3V9.6h12.1v2.5L180.6,20.9z"/>
</g>
<g id="MusicBrainz_white" class="st0">
	<polygon class="st1" points="12,0 0,7 0,21 12,28 	"/>
	<polygon class="st1" points="13,0 25,7 25,21 13,28 	"/>
	<path class="st1" d="M38.2,4.5l4.4,13.9l4.4-13.9h6.3v19.9h-4.8v-4.6l0.4-9.5l-4.8,14.2H41l-4.8-14.2l0.5,9.5v4.6h-4.8V4.5H38.2
		L38.2,4.5z"/>
	<path class="st1" d="M65,22.8c-0.4,0.6-1,1.1-1.7,1.4c-0.7,0.3-1.5,0.5-2.3,0.5c-0.7,0-1.4-0.1-2-0.3c-0.6-0.2-1.1-0.5-1.6-1
		c-0.5-0.5-0.8-1.1-1-1.7c-0.3-0.8-0.4-1.7-0.4-2.5V9.6h4.6v9.6c0,0.5,0.1,1,0.5,1.5c0.4,0.3,0.9,0.5,1.4,0.5c0.5,0,1-0.1,1.4-0.3
		c0.4-0.2,0.7-0.5,0.9-0.9V9.6h4.6v14.8h-4.3L65,22.8z"/>
	<path class="st1" d="M79.8,20.3c0-0.2,0-0.4-0.1-0.5c-0.1-0.2-0.3-0.3-0.5-0.4c-0.3-0.1-0.6-0.3-0.9-0.3c-0.4-0.1-0.8-0.2-1.4-0.4
		c-0.7-0.1-1.4-0.4-2-0.6c-0.6-0.2-1.1-0.5-1.7-0.9c-0.5-0.4-0.8-0.8-1.1-1.3c-0.3-0.5-0.4-1.1-0.4-1.7c0-0.6,0.1-1.2,0.4-1.8
		c0.3-0.6,0.7-1.1,1.2-1.5c0.6-0.4,1.2-0.8,1.9-1c0.8-0.3,1.7-0.4,2.6-0.4c0.9,0,1.8,0.1,2.7,0.4c0.7,0.2,1.4,0.6,2,1
		c0.5,0.4,1,0.9,1.3,1.5c0.3,0.6,0.5,1.3,0.4,1.9h-4.6c0-0.5-0.1-0.9-0.4-1.3c-0.4-0.3-0.9-0.5-1.4-0.5c-0.2,0-0.4,0-0.7,0.1
		c-0.2,0.1-0.4,0.2-0.5,0.3c-0.2,0.1-0.3,0.3-0.4,0.4c-0.1,0.2-0.1,0.4-0.1,0.6c0,0.4,0.2,0.8,0.6,1c0.6,0.3,1.2,0.5,1.9,0.6
		c0.7,0.1,1.4,0.3,2.2,0.5c0.6,0.2,1.3,0.5,1.8,0.9c0.5,0.3,0.9,0.8,1.3,1.4c0.3,0.6,0.5,1.3,0.5,2c0,0.6-0.2,1.2-0.5,1.8
		c-0.3,0.6-0.8,1.1-1.3,1.4c-0.6,0.4-1.3,0.8-2,1c-0.9,0.2-1.8,0.4-2.7,0.4c-1,0-1.9-0.1-2.8-0.5c-0.7-0.3-1.4-0.7-2.1-1.2
		c-0.5-0.4-1-1-1.2-1.6c-0.3-0.6-0.4-1.2-0.4-1.8h4.3c0,0.6,0.2,1.1,0.7,1.5c0.5,0.3,1.1,0.5,1.7,0.5c0.5,0,1-0.1,1.4-0.4
		C79.7,21.1,79.8,20.7,79.8,20.3z"/>
	<path class="st1" d="M86.3,5.8c0-0.3,0.1-0.6,0.2-0.9c0.1-0.3,0.3-0.5,0.5-0.7c0.2-0.2,0.5-0.4,0.8-0.5c0.7-0.2,1.4-0.2,2.1,0
		c0.3,0.1,0.6,0.3,0.8,0.5c0.2,0.2,0.4,0.4,0.5,0.7c0.2,0.6,0.2,1.2,0,1.8c-0.1,0.3-0.3,0.5-0.5,0.7c-0.2,0.2-0.5,0.4-0.8,0.5
		c-0.7,0.2-1.4,0.2-2.1,0c-0.3-0.1-0.6-0.2-0.8-0.5c-0.2-0.2-0.4-0.4-0.5-0.7C86.4,6.4,86.3,6.1,86.3,5.8z M91.2,24.4h-4.6V9.6h4.6
		L91.2,24.4L91.2,24.4z"/>
	<path class="st1" d="M100.3,21.1c0.6,0,1.1-0.2,1.5-0.5c0.4-0.4,0.6-0.9,0.5-1.5h4.3c0,0.8-0.1,1.6-0.5,2.3
		c-0.3,0.7-0.8,1.3-1.3,1.8c-0.6,0.5-1.3,0.9-2,1.1c-1.8,0.6-3.8,0.5-5.5-0.2c-0.8-0.4-1.6-0.9-2.2-1.6c-0.6-0.7-1-1.5-1.3-2.4
		c-0.3-1-0.5-2-0.4-3v-0.3c0-1,0.1-2,0.4-3c0.3-0.9,0.7-1.7,1.3-2.4c0.6-0.7,1.3-1.2,2.2-1.6c0.9-0.4,2-0.6,3-0.6
		c0.9,0,1.7,0.1,2.6,0.4c0.7,0.2,1.4,0.6,2,1.2c0.6,0.5,1,1.2,1.3,1.9c0.3,0.8,0.5,1.7,0.5,2.5h-4.3c0-0.3,0-0.6-0.1-0.9
		c-0.1-0.3-0.2-0.5-0.4-0.8c-0.2-0.2-0.4-0.4-0.7-0.5c-0.3-0.1-0.6-0.2-0.9-0.2c-0.4,0-0.8,0.1-1.1,0.3c-0.3,0.2-0.5,0.5-0.7,0.9
		c-0.2,0.4-0.3,0.8-0.3,1.3c-0.1,0.5-0.1,1-0.1,1.5v0.3c0,0.5,0,1,0.1,1.5c0,0.4,0.1,0.9,0.3,1.3c0.1,0.3,0.4,0.6,0.7,0.9
		C99.5,21.1,99.9,21.2,100.3,21.1z"/>
	<path class="st1" d="M108.8,24.4V4.5h7.2c1.1,0,2.2,0.1,3.3,0.3c0.9,0.2,1.7,0.5,2.5,1c0.7,0.4,1.2,1,1.5,1.7
		c0.4,0.8,0.6,1.6,0.5,2.4c0,0.4,0,0.9-0.2,1.3c-0.1,0.4-0.3,0.8-0.5,1.2c-0.2,0.4-0.5,0.7-0.9,1c-0.4,0.3-0.8,0.6-1.3,0.7
		c0.5,0.1,1,0.4,1.5,0.7c0.4,0.3,0.7,0.6,1,1c0.3,0.4,0.4,0.8,0.6,1.2c0.1,0.4,0.2,0.9,0.2,1.4c0.1,1.7-0.6,3.4-1.9,4.5
		c-1.7,1.1-3.6,1.6-5.6,1.5L108.8,24.4L108.8,24.4z M113.6,12.8h2.5c0.8,0.1,1.6-0.1,2.2-0.6c0.5-0.4,0.7-1,0.7-1.6
		c0.1-0.7-0.2-1.4-0.7-1.8c-0.7-0.4-1.5-0.6-2.3-0.6h-2.3L113.6,12.8L113.6,12.8z M113.6,16v4.8h3.1c0.4,0,0.8-0.1,1.2-0.2
		c0.3-0.1,0.6-0.3,0.8-0.5c0.2-0.2,0.4-0.4,0.5-0.7c0.1-0.3,0.2-0.6,0.2-0.9c0-0.3,0-0.7-0.1-1c-0.1-0.3-0.2-0.6-0.4-0.8
		c-0.2-0.2-0.5-0.4-0.8-0.5c-0.4-0.1-0.8-0.2-1.2-0.2L113.6,16L113.6,16z"/>
	<path class="st1" d="M135.6,13.8h-0.3h-0.4h-0.4h-0.4c-0.6,0-1.2,0.1-1.8,0.3c-0.4,0.2-0.8,0.6-1,1v9.4h-4.6V9.6h4.3l0.1,1.9
		c0.3-0.6,0.8-1.2,1.4-1.6c0.6-0.4,1.2-0.6,1.9-0.6c0.2,0,0.5,0,0.7,0c0.2,0,0.4,0.1,0.6,0.1L135.6,13.8z"/>
	<path class="st1" d="M145.2,24.4c-0.1-0.2-0.2-0.4-0.2-0.6c-0.1-0.2-0.1-0.5-0.2-0.7c-0.9,1.1-2.2,1.7-3.6,1.6
		c-0.7,0-1.3-0.1-1.9-0.3c-0.6-0.2-1.1-0.5-1.6-0.9c-0.5-0.4-0.8-0.9-1.1-1.4c-0.3-0.6-0.4-1.2-0.4-1.8c0-0.7,0.1-1.4,0.4-2
		c0.3-0.6,0.7-1.1,1.3-1.5c0.6-0.5,1.4-0.8,2.2-1c1-0.2,2.1-0.3,3.1-0.3h1.4v-0.8c0-0.5-0.1-1.1-0.4-1.5c-0.3-0.4-0.8-0.6-1.4-0.6
		c-0.4,0-0.9,0.1-1.2,0.4c-0.3,0.3-0.5,0.8-0.4,1.2h-4.6c0-0.7,0.2-1.3,0.5-1.9c0.3-0.6,0.8-1.1,1.3-1.5c0.6-0.4,1.3-0.8,2-1
		c0.9-0.3,1.8-0.4,2.7-0.4c0.8,0,1.7,0.1,2.4,0.3c0.7,0.2,1.4,0.5,1.9,1c0.6,0.4,1,1,1.3,1.6c0.3,0.7,0.5,1.5,0.5,2.3v6
		c0,0.5,0,0.9,0,1.3c0,0.3,0.1,0.6,0.1,0.9c0,0.2,0.1,0.5,0.2,0.7c0.1,0.2,0.2,0.4,0.3,0.6v0.2L145.2,24.4L145.2,24.4z M142.3,21.4
		c0.5,0,1-0.1,1.4-0.4c0.3-0.2,0.6-0.5,0.8-0.8v-2.4h-1.4c-0.4,0-0.7,0-1.1,0.1c-0.3,0.1-0.5,0.3-0.7,0.5c-0.2,0.2-0.3,0.4-0.4,0.7
		c-0.1,0.3-0.1,0.5-0.1,0.8c0,0.4,0.1,0.7,0.4,1C141.5,21.3,141.9,21.4,142.3,21.4L142.3,21.4z"/>
	<path class="st1" d="M151.7,5.8c0-0.3,0.1-0.6,0.2-0.9c0.1-0.3,0.3-0.5,0.5-0.7c0.2-0.2,0.5-0.4,0.8-0.5c0.7-0.2,1.4-0.2,2.1,0
		c0.3,0.1,0.6,0.3,0.8,0.5c0.2,0.2,0.4,0.4,0.5,0.7c0.2,0.6,0.2,1.2,0,1.8c-0.1,0.3-0.3,0.5-0.5,0.7c-0.2,0.2-0.5,0.4-0.8,0.5
		c-0.7,0.2-1.4,0.2-2.1,0c-0.3-0.1-0.6-0.3-0.8-0.5c-0.2-0.2-0.4-0.4-0.5-0.7C151.7,6.4,151.7,6.1,151.7,5.8z M156.6,24.4H152V9.6
		h4.6L156.6,24.4L156.6,24.4z"/>
	<path class="st1" d="M163.6,9.6l0.1,1.7c0.5-0.6,1.1-1.2,1.8-1.5c0.8-0.3,1.6-0.5,2.4-0.5c0.6,0,1.3,0.1,1.9,0.3
		c0.6,0.2,1.1,0.5,1.5,1c0.5,0.5,0.8,1.1,1,1.8c0.2,0.9,0.4,1.8,0.3,2.7v9.3H168v-9.3c0-0.4,0-0.7-0.1-1.1c-0.1-0.3-0.2-0.5-0.4-0.7
		c-0.2-0.2-0.4-0.3-0.7-0.3c-0.3-0.1-0.6-0.1-0.9-0.1c-0.4,0-0.8,0.1-1.2,0.3c-0.3,0.2-0.6,0.5-0.8,0.8v10.5h-4.6V9.6H163.6z"/>
	<path class="st1" d="M180.6,20.9h6.7v3.5h-12.6v-2.6l6.6-8.7h-6.3V9.6h12.1v2.5L180.6,20.9z"/>
</g>
</svg>
