<svg id="Layer_2" data-name="Layer 2" xmlns="http://www.w3.org/2000/svg" viewBox="0 0 2570.65 432"><defs><style>.cls-1{stroke:#000;stroke-miterlimit:10;stroke-width:4px;}</style></defs><path class="cls-1" d="M3.1,186.24s0,0,0,.06v-.06Z"/><path class="cls-1" d="M290.19,217.13c-.6,78.92-65,143.36-144,144C65.71,361.71,0,296.38,0,216a160,160,0,0,1,1.32-16.88A14.93,14.93,0,0,1,16.13,186c29.74,0,100.18,0,100.18,0v13A14.29,14.29,0,0,1,102,213.21H27.33c0,.92,0,1.86,0,2.79A117.93,117.93,0,0,0,149.76,333.72c61.14-2.37,110.69-51.92,113.06-113.06A117.76,117.76,0,0,0,62.73,131.85h53.58v27.28H3.12V131.85H27A145.05,145.05,0,0,1,145.1,70.9C225.48,70.9,290.81,136.61,290.19,217.13Z"/><path class="cls-1" d="M393.66,231.65v74.41h-20.8V127.14h49.07q32.91,0,48.64,12.61t15.73,37.94q0,35.49-36,48l48.58,80.4H474.3L431,231.65Zm0-17.86h28.51q22,0,32.31-8.75t10.28-26.25q0-17.74-10.46-25.58t-33.6-7.83h-27Z"/><path class="cls-1" d="M706.63,216.36q0,42.94-21.72,67.55T624.52,308.5q-39.53,0-61-24.17T542,216.11q0-43.68,21.54-67.73t61.18-24q38.55,0,60.21,24.48T706.63,216.36Zm-142.56,0q0,36.34,15.48,55.13t45,18.78q29.73,0,44.91-18.72t15.18-55.19q0-36.11-15.12-54.77t-44.73-18.66q-29.73,0-45.21,18.79T564.07,216.36Z"/><path class="cls-1" d="M905.19,127.14V242.91q0,30.6-18.48,48.09t-50.79,17.5q-32.29,0-50-17.62t-17.68-48.46V127.14h20.8V243.89q0,22.39,12.24,34.39t36,12q22.63,0,34.88-12t12.23-34.58V127.14Z"/><path class="cls-1" d="M1105.83,306.06h-23.74L984.31,155.9h-1q2,26.43,2,48.46v101.7H966.08V127.14h23.5l97.53,149.55h1q-.25-3.31-1.1-21.24t-.62-25.63V127.14h19.46Z"/><path class="cls-1" d="M1304.3,214.89q0,44.3-24,67.73c-16,15.63-33,23.44-63.14,23.44h-49.56V127.14h54.82c27.82,0,43.38,7.71,58.8,23.13S1304.3,187.23,1304.3,214.89Zm-22,.73q0-35-17.56-52.74c-11.71-11.83-23-17.75-46.13-17.75h-30.23V288.07h25.34c24.79,0,37.37-6.1,49.86-18.3S1282.27,239.53,1282.27,215.62Z"/><path class="cls-1" d="M1424.88,306.06h-20.8V145.62h-56.66V127.14h134.12v18.48h-56.66Z"/><path class="cls-1" d="M1629.45,306.06l-22.28-56.91h-71.71l-22,56.91h-21l70.73-179.65h17.5L1651,306.06Zm-28.76-75.63L1579.88,175q-4-10.52-8.32-25.82a229.76,229.76,0,0,1-7.71,25.82l-21,55.44Z"/><path class="cls-1" d="M1699.14,127.14h50.54q35.61,0,51.52,10.65t15.91,33.65q0,15.92-8.87,26.25t-25.89,13.4v1.23q40.76,7,40.75,42.83,0,24-16.21,37.44t-45.34,13.47h-62.41Zm20.8,76.61h34.27q22,0,31.69-6.91t9.67-23.32q0-15-10.77-21.72t-34.26-6.67h-30.6Zm0,17.62v66.94h37.33q21.66,0,32.61-8.38t10.95-26.25q0-16.63-11.2-24.48t-34.08-7.83Z"/><path class="cls-1" d="M1885.09,306.06V127.14h20.8V287.21h78.93v18.85Z"/><path class="cls-1" d="M2138.47,306.06h-99.74V127.14h99.74v18.48h-78.94v57.64h74.16v18.36h-74.16v65.83h78.94Z"/><path class="cls-1" d="M2335.44,127.14v80.43H2228.92V127.14h-10.46V306.05h10.46v-89h106.52v89H2346V127.14Z"/><path class="cls-1" d="M2549.73,149.65c-13.86-16.13-33.32-24.31-57.86-24.31-24.37,0-43.87,8.14-57.92,24.19s-21.22,38.5-21.22,66.58,7.08,50.7,21,66.95,33.4,24.44,57.86,24.44a93.28,93.28,0,0,0,19.19-1.89l26.34,24.1,6.75-7.38-21.83-20a66.82,66.82,0,0,0,27.52-19.29c14-16.25,21.05-38.69,21.05-66.71S2563.61,165.82,2549.73,149.65Zm-7.95,126.94c-11.52,14.05-28.39,21.18-50.15,21.18-21.6,0-38.41-7.19-50-21.36s-17.36-34.32-17.36-60.06,5.9-45.76,17.55-59.75,28.53-21.16,50-21.16,38.38,7.05,49.91,21,17.3,34,17.3,59.93S2553.26,262.61,2541.78,276.59Z"/></svg>