<?xml version="1.0" encoding="utf-8"?>
<!-- Generator: Adobe Illustrator 24.2.3, SVG Export Plug-In . SVG Version: 6.00 Build 0)  -->
<svg version="1.1" id="Layer_1" xmlns="http://www.w3.org/2000/svg" xmlns:xlink="http://www.w3.org/1999/xlink" x="0px" y="0px"
	 viewBox="0 0 539.2 144" style="enable-background:new 0 0 539.2 144;" xml:space="preserve">
<style type="text/css">
	.st0{display:none;}
	.st1{display:inline;}
</style>
<g id="Seehund_black">
	<g id="Wht_seal_blck_cloud">
		<path d="M174.5,85.1c3.5-5,5.5-11,5.5-17.5c0-17-13.8-30.7-30.7-30.7c-0.4,0-0.8,0-1.2,0c-5.5-21.3-24.8-37-47.7-37
			c-25.6,0-46.6,19.5-49,44.3c-0.7,0-1.4,0-2.1,0C22.1,44.3,0,66.3,0,93.5s22.2,46.4,49.3,49.2c12.3,1.3,31.9,1.3,52.2,1.3
			c24.4,0,45.3,0,57.5-1.3c16.9-1.8,31.4-13.8,31.4-30.7C190.4,100.5,184,90.4,174.5,85.1z M117.8,116.4c-7.8,3.9-11.1,6-21.6,6.8
			c-8.9,11-28,13.9-23.8,9c9.1-10.6,7-10.9,1.3-12.9C37.9,107,59,79.5,34.8,73.2c-6.8-1.8,13.1-1.3,17.6-2S67.2,60.1,63.1,66
			c-7.9,11.5,6.2,37.7,18.5,7.1c3.4-8.5,5.5-27,10.7-33.6c7.5-10.3,17.9-14.1,29.5-5c5.5,4.4,9.4,1.5,8.7,8.9
			c-0.3,3.6-3.8,5.8-8.1,6.2c-5.1,0.5-5.3,9.4,0.4,24.6c2.3,6.1,2.7,10.3,2.7,13.7c0,3.4,0,6,0.2,8.8c0.9,9.2,11.4,19.8,11.9,21.4
			C138.6,121.1,126.5,120.1,117.8,116.4z"/>
		<ellipse id="eye_2_" transform="matrix(0.9188 -0.3946 0.3946 0.9188 -6.1208 48.0636)" cx="113.8" cy="38.9" rx="2.7" ry="2.2"/>
	</g>
	<g>
		<g>
			<path d="M241,66.2c4.8,0,8.9,1,12.2,2.9c3.3,2,5.1,4.1,5.1,6.2c0,0.6-0.1,1.2-0.4,1.6s-0.6,0.7-1,0.9c-0.4,0.1-0.7,0.3-1.2,0.3
				c-0.7,0-1.7-0.4-3.2-1.2c-1.5-0.7-3-1.5-4.8-2.2c-1.7-0.7-3.3-1.2-4.9-1.2c-2.3,0-3.5,1-3.5,2.9c0,0.6,0.1,1.2,0.6,1.7
				c0.4,0.6,1,1.2,1.9,1.7s1.6,1.2,2.5,1.6c0.9,0.4,1.9,1,3.3,1.7c1.5,0.7,2.6,1.5,3.5,1.9c3,1.7,5.2,3.5,6.5,5.1
				c1.3,1.6,1.9,3.5,1.9,5.5c0,8.3-5.5,12.5-16.7,12.5c-2.2,0-4.4-0.3-6.4-0.7s-3.9-1-5.4-1.7c-1.6-0.7-2.9-1.5-4.1-2.5
				c-1.2-0.9-2-1.7-2.6-2.8c-0.6-0.9-0.9-1.7-0.9-2.6c0-0.9,0.3-1.6,0.9-2.3c0.6-0.6,1.5-0.9,2.6-0.9c0.9,0,2.9,0.6,6.1,1.6
				c3.2,1,5.8,1.6,7.7,1.6c1.7,0,2.8-0.6,2.8-1.9c0-0.3,0-0.7-0.1-1s-0.4-0.6-0.7-0.9s-0.7-0.6-1.2-0.9s-1-0.6-1.7-1
				c-0.7-0.4-1.5-0.9-2.2-1.2c-0.7-0.4-1.7-0.9-2.9-1.6c-1.2-0.6-2.3-1.3-3.5-1.9c-1.5-0.9-2.8-1.9-3.8-3.2s-1.9-2.5-2.3-3.6
				c-0.4-1.2-0.7-2.3-0.7-3.3c0-3.3,1.5-6.1,4.5-8.3C231.1,67.2,235.5,66.2,241,66.2z"/>
			<path d="M293.4,83.3c2.2,0,3.6,0.3,4.5,1c0.9,0.7,1.3,1.9,1.3,3.5c0,1.3-0.6,2.3-1.6,2.9c-1,0.6-2.6,0.9-4.8,0.9h-9.7V98h13.1
				c2.2,0,3.9,0.3,4.8,1c1,0.7,1.5,1.9,1.5,3.5c0,1.9-0.6,3.2-1.7,4.1c-1.2,0.7-2.9,1.2-5.2,1.2h-19.3c-2.3,0-4.1-0.6-5.2-1.9
				c-1.2-1.3-1.6-3.5-1.6-6.7V73.7c0-4.8,2.3-7.3,6.8-7.3h19.5c2.3,0,4.1,0.3,5.2,1c1.2,0.7,1.7,2,1.7,3.9c0,1.7-0.4,3-1.5,3.6
				c-1,0.7-2.6,1-4.8,1h-13.1v7h10.2V83.3z"/>
			<path d="M336.8,83.3c2.2,0,3.6,0.3,4.5,1c0.9,0.7,1.3,1.9,1.3,3.5c0,1.3-0.6,2.3-1.6,2.9c-1,0.6-2.6,0.9-4.8,0.9h-9.7V98h13.1
				c2.2,0,3.9,0.3,4.8,1c1,0.7,1.5,1.9,1.5,3.5c0,1.9-0.6,3.2-1.7,4.1c-1.2,0.7-2.9,1.2-5.2,1.2h-19.5c-2.3,0-4.1-0.6-5.2-1.9
				c-1.2-1.3-1.6-3.5-1.6-6.7V73.7c0-4.8,2.3-7.3,6.8-7.3h19.5c2.3,0,4.1,0.3,5.2,1c1.2,0.7,1.7,2,1.7,3.9c0,1.7-0.4,3-1.5,3.6
				c-1,0.7-2.6,1-4.8,1h-13.1v7h10.3V83.3z"/>
			<path d="M395.4,98.7c0,3.2-0.6,5.5-1.7,7c-1.2,1.5-2.9,2-5.2,2s-4.1-0.6-5.1-1.9c-1-1.3-1.6-3.5-1.6-6.7v-6.8h-12.2v6.4
				c0,3.3-0.6,5.7-1.7,7s-2.9,2-5.4,2c-2.3,0-4.1-0.6-5.1-1.9c-1-1.3-1.6-3.5-1.6-6.7l-0.1-25.4c0-2.5,0.6-4.4,1.9-5.5
				s2.9-1.7,5.1-1.7c2.5,0,4.2,0.4,5.4,1.3c1.2,0.9,1.7,2.6,1.7,5.4v10.2h12.2v-9.6c0-1.7,0.3-3,0.9-4.2c0.6-1.2,1.5-1.9,2.5-2.3
				c1-0.4,2.2-0.7,3.5-0.7c2.3,0,4.1,0.4,5.2,1.3c1.2,0.9,1.7,2.6,1.7,5.4v25.6H395.4z"/>
			<path d="M442.3,73.7v17.9c0,5.8-1.5,10-4.2,12.6c-2.8,2.6-7.6,3.8-14.2,3.8c-6.4,0-11-1.3-14.1-4.1c-3-2.8-4.5-6.8-4.5-12.3V73.7
				c0-2.2,0.6-3.9,1.9-5.2c1.3-1.3,2.9-2,4.8-2c2.3,0,4.2,0.4,5.4,1.3c1.2,0.9,1.9,2.6,1.9,5.4v19.6c0,1.3,0.3,2.3,0.6,3
				s0.9,1.3,1.6,1.6c0.6,0.3,1.5,0.4,2.5,0.4c1,0,1.9-0.1,2.5-0.3c0.6-0.3,1.2-0.6,1.5-1.2c0.3-0.6,0.4-1,0.6-1.6
				c0.1-0.6,0.1-1.2,0.1-2V73.2c0-1.3,0.1-2.5,0.6-3.5c0.3-0.9,0.9-1.6,1.6-2c0.7-0.4,1.5-0.7,2.2-0.9c0.7-0.1,1.6-0.3,2.6-0.3
				c2.3,0,4.1,0.6,5.2,1.7C441.7,69.4,442.3,71.3,442.3,73.7z"/>
			<path d="M491.5,102.1c0,1.7-0.6,3.2-1.6,4.2c-1,1-2.6,1.6-4.5,1.6c-0.6,0-1,0-1.6-0.1s-1-0.3-1.6-0.7c-0.6-0.3-1.2-0.6-1.6-0.9
				c-0.4-0.3-1-0.7-1.6-1.3c-0.7-0.6-1.2-1-1.6-1.5c-0.4-0.3-1-0.9-1.7-1.6c-0.9-0.7-1.5-1.3-1.7-1.7l-11-10.5v13.1
				c0,2-0.4,3.3-1.2,4.1c-0.7,0.7-1.9,1-3.5,1c-1.7,0-3-0.4-3.9-1.2c-0.9-0.9-1.3-2.2-1.3-4.1v-29c0-2.3,0.6-4.1,1.7-5.2
				c1.2-1.2,2.8-1.7,4.9-1.7c1.5,0,2.6,0.3,3.6,0.7c0.9,0.4,2,1.3,3.2,2.5l15.2,15.1V71.7c0-1.7,0.4-3,1.3-3.9s2-1.3,3.5-1.3
				c1.7,0,2.9,0.4,3.8,1.2c0.7,0.9,1.2,2,1.2,3.9L491.5,102.1L491.5,102.1z"/>
			<path d="M518.2,66.6c6.2,0,11.3,1.7,15.1,5.4c3.8,3.6,5.7,8.6,5.7,15c0,2-0.1,4.1-0.6,6c-0.4,1.9-1,3.8-1.9,5.7
				c-0.9,1.9-2,3.3-3.3,4.8c-1.3,1.3-3,2.5-5.1,3.2c-2,0.9-4.4,1.2-7,1.2h-11.9c-2.5,0-4.2-0.6-5.2-1.9c-1-1.3-1.6-3.5-1.6-6.7V73.7
				c0-4.8,2.3-7.1,6.8-7.1C509.2,66.6,518.2,66.6,518.2,66.6z M516.5,99.6c1,0,1.9-0.1,2.8-0.3c0.7-0.3,1.5-0.6,2.2-1.2
				s1.3-1.3,1.7-2.3c0.4-1,0.7-2.2,1-3.6s0.4-3.3,0.4-5.4c0-2.3-0.1-4.2-0.6-5.8c-0.4-1.6-1-2.8-1.7-3.6s-1.6-1.5-2.5-1.7
				c-0.9-0.3-2-0.6-3.3-0.6V99.6z"/>
		</g>
		<g>
			<path d="M232.2,45.2c0-0.4-0.3-0.7-0.7-0.7c-0.4,0-0.7,0.1-1,0.6s-0.6,0.9-0.7,1.4c-0.1,0.6-0.3,1.3-0.3,1.9c0,1,0.3,1.7,0.9,2.3
				c0.6,0.6,1.4,0.9,2.3,0.9c1,0,1.9-0.1,2.6-0.3c0.3-0.1,0.6-0.3,1-0.4c0.4-0.1,0.7-0.3,0.9-0.3c0.3,0,0.4,0,0.7,0.1
				c0.1,0.1,0.3,0.1,0.3,0.3s0.1,0.3,0.1,0.4c0,0.3-0.1,0.6-0.3,1c-0.1,0.4-0.4,0.7-0.9,1.2s-0.9,0.9-1.3,1.2
				c-0.6,0.3-1.2,0.6-1.9,0.9s-1.6,0.3-2.3,0.3c-2.5,0-4.3-0.6-5.9-1.9s-2.3-3-2.3-5.2c0-1.4,0.3-2.6,1-3.8c0.7-1,1.7-1.9,2.9-2.5
				c1.3-0.6,2.6-0.9,4.2-0.9c1.6,0,2.7,0.1,3.8,0.6c1,0.3,1.7,0.9,2.2,1.4c0.4,0.6,0.6,1.3,0.6,2.2c0,0.4,0,0.7-0.1,1.2
				c-0.1,0.4-0.4,0.7-0.7,1.2s-0.7,0.7-1.3,0.9c-0.6,0.3-1.3,0.3-2,0.3c-0.3,0-0.6,0-0.9,0c-0.3,0-0.4-0.1-0.7-0.3s-0.4-0.3-0.6-0.6
				c-0.1-0.3-0.1-0.7-0.1-1.2s0-0.9,0.1-1.4C232.1,45.6,232.2,45.3,232.2,45.2z"/>
			<path d="M247.2,51.5c0,1.6-0.3,2.7-0.7,3.3c-0.6,0.7-1.3,1-2.5,1c-1,0-1.9-0.3-2.3-0.9c-0.4-0.6-0.7-1.7-0.7-3.2V39.7
				c0-0.4,0-1,0.1-1.3c0.1-0.3,0.3-0.7,0.4-1s0.4-0.4,0.7-0.7c0.3-0.1,0.6-0.3,0.9-0.4c0.3-0.1,0.7-0.1,1-0.1c1,0,1.9,0.1,2.3,0.6
				c0.6,0.4,0.7,1.3,0.7,2.6L247.2,51.5L247.2,51.5z"/>
			<path d="M257.8,56.2c-1.4,0-2.9-0.3-4-0.9c-1.2-0.6-2.2-1.3-2.9-2.5c-0.7-1-1.2-2.3-1.2-3.8c0-2.2,0.7-3.9,2.3-5.2
				c1.4-1.3,3.5-1.9,5.8-1.9c2.3,0,4.3,0.6,5.8,1.9s2.2,3,2.2,5.2s-0.7,3.9-2.3,5.2C261.9,55.4,260.1,56.2,257.8,56.2z M259.2,49.1
				c0-1-0.1-1.9-0.4-2.6c-0.3-0.7-0.6-1.2-1.2-1.2c-0.3,0-0.6,0.1-0.9,0.6c-0.3,0.4-0.4,0.9-0.6,1.4c-0.1,0.6-0.1,1.2-0.1,1.7
				c0,1,0.1,1.9,0.4,2.6c0.3,0.7,0.7,1.2,1.2,1.2s0.9-0.4,1.2-1.2S259.2,50.1,259.2,49.1z"/>
			<path d="M274.5,49.8c0,1.2,0.4,1.6,1.3,1.6c0.3,0,0.6-0.1,0.7-0.3c0.3-0.1,0.4-0.4,0.4-0.7c0.1-0.3,0.1-0.7,0.1-1.2v-3.9
				c0-0.7,0.1-1.2,0.3-1.7c0.3-0.4,0.6-0.9,1-1.2c0.4-0.3,1-0.4,1.6-0.4c1,0,1.9,0.3,2.5,0.7s0.9,1.3,0.9,2.5v7.5
				c0,1.2-0.3,2-0.7,2.5c-0.4,0.4-1.3,0.7-2.6,0.7c-0.6,0-1,0-1.3-0.1c-0.4-0.1-0.7-0.3-0.9-0.4c-0.3-0.1-0.4-0.4-0.4-0.9
				c-0.7,0.6-1.6,0.9-2.5,1.2c-0.9,0.3-1.9,0.3-2.9,0.3c-1.3,0-2.3-0.6-2.9-1.6s-0.9-2.9-0.9-5.2c0-1.2,0-2.2,0.1-2.9
				c0.1-0.7,0.1-1.4,0.3-2c0.1-0.6,0.3-1,0.6-1.2c0.3-0.3,0.6-0.4,0.9-0.6s0.9-0.1,1.4-0.1c1,0,1.9,0.1,2.3,0.6
				c0.4,0.4,0.7,1,0.7,1.9L274.5,49.8z"/>
			<path d="M301.5,51.5c0,1.6-0.3,2.6-0.7,3.3c-0.6,0.7-1.3,1-2.5,1c-1.3,0-2-0.4-2.6-1.2c-1.3,0.9-2.7,1.3-4.5,1.3
				c-1.4,0-2.7-0.6-3.8-1.9c-1-1.3-1.4-2.9-1.4-5.1c0-2.2,0.4-3.9,1.4-5.2c1-1.3,2.3-1.9,3.8-1.9s2.7,0.4,3.9,1.3v-3.8
				c0-1.2,0.3-2,0.9-2.6s1.3-0.9,2.3-0.9c1,0,1.9,0.1,2.3,0.6c0.6,0.4,0.7,1.3,0.7,2.6v12.3H301.5z M295.3,51.8v-5.3
				c-0.3-0.6-0.7-0.9-1.3-0.9c-0.3,0-0.6,0.1-0.9,0.6c-0.3,0.4-0.4,0.9-0.6,1.3c-0.1,0.6-0.1,1.2-0.1,1.7c0,0.9,0.1,1.7,0.4,2.3
				c0.3,0.7,0.7,1,1.2,1c0.1,0,0.1,0,0.3,0s0.1,0,0.3-0.1s0.1,0,0.3-0.1c0.1,0,0.1-0.1,0.1-0.1l0.1-0.1
				C295.2,52,295.2,51.8,295.3,51.8z"/>
			<path d="M320.9,48.2c0-1-0.4-1.6-1.3-1.6c-0.4,0-0.7,0.1-1,0.4c-0.3,0.3-0.4,0.7-0.4,1.3v4.5c0,1.2-0.3,2-0.7,2.5
				c-0.4,0.4-1.3,0.7-2.6,0.7c-1.2,0-1.9-0.3-2.3-0.7c-0.4-0.6-0.6-1.4-0.6-2.6v-7.1c0-1,0.3-1.7,0.7-2.3c0.6-0.6,1.3-0.9,2.2-0.9
				c0.7,0,1.3,0.1,1.9,0.3c0.4,0.1,0.9,0.6,1.2,1.2c1.4-1,3.3-1.4,5.5-1.4c1.3,0,2.3,0.6,2.9,1.6s0.9,2.9,0.9,5.3
				c0,1.2,0,2.2-0.1,2.9c0,0.7-0.1,1.4-0.3,2s-0.3,1-0.6,1.2c-0.3,0.3-0.6,0.4-0.9,0.6s-0.9,0.1-1.3,0.1c-1,0-1.9-0.1-2.3-0.6
				c-0.4-0.4-0.7-1-0.7-1.7L320.9,48.2z"/>
			<path d="M334.7,56.2c-1.6,0-2.7-0.6-3.8-1.9c-1-1.3-1.4-2.9-1.4-5.1c0-2.2,0.4-3.9,1.4-5.2c1-1.3,2.3-1.9,3.8-1.9
				c1.6,0,3,0.6,4.3,1.6c0.6-1,1.3-1.4,2.5-1.4c1,0,1.9,0.3,2.5,0.7c0.6,0.4,0.9,1.3,0.9,2.5V53c0,1.2-0.3,2-0.7,2.5
				c-0.4,0.4-1.3,0.7-2.6,0.7s-2.2-0.3-2.5-1C337.7,55.7,336.3,56.2,334.7,56.2z M338.6,46.3c-0.3-0.6-0.7-0.9-1.3-0.9
				c-0.4,0-0.9,0.4-1.2,1.2c-0.3,0.7-0.4,1.6-0.4,2.5s0.1,1.7,0.4,2.3c0.3,0.7,0.7,1,1.2,1c0.6,0,1-0.3,1.3-0.7V46.3z"/>
			<path d="M348.9,49.8v-3.5c-0.4,0-0.9-0.1-1.2-0.3c-0.3-0.1-0.4-0.3-0.6-0.6c-0.1-0.3-0.1-0.6-0.1-0.9c0-1.2,0.7-1.7,2-1.7v-2.7
				c0-0.7,0.6-1.4,1.6-2s2.2-0.9,3.2-0.9c0.6,0,1,0.1,1.3,0.6c0.3,0.4,0.3,0.9,0.3,1.6v3.3h0.7c1,0,1.7,0.1,2.2,0.4
				c0.4,0.3,0.6,0.7,0.6,1.4c0,0.3,0,0.6-0.1,0.7s-0.3,0.4-0.6,0.4c-0.3,0.1-0.6,0.1-0.9,0.3c-0.4,0-0.9,0.1-1.3,0.1h-0.6v3.2
				c0,0.3,0,0.6,0,0.7s0,0.3,0.1,0.4c0,0.1,0.1,0.1,0.3,0.3c0.1,0,0.3,0,0.4,0c0.3,0,0.4-0.1,0.6-0.3s0.3-0.3,0.3-0.6
				c0.1-0.1,0.1-0.4,0.3-0.6s0.3-0.3,0.6-0.3c0.4,0,0.7,0.1,1,0.3s0.3,0.4,0.3,0.7c0,0.6-0.1,1-0.3,1.7c-0.1,0.6-0.4,1.2-0.9,1.7
				c-0.4,0.6-0.9,1-1.6,1.4c-0.7,0.4-1.4,0.6-2.3,0.6c-1.9,0-3.3-0.4-4-1.4C349.3,53.6,348.9,52,348.9,49.8z"/>
			<path d="M361.9,38.1c0-0.6,0.3-1.2,0.9-1.6c0.6-0.4,1.3-0.6,2.3-0.6c2.2,0,3.2,0.7,3.2,2.2c0,0.9-0.3,1.4-0.7,1.7
				c-0.6,0.3-1.3,0.4-2.3,0.4c-0.9,0-1.6-0.1-2.3-0.6C362.1,39.4,361.9,39,361.9,38.1z M368.1,52.8c0,1.2-0.3,2-0.7,2.5
				c-0.4,0.4-1.3,0.7-2.6,0.7c-1.2,0-1.9-0.3-2.3-0.7c-0.4-0.6-0.6-1.4-0.6-2.6v-7.1c0-1,0.3-1.7,0.7-2.3c0.6-0.6,1.3-0.9,2.2-0.9
				c1,0,1.9,0.3,2.5,0.7c0.6,0.4,0.9,1.3,0.9,2.5L368.1,52.8L368.1,52.8z"/>
			<path d="M378.3,51.5c0.6,0,0.9-0.1,1-0.4c0.1-0.3,0.3-0.9,0.3-1.7v-4.6c0-0.6,0.1-1,0.3-1.4c0.1-0.4,0.6-0.6,1-0.9
				c0.4-0.1,1.2-0.3,1.9-0.3c0.6,0,1,0,1.3,0.1c0.3,0.1,0.6,0.3,0.9,0.6c0.3,0.3,0.4,0.7,0.6,1.2c0.1,0.6,0.1,1.2,0.3,1.9
				c0,0.7,0.1,1.7,0.1,2.7c0,1-0.1,2-0.4,2.7c-0.3,0.7-0.7,1.4-1.3,2s-1.2,1-1.7,1.3c-0.7,0.3-1.3,0.6-2,0.7s-1.3,0.1-2,0.1
				s-1.3,0-2-0.1c-0.7-0.1-1.3-0.4-2-0.7s-1.3-0.9-1.7-1.3c-0.4-0.4-1-1.2-1.3-2c-0.3-0.9-0.4-1.7-0.4-2.7c0-1.9,0.1-3.3,0.3-4.2
				s0.4-1.6,0.9-1.9c0.4-0.3,1-0.6,1.9-0.6c1.2,0,2,0.1,2.6,0.6c0.4,0.4,0.7,1,0.7,1.9v4.6c0,0.3,0,0.6,0,0.7s0,0.3,0,0.6
				c0,0.1,0,0.4,0.1,0.4c0,0.1,0.1,0.1,0.1,0.3c0.1,0.1,0.1,0.1,0.3,0.1C377.9,51.5,378,51.5,378.3,51.5z"/>
			<path d="M396.5,56.2c-2.3,0-4.3-0.6-5.8-1.9c-1.6-1.2-2.3-2.9-2.3-4.9c0-2.3,0.7-4,2.3-5.3c1.4-1.3,3.5-2,5.8-2
				c2.3,0,3.9,0.4,4.9,1.2c1,0.9,1.6,1.9,1.6,3.3c0,0.3,0,0.6-0.1,0.7c0,0.3-0.1,0.4-0.3,0.7s-0.3,0.4-0.6,0.7s-0.6,0.4-0.9,0.6
				s-0.7,0.3-1.2,0.4c-0.4,0.1-0.9,0.1-1.3,0.1h-4c0.1,0.6,0.6,1.2,1,1.4c0.4,0.3,1.2,0.6,1.9,0.6c0.9,0,1.7-0.1,2.6-0.3
				c0.4-0.1,0.7-0.3,1.2-0.4c0.4-0.1,0.7-0.3,0.9-0.3c0.3,0,0.6,0.1,0.7,0.3s0.3,0.4,0.3,0.7s-0.1,0.7-0.4,1.3
				c-0.3,0.4-0.7,1-1.3,1.4s-1.3,0.9-2.2,1.3C398.5,55.9,397.5,56.2,396.5,56.2z M394.5,47.8c1.3,0,2,0,2.2,0c0.3,0,0.4-0.1,0.6-0.6
				c0.1-0.3,0.1-0.6,0.1-1c0-1.2-0.4-1.9-1.2-1.9c-0.3,0-0.6,0.1-0.7,0.4c-0.3,0.3-0.4,0.7-0.7,1.2
				C394.8,46.6,394.6,47.2,394.5,47.8z"/>
			<path d="M419.9,43.3c1.3-1,2.6-1.4,4.2-1.4c1.4,0,2.7,0.6,3.8,1.9c1,1.3,1.4,2.9,1.4,4.8c0,2.3-0.7,4.2-2.3,5.5
				c-1.6,1.3-3.5,2-5.9,2c-1.4,0-2.7-0.1-3.9-0.6c-1.2-0.4-2-1-2.6-1.9c-0.6-0.9-1-1.9-1-3V39.7c0-1.2,0.3-2,0.9-2.6
				s1.3-0.9,2.3-0.9c1,0,1.9,0.3,2.3,0.7c0.6,0.6,0.7,1.3,0.7,2.5v3.9H419.9z M419.9,51.5c0.3,0.7,0.9,1,1.4,1s0.9-0.3,1.2-1
				c0.3-0.7,0.4-1.4,0.4-2.3c0-0.4,0-0.9-0.1-1.3c-0.1-0.4-0.1-0.9-0.3-1.2c-0.1-0.3-0.3-0.6-0.6-0.9c-0.1-0.3-0.4-0.3-0.7-0.3
				c-0.6,0-1,0.3-1.4,1c0,0.3,0,1,0,2.2C419.9,50,419.9,50.8,419.9,51.5z"/>
			<path d="M437.9,51.5c0,1.6-0.3,2.7-0.7,3.3c-0.6,0.7-1.3,1-2.5,1c-1,0-1.9-0.3-2.3-0.9c-0.4-0.6-0.7-1.7-0.7-3.2V39.7
				c0-0.4,0-1,0.1-1.3s0.3-0.7,0.4-1c0.1-0.3,0.4-0.4,0.7-0.7c0.3-0.1,0.6-0.3,0.9-0.4c0.3-0.1,0.7-0.1,1-0.1c1,0,1.9,0.1,2.3,0.6
				c0.6,0.4,0.7,1.3,0.7,2.6V51.5z"/>
			<path d="M448.5,56.2c-1.4,0-2.9-0.3-4-0.9s-2.2-1.3-2.9-2.5c-0.7-1-1.2-2.3-1.2-3.8c0-2.2,0.7-3.9,2.3-5.2
				c1.4-1.3,3.5-1.9,5.8-1.9c2.3,0,4.3,0.6,5.8,1.9c1.4,1.3,2.2,3,2.2,5.2s-0.7,3.9-2.3,5.2C452.7,55.4,450.8,56.2,448.5,56.2z
				 M449.9,49.1c0-1-0.1-1.9-0.4-2.6c-0.3-0.7-0.6-1.2-1.2-1.2c-0.3,0-0.6,0.1-0.9,0.6s-0.4,0.9-0.6,1.4c-0.1,0.6-0.1,1.2-0.1,1.7
				c0,1,0.1,1.9,0.4,2.6c0.3,0.7,0.7,1.2,1.2,1.2s0.9-0.4,1.2-1.2C449.9,51,449.9,50.1,449.9,49.1z"/>
			<path d="M464.1,56.2c-1.6,0-2.7-0.6-3.8-1.9s-1.4-2.9-1.4-5.1c0-2.2,0.4-3.9,1.4-5.2s2.3-1.9,3.8-1.9c1.6,0,3,0.6,4.3,1.6
				c0.4-1,1.3-1.4,2.5-1.4c1,0,1.9,0.3,2.5,0.7c0.6,0.4,0.9,1.3,0.9,2.5v5.3c0,1.9-0.1,3.5-0.3,4.8c-0.3,1.3-0.7,2.5-1.3,3.5
				c-0.6,1-1.4,1.7-2.5,2.3c-1,0.4-2.3,0.7-3.8,0.7c-1,0-2-0.1-2.9-0.4c-0.9-0.3-1.6-0.6-2.2-1c-0.6-0.4-0.9-0.9-1.2-1.3
				c-0.3-0.4-0.4-0.7-0.4-1.2s0.1-0.7,0.3-0.9c0.1-0.3,0.6-0.4,0.9-0.4s0.9,0.3,1.7,0.7c0.9,0.4,1.7,0.7,2.3,0.7c2,0,2.9-1,2.9-3
				C466.8,55.9,465.5,56.2,464.1,56.2z M468.1,51.8v-5.5c-0.3-0.6-0.7-0.9-1.3-0.9c-0.3,0-0.6,0.1-0.9,0.6s-0.4,0.9-0.6,1.3
				c-0.1,0.6-0.1,1.2-0.1,1.7c0,0.9,0.1,1.7,0.4,2.3c0.3,0.7,0.7,1,1.2,1S467.7,52.3,468.1,51.8z"/>
			<path d="M482.1,56.2c-1.6,0-2.7-0.6-3.8-1.9s-1.4-2.9-1.4-5.1c0-2.2,0.4-3.9,1.4-5.2s2.3-1.9,3.8-1.9c1.6,0,3,0.6,4.3,1.6
				c0.4-1,1.3-1.4,2.5-1.4c1,0,1.9,0.3,2.5,0.7c0.6,0.4,0.9,1.3,0.9,2.5v5.3c0,1.9-0.1,3.5-0.3,4.8c-0.3,1.3-0.7,2.5-1.3,3.5
				c-0.6,1-1.4,1.7-2.5,2.3c-1,0.4-2.3,0.7-3.8,0.7c-1,0-2-0.1-2.9-0.4c-0.9-0.3-1.6-0.6-2.2-1c-0.6-0.4-0.9-0.9-1.2-1.3
				c-0.3-0.4-0.4-0.7-0.4-1.2s0.1-0.7,0.3-0.9c0.1-0.3,0.6-0.4,0.9-0.4s0.9,0.3,1.7,0.7c0.9,0.4,1.7,0.7,2.3,0.7c2,0,2.9-1,2.9-3
				C484.9,55.9,483.6,56.2,482.1,56.2z M486,51.8v-5.5c-0.3-0.6-0.7-0.9-1.3-0.9c-0.3,0-0.6,0.1-0.9,0.6c-0.3,0.4-0.4,0.9-0.6,1.3
				c-0.1,0.6-0.1,1.2-0.1,1.7c0,0.9,0.1,1.7,0.4,2.3c0.3,0.7,0.7,1,1.2,1C485.1,52.4,485.7,52.3,486,51.8z"/>
			<path d="M494.8,38.1c0-0.6,0.3-1.2,0.9-1.6c0.6-0.4,1.3-0.6,2.3-0.6c2.2,0,3.2,0.7,3.2,2.2c0,0.9-0.3,1.4-0.7,1.7
				c-0.6,0.3-1.3,0.4-2.3,0.4c-0.9,0-1.6-0.1-2.3-0.6C495.1,39.4,494.8,39,494.8,38.1z M501,52.8c0,1.2-0.3,2-0.7,2.5
				c-0.4,0.4-1.3,0.7-2.6,0.7c-1.2,0-1.9-0.3-2.3-0.7c-0.4-0.6-0.6-1.4-0.6-2.6v-7.1c0-1,0.3-1.7,0.7-2.3c0.6-0.6,1.3-0.9,2.2-0.9
				c1,0,1.9,0.3,2.5,0.7c0.6,0.4,0.9,1.3,0.9,2.5L501,52.8L501,52.8z"/>
			<path d="M512.6,48.2c0-1-0.4-1.6-1.3-1.6c-0.4,0-0.7,0.1-1,0.4c-0.3,0.3-0.4,0.7-0.4,1.3v4.5c0,1.2-0.3,2-0.7,2.5
				c-0.4,0.4-1.3,0.7-2.6,0.7c-1.2,0-1.9-0.3-2.3-0.7c-0.4-0.6-0.6-1.4-0.6-2.6v-7.1c0-1,0.3-1.7,0.7-2.3c0.6-0.6,1.3-0.9,2.2-0.9
				c0.7,0,1.3,0.1,1.9,0.3c0.4,0.1,0.9,0.6,1.2,1.2c1.4-1,3.3-1.4,5.5-1.4c1.3,0,2.3,0.6,2.9,1.6c0.6,1,0.9,2.9,0.9,5.3
				c0,1.2,0,2.2-0.1,2.9c0,0.7-0.1,1.4-0.3,2c-0.1,0.6-0.3,1-0.6,1.2c-0.3,0.3-0.6,0.4-0.9,0.6c-0.3,0.1-0.9,0.1-1.3,0.1
				c-1,0-1.9-0.1-2.3-0.6c-0.4-0.4-0.7-1-0.7-1.7L512.6,48.2z"/>
			<path d="M526.4,56.2c-1.6,0-2.7-0.6-3.8-1.9s-1.4-2.9-1.4-5.1c0-2.2,0.4-3.9,1.4-5.2s2.3-1.9,3.8-1.9c1.6,0,3,0.6,4.3,1.6
				c0.4-1,1.3-1.4,2.5-1.4c1,0,1.9,0.3,2.5,0.7c0.6,0.4,0.9,1.3,0.9,2.5v5.3c0,1.9-0.1,3.5-0.3,4.8c-0.3,1.3-0.7,2.5-1.3,3.5
				c-0.6,1-1.4,1.7-2.5,2.3c-1,0.4-2.3,0.7-3.8,0.7c-1,0-2-0.1-2.9-0.4c-0.9-0.3-1.6-0.6-2.2-1c-0.6-0.4-0.9-0.9-1.2-1.3
				s-0.4-0.7-0.4-1.2s0.1-0.7,0.3-0.9c0.1-0.3,0.6-0.4,0.9-0.4s0.9,0.3,1.7,0.7c0.9,0.4,1.7,0.7,2.3,0.7c2,0,2.9-1,2.9-3
				C529.2,55.9,527.9,56.2,526.4,56.2z M530.3,51.8v-5.5c-0.3-0.6-0.7-0.9-1.3-0.9c-0.3,0-0.6,0.1-0.9,0.6s-0.4,0.9-0.6,1.3
				c-0.1,0.6-0.1,1.2-0.1,1.7c0,0.9,0.1,1.7,0.4,2.3c0.3,0.7,0.7,1,1.2,1S530,52.3,530.3,51.8z"/>
		</g>
	</g>
</g>
<g id="Seehund_white" class="st0">
	<g id="Wht_seal_blck_cloud_1_" class="st1">
		<path class="st2" d="M174.5,85.1c3.5-5,5.5-11,5.5-17.5c0-17-13.8-30.7-30.7-30.7c-0.4,0-0.8,0-1.2,0c-5.5-21.3-24.8-37-47.7-37
			c-25.6,0-46.6,19.5-49,44.3c-0.7,0-1.4,0-2.1,0C22.1,44.3,0,66.3,0,93.5s22.2,46.4,49.3,49.2c12.3,1.3,31.9,1.3,52.2,1.3
			c24.4,0,45.3,0,57.5-1.3c16.9-1.8,31.4-13.8,31.4-30.7C190.4,100.5,184,90.4,174.5,85.1z M117.8,116.4c-7.8,3.9-11.1,6-21.6,6.8
			c-8.9,11-28,13.9-23.8,9c9.1-10.6,7-10.9,1.3-12.9C37.9,107,59,79.5,34.8,73.2c-6.8-1.8,13.1-1.3,17.6-2S67.2,60.1,63.1,66
			c-7.9,11.5,6.2,37.7,18.5,7.1c3.4-8.5,5.5-27,10.7-33.6c7.5-10.3,17.9-14.1,29.5-5c5.5,4.4,9.4,1.5,8.7,8.9
			c-0.3,3.6-3.8,5.8-8.1,6.2c-5.1,0.5-5.3,9.4,0.4,24.6c2.3,6.1,2.7,10.3,2.7,13.7c0,3.4,0,6,0.2,8.8c0.9,9.2,11.4,19.8,11.9,21.4
			C138.6,121.1,126.5,120.1,117.8,116.4z"/>

			<ellipse id="eye_1_" transform="matrix(0.9188 -0.3946 0.3946 0.9188 -6.1208 48.0636)" class="st2" cx="113.8" cy="38.9" rx="2.7" ry="2.2"/>
	</g>
	<g class="st1">
		<g>
			<path class="st2" d="M241,66.2c4.8,0,8.9,1,12.2,2.9c3.3,2,5.1,4.1,5.1,6.2c0,0.6-0.1,1.2-0.4,1.6s-0.6,0.7-1,0.9
				c-0.4,0.1-0.7,0.3-1.2,0.3c-0.7,0-1.7-0.4-3.2-1.2c-1.5-0.7-3-1.5-4.8-2.2c-1.7-0.7-3.3-1.2-4.9-1.2c-2.3,0-3.5,1-3.5,2.9
				c0,0.6,0.1,1.2,0.6,1.7c0.4,0.6,1,1.2,1.9,1.7s1.6,1.2,2.5,1.6c0.9,0.4,1.9,1,3.3,1.7c1.5,0.7,2.6,1.5,3.5,1.9
				c3,1.7,5.2,3.5,6.5,5.1c1.3,1.6,1.9,3.5,1.9,5.5c0,8.3-5.5,12.5-16.7,12.5c-2.2,0-4.4-0.3-6.4-0.7s-3.9-1-5.4-1.7
				c-1.6-0.7-2.9-1.5-4.1-2.5c-1.2-0.9-2-1.7-2.6-2.8c-0.6-0.9-0.9-1.7-0.9-2.6c0-0.9,0.3-1.6,0.9-2.3c0.6-0.6,1.5-0.9,2.6-0.9
				c0.9,0,2.9,0.6,6.1,1.6c3.2,1,5.8,1.6,7.7,1.6c1.7,0,2.8-0.6,2.8-1.9c0-0.3,0-0.7-0.1-1s-0.4-0.6-0.7-0.9s-0.7-0.6-1.2-0.9
				s-1-0.6-1.7-1c-0.7-0.4-1.5-0.9-2.2-1.2c-0.7-0.4-1.7-0.9-2.9-1.6c-1.2-0.6-2.3-1.3-3.5-1.9c-1.5-0.9-2.8-1.9-3.8-3.2
				s-1.9-2.5-2.3-3.6c-0.4-1.2-0.7-2.3-0.7-3.3c0-3.3,1.5-6.1,4.5-8.3C231.1,67.2,235.5,66.2,241,66.2z"/>
			<path class="st2" d="M293.4,83.3c2.2,0,3.6,0.3,4.5,1c0.9,0.7,1.3,1.9,1.3,3.5c0,1.3-0.6,2.3-1.6,2.9c-1,0.6-2.6,0.9-4.8,0.9
				h-9.7V98h13.1c2.2,0,3.9,0.3,4.8,1c1,0.7,1.5,1.9,1.5,3.5c0,1.9-0.6,3.2-1.7,4.1c-1.2,0.7-2.9,1.2-5.2,1.2h-19.3
				c-2.3,0-4.1-0.6-5.2-1.9c-1.2-1.3-1.6-3.5-1.6-6.7V73.7c0-4.8,2.3-7.3,6.8-7.3h19.5c2.3,0,4.1,0.3,5.2,1c1.2,0.7,1.7,2,1.7,3.9
				c0,1.7-0.4,3-1.5,3.6c-1,0.7-2.6,1-4.8,1h-13.1v7h10.2V83.3z"/>
			<path class="st2" d="M336.8,83.3c2.2,0,3.6,0.3,4.5,1c0.9,0.7,1.3,1.9,1.3,3.5c0,1.3-0.6,2.3-1.6,2.9c-1,0.6-2.6,0.9-4.8,0.9
				h-9.7V98h13.1c2.2,0,3.9,0.3,4.8,1c1,0.7,1.5,1.9,1.5,3.5c0,1.9-0.6,3.2-1.7,4.1c-1.2,0.7-2.9,1.2-5.2,1.2h-19.5
				c-2.3,0-4.1-0.6-5.2-1.9c-1.2-1.3-1.6-3.5-1.6-6.7V73.7c0-4.8,2.3-7.3,6.8-7.3h19.5c2.3,0,4.1,0.3,5.2,1c1.2,0.7,1.7,2,1.7,3.9
				c0,1.7-0.4,3-1.5,3.6c-1,0.7-2.6,1-4.8,1h-13.1v7h10.3V83.3z"/>
			<path class="st2" d="M395.4,98.7c0,3.2-0.6,5.5-1.7,7c-1.2,1.5-2.9,2-5.2,2s-4.1-0.6-5.1-1.9c-1-1.3-1.6-3.5-1.6-6.7v-6.8h-12.2
				v6.4c0,3.3-0.6,5.7-1.7,7s-2.9,2-5.4,2c-2.3,0-4.1-0.6-5.1-1.9c-1-1.3-1.6-3.5-1.6-6.7l-0.1-25.4c0-2.5,0.6-4.4,1.9-5.5
				s2.9-1.7,5.1-1.7c2.5,0,4.2,0.4,5.4,1.3c1.2,0.9,1.7,2.6,1.7,5.4v10.2h12.2v-9.6c0-1.7,0.3-3,0.9-4.2c0.6-1.2,1.5-1.9,2.5-2.3
				c1-0.4,2.2-0.7,3.5-0.7c2.3,0,4.1,0.4,5.2,1.3c1.2,0.9,1.7,2.6,1.7,5.4v25.6H395.4z"/>
			<path class="st2" d="M442.3,73.7v17.9c0,5.8-1.5,10-4.2,12.6c-2.8,2.6-7.6,3.8-14.2,3.8c-6.4,0-11-1.3-14.1-4.1
				c-3-2.8-4.5-6.8-4.5-12.3V73.7c0-2.2,0.6-3.9,1.9-5.2c1.3-1.3,2.9-2,4.8-2c2.3,0,4.2,0.4,5.4,1.3c1.2,0.9,1.9,2.6,1.9,5.4v19.6
				c0,1.3,0.3,2.3,0.6,3s0.9,1.3,1.6,1.6c0.6,0.3,1.5,0.4,2.5,0.4c1,0,1.9-0.1,2.5-0.3c0.6-0.3,1.2-0.6,1.5-1.2
				c0.3-0.6,0.4-1,0.6-1.6c0.1-0.6,0.1-1.2,0.1-2V73.2c0-1.3,0.1-2.5,0.6-3.5c0.3-0.9,0.9-1.6,1.6-2c0.7-0.4,1.5-0.7,2.2-0.9
				c0.7-0.1,1.6-0.3,2.6-0.3c2.3,0,4.1,0.6,5.2,1.7C441.7,69.4,442.3,71.3,442.3,73.7z"/>
			<path class="st2" d="M491.5,102.1c0,1.7-0.6,3.2-1.6,4.2c-1,1-2.6,1.6-4.5,1.6c-0.6,0-1,0-1.6-0.1s-1-0.3-1.6-0.7
				c-0.6-0.3-1.2-0.6-1.6-0.9c-0.4-0.3-1-0.7-1.6-1.3c-0.7-0.6-1.2-1-1.6-1.5c-0.4-0.3-1-0.9-1.7-1.6c-0.9-0.7-1.5-1.3-1.7-1.7
				l-11-10.5v13.1c0,2-0.4,3.3-1.2,4.1c-0.7,0.7-1.9,1-3.5,1c-1.7,0-3-0.4-3.9-1.2c-0.9-0.9-1.3-2.2-1.3-4.1v-29
				c0-2.3,0.6-4.1,1.7-5.2c1.2-1.2,2.8-1.7,4.9-1.7c1.5,0,2.6,0.3,3.6,0.7c0.9,0.4,2,1.3,3.2,2.5l15.2,15.1V71.7
				c0-1.7,0.4-3,1.3-3.9s2-1.3,3.5-1.3c1.7,0,2.9,0.4,3.8,1.2c0.7,0.9,1.2,2,1.2,3.9L491.5,102.1L491.5,102.1z"/>
			<path class="st2" d="M518.2,66.6c6.2,0,11.3,1.7,15.1,5.4c3.8,3.6,5.7,8.6,5.7,15c0,2-0.1,4.1-0.6,6c-0.4,1.9-1,3.8-1.9,5.7
				c-0.9,1.9-2,3.3-3.3,4.8c-1.3,1.3-3,2.5-5.1,3.2c-2,0.9-4.4,1.2-7,1.2h-11.9c-2.5,0-4.2-0.6-5.2-1.9c-1-1.3-1.6-3.5-1.6-6.7V73.7
				c0-4.8,2.3-7.1,6.8-7.1C509.2,66.6,518.2,66.6,518.2,66.6z M516.5,99.6c1,0,1.9-0.1,2.8-0.3c0.7-0.3,1.5-0.6,2.2-1.2
				s1.3-1.3,1.7-2.3c0.4-1,0.7-2.2,1-3.6s0.4-3.3,0.4-5.4c0-2.3-0.1-4.2-0.6-5.8c-0.4-1.6-1-2.8-1.7-3.6s-1.6-1.5-2.5-1.7
				c-0.9-0.3-2-0.6-3.3-0.6V99.6z"/>
		</g>
		<g>
			<path class="st2" d="M232.2,45.2c0-0.4-0.3-0.7-0.7-0.7c-0.4,0-0.7,0.1-1,0.6s-0.6,0.9-0.7,1.4c-0.1,0.6-0.3,1.3-0.3,1.9
				c0,1,0.3,1.7,0.9,2.3c0.6,0.6,1.4,0.9,2.3,0.9c1,0,1.9-0.1,2.6-0.3c0.3-0.1,0.6-0.3,1-0.4c0.4-0.1,0.7-0.3,0.9-0.3
				c0.3,0,0.4,0,0.7,0.1c0.1,0.1,0.3,0.1,0.3,0.3s0.1,0.3,0.1,0.4c0,0.3-0.1,0.6-0.3,1c-0.1,0.4-0.4,0.7-0.9,1.2s-0.9,0.9-1.3,1.2
				c-0.6,0.3-1.2,0.6-1.9,0.9s-1.6,0.3-2.3,0.3c-2.5,0-4.3-0.6-5.9-1.9s-2.3-3-2.3-5.2c0-1.4,0.3-2.6,1-3.8c0.7-1,1.7-1.9,2.9-2.5
				c1.3-0.6,2.6-0.9,4.2-0.9c1.6,0,2.7,0.1,3.8,0.6c1,0.3,1.7,0.9,2.2,1.4c0.4,0.6,0.6,1.3,0.6,2.2c0,0.4,0,0.7-0.1,1.2
				c-0.1,0.4-0.4,0.7-0.7,1.2s-0.7,0.7-1.3,0.9c-0.6,0.3-1.3,0.3-2,0.3c-0.3,0-0.6,0-0.9,0c-0.3,0-0.4-0.1-0.7-0.3s-0.4-0.3-0.6-0.6
				c-0.1-0.3-0.1-0.7-0.1-1.2s0-0.9,0.1-1.4C232.1,45.6,232.2,45.3,232.2,45.2z"/>
			<path class="st2" d="M247.2,51.5c0,1.6-0.3,2.7-0.7,3.3c-0.6,0.7-1.3,1-2.5,1c-1,0-1.9-0.3-2.3-0.9c-0.4-0.6-0.7-1.7-0.7-3.2
				V39.7c0-0.4,0-1,0.1-1.3c0.1-0.3,0.3-0.7,0.4-1s0.4-0.4,0.7-0.7c0.3-0.1,0.6-0.3,0.9-0.4c0.3-0.1,0.7-0.1,1-0.1
				c1,0,1.9,0.1,2.3,0.6c0.6,0.4,0.7,1.3,0.7,2.6L247.2,51.5L247.2,51.5z"/>
			<path class="st2" d="M257.8,56.2c-1.4,0-2.9-0.3-4-0.9c-1.2-0.6-2.2-1.3-2.9-2.5c-0.7-1-1.2-2.3-1.2-3.8c0-2.2,0.7-3.9,2.3-5.2
				c1.4-1.3,3.5-1.9,5.8-1.9c2.3,0,4.3,0.6,5.8,1.9s2.2,3,2.2,5.2s-0.7,3.9-2.3,5.2C261.9,55.4,260.1,56.2,257.8,56.2z M259.2,49.1
				c0-1-0.1-1.9-0.4-2.6c-0.3-0.7-0.6-1.2-1.2-1.2c-0.3,0-0.6,0.1-0.9,0.6c-0.3,0.4-0.4,0.9-0.6,1.4c-0.1,0.6-0.1,1.2-0.1,1.7
				c0,1,0.1,1.9,0.4,2.6c0.3,0.7,0.7,1.2,1.2,1.2s0.9-0.4,1.2-1.2S259.2,50.1,259.2,49.1z"/>
			<path class="st2" d="M274.5,49.8c0,1.2,0.4,1.6,1.3,1.6c0.3,0,0.6-0.1,0.7-0.3c0.3-0.1,0.4-0.4,0.4-0.7c0.1-0.3,0.1-0.7,0.1-1.2
				v-3.9c0-0.7,0.1-1.2,0.3-1.7c0.3-0.4,0.6-0.9,1-1.2c0.4-0.3,1-0.4,1.6-0.4c1,0,1.9,0.3,2.5,0.7s0.9,1.3,0.9,2.5v7.5
				c0,1.2-0.3,2-0.7,2.5c-0.4,0.4-1.3,0.7-2.6,0.7c-0.6,0-1,0-1.3-0.1c-0.4-0.1-0.7-0.3-0.9-0.4c-0.3-0.1-0.4-0.4-0.4-0.9
				c-0.7,0.6-1.6,0.9-2.5,1.2c-0.9,0.3-1.9,0.3-2.9,0.3c-1.3,0-2.3-0.6-2.9-1.6s-0.9-2.9-0.9-5.2c0-1.2,0-2.2,0.1-2.9
				c0.1-0.7,0.1-1.4,0.3-2c0.1-0.6,0.3-1,0.6-1.2c0.3-0.3,0.6-0.4,0.9-0.6s0.9-0.1,1.4-0.1c1,0,1.9,0.1,2.3,0.6
				c0.4,0.4,0.7,1,0.7,1.9L274.5,49.8z"/>
			<path class="st2" d="M301.5,51.5c0,1.6-0.3,2.6-0.7,3.3c-0.6,0.7-1.3,1-2.5,1c-1.3,0-2-0.4-2.6-1.2c-1.3,0.9-2.7,1.3-4.5,1.3
				c-1.4,0-2.7-0.6-3.8-1.9c-1-1.3-1.4-2.9-1.4-5.1c0-2.2,0.4-3.9,1.4-5.2c1-1.3,2.3-1.9,3.8-1.9s2.7,0.4,3.9,1.3v-3.8
				c0-1.2,0.3-2,0.9-2.6s1.3-0.9,2.3-0.9c1,0,1.9,0.1,2.3,0.6c0.6,0.4,0.7,1.3,0.7,2.6v12.3H301.5z M295.3,51.8v-5.3
				c-0.3-0.6-0.7-0.9-1.3-0.9c-0.3,0-0.6,0.1-0.9,0.6c-0.3,0.4-0.4,0.9-0.6,1.3c-0.1,0.6-0.1,1.2-0.1,1.7c0,0.9,0.1,1.7,0.4,2.3
				c0.3,0.7,0.7,1,1.2,1c0.1,0,0.1,0,0.3,0s0.1,0,0.3-0.1s0.1,0,0.3-0.1c0.1,0,0.1-0.1,0.1-0.1l0.1-0.1
				C295.2,52,295.2,51.8,295.3,51.8z"/>
			<path class="st2" d="M320.9,48.2c0-1-0.4-1.6-1.3-1.6c-0.4,0-0.7,0.1-1,0.4c-0.3,0.3-0.4,0.7-0.4,1.3v4.5c0,1.2-0.3,2-0.7,2.5
				c-0.4,0.4-1.3,0.7-2.6,0.7c-1.2,0-1.9-0.3-2.3-0.7c-0.4-0.6-0.6-1.4-0.6-2.6v-7.1c0-1,0.3-1.7,0.7-2.3c0.6-0.6,1.3-0.9,2.2-0.9
				c0.7,0,1.3,0.1,1.9,0.3c0.4,0.1,0.9,0.6,1.2,1.2c1.4-1,3.3-1.4,5.5-1.4c1.3,0,2.3,0.6,2.9,1.6s0.9,2.9,0.9,5.3
				c0,1.2,0,2.2-0.1,2.9c0,0.7-0.1,1.4-0.3,2s-0.3,1-0.6,1.2c-0.3,0.3-0.6,0.4-0.9,0.6s-0.9,0.1-1.3,0.1c-1,0-1.9-0.1-2.3-0.6
				c-0.4-0.4-0.7-1-0.7-1.7L320.9,48.2z"/>
			<path class="st2" d="M334.7,56.2c-1.6,0-2.7-0.6-3.8-1.9c-1-1.3-1.4-2.9-1.4-5.1c0-2.2,0.4-3.9,1.4-5.2c1-1.3,2.3-1.9,3.8-1.9
				c1.6,0,3,0.6,4.3,1.6c0.6-1,1.3-1.4,2.5-1.4c1,0,1.9,0.3,2.5,0.7c0.6,0.4,0.9,1.3,0.9,2.5V53c0,1.2-0.3,2-0.7,2.5
				c-0.4,0.4-1.3,0.7-2.6,0.7s-2.2-0.3-2.5-1C337.7,55.7,336.3,56.2,334.7,56.2z M338.6,46.3c-0.3-0.6-0.7-0.9-1.3-0.9
				c-0.4,0-0.9,0.4-1.2,1.2c-0.3,0.7-0.4,1.6-0.4,2.5s0.1,1.7,0.4,2.3c0.3,0.7,0.7,1,1.2,1c0.6,0,1-0.3,1.3-0.7V46.3z"/>
			<path class="st2" d="M348.9,49.8v-3.5c-0.4,0-0.9-0.1-1.2-0.3c-0.3-0.1-0.4-0.3-0.6-0.6c-0.1-0.3-0.1-0.6-0.1-0.9
				c0-1.2,0.7-1.7,2-1.7v-2.7c0-0.7,0.6-1.4,1.6-2s2.2-0.9,3.2-0.9c0.6,0,1,0.1,1.3,0.6c0.3,0.4,0.3,0.9,0.3,1.6v3.3h0.7
				c1,0,1.7,0.1,2.2,0.4c0.4,0.3,0.6,0.7,0.6,1.4c0,0.3,0,0.6-0.1,0.7s-0.3,0.4-0.6,0.4c-0.3,0.1-0.6,0.1-0.9,0.3
				c-0.4,0-0.9,0.1-1.3,0.1h-0.6v3.2c0,0.3,0,0.6,0,0.7s0,0.3,0.1,0.4c0,0.1,0.1,0.1,0.3,0.3c0.1,0,0.3,0,0.4,0
				c0.3,0,0.4-0.1,0.6-0.3s0.3-0.3,0.3-0.6c0.1-0.1,0.1-0.4,0.3-0.6s0.3-0.3,0.6-0.3c0.4,0,0.7,0.1,1,0.3s0.3,0.4,0.3,0.7
				c0,0.6-0.1,1-0.3,1.7c-0.1,0.6-0.4,1.2-0.9,1.7c-0.4,0.6-0.9,1-1.6,1.4c-0.7,0.4-1.4,0.6-2.3,0.6c-1.9,0-3.3-0.4-4-1.4
				C349.3,53.6,348.9,52,348.9,49.8z"/>
			<path class="st2" d="M361.9,38.1c0-0.6,0.3-1.2,0.9-1.6c0.6-0.4,1.3-0.6,2.3-0.6c2.2,0,3.2,0.7,3.2,2.2c0,0.9-0.3,1.4-0.7,1.7
				c-0.6,0.3-1.3,0.4-2.3,0.4c-0.9,0-1.6-0.1-2.3-0.6C362.1,39.4,361.9,39,361.9,38.1z M368.1,52.8c0,1.2-0.3,2-0.7,2.5
				c-0.4,0.4-1.3,0.7-2.6,0.7c-1.2,0-1.9-0.3-2.3-0.7c-0.4-0.6-0.6-1.4-0.6-2.6v-7.1c0-1,0.3-1.7,0.7-2.3c0.6-0.6,1.3-0.9,2.2-0.9
				c1,0,1.9,0.3,2.5,0.7c0.6,0.4,0.9,1.3,0.9,2.5L368.1,52.8L368.1,52.8z"/>
			<path class="st2" d="M378.3,51.5c0.6,0,0.9-0.1,1-0.4c0.1-0.3,0.3-0.9,0.3-1.7v-4.6c0-0.6,0.1-1,0.3-1.4c0.1-0.4,0.6-0.6,1-0.9
				c0.4-0.1,1.2-0.3,1.9-0.3c0.6,0,1,0,1.3,0.1c0.3,0.1,0.6,0.3,0.9,0.6c0.3,0.3,0.4,0.7,0.6,1.2c0.1,0.6,0.1,1.2,0.3,1.9
				c0,0.7,0.1,1.7,0.1,2.7c0,1-0.1,2-0.4,2.7c-0.3,0.7-0.7,1.4-1.3,2s-1.2,1-1.7,1.3c-0.7,0.3-1.3,0.6-2,0.7s-1.3,0.1-2,0.1
				s-1.3,0-2-0.1c-0.7-0.1-1.3-0.4-2-0.7s-1.3-0.9-1.7-1.3c-0.4-0.4-1-1.2-1.3-2c-0.3-0.9-0.4-1.7-0.4-2.7c0-1.9,0.1-3.3,0.3-4.2
				s0.4-1.6,0.9-1.9c0.4-0.3,1-0.6,1.9-0.6c1.2,0,2,0.1,2.6,0.6c0.4,0.4,0.7,1,0.7,1.9v4.6c0,0.3,0,0.6,0,0.7s0,0.3,0,0.6
				c0,0.1,0,0.4,0.1,0.4c0,0.1,0.1,0.1,0.1,0.3c0.1,0.1,0.1,0.1,0.3,0.1C377.9,51.5,378,51.5,378.3,51.5z"/>
			<path class="st2" d="M396.5,56.2c-2.3,0-4.3-0.6-5.8-1.9c-1.6-1.2-2.3-2.9-2.3-4.9c0-2.3,0.7-4,2.3-5.3c1.4-1.3,3.5-2,5.8-2
				c2.3,0,3.9,0.4,4.9,1.2c1,0.9,1.6,1.9,1.6,3.3c0,0.3,0,0.6-0.1,0.7c0,0.3-0.1,0.4-0.3,0.7s-0.3,0.4-0.6,0.7s-0.6,0.4-0.9,0.6
				s-0.7,0.3-1.2,0.4c-0.4,0.1-0.9,0.1-1.3,0.1h-4c0.1,0.6,0.6,1.2,1,1.4c0.4,0.3,1.2,0.6,1.9,0.6c0.9,0,1.7-0.1,2.6-0.3
				c0.4-0.1,0.7-0.3,1.2-0.4c0.4-0.1,0.7-0.3,0.9-0.3c0.3,0,0.6,0.1,0.7,0.3s0.3,0.4,0.3,0.7s-0.1,0.7-0.4,1.3
				c-0.3,0.4-0.7,1-1.3,1.4s-1.3,0.9-2.2,1.3C398.5,55.9,397.5,56.2,396.5,56.2z M394.5,47.8c1.3,0,2,0,2.2,0c0.3,0,0.4-0.1,0.6-0.6
				c0.1-0.3,0.1-0.6,0.1-1c0-1.2-0.4-1.9-1.2-1.9c-0.3,0-0.6,0.1-0.7,0.4c-0.3,0.3-0.4,0.7-0.7,1.2
				C394.8,46.6,394.6,47.2,394.5,47.8z"/>
			<path class="st2" d="M419.9,43.3c1.3-1,2.6-1.4,4.2-1.4c1.4,0,2.7,0.6,3.8,1.9c1,1.3,1.4,2.9,1.4,4.8c0,2.3-0.7,4.2-2.3,5.5
				c-1.6,1.3-3.5,2-5.9,2c-1.4,0-2.7-0.1-3.9-0.6c-1.2-0.4-2-1-2.6-1.9c-0.6-0.9-1-1.9-1-3V39.7c0-1.2,0.3-2,0.9-2.6
				s1.3-0.9,2.3-0.9c1,0,1.9,0.3,2.3,0.7c0.6,0.6,0.7,1.3,0.7,2.5v3.9H419.9z M419.9,51.5c0.3,0.7,0.9,1,1.4,1s0.9-0.3,1.2-1
				c0.3-0.7,0.4-1.4,0.4-2.3c0-0.4,0-0.9-0.1-1.3c-0.1-0.4-0.1-0.9-0.3-1.2c-0.1-0.3-0.3-0.6-0.6-0.9c-0.1-0.3-0.4-0.3-0.7-0.3
				c-0.6,0-1,0.3-1.4,1c0,0.3,0,1,0,2.2C419.9,50,419.9,50.8,419.9,51.5z"/>
			<path class="st2" d="M437.9,51.5c0,1.6-0.3,2.7-0.7,3.3c-0.6,0.7-1.3,1-2.5,1c-1,0-1.9-0.3-2.3-0.9c-0.4-0.6-0.7-1.7-0.7-3.2
				V39.7c0-0.4,0-1,0.1-1.3s0.3-0.7,0.4-1c0.1-0.3,0.4-0.4,0.7-0.7c0.3-0.1,0.6-0.3,0.9-0.4c0.3-0.1,0.7-0.1,1-0.1
				c1,0,1.9,0.1,2.3,0.6c0.6,0.4,0.7,1.3,0.7,2.6V51.5z"/>
			<path class="st2" d="M448.5,56.2c-1.4,0-2.9-0.3-4-0.9s-2.2-1.3-2.9-2.5c-0.7-1-1.2-2.3-1.2-3.8c0-2.2,0.7-3.9,2.3-5.2
				c1.4-1.3,3.5-1.9,5.8-1.9c2.3,0,4.3,0.6,5.8,1.9c1.4,1.3,2.2,3,2.2,5.2s-0.7,3.9-2.3,5.2C452.7,55.4,450.8,56.2,448.5,56.2z
				 M449.9,49.1c0-1-0.1-1.9-0.4-2.6c-0.3-0.7-0.6-1.2-1.2-1.2c-0.3,0-0.6,0.1-0.9,0.6s-0.4,0.9-0.6,1.4c-0.1,0.6-0.1,1.2-0.1,1.7
				c0,1,0.1,1.9,0.4,2.6c0.3,0.7,0.7,1.2,1.2,1.2s0.9-0.4,1.2-1.2C449.9,51,449.9,50.1,449.9,49.1z"/>
			<path class="st2" d="M464.1,56.2c-1.6,0-2.7-0.6-3.8-1.9s-1.4-2.9-1.4-5.1c0-2.2,0.4-3.9,1.4-5.2s2.3-1.9,3.8-1.9
				c1.6,0,3,0.6,4.3,1.6c0.4-1,1.3-1.4,2.5-1.4c1,0,1.9,0.3,2.5,0.7c0.6,0.4,0.9,1.3,0.9,2.5v5.3c0,1.9-0.1,3.5-0.3,4.8
				c-0.3,1.3-0.7,2.5-1.3,3.5c-0.6,1-1.4,1.7-2.5,2.3c-1,0.4-2.3,0.7-3.8,0.7c-1,0-2-0.1-2.9-0.4c-0.9-0.3-1.6-0.6-2.2-1
				c-0.6-0.4-0.9-0.9-1.2-1.3c-0.3-0.4-0.4-0.7-0.4-1.2s0.1-0.7,0.3-0.9c0.1-0.3,0.6-0.4,0.9-0.4s0.9,0.3,1.7,0.7
				c0.9,0.4,1.7,0.7,2.3,0.7c2,0,2.9-1,2.9-3C466.8,55.9,465.5,56.2,464.1,56.2z M468.1,51.8v-5.5c-0.3-0.6-0.7-0.9-1.3-0.9
				c-0.3,0-0.6,0.1-0.9,0.6s-0.4,0.9-0.6,1.3c-0.1,0.6-0.1,1.2-0.1,1.7c0,0.9,0.1,1.7,0.4,2.3c0.3,0.7,0.7,1,1.2,1
				S467.7,52.3,468.1,51.8z"/>
			<path class="st2" d="M482.1,56.2c-1.6,0-2.7-0.6-3.8-1.9s-1.4-2.9-1.4-5.1c0-2.2,0.4-3.9,1.4-5.2s2.3-1.9,3.8-1.9
				c1.6,0,3,0.6,4.3,1.6c0.4-1,1.3-1.4,2.5-1.4c1,0,1.9,0.3,2.5,0.7c0.6,0.4,0.9,1.3,0.9,2.5v5.3c0,1.9-0.1,3.5-0.3,4.8
				c-0.3,1.3-0.7,2.5-1.3,3.5c-0.6,1-1.4,1.7-2.5,2.3c-1,0.4-2.3,0.7-3.8,0.7c-1,0-2-0.1-2.9-0.4c-0.9-0.3-1.6-0.6-2.2-1
				c-0.6-0.4-0.9-0.9-1.2-1.3c-0.3-0.4-0.4-0.7-0.4-1.2s0.1-0.7,0.3-0.9c0.1-0.3,0.6-0.4,0.9-0.4s0.9,0.3,1.7,0.7
				c0.9,0.4,1.7,0.7,2.3,0.7c2,0,2.9-1,2.9-3C484.9,55.9,483.6,56.2,482.1,56.2z M486,51.8v-5.5c-0.3-0.6-0.7-0.9-1.3-0.9
				c-0.3,0-0.6,0.1-0.9,0.6c-0.3,0.4-0.4,0.9-0.6,1.3c-0.1,0.6-0.1,1.2-0.1,1.7c0,0.9,0.1,1.7,0.4,2.3c0.3,0.7,0.7,1,1.2,1
				C485.1,52.4,485.7,52.3,486,51.8z"/>
			<path class="st2" d="M494.8,38.1c0-0.6,0.3-1.2,0.9-1.6c0.6-0.4,1.3-0.6,2.3-0.6c2.2,0,3.2,0.7,3.2,2.2c0,0.9-0.3,1.4-0.7,1.7
				c-0.6,0.3-1.3,0.4-2.3,0.4c-0.9,0-1.6-0.1-2.3-0.6C495.1,39.4,494.8,39,494.8,38.1z M501,52.8c0,1.2-0.3,2-0.7,2.5
				c-0.4,0.4-1.3,0.7-2.6,0.7c-1.2,0-1.9-0.3-2.3-0.7c-0.4-0.6-0.6-1.4-0.6-2.6v-7.1c0-1,0.3-1.7,0.7-2.3c0.6-0.6,1.3-0.9,2.2-0.9
				c1,0,1.9,0.3,2.5,0.7c0.6,0.4,0.9,1.3,0.9,2.5L501,52.8L501,52.8z"/>
			<path class="st2" d="M512.6,48.2c0-1-0.4-1.6-1.3-1.6c-0.4,0-0.7,0.1-1,0.4c-0.3,0.3-0.4,0.7-0.4,1.3v4.5c0,1.2-0.3,2-0.7,2.5
				c-0.4,0.4-1.3,0.7-2.6,0.7c-1.2,0-1.9-0.3-2.3-0.7c-0.4-0.6-0.6-1.4-0.6-2.6v-7.1c0-1,0.3-1.7,0.7-2.3c0.6-0.6,1.3-0.9,2.2-0.9
				c0.7,0,1.3,0.1,1.9,0.3c0.4,0.1,0.9,0.6,1.2,1.2c1.4-1,3.3-1.4,5.5-1.4c1.3,0,2.3,0.6,2.9,1.6c0.6,1,0.9,2.9,0.9,5.3
				c0,1.2,0,2.2-0.1,2.9c0,0.7-0.1,1.4-0.3,2c-0.1,0.6-0.3,1-0.6,1.2c-0.3,0.3-0.6,0.4-0.9,0.6c-0.3,0.1-0.9,0.1-1.3,0.1
				c-1,0-1.9-0.1-2.3-0.6c-0.4-0.4-0.7-1-0.7-1.7L512.6,48.2z"/>
			<path class="st2" d="M526.4,56.2c-1.6,0-2.7-0.6-3.8-1.9s-1.4-2.9-1.4-5.1c0-2.2,0.4-3.9,1.4-5.2s2.3-1.9,3.8-1.9
				c1.6,0,3,0.6,4.3,1.6c0.4-1,1.3-1.4,2.5-1.4c1,0,1.9,0.3,2.5,0.7c0.6,0.4,0.9,1.3,0.9,2.5v5.3c0,1.9-0.1,3.5-0.3,4.8
				c-0.3,1.3-0.7,2.5-1.3,3.5c-0.6,1-1.4,1.7-2.5,2.3c-1,0.4-2.3,0.7-3.8,0.7c-1,0-2-0.1-2.9-0.4c-0.9-0.3-1.6-0.6-2.2-1
				c-0.6-0.4-0.9-0.9-1.2-1.3s-0.4-0.7-0.4-1.2s0.1-0.7,0.3-0.9c0.1-0.3,0.6-0.4,0.9-0.4s0.9,0.3,1.7,0.7c0.9,0.4,1.7,0.7,2.3,0.7
				c2,0,2.9-1,2.9-3C529.2,55.9,527.9,56.2,526.4,56.2z M530.3,51.8v-5.5c-0.3-0.6-0.7-0.9-1.3-0.9c-0.3,0-0.6,0.1-0.9,0.6
				s-0.4,0.9-0.6,1.3c-0.1,0.6-0.1,1.2-0.1,1.7c0,0.9,0.1,1.7,0.4,2.3c0.3,0.7,0.7,1,1.2,1S530,52.3,530.3,51.8z"/>
		</g>
	</g>
</g>
</svg>
