<?xml version="1.0" encoding="utf-8"?>
<!-- Generator: Adobe Illustrator 24.2.3, SVG Export Plug-In . SVG Version: 6.00 Build 0)  -->
<svg version="1.1" xmlns="http://www.w3.org/2000/svg" xmlns:xlink="http://www.w3.org/1999/xlink" x="0px" y="0px"
	 viewBox="0 0 159 57" style="enable-background:new 0 0 159 57;" xml:space="preserve">
<style type="text/css">
	.st0{display:none;}
	.st1{display:inline;}
</style>
<g id="Uni_of_Bath_black">
	<path d="M27.6,1.2c-15,0-27.1,12.2-27.1,27.1s12.2,27.1,27.1,27.1c15,0,27.1-12.2,27.1-27.1S42.6,1.2,27.6,1.2z M27.6,54
		C13.5,54,2,42.5,2,28.4S13.5,2.7,27.6,2.7c14.1,0,25.6,11.5,25.6,25.6S41.8,54,27.6,54z"/>
	<path d="M32.5,48.4c0.4-0.2,1.1-0.7,1.1-0.9c0.1-0.2,0.3-0.2,0.4,0c0.1,0.2,0.2,0.7,0.3,0.8c0.1,0.2,0.1,0.3-0.1,0.3
		c-0.2,0.1-0.6,0-0.8,0.2c-0.3,0.2-0.6,0.2-0.8,0.3c-0.2,0.1-0.4,0.1-0.6,0.1c-0.3,0-0.4,0.1-0.6,0.1c-0.1,0-0.6,0-0.8,0
		c-0.2,0-0.5,0.1-0.7,0.1c-0.2,0-0.4-0.2-0.2-0.3c0.2-0.1,0.4-0.2,0.6-0.2c0.2,0,0.5-0.1,0.7-0.2c0.2-0.1,0.2-0.2,0.2-0.2
		s0.5,0,0.8-0.1C32.3,48.5,32.1,48.6,32.5,48.4z"/>
	<path d="M27.8,38.6c0.2,0.1,0.8,0.4,0.8,0.6c0,0.2-0.3,0.9-0.6,0.9c-0.3,0-1.8-0.8-1.5-1.2C26.9,38.1,27.4,38.3,27.8,38.6z"/>
	<path d="M38.2,18.8c-0.4-0.1-0.8-0.2-0.5-0.5c0.3-0.3,0.3-0.6,0.5-0.8c0.2-0.2,0.4-0.4,0.3-0.6c-0.1-0.2-0.5-0.5-0.3-0.7
		s0.6-0.8,0.7-1.2c0.2-0.5,1-2.3,1.1-2.7s0.2-0.8,0.4-1.1c0.2-0.3,1.2-1.7,1.8-1.8c0.5-0.1,0.9,0,0.9,0s1.4,1.1,1.7,1.4
		c0.4,0.4,3.1,3.8,3.5,4.3c0.2,0.3,2.3,4.4,2.6,5.4c0.1,0.4,0.5,1.5,0.7,2.1c0.1,0.2,0.5,3.2,0.5,3.2s-1,0.5-1.2-0.2
		c-0.1-0.4-0.4-1.9-0.5-2.2c-0.1-0.3-0.4-0.9-0.5-1.2c-0.1-0.3-0.3-1-0.4-1.3c-0.1-0.3-0.7-1.8-0.9-2.2s-0.3-0.9-0.3-1.1
		c-0.1-0.2-0.8-1.4-0.1-1.6c0.7-0.2-0.7-1.7-1-1.7c-0.7-0.1-2.2-0.8-2.7-0.6c-0.2,0.1-0.4,0.5-0.2,0.7c0.2,0.2,1.4,0.5,1.7,0.6
		c0.3,0.1,0.8,0.4,0.8,0.8c0,0.2-0.3,0.5,0,0.8c0.3,0.2,0.8,0.2,0.7,0.9c-0.1,0.7,0.1,0.9,0.4,1.3c0.3,0.4,0.3,0.9,0.5,1.3
		c0.1,0.3-0.8,0.1-0.9-0.2c-0.2-0.4-0.6-1.4-0.9-1.7c-0.2-0.2-0.6,0-0.6,0.2c0.1,0.3,0.6,1.3,0.8,1.7c0.3,0.4,1.1,0.7,1.3,1.1
		c0.2,0.4,0.6,0.9,0.8,1.2c0.2,0.3,0.8,0.8,0.8,1.9c0,0.7,0.4,1.4,0.5,1.7c0.1,0.3-0.5,0.3-0.7,0.2c-0.3-0.3-0.5-0.6-0.5-1.1
		c0-0.6-0.4-1.9-0.9-2.6c-0.6-0.8-0.9-1.2-1.1-1.4c-0.3-0.2-1-0.9-1.3-1.3c-0.3-0.4-0.7-1.1-0.9-1.6c-0.2-0.5-0.7-0.4-0.8,0.1
		c-0.1,0.4-0.1,0.8,0.5,1.5c0.6,0.7,0.8,1.2,1.2,1.3s0.7,0,1.1,0.6c0.4,0.6,1.3,2.1,1.3,2.5c0.1,0.4-0.9,0.3-1-0.2
		c-0.1-0.4-0.5-1.4-0.7-1.7c-0.2-0.3-0.3-0.6-0.6-0.4c-0.3,0.2,0.1,0.8,0.2,1c0.1,0.3-0.5,0.5-0.7,0.2c-0.3-0.3-0.4-0.9-0.6-1.2
		c-0.1-0.3-0.5-0.6-0.6-0.5c-0.3,0.2-0.1,0.7,0,1.2c0.1,0.4-0.2,0.6-0.5,0.4c-0.4-0.3-0.3-1.1-0.6-1.4c-0.3-0.4-0.7-0.6-0.7-0.9
		c-0.1-0.4,0-0.8,0.2-1c0.4-0.3,0.2-0.6,0.2-0.9c0-0.2-0.2-0.4-0.2-0.7c0-0.4,0.2-0.4,0.4-0.6c0.1-0.2,0.1-0.6,0-0.8
		c-0.1-0.2-0.3-0.5,0.1-0.6s0.6,0,0.8,0.1c0.3,0.1,0.9,0.5,1.1,0.5c0.2,0,0.9,0,0.8-0.6c0-0.2-0.6-0.5-0.8-0.4
		c-0.2,0.1-0.6,0.1-0.8-0.1c-0.3-0.2-1.1-1-1.2-1.1s0.4-1,0.8-1.2c0.4-0.2,1-0.3,0.8-0.6c-0.2-0.4-0.7-0.4-0.9-0.7
		c-0.2-0.3-0.6-0.7-0.9-0.5c-0.3,0.2-0.7,0.3-0.9,0.3c-0.2,0.1-0.6,0.4-0.7,0.8c-0.1,0.4-1,2-1,2.5c0,0.2-0.7,0.7-0.6,1
		c0.1,0.3,0.3,0.2,0.5,0.2c0.2,0.1,0.1,0.5-0.2,0.8s-0.3,0.7-0.4,0.8c-0.1,0.2-0.6,0.2-0.6,0.4C38.7,18.3,38.5,18.6,38.2,18.8z"/>
	<path d="M41.4,8.3c0,0-1.7,0.9-2,1.2c-0.2,0.3-0.6,1.8-0.7,2s-0.2,0.4-0.2,0.7c0,0.3,0,0.5-0.2,1.2c-0.3,0.7-0.5,1.1-0.6,1.7
		c-0.1,0.6,0.2,0.9-0.1,1.4c-0.3,0.5-0.6,0.8-0.6,1.1c-0.1,0.3-0.3,0.6-0.4,0.9c-0.1,0.3-0.9,0.6-0.7,0.1c0.2-0.5,0.6-2,1-3.8
		c0.3-1.7,0.4-2.6,0.9-4.4c0.6-1.7,2.7-2.9,2.7-2.9L41.4,8.3z"/>
	<path d="M50.5,33c-0.1,0.4-0.2,0.7-0.6,0.7c-0.4,0-0.3-0.2-0.6-0.5c-0.3-0.4-0.6-1.2-0.6-1.4c-0.1-0.2-0.4-0.3-0.5-0.6
		c-0.1-0.2-0.1-1-0.1-1l0.1-0.3c0,0-0.3-0.4-0.6-0.6c-0.3-0.2-0.4-0.8-0.6-1.4c-0.2-0.5,0.3-0.7,0.8-0.5c0.5,0.2,1,1.3,1.2,1.6
		c0.2,0.3,0.1,1.8,0.3,1.9c0.2,0.2,1,0.3,1.1-0.1c0-0.2-0.3-0.6-0.4-0.7c-0.1-0.2-0.1-0.4-0.1-0.8c0-0.3-0.2-0.6-0.6-1
		c-0.4-0.5-0.2-0.7-0.1-0.8c0.1-0.1,0.8,0.3,1.1,0.9c0.3,0.6,0.3,1.6,0.7,1.6c0.2,0,0.2-0.9,0.2-1.7c0-0.8-0.3-1.3-0.7-1.4
		c-0.6-0.2-2-0.6-2.4-0.7c-0.4-0.1-0.8-0.2-1.2-0.2c-0.3,0.1-0.5,0.1-0.6-0.2c-0.1-0.3,0.5-0.4,0.5-0.6s-0.4-0.3-0.7-0.4
		c-0.3-0.1-0.9-0.1-1,0c-0.2,0.1-0.2,0.3-0.6,0.4c-0.4,0.2-1.5,0.1-1.6-0.5c-0.2-0.6,0.3-1.2,0.2-1.3c-0.1-0.1-0.6,0.3-1,0.4
		c-0.3,0.1-1,0.3-1,0c0-0.3,0.8-0.6,0.8-0.6s0.4-0.3,0.5-0.6c0.1-0.2,0-1,0-1.2c0-0.2-0.6-0.3-0.6-0.2s-0.1,0.6-0.4,0.8
		c-0.3,0.2-0.8,0.4-1,0.5S39.7,23,39.5,23c-0.3,0-1,0.5-1.4,0.7c-0.3,0.2-0.2-0.4,0.1-0.5c0.2-0.2,0.5-0.3,0.7-0.3
		c0.3,0,0.4-0.4,0.6-0.6c0.3-0.2,0.8,0,1.2-0.2c0.2-0.1,0.3-1.2,0.3-1.4c0.1-0.2,0.3-0.8,0.5-1.1c0.2-0.3,0.1-0.6,0-1
		s0.4-0.5,0.4-0.8c0-0.3-0.1-1.4-0.2-1.9s0.5-0.5,0.6-0.8c0.1-0.3-0.2-0.8-0.1-1.1c0-0.4,0.4-0.6,0.6-1.1c0.2-0.5-0.3-0.6-0.5-0.4
		c-0.2,0.2-0.6,1-0.7,1.1c-0.1,0.1-0.2,0.4-0.3,0.7c0,0.2-0.1,0.9-0.2,1.9c-0.1,1-0.4,2.8-0.6,3.7c-0.2,0.9-0.4,1.1-0.9,1.2
		c-0.5,0-0.4-0.2-0.7-0.2c-0.2,0-0.3,0.2-0.4,0.4c-0.1,0.1-0.5,0.4-0.9,0.4c-0.3,0-0.2-0.3-0.2-0.4c0-0.1,0.6-0.3,0.8-0.4
		c0.2-0.2,0.4-0.5,0.1-0.6c-0.3-0.2-0.4,0-0.7,0.1c-0.8,0.5-0.7-0.1-0.6-0.3c0.1-0.2-0.6-0.3-0.9-0.3c-0.2,0-0.2,0.5-0.6,0.6
		c-0.4,0.1-0.6,0-0.9,0.1c-0.3,0,0,0.4,0.1,0.5c0.2,0.2,0.1,0.5,0.6,0.6c0.2,0.1,0.6,0.6,0.8,1.1c0.2,0.4,0.2,0.7,0.2,1.6
		c0,0.4-0.2,1.1-0.3,1.3c-0.1,0.5,0.3,0.9,0.3,1.1c0,0.3,0.1,0.5,0.2,1.1c0.1,0.5,0,0.7-0.2,1.3c-0.2,0.6-0.2,1-0.1,1.4
		c0.1,0.8-0.2,1.7-0.4,2.2c-0.2,0.4-0.2,1.1-0.2,1.2c0,0.1-0.3,0.4-0.3,0.6c-0.1,0.2,0.2,0.5,0.2,0.7c0,0.2-0.1,1-0.3,1
		c-0.3,0-0.9,0.2-1,0.3c-0.1,0.1,0.1,0.5-0.4,0.7c-0.5,0.2-1.1-0.1-1.6-0.4c-0.5-0.3-0.9-1.1-1-1.2c-0.1-0.1-0.3,0-0.4,0
		c-0.1,0-0.2-0.5-0.4-1.3c-0.2-0.8-0.2-1.2,0.2-1.2s1,0.8,1.5,1.3c0.5,0.6,1.3,1.5,1.6,1.1c0.3-0.3,0-0.6-0.3-1
		c-0.3-0.4-0.3-0.8-0.4-1.1C32.7,33,32,32.9,32,32.6c-0.1-0.2-0.1-0.4-0.4-0.6s-0.4-0.3-0.6-0.5c-0.2-0.2-0.4-0.6-0.5-0.8
		c0-0.2-0.2-0.6-0.6-0.5c-0.3,0-0.2,0.5,0,0.7c0.2,0.2,0.3,0.7,0.2,0.8c-0.1,0.2-0.6,0.3-1,0.2c-0.3-0.1-0.3-0.2-0.8-0.2
		c-0.4-0.1-0.5,0.3-0.9,0.2c-0.2-0.1-0.3-0.3-0.4-0.5c-0.1-0.2,0-0.6-0.3-0.7c-0.3-0.1-0.5,0-0.5-0.4c0.1-0.4,0.5-0.3,0.7-0.2
		c0.2,0,0.3-0.4,0.3-0.7c0-0.3-0.5,0-0.4-0.7c0-0.5,0.5-0.9,0.6-1.2c0.1-0.3-0.2-0.7-0.3-1.4c-0.1-0.7,0.1-1.4,0.4-1.4
		c0.3-0.1,0.9,0.6,1.3,1.3c0.4,0.6,0.6,1.2,1,1.6c0.3,0.3,0.7,0.6,1.2,0.8c0.4,0.1,1.2,0.1,1.6,0c0.3-0.1,0.6-0.6,0.9-0.6
		c0.3-0.1,0.3,0.2,0.6,0.3c0.2,0.1,0.3,0.1,0.5-0.1c0.1-0.2-0.5-0.7-0.7-0.8c-0.2-0.1-1-1-1.3-1c-0.5,0-0.7-0.1-0.8-0.3
		c0-0.2,0.7-0.2,0.9-0.2c0.2,0,0.4,0.3,0.6,0.4c0.2,0.2,0.7,0.4,0.9,0.2c0.2-0.2,0.1-0.5,0.1-0.8c0-0.4,0.3-0.4,0.2-0.8
		c-0.1-0.4-1.1,0.2-2.6,0.2c-1.5,0-2.2-0.4-2.8-0.7c-0.5-0.2-1.1-0.7-1.7-0.8c-0.8-0.1-2.2,1-2.6,1.1c-0.4,0.1-1.4,0.1-1.9,0
		c-0.5-0.1-1.2-0.4-1.8-0.4c-0.5,0-1.3,0.7-1.5,0.4c-0.4-0.4,0.4-0.8,0.7-0.9c0.4,0,1.4-0.1,1.3-0.6c-0.1-0.6-1.2-0.1-1.8,0.1
		c-0.6,0.1-0.2-0.4,0.1-0.5c0.3-0.1,0.9-0.4,1.4-0.9c0.4-0.4,0.5-1.1,0.5-1.2c0.3-0.6,0.7-1.6,1.4-2c0.5-0.3,1.2-1,2.1-1.1
		c0.3,0,1-0.3,1.5-0.6c0.3-0.2-0.1-0.3-0.6-0.4c-0.4-0.1-0.6-0.6-0.7-0.9c-0.1-0.3-0.4-0.4-0.6-0.6c-0.2-0.2-0.4-2.1-0.5-3
		c-0.1-0.9,0.1-1.5,0.4-1.5c0.6,0,0.2,0.9,0.3,1.5c0.1,0.3,0.5,0,0.6-0.4c0-0.3,0-2.4-0.3-2.8c-0.4-0.5-2.2-1.8-2.3-2
		c-0.1-0.2-0.1-0.8-0.4-0.9c-0.2-0.1-0.3,0.5-0.4,1c-0.1,0.5,0.7,1,1,1.4c0.3,0.4,0.6,0.9,0.5,1.4c-0.1,0.5-0.2,3.4-0.2,3.7
		c0,0.3-0.2,0.8-0.5,0.8c-0.3,0-0.4-0.8-0.5-1.1c0-0.3,0.1-0.4,0.3-0.5c0.1-0.1,0-1-0.2-1c-0.2,0-0.5,0.1-0.6-0.4
		c-0.1-0.8,0.4-0.5,0.5-1.1c0-0.5-0.3-1-0.5-1.1c-0.2-0.1-0.4-0.5-0.4-1.1c0-0.6-0.2-2.9,0.1-2.9c0.5,0,1.3,0.4,1.6,1
		s1.8,1.6,2.4,2.2c0.5,0.7,0.5,2.9,0.3,4.2c-0.2,1.4,0.4,2.1,0.8,2.7c0.4,0.6,1,1.2,1,1.5c0,0.2,0.2,0.5,0.5,0.6
		c0.2,0.1,1.3,0.4,1.8,0.6c0.5,0.2,1,0.8,1.6,1.1c0.5,0.3,2.2,0.8,2.6,0.8c1.3-0.1,0.7-0.5,0.7-0.7c-0.1-0.2,0.3-0.7,0.4-0.9
		c0.2-0.7-0.4-0.4-0.2-1c0.1-0.4-0.2-0.7-0.4-0.4c-0.2,0.2-0.2,1-0.3,1.3c-0.1,0.4-0.7,0.5-0.9,0.3c-0.2-0.2,0.2-0.4,0.4-0.8
		c0.2-0.3-0.3-0.4-0.7-0.3c-0.4,0.1-0.2-0.5,0.3-1c0.4-0.3,0.4-0.8,0.7-1.7c0.3-0.9,0.8-1.6,0.8-2.3c0-0.7-0.6-0.2-0.7,0.1
		c-0.2,0.3-0.4,1-0.6,1.5c-0.2,0.8-0.7,1.8-1,1.6c-0.3-0.1,0.3-1.3,0.4-2.4c0.1-1.2,0.6-3,1.1-4.3c0.6-1.2,1.6-0.9,2.2-0.9
		c0.5,0,1.1,0,1.7-0.5c0.3-0.3,0.8-0.2,1-0.2c-0.2-0.1-1.5-1-2.1-1.2c-0.7-0.2-3.1-1.2-3.5-1.3c-0.7-0.1-2.3-0.3-2.3-0.3
		s-0.2,1.5-0.1,1.6c0.2,0.2,0.9,0,1.2,0c0.2,0,1.1,0.1,1.2,0.3c0.1,0.2-0.2,0.5-0.7,0.5c-0.7,0.1-1.8,0.2-2.1,0.4
		c-0.3,0.2-0.2,0.8-0.2,0.9c0,0.2,0.1,0-0.5,1.4c-0.6,1.4-1.1,2.9-1.5,2.9c-0.3-0.1,0.1-0.9,0.2-1.9c0.1-1,0.7-2,0.5-2.3
		c-0.2-0.1-0.7,0.5-0.7,0c0-0.3,0.1-2.1,0-2.9c-0.1-0.8-0.8-0.9-1.1-1c-0.3,0-2.1-0.3-2.4,0.2c-0.3,0.5,0.9,0.9,1.6,1
		c0.7,0.1,1.1,0.7,1.2,1c0.1,0.3,0.1,2.2,0.1,2.7c-0.1,0.5-0.1,1.1-0.4,1.7c-0.3,0.6-0.3,2.3-0.7,2.3c-0.4,0-0.3-0.5-0.4-1.4
		c-0.1-0.9,0.1-1.3,0.1-1.3s1-1.6,0.5-2.9c-0.2-0.5-0.7-1.2-1.4-1.3c-0.4,0-1-0.1-1.5-0.2c-0.4-0.1-0.9-0.9-1.1-1
		c-0.3-0.3-1.8-0.7-2.1-0.5c-0.7,0.2-0.5,1.9-1,2.9c-0.4,0.7-0.5,0-0.8-0.5c-0.4-0.6,0.1-1.4,0.1-1.4S19,5.4,18.6,5.6
		c-0.4,0.2-2.2,0.9-2.2,0.9s0.9,0.5,1.1,0.6c0.3,0.2,1,0.9,1.6,0.6c0.2-0.1,1.4,0.8,1.6,1.2c0.2,0.3,0.1,1.8,0.2,2
		c0.1,0.2,0,0.4,0.2,0.7c0,0.6,0.4,1.3,0.6,2.2c0.3,1.5,1.5,2.7,1.4,3c-0.1,0.3-0.5,0.2-0.8-0.2c-0.3-0.3-1-1.5-1.1-1.8
		c-0.2-0.3,0-0.7-0.2-1.1c-0.1-0.3-0.4-0.5-0.5-0.9c-0.1-0.4-0.2-3-0.3-3.4C20,9,19.3,8.5,19.2,8.7c-0.2,0.1-0.3,0.7-0.1,1
		c0.2,0.3,0.6,2.1,0.4,3.1c-0.2,1-0.1,3.8,0.3,5.1c0.3,1.1-0.2,1.1-0.7,0.4c-0.3-0.4-0.9-4.7-1-5.2c-0.1-0.6-0.7-2.8-1-3.1
		c-0.2-0.2-0.5-0.5-0.6-0.8c-0.1-0.3-0.2-1-0.6-1.1c-0.2,0-0.4,0.6-0.6,0.6c-0.2,0.1-1.1-0.9-1.1-0.9s-0.6,0.2-0.9,0.6
		c-0.1,0.2-1,1-2.1,2l1.3-1.1c0,0,0.5,0.2,0.9,0.3c0.5,0.2,1.4-0.1,2.8,2.7c1.4,2.8,1.3,5.1,1.6,6.1s1.5,1.5,2.3,1.8
		c0.8,0.2,0.3,0.8,0.1,1c-0.2,0.2-1.3-0.2-1.7-0.3c-0.4-0.1-1-1-1.2-1.3c-0.2-0.2,0-0.7-0.1-0.9c-0.2-0.3-0.6-0.5-0.7-0.8
		c-0.1-0.3,0.2-1,0.2-1.2c0-0.2-0.3-0.9-0.3-0.9s-0.1-0.7-0.1-1s-0.1-1.3-0.4-1.4c-0.3-0.1-0.3,0.5-0.3,0.5c0,0.3,0,1.1-0.2,1.6
		c-0.2,0.5-0.5,1.6-0.2,3.4c0.2,1.8,2.1,3.1,2.5,3.5c0.4,0.5,0.6,1.3,0.4,1.4c-0.2,0.1-0.3-0.3-0.4-0.5c-0.2-0.2-1.4-1.2-1.9-1.9
		c-1.1-1.4-1-1.8-1.3-2.8c-0.5-2,0.3-4.8,0.4-5.7c0.1-0.5-0.2-0.8-0.5-1.3c-0.2-0.5-0.6-0.6-1-0.4c-0.5,0.2-1-0.1-1.2-0.7
		c-0.2-0.4-1-0.1-1.2-0.1c0,0,0,0,0,0c-1,0.9-2,1.9-2.6,2.6c-1.2,1.4-2.2,2.7-2.9,4.2c-0.7,1.6-1.7,4.2-1.8,4.8
		c-0.1,0.6-0.6,3.2-0.7,4c0,0.7-0.1,4-0.1,4.4c0,0.2,0.3,1.4,0.6,2.7c-0.1-0.8-0.2-2.1-0.2-2.4c0,0,0-0.1,0-0.1
		C3.5,30.2,3.9,30.1,4,30c0.2-0.1,1.6-0.7,1.8-0.8c0.3-0.2,1.3-1,1.4-1.2c0.1-0.2,0.1-0.7,0.2-1.2c0-0.2,0-0.4,0-0.5
		c0-0.2,0-0.3-0.2-0.3C7,25.9,6.7,26,6.7,26.3c-0.1,0.2-0.2,0.8-0.5,0.8c-0.4-0.1-0.7,0.7-0.7,1c0,0.5-1,0.6-0.9,0.2
		c0,0,0-0.1,0-0.2c0.1-0.5,0.4-1.5,0.4-2c0,0,0,0,0-0.1v0c-0.1-0.3-0.4-0.6-0.2-1c0,0,0,0,0-0.1c0.2-0.3,0.2-1.5,0.3-1.7
		C5.3,23,5.9,22.7,6,23.2c0,0.1,0,0.3-0.1,0.6c-0.1,0.1-0.1,0.3-0.1,0.4v0c-0.1,0.2,0,0.5,0.2,0.6c0.2,0.1,0.4,0.1,0.7-0.7
		c0.2-0.4,0.8-0.4,0.8,0.1c0,0.1,0,0.3-0.1,0.5c0,0,0,0.1,0,0.1c-0.2,0.6,0.5,0.5,0.7,0.6c0.2,0.1,0.2,0.4,0.2,0.7
		c0,0.3,0.3,0.4,0.6,0.4c0.3-0.1,1.5-0.7,2.2-0.6c0.8,0.2,1.2,0.3,1.4,0.4c0.2,0.1,0.7,0.1,0.6-0.3c0,0,0-0.1,0-0.1
		c0,0,0.1-0.1,0-0.2c0,0,0,0,0-0.1c0.1-0.3,0.3-0.7,0.3-0.9c0.1-0.3,0.6-0.5,0.5-0.8c0,0,0,0,0-0.1c-0.2-0.3-1-0.6-1.1-0.6
		c-0.2,0-0.4,0.8-0.5,1.2c0,0.5-0.8,0.5-0.9,0.1c-0.2-0.6-0.5-0.6-0.7-1.3c-0.1-0.5-0.5-0.5-0.9-0.8c-0.3-0.3-0.3-0.5-0.3-0.7
		c0-0.2,0.1-0.3,0.1-0.4c0,0,0-0.1,0-0.1v0c-0.2-0.5-0.7-0.5-0.9-0.3c-0.2,0.2-0.6,0-0.8-0.1c-0.3,0-1.2,0.1-1.6,0.2
		c-0.5,0.1-0.6,0.3-0.7,0.5c-0.2,0.5-1.2-0.2-1.2-0.2s0-0.1,0.1-0.3c0.3-0.7,1.2-2.6,1.4-3.2c0.2-0.7,1.3-2.3,1.4-2.5
		c0.1-0.3,0.4-0.1,0.4,0.3c0,0.2,0,0.5-0.2,0.8c-0.4,0.5-1.4,2.2-1.7,3.2v0c0,0,0,0,0,0c-0.2,0.6,0.8,0.5,0.9,0.1
		c0.1-0.2,1-2,1.4-2.7c0.4-0.7,1.4-2.4,1.6-2.8c0.2-0.4,0.6-0.8,0.8-1.2c0.1-0.3,0.6-0.4,0.7,0c0,0.1,0,0.3,0,0.5
		c-0.3,0.9-1.5,2.9-1.8,3.3c-0.3,0.4-1.2,2-1.3,2.3c0,0.1,0,0.1,0,0.2v0c0,0.2,0,0.4,0.1,0.5c0.1,0,0.9-0.2,1.1-0.5
		c0.2-0.3,1-2.3,1.2-2.7c0.3-0.3,0.8-1.5,1.1-1.9c0.2-0.3,0.7-0.1,0.8,0.3c0,0.1,0,0.3-0.1,0.4c-0.8,1.3-1.5,2.8-1.9,3.3
		c0,0.1-0.1,0.1-0.1,0.2c-0.2,0.5,0.2,0.9,0.7,0.4c0.5-0.5,0.7-1.1,1-1.6c0.3-0.5,0.6-1.1,0.8-1.4c0.1-0.2,0.6-0.1,0.7,0.2
		c0,0.1,0,0.1,0,0.2c-0.1,0.4-0.6,1.3-0.9,1.6s-0.5,0.7-0.6,1c0,0,0,0,0,0c-0.1,0.3,0,0.5,0.3,0.7c0.4,0.3,0.6,0.2,0.9,0.5
		s0.6,0.7,0.9,0.8c0.3,0.1,0.8,0.3,1,0.7c0.2,0.4,0.5,1.2,1.1,1.4c0.4,0.2,0.6,0.3,0.8,0.7c0.4,0.5,0.6,0.6,0.9,0.6
		c0.4,0,0.4,0.4,0.5,0.8c0,0,0,0.1,0,0.1c0,0.2-0.3,0.9-0.4,1.3v0c0,0.1,0,0.1,0,0.2c0,0.2,0,0.5,0,0.9c0,0.4-0.1,0.8-0.2,0.9
		c-0.2,0.1-0.8-0.2-1,0c-0.2,0.2-0.7,0.1-0.8-0.1c-0.2-0.3-0.6-0.3-0.7-0.2c-0.3,0.2-0.6,0.2-0.8,0c-0.1-0.1-0.5,0-0.7,0.1
		c-0.7,0.3-0.5-0.3-0.5-0.3s0,0,0-0.1c0.1-0.1,0.2-0.4,0.4-0.4c0.2,0,0.5,0.1,0.6,0.1c0.1,0,0.3-0.5,0.5-0.6
		c0.2-0.2,0.5-0.2,0.4-0.6c0-0.1,0-0.2,0-0.2c0.1-0.1,0.2-0.2,0.2-0.2c0.3-0.1,0.7-0.1,0.8-0.2c0,0,0.1-0.2,0-0.4
		c0-0.2-0.1-0.5-0.3-0.6c-0.4-0.3-1.3,0-1.4,0.7c-0.1,0.9-1,1.3-1.5,1.4c-0.7,0.2-0.9,0-1.5-0.3c-0.6-0.3-1.8-0.3-2.2-0.1
		c-0.2,0.1-0.4,0.3-0.4,0.4c-0.1,0.2-0.1,0.4,0.1,0.4c0.4,0,1.2,0.2,1.6,0.2c0.6,0,1,0.2,1.2,0.7c0,0,0,0.1,0.1,0.1
		c0.2,0.4,0.1,0.4-0.6,0.3c-1.5-0.2-2.9,0.1-3.8,0.3c-0.3,0.1-1.3,1-1.5,1.1c-0.1,0.1-0.9,0.5-1.4,0.9c-0.2,0.2-0.4,0.4-0.4,0.6
		c0,0,0,0,0,0c0,0.2,0,0.5,0,0.7c0,0.1,0.2,1,0.2,1.1c0,0,0.5-0.5,0.6-0.6c0.1-0.2,1.1-0.7,1.5-1.3c0.4-0.5,1.7-1.3,2.1-1.5
		c1.1-0.5,2.4-0.5,2.7-0.4c0.2,0.1,0.5,0.3,0.6,0.5c0.1,0.1,0,0.3-0.1,0.4c-0.4,0.4-1,0.9-1.3,1c-0.3,0.2-0.5,0-0.8,0.2
		c-0.2,0.2-0.7,0.6-0.9,0.6c-0.7,0-1.6,0.2-1.9,0.2c-0.5,0.1-1.4,0.4-1.7,0.7C5,33.7,4.7,34,4.6,34.2c0,0.1-0.1,0.1-0.1,0.2
		c0,0.2,0.4,0.4,0.5,0.6c0,0.1,0.1,0.2,0,0.2c0,0,0,0.1-0.1,0.1c-0.2,0.5,0.3,0.7,0.5,1c0,0.1,0.1,0.2,0,0.2
		c-0.2,0.4-0.4,0.9-0.6,0.8c-0.2-0.1-0.7-1.5-1-2.6c0.1,0.6,0.2,1.1,0.3,1.2c0.1,0.4,1.4,3.4,1.6,3.8c0.2,0.4,3.9,5.6,4.1,5.8
		c0.2,0.2,5.2,4.1,5.7,4.5c0.4,0.2,6.3,2.4,7.2,2.6c0.9,0.2,3.7,0.5,4.3,0.5c0.4,0,4.3-0.2,5.1-0.4c0.8-0.1,4.6-1.4,4.9-1.6
		c0.3-0.2,4.7-2.7,4.8-2.8c0-0.1,1.8-1.6,2.2-1.9c0.6-0.4,3.2-3.6,3.9-4.7c0.7-1.1,2.5-4.7,2.6-5c0.3-0.8,1.1-4.1,1.1-4.1
		S50.6,32.7,50.5,33z M30.7,26.8c0.3-0.3,0.8-0.2,0.6,0c-0.1,0.1-0.3,0.5-0.1,0.7c0.2,0.2,0.7,0.3,1,0c0.3-0.3,0-0.4,0-0.5
		c0-0.1,0-0.3,0.2-0.2c0.3,0.1,0.6,0.2,0.6,0.4c0,0.5-0.3,0.7-0.7,0.8c-0.5,0.2-1,0-1.3-0.1C30.6,27.8,30.3,27.1,30.7,26.8z
		 M30.3,11.3c1-2.7,2-3.4,2.6-3.8c0.6-0.3,0.9,0.4,0.5,0.7c-0.3,0.2-1.3,1.1-1.3,1.5c0,0.2,0.2,0.1,0.5,0.1c0.3,0,0.2,0.7,0.1,1.2
		c0,0.5-0.2,1.1-0.2,1.7c-0.1,0.7-0.2,1.9-0.5,2.3c-0.3,0.4-0.7,0.8-0.7,0.2c0.1-0.6,0-1-0.3-1c-0.4,0-0.6,0.5-0.9,1
		c-0.3,0.5-0.9,0.4-0.9-0.4C29.3,14,29.4,14,30.3,11.3z M37.8,25.2c0.3,0,0.6,0,1.2-0.3c0.6-0.3,1.1-0.1,1.8,0.1s1.4,1.2,1.8,1.3
		c0.2,0.1,1.9,0.2,2.1,0.2c0.2,0,0.1,0.4,0.1,0.5c0,0.2,0.3,0.1,1,0.3c0.7,0.2,0.4,1,0.4,1.2c0,0.2,0.3,0.5,0.4,0.6
		c0.1,0.2,0.1,0.4,0.1,0.5c0.1,0.2,0.4,0.6,0,0.7c-0.3,0.1-0.9-0.2-1.3-0.3c-0.4,0-1,0-1.2-0.1c-0.2,0-0.2-0.6-0.4-0.6
		c-0.2,0-0.7,0.2-1.3,0.3c-0.6,0.1-1.2,0.7-1.4,0.5c-0.3-0.2-0.6-0.3-0.9-0.1c-0.1,0.1-0.6,0.3-0.8,0.3c-0.3,0-0.5-0.3-0.4-0.4
		c0.1-0.1,0.5-0.2,0.7-0.3c0.2-0.2,0.1-0.5-0.4-0.4c-0.3,0-0.2-0.5,0.2-0.6c0.4,0,0.5-0.7,0.2-0.6c-0.3,0-0.7,0.1-0.9-0.1
		c-0.3-0.2,0-0.5,0.3-0.6c0.3-0.1,0.8,0.2,1.1,0.2c0.3,0,0.5-0.1,0.7-0.3c0.3-0.2,0.7-0.2,0.7-0.6c0-0.4-0.3-0.6-0.5-0.7
		c-0.1-0.1-0.9-0.5-1.5-0.6c-0.5-0.1-0.8,0.2-0.9,0.3C38.6,25.8,38.3,26,38,26C37.8,26.1,37.6,25.5,37.8,25.2z M34.9,37.1
		c0.3-0.2,0.6-0.5,0.9-0.7c0.2-0.3,0.4-0.4,0.4-0.7c0-0.4,0.2-0.5,0.5-0.6c0.4,0,0.6,0.2,0.6,0.8c-0.1,0.7-0.2,1.5,0.1,2
		c0.4,0.5,0.7,0.5,1.3,0.8c0.6,0.3,1.3,1,1.4,1.2c0.1,0.2-0.2,0.6-0.4,0.7s-0.4-0.4-0.4-0.7c0.1-0.3-0.4-0.4-0.8-0.5
		c-0.6-0.1-0.9-0.1-1.2-0.1c-0.3,0-0.8-0.3-1-1c-0.2-0.6-0.2-1-0.5-1c-0.3,0-0.5,0.3-0.4,0.7c0.1,0.3,0.1,0.7,0,0.8
		c-0.2,0-0.8-0.3-0.8-0.7C34.5,37.8,34.6,37.3,34.9,37.1z M39.3,43.9c-0.1-0.2-0.4-0.5-0.5-0.6c-0.1,0-1.3,0-1.6,0.1
		c-0.3,0.1-0.4-0.1-0.3-0.2c0.1-0.1,0.3-0.4,0.8-0.6c0.5-0.2,1.7-0.3,2-0.3c0.3,0,0.4,0.3,0.5,0.4c0,0.1,0.3,0.3,0.5,0.5
		c0.1,0.2,0.3,0.7,0.3,0.9c0,0.1,0.1,1.1-0.1,1.2c-0.5,0.2-0.3,0.5-0.7,0.6c-0.4,0.2-0.7,0-0.7-0.3c0-0.3,0.1-0.6,0.3-0.8
		C39.7,44.6,39.3,44,39.3,43.9z M31.3,46.8c-0.3,0-0.5-0.1-0.8-0.2c-0.2-0.1-0.5-0.3-0.7-0.1c-0.2,0.2-0.3,0.3-0.8,0.5
		c-0.4,0.1-0.8,0.3-1.1,0.3c-0.3,0-0.9,0.4-1.2,0.5c-0.3,0.1-0.9,0.3-1.2,0.2c-0.3-0.1-0.1-0.6,0-0.8c0.1-0.2,0.5-1,0.8-1
		c0.3-0.1,0.5,0,0.7,0s0.9-0.3,1.2-0.5c0.3-0.2,1.3-0.4,1.9-0.3c0.6,0.1,1.3,0.5,1.4,0.7c0.3,0.3,0.2,0.7,0.4,0.8
		c0.2,0.1,0.4,0,0.6-0.1c0.1-0.1,0.6-0.1,0.6-0.4c0-0.3-0.2-0.5-0.5-0.5c-0.2,0-0.6-0.1-0.7-0.2c-0.1-0.1-0.3-0.5-0.4-0.6
		c-0.2-0.1-0.4-0.6-0.2-0.6c0.2,0,0.8,0.1,0.9,0.3c0.2,0.2,0.5,0.5,0.6,0.4c0.2,0,0.3-0.1,0.4-0.1c0.1-0.1,0.4,0.1,0.5,0.4
		c0.1,0.2,0.1,0.3,0.2,0.4c0.1,0.1,0.5,0.5,0.5,0.8c0.1,0.3,0.1,1,0.2,1.1c0.1,0.1,0.5,0,0.8,0c0.5-0.1,0.8-0.4,1.1-0.5
		c0.3-0.2,0.5-0.1,0.7-0.3s0.4-0.7,0.4-1c0-0.4,0.7-0.3,0.7-0.1s-0.1,0.7,0,0.8c0.1,0.1,0.2,0.3,0.3,0.4c0,0.1,0,0.1-0.2,0.2
		c-0.3,0.1-0.6,0.1-0.8,0.3c-0.2,0.2-0.4,0.6-0.6,0.7c-0.3,0.1-0.9,0.3-1.3,0.5c-0.4,0.1-0.9,0.4-1,0.5c-0.2,0.1-0.4,0-0.8,0
		c-0.4,0-0.7,0-1.1,0.2c-0.4,0.2-1.4,0.2-2.2,0.2c-0.8-0.1-1.9,0.1-2.4,0.2c-0.5,0-1.1,0.1-1.4-0.1c-0.3-0.2-0.2-0.5,0-0.6
		c0.2-0.1,0.5-0.1,0.6-0.2c0.1-0.1,1-0.6,1.3-0.7c0.1-0.1,0.7-0.3,1-0.4c0.2,0,0.5-0.3,0.8-0.3c0.3-0.1,0.5-0.1,0.7-0.3
		C31.6,47,31.6,46.8,31.3,46.8z M26.2,43.3c-0.2-0.3-0.5-0.5-0.8-0.5c-0.3,0-0.5-0.7-0.3-0.9c0.2-0.1,0.5-0.2,0.6-0.4
		c0.2-0.2,0.6-0.2,0.6,0.1c0.1,0.3,0.2,0.8,0.4,1.1c0.1,0.3,0.5,0.3,0.6,0.5c0.1,0.2,0.3,0.5,0.7,0.7c0.3,0.2,1.7,0.4,2,0.4
		c0.3,0,0.6,0.4,0.2,0.4c-0.4,0-1.7,0-2.3-0.2c-0.5-0.2-0.8-0.4-1.1-0.6C26.6,43.9,26.3,43.6,26.2,43.3z M34.5,44.7
		c0-0.7,0.5-0.7,0.8-0.7c0.5,0,0.5,0.2,0.6,0.7c0.1,0.5,0.4,0.6,0.8,0.6c0.5,0.1,0.4,0.7,0,0.8c-0.3,0-0.8,0.1-1,0.1
		c-0.3-0.1-0.7-0.6-0.8-0.7C34.8,45.4,34.6,45,34.5,44.7z M31.8,38.8c0.5,0.1,0.9,0.4,1.1,0.5c0.3,0,0.7-0.4,0.9,0
		c0.1,0.3,0.4,0.9,0.9,1.1c0.5,0.2,1.5,0.2,2,0.1c0.5-0.1,0.6,0,0.9,0.1c0.3,0.1,0.5,0.2,0.7,0.1c0.2,0,0.5,0,0.7,0.2
		c0.1,0.2,0.2,0.5,0,0.6c-0.2,0.1-0.7-0.1-0.9,0c-0.2,0.1-1,0.3-1.4,0.5c-0.6,0.3-1.3,0.3-1.8,0.3c-0.5,0-1.2-0.1-1.6-0.5
		c-0.2-0.2-0.6-0.4-0.5-0.5c0-0.2,0.1-0.4-0.1-0.7c-0.2-0.2-0.2-0.4-0.4-0.4c-0.6,0.2-0.4-0.5-0.5-0.6c-0.1-0.1-0.4-0.4-0.4-0.6
		C31.3,39,31.2,38.7,31.8,38.8z M26.7,34.1c0.5,0,0.6,0.1,0.8,0c0.2-0.1,0.5-0.3,0.7-0.3c0.5,0,0.3,1.1,0.6,1.4
		c0.5,0.5,0.1,0.9-0.3,0.5c-0.2-0.3-0.4-0.2-0.6-0.2c-0.2,0-0.2-0.2-0.4-0.2c-0.1,0-0.7,0.2-0.9-0.3C26.4,34.6,26.2,34.1,26.7,34.1z
		 M22.4,26.8c0.5-0.4,0.8-0.4,0.6,0.1c-0.1,0.3-0.1,0.8,0.5,0.8c0.7,0,0.6-0.5,0.5-0.7c-0.1-0.2,0-0.5,0.2-0.4
		c0.3,0.1,0.4,0.3,0.4,0.5c0,0.3-0.3,0.8-0.6,0.9c-0.5,0.2-1.4,0-1.6-0.1C22.2,27.5,22.1,27.1,22.4,26.8z M21.6,28.1
		c0.4,0.1,0.5,0.2,0.8,0.2c0.3,0,1.5,0,1.8,0c0.4-0.1,0.8-0.3,0.9-0.7c0.1-0.4,0.1-0.8,0.4-0.7c0.3,0.1,0.6,0.3,0.6,0.7
		c0,0.4-0.7,0.8-0.9,1.2c-0.3,0.5,0.1,0.5,0,0.7c-0.1,0.3-0.2,0.8-0.2,1.4c0.1,0.5-0.9,1-0.9,1s-0.5,0.4-0.2,0.7
		c0.3,0.2,0.6,0.2,0.7,0.5c0.1,0.3,0.1,1-0.2,1.3c-0.3,0.2-0.7,0.4-0.9,0.3c-0.2-0.2-0.5-0.6-0.8-0.4c-0.4,0.3-0.2,0.5-0.2,0.8
		c0,0.3-0.5,0.5-0.8,0.7c-0.1,0.1-0.5,0.2-0.7,0.1c-0.5-0.1-0.7-0.6-0.9-0.8c-0.2-0.2-0.3-0.6,0-0.5c0.3,0,0.6,0.1,1,0.1
		c0.4,0,0.7-0.1,0.7-0.3c0-0.1-0.2-0.5-0.2-0.5s0-0.3,0.3-0.3s0.8,0,1-0.4c0.2-0.5,0.2-0.5,0.4-0.7c0.1-0.2-0.2-0.6-0.4-0.4
		c-0.3,0.2-0.6,0.5-0.7,0.3c-0.2-0.3-0.7-0.6-0.8-0.7c-0.1-0.1-0.5,0-0.7-0.2c-0.2-0.2-0.6-0.8-0.8-1c-0.2-0.2-0.4-0.8,0-1.2
		c0.3-0.3,0-0.5-0.2-0.6c-0.3-0.1,0-0.8,0.4-0.7c0.4,0.1,0.6,0.4,0.8,0.6c0.4,0.2,1.4,0.5,1.8,0.5c0.4,0,1.1,0.1,1.4,0.1
		c0.2,0,0.8,0.2,0.7-0.3c0-0.4-0.4-0.3-0.6-0.3c-0.2,0-0.9,0.1-1.3,0c-0.7-0.1-1.2-0.2-1.4-0.3C21.2,28.4,21.3,27.9,21.6,28.1z
		 M20.1,25c0.5-0.5,1.1-0.2,1.3,0c0.2,0.2,0,0.6-0.2,0.9c-0.2,0.3-0.5,0.9-0.8,0.9s-1-0.2-1.1-0.7C19.3,25.6,19.5,25.4,20.1,25z
		 M11.4,32c0.2-0.2,0.6-0.6,1-0.9c0.5-0.3,1.8-0.8,2.3-0.9c0.6-0.2,1.2-0.2,1.5-0.2c0.3,0,0.5,0,0.8-0.2c0.2-0.2,0.7,0,0.9,0
		c0.2,0.1,0.2,0.6,0.1,0.8c-0.1,0.2-0.5,0.5-0.6,0.8c-0.2,0.3-1.3,0.8-2.3,1c-1,0.2-2.5-0.2-2.8-0.3c-0.3,0-0.4,0-0.6,0.1
		C11.5,32.5,11.2,32.2,11.4,32z M7.8,38.7c-0.1,0.5-0.4,1-0.7,0.8c-0.3-0.3,0-1-0.3-1.1c-0.5-0.1-0.8-0.5-0.5-1
		c0.1-0.2,0.1-0.5,0.2-0.7c0.3-0.6-0.2-0.7,0-1.2C6.7,35.4,7.7,34.2,8,34c0.4-0.3,1.2-1,1.5-1c0.4-0.1,0.6,0.1,0.5,0.4
		c-0.1,0.3-0.7,0.8-0.9,1c-0.2,0.3-0.5,0.6-0.6,1.1c0,0.5-0.3,0.7-0.6,1.2C7.6,37.1,7.9,38.1,7.8,38.7z M8.2,40.8
		c0.1-0.4,0.9-2,1-2.3c0.1-0.4-0.5-0.8,0.4-0.8c0.2,0,0.2-0.2,0.1-0.5c-0.1-0.3-0.6-0.2-0.4-0.5c0.2-0.3,0.2-0.1,0.4-0.5
		c0.2-0.4,0.3-1.5,0.6-1.9c0.3-0.5,0.6-0.3,0.8-0.5c0.3-0.2,0.4-0.6,0.7-0.7s0.9,0,1.2,0.1c0.2,0.2,0.3,0.3,0.1,0.4
		c-0.2,0.1-0.7,0.1-0.7,0.4c0,0.3,0.3,0.5,0.5,0.6c0.3,0.1-0.4,1.4-0.5,1.8c-0.1,0.5-0.4,0.6-0.9,0.8C11,37.4,11,37.5,11,37.7
		c0.1,0.3,0.1,0.5-0.2,0.6c-0.3,0.1-0.5,0.3-0.9,1c-0.4,0.6-0.6,1.6-1,2C8.5,41.5,8.2,41.1,8.2,40.8z M13.8,48.5
		c-0.1-0.2-1-0.7-1.1-0.8c-0.2-0.2-0.6-0.6-0.9-0.8c-0.3-0.1-0.3-0.7-0.4-0.9c-0.1-0.2,0.2-1.5,0.6-1.2c0.4,0.3-0.1,0.8,1,1.4
		c0.3,0.2,1,0.5,1,1C14,47.7,13.8,48.5,13.8,48.5z M13.1,44.1c-0.2-0.3-0.4-0.5-0.9-0.8s-0.8-0.7-1.2-0.7s-1.5,0.2-1.5-0.3
		c0.1-0.5,0.3-0.6,0.6-0.7c0.2-0.1-0.1-0.3-0.1-0.6c0-0.3,0.4-0.3,1.2,0c0.8,0.3,0.5,0,1.1,0.1c0.5,0.1,0.8,1.2,1.1,1.4
		c0.3,0.3,1.5,1.9,1.9,2.5c0.4,0.5,0.5,0.9-0.2,0.5C14.8,45.4,13.3,44.4,13.1,44.1z M21,52.1c-0.8-0.2-3.4-1.6-3.8-1.8
		c-0.4-0.2-1.7-1-1.8-1.1c0,0,0.4-0.6,1.2-0.4c0.2,0.1,1.2,0.5,2.2,0.9c0.9,0.4,1.6,0.6,2.1,1C21.4,51,21.9,52.2,21,52.1z
		 M21.8,49.2c-0.2,0.4-0.8,0.4-1.2,0.2c-0.5-0.2-1-0.6-0.8-1c0.1-0.2,0.9-0.7,1.4-0.5C21.6,48.1,22,48.8,21.8,49.2z M22.1,46
		c-0.1,0.1-0.4,0.1-0.5,0.1c-0.3,0.1-0.8,0.2-1,0.3c-0.2,0.1-0.5,0.5-0.6,0.7c-0.1,0.2-0.8,0.4-1.4,0.6c-0.6,0.2-1.5,0.2-1.9,0.1
		c-0.3-0.1-0.2-0.3-0.1-0.5c0.1-0.2,0.8-0.3,1.2-0.4c0.4-0.1,0.7-0.3,0.7-0.5s-0.3-0.5-0.6-0.7c-0.3-0.2-0.3-0.4-0.4-0.6
		c-0.1-0.2-0.3-0.3-0.6-0.4c-0.3-0.1-0.4-0.2-0.5-0.4c-0.1-0.2,0-0.3-0.1-0.5c-0.1-0.1-0.4-0.5-0.4-0.8c0-0.2,0.1-1.1-0.1-1.3
		c-0.1-0.2-0.4-0.2-0.6-0.1c-0.2,0.1-0.4,0.1-0.6,0s-0.5-1.2-0.6-1.7s-0.7-2.1-0.6-2.3c0-0.2,0.1-0.8,0.2-1.2
		c0.1-0.4,0.2-0.6,0.4-0.8c0.2-0.2,0.5-0.8,0.5-1.1c0.1-0.3,0.2-0.5,0.5-0.9c0.2-0.3,0.7-0.3,1.1-0.2c0.4,0.1,0.9-0.1,1.1-0.2
		c0.2-0.1-0.1-0.6,0.8-0.5c0.5,0,0.8,0.5,1.1,0.9c0.4,0.4,0.1,0.8,0,1.1c-0.1,0.4-0.1,0.7,0,1.6c0,0.9-0.5,0.9-0.8,1
		c-0.3,0.1-0.7,0-0.8,0c-0.1-0.1-0.2,0-0.6,0.1c-0.4,0-0.3-0.1-0.3-0.3c0-0.2,0.4-0.8,0.6-1c0.2-0.2,0.5,0,0.5-0.2
		c0.1-0.1,0.1-0.9,0-1.1c-0.1-0.2-0.5-0.3-0.8-0.1c-0.4,0.2-0.9,1.2-1.1,1.4c-0.2,0.2-0.7,2-0.7,2.3c-0.1,0.2-0.2,1,0.1,1.3
		c0.4,0.3,0.7-0.2,0.6-0.4s0.1-0.4,0.2-0.7c0.1-0.3,1-0.2,1.5-0.2c0.7,0,1.1-0.3,1.3-0.4c0.4-0.1,0.7-0.1,1-0.2c0.2,0,0.5-0.1,1-0.3
		c0.5-0.3,1-0.1,1.1,0c0.2,0.1,0.3,0.7,0.5,0.9c0.1,0.2,0.4,0.1,0.6-0.1c0.2-0.1,0.2-0.6,0.4-0.7c0.3-0.1,0.6,0.2,1,0.4
		s0.7,0.5,0.8,0.5c0.1,0,0.4-0.1,0.5-0.2c0.1-0.1-0.2-0.3-0.4-0.5c-0.2-0.2-0.2-0.4-0.4-0.5c-0.1-0.2-0.4-0.1-0.6-0.2
		c-0.2,0,0-0.3,0.2-0.5c0.2-0.1,0.5-0.1,0.7,0c0.2,0.1,0.3,0.2,0.8,0.1c0.5,0,0.7,0.2,1,0.3s0.5,0,1,0c0.5-0.1,1.1,0.1,1.4,0.2
		c0.3,0.1,0.2,0.7,0.3,1.2c0.1,0.4,0.1,0.7,0.4,1.5c0.2,0.4,0.2,0.9,0.2,1.2c0,0.2-0.2,0.7,0.1,0.9c0.2,0.2,0.5,0.4,1,0.5
		c0.1,0,0.7,0.2,0.9,0.2c0.2,0,0.4,0.3,0.7,0.6c0.3,0.3,0.4,1,0.4,1.3c0,0.3-0.3,0.1-0.5,0c-0.2-0.2-0.2-0.2-0.5-0.4
		c-0.2-0.2-0.7-0.5-0.8-0.5c-0.2,0-1.2,0.2-1.5,0.2c-0.3-0.1-0.8-0.4-0.8-0.5c-0.1-0.1-0.5-0.1-0.7-0.3c-0.2-0.1-0.6-0.5-0.9-1
		c-0.3-0.5-0.6-1.3-0.8-1.5c-0.2-0.2-0.4-0.2-0.6-0.2c-0.2,0.1-0.5,0.5-1.1,0.3c-0.6-0.2-1.1,0.4-1.3,1c-0.1,0.2-0.2,0.6-1,0.7
		c-0.2,0-0.7-0.2-0.9-0.2s-0.6,0.1-0.8,0.2c-0.2,0.1-0.3-0.2-0.2-0.4c0-0.2-0.4-0.3-0.7-0.1c-0.3,0.2-0.1,1-0.1,1.2
		c0.1,0.2-0.1,0.6-0.3,0.7c-0.2,0.1-0.5,0.1-0.6,0c0-0.1-0.2-0.6-0.2-0.8c0-0.2-0.2-0.6,0.1-1.2c0.2-0.6,1-0.7,1.3-0.7
		c0.3,0,0.6,0.1,0.6,0.1s0.3-0.3,0.5-0.5c0.2-0.2,0.7-0.5,0.9-0.7c0.1-0.3-0.1-0.4-0.4-0.4c-0.4,0-1,0.4-1.3,0.6
		c-0.3,0.1-1.5-0.2-1.6-0.2c-0.1-0.1,0-0.5-0.1-0.6c-0.1-0.1-0.3,0-0.8,0.2c-0.5,0.1-1.1,0.6-1.2,0.8c-0.1,0.2,0,0.7-0.3,0.8
		c-0.3,0-0.4,0.3-0.4,0.6c0,0.2,0.4,0.3,0.6,0.4c0.2,0.1,0.3,0.7,0.6,1c0.2,0.2,0.2,0.5,0.3,0.8c0.1,0.2,0.3,0.2,0.4,0.2
		c0.1,0.1,0.1,0.2,0.2,0.4c0.1,0.1,0.3,0.2,0.5,0.3c0.2,0.1,0.2,0.4,0.4,0.6c0.2,0.2,0.6,0.2,0.8,0c0.2-0.2,0.2-0.4,0.3-0.6
		c0.1-0.2,0.4-0.4,0.7-0.6c0.3-0.2,0.6-0.3,1-0.5c0.5-0.2,0.9-0.4,1.3-0.4c0.4,0,1.1-0.1,1.1,0.3s-0.5,0.3-0.7,0.5
		c-0.1,0.2-0.1,0.6-0.4,0.7c-0.3,0.1-0.5,0.3-0.6,0.5C22.5,45.3,22.2,45.8,22.1,46z M34.1,51.9c-0.1,0-2.3,0.5-4.4,0.6
		c-1.5,0.1-2.3,0.1-2.4,0.1c-0.5-0.2-0.5-1.3-1.6-1.3c-0.5,0-0.8,1.2-0.7,1.3c0.1,0.2-0.8,0.2-1-0.2c-0.2-0.3,0-1.3,0-1.5
		c0-0.2,0-0.5-0.2-0.7s-0.5-0.4-0.6-0.7c-0.1-0.3-0.1-0.7-0.2-0.9c-0.3-0.7-0.4-1.3-0.3-1.8c0.2-0.4,0.4-1,0.5-1.2
		c0.1-0.2,0.8-0.9,1.2-1c0.5-0.2,1-0.4,1.3-0.2c0.3,0.2,0.5,0.5,0.5,0.7c0.1,0.3-0.6,0.4-0.8,0.6c-0.2,0.2-0.4,0.2-0.6,0.6
		c-0.2,0.4-0.5,1-0.5,1.4c0,0.2,0.1,0.9,0.2,1c0.1,0.1,0.3,0.4,0.2,0.6c0,0.2-0.2,0.5-0.2,0.6c0,0.2,0.4,0.2,1,0.4
		c0.7,0.1,0.9,0.3,1.3,0.6c0.2,0.1,0.7,0.6,1,0.6c0.4,0,3.6-0.2,4.1-0.2c0.4,0,1.8,0.7,2.5,0.4c0.5-0.2,0.9-0.3,1.2-0.4
		C35.1,51.5,34.2,51.9,34.1,51.9z M45.6,44.7c-0.1,0.1-0.5,0.8-0.7,0.6c-0.2-0.2-0.7-0.4-0.6-0.7c0.1-0.3-0.7-0.4-0.8-0.2
		c-0.1,0.2-0.1,0.6-0.2,0.8c-0.1,0.2-0.4,0.7-0.9,1.1c-0.2,0.1-1.3,0.8-1.6,1c-0.2,0.2-0.6,0.8-0.2,1.5c0.1,0.2-1.3,0.9-2.2,1.3
		c-0.9,0.4-2.1,0.9-2.2,0.9c0,0,0,0,0,0c-0.1,0.1-0.2,0.1-0.5,0.2c0.2-0.1,0.4-0.2,0.5-0.2c0.1-0.1,0.1-0.1,0.1-0.2
		c-0.1-1.6,2.8-1.7,2.9-2.4c0-0.3,0.7-1.2,0.9-1.3c0.1-0.1,0.7-0.6,0.8-0.8c0.1-0.1,1.1-0.2,0.9-0.6c-0.2-0.4-0.3-0.3-0.3-0.7
		c0-0.4,0.6-1,0.6-1.6c0-0.7-0.2-1.5-0.2-1.7c0-0.2,0.2-0.5,0.1-0.7c-0.1-0.3-0.5-0.2-0.8-0.7c-0.2-0.4-0.1-0.8-0.4-1.1
		C40.5,39,40.3,39,40,38.9c-0.2-0.1-0.4-0.4-0.6-0.6c-0.2-0.2-0.7-0.3-0.7-0.6c0-0.4,0.1-0.8-0.3-1.2c-0.4-0.3-0.6-0.3-0.3-0.8
		c0.4-0.2,0.3-0.2,0.6-0.1c0.3,0.2,0.8,0.4,1.5,0.6c0.6,0.1,2.1,0.1,2.3,0.2c0.2,0.1,0.3,0.2,0.5,0.3c0.2,0.1,1,0.5,1.1,0.9
		c0.1,0.4,0.1,0.9,0.1,1.1c0,0.2-0.5,0.1-0.6-0.2c-0.1-0.3-0.2-0.6-0.5-0.5c-0.3,0.1-0.1,1.2-0.1,1.5c0.1,0.3,0.2,0.7,0.1,1
		c-0.1,0.3-0.3,0.3-0.3,0.5c0,0.2,0.4,0.4,0.5,0.5c0.2,0.2,0.3,0.5,0.3,0.7c0,0.4,0.6,0.4,0.6,0.6c0,0.2-0.3,0.9,0.3,0.8
		C45.6,43.6,45.9,44.2,45.6,44.7z M48,41.8c-0.2,0.2-0.7,0.7-1.1,0.7c-0.2,0-0.4-0.9-0.2-1.1c0.4-0.4,0-1,0-1.2
		c0-0.2,0.4-0.2,0.4-0.6c0-0.4-0.4-0.5-0.3-0.9c0.2-0.6,0.1-1.8-0.1-2c-0.2-0.3-0.6-0.8-0.7-1c-0.1-0.3,0.1-0.4,0.2-0.5
		c0.4-0.2,0.7,0.2,0.8,0.3c0.1,0.1,0.2,0.2,0.2,0.2c0.1,0,0.3,0.4,0.4,0.6c0.1,0.2,0.2,0.7,0.4,1.1c0.3,0.4,0.4,0.4,0.5,0.6
		c0.1,0.2-0.2,0.8-0.2,1c-0.1,0.5,0.2,0.4,0.5,0.9C49.1,40.2,48.2,41.6,48,41.8z M50.1,35.2c-0.1,0.2-0.5,0.6-0.8,0.3
		c-0.2-0.2-0.8-0.8-1.3-1c-0.4-0.2-0.9-0.1-1.1-0.1c-0.1,0-0.1-0.3-0.4-0.4c-0.4,0-0.6-0.1-0.7-0.1c-0.4-0.1,0-0.5-0.2-0.7
		c-0.2-0.2-0.8,0.2-0.9,0.2c-0.2,0-0.8-0.2-0.3-0.4c0.5-0.1,0.1-0.4-0.1-0.6c-0.2-0.1-0.5,0.3-0.8,0.2c-0.2-0.1,0.2-0.5-0.1-0.7
		c-0.1-0.1-0.5,0.3-0.9,0.5c-0.2,0.1-0.7,0.3-0.5,0.5c0.2,0.2,0.5,0.1,0.6,0.3c0.1,0.2,0.4,0.4,0.7,0.6c0.3,0.2,1.8,0.8,2.1,1.5
		c0.3,0.7,0.9,1.9,0.7,3.1c-0.2,1.2-0.4,1.1-0.4,1.8s0.1,1,0.3,1.4c0.2,0.4,0.1,0.4-0.1,0.6c-0.2,0.2-0.2,0.4-0.2,0.5
		c0,0.2-0.5,0.4-0.6,0c-0.1-0.3-0.6-2.1-0.5-2.8c0.1-0.7,0.5-1,0.5-1.9c-0.1-0.9-0.6-2-1.1-2.3c-0.5-0.3-1.6-1.1-3.4-1
		c-1.3,0.1-1.1,0-1.5,0.1c-0.3,0.1-0.9,0-0.8-0.5c0.1-0.2,1.7-0.1,1.5-0.2c-0.2-0.1-0.3-0.5-0.3-0.7c0.1-0.2,0.2-0.5,0-0.6
		c-0.2-0.1-1,0.1-1.2,0c-0.2-0.1-0.5-0.1-0.6-0.3c-0.1-0.2,0.2-0.6,0.4-0.5s0.4,0.3,0.7,0.3c0.2,0,0.6-0.2,0.4-0.4
		c-0.2-0.3-0.7-0.3-1.1-0.4c-0.4-0.1-0.7-0.4-0.4-0.5c0.3-0.1,0.5-0.2,0.9,0c0.4,0.2,0.5,0.3,0.8,0.4c0.3,0.1,0.5,0,0.8,0.2
		c0.3,0.2,0.6,0.5,0.9,0.5c0.3,0,1.8-1,2.6-1.1c0.9-0.1,1.5-0.2,2.3,0.2c0.8,0.4,1.5,1.2,1.7,1.3c0.2,0.1,0.9,1.1,1,1.3
		c0.1,0.2,0.2,0.7,0.6,0.9c0.2,0.2,0.5,0,0.7-0.1C50,34.6,50.2,35,50.1,35.2z M5.1,26c-0.1,0.6-0.4,1.7-0.4,1.9c0,0,0,0.1,0,0.1
		C4.8,27.5,5.1,26.5,5.1,26C5.1,26,5.1,26,5.1,26z M4.6,34.2c0,0.1-0.1,0.1-0.1,0.2c0,0.2,0.4,0.4,0.5,0.6c0,0,0,0,0-0.1
		C5.3,34.7,4.8,34.5,4.6,34.2z M5.1,35.4c-0.2,0.5,0.3,0.7,0.5,1c0,0,0,0,0-0.1C5.7,36.1,5.2,35.8,5.1,35.4z M5.2,22.9
		c0,0.2-0.1,1.4-0.3,1.7c-0.1,0.1-0.1,0.2,0,0.4c0,0,0,0,0-0.1c0.2-0.3,0.2-1.5,0.3-1.7C5.3,23,5.9,22.7,6,23.2
		C6.1,22.3,5.3,22.6,5.2,22.9z M7.4,26.5c0,0.4-0.1,1-0.2,1.2c-0.1,0.2-1.1,1.1-1.4,1.2C5.6,29,4.2,29.6,4,29.7c0,0-0.6,0.2-0.6,0.7
		v0.2C3.5,30.2,3.9,30.1,4,30c0.2-0.1,1.6-0.7,1.8-0.8c0.3-0.2,1.3-1,1.4-1.2c0.1-0.2,0.1-0.7,0.2-1.2c0-0.2,0-0.4,0-0.5
		C7.4,26.3,7.4,26.4,7.4,26.5z M6.7,23.8c-0.4,0.8-0.5,0.8-0.7,0.7c-0.1,0-0.2-0.1-0.2-0.2c-0.1,0.2,0,0.5,0.2,0.6
		c0.2,0.1,0.4,0.1,0.7-0.7c0.2-0.4,0.8-0.4,0.8,0.1C7.7,23.5,6.9,23.3,6.7,23.8z M7.4,15.1c-0.1,0.2-1.2,1.8-1.4,2.5
		C5.7,18.3,4.5,21,4.5,21s0,0,0.1,0c0.3-0.7,1.2-2.6,1.4-3.2c0.2-0.7,1.3-2.3,1.4-2.5c0.1-0.3,0.4-0.1,0.4,0.3
		C7.9,15.1,7.5,14.8,7.4,15.1z M9.5,21.2c-0.1,0.1-0.2,0.3-0.1,0.5c0-0.2,0.1-0.3,0.1-0.4C9.5,21.3,9.5,21.3,9.5,21.2z M10.5,12.8
		c-0.2,0.4-0.6,0.8-0.8,1.2c-0.2,0.4-1.1,2.1-1.5,2.8c-0.4,0.7-1.3,2.5-1.4,2.7c-0.1,0.3-0.8,0.4-0.9,0.1c0,0,0,0,0,0
		c-0.2,0.6,0.8,0.5,0.9,0.1c0.1-0.2,1-2,1.4-2.7c0.4-0.7,1.4-2.4,1.6-2.8c0.2-0.4,0.6-0.8,0.8-1.2c0.1-0.3,0.6-0.4,0.7,0
		C11.3,12.4,10.7,12.4,10.5,12.8z M11.6,28.2c-0.2-0.5-0.7-0.7-1.2-0.7c-0.4,0-1.3-0.2-1.7-0.2c-0.1,0-0.1,0-0.1-0.1
		c-0.1,0.2-0.1,0.4,0.1,0.4c0.4,0,1.2,0.2,1.6,0.2c0.6,0,1,0.2,1.2,0.7c0,0,0,0.1,0.1,0.1C11.8,28.6,11.8,28.5,11.6,28.2z
		 M11.3,29.6c-0.3-0.1-1.6-0.2-2.7,0.4c-0.4,0.2-1.7,0.9-2.1,1.5C6,32,5.1,32.5,5,32.7c-0.1,0.1-0.6,0.6-0.6,0.6
		c0-0.1-0.2-1-0.2-1.1c0-0.2,0-0.3-0.1-0.4c0,0.2,0,0.5,0,0.7c0,0.1,0.2,1,0.2,1.1c0,0,0.5-0.5,0.6-0.6c0.1-0.2,1.1-0.7,1.5-1.3
		c0.4-0.5,1.7-1.3,2.1-1.5c1.1-0.5,2.4-0.5,2.7-0.4c0.2,0.1,0.5,0.3,0.6,0.5C12.1,30,11.6,29.7,11.3,29.6z M11.5,14.5
		c-0.3,0.4-0.9,1.5-1.1,1.9s-1,2.3-1.2,2.7c-0.2,0.3-0.9,0.6-1.1,0.5c0,0-0.1-0.1-0.1-0.2c0,0.2,0,0.4,0.1,0.5
		c0.1,0,0.9-0.2,1.1-0.5c0.2-0.3,1-2.3,1.2-2.7c0.3-0.3,0.8-1.5,1.1-1.9c0.2-0.3,0.7-0.1,0.8,0.3C12.4,14.5,11.8,14.1,11.5,14.5z
		 M13,25.9c-0.1,0.1-0.4,0.1-0.5,0c-0.3-0.1-0.6-0.2-1.4-0.4c-0.7-0.1-1.9,0.5-2.2,0.6c-0.3,0.1-0.7,0-0.6-0.4c0-0.2,0-0.6-0.2-0.7
		c-0.1-0.1-0.6,0-0.7-0.3c-0.2,0.6,0.5,0.5,0.7,0.6c0.2,0.1,0.2,0.4,0.2,0.7c0,0.3,0.3,0.4,0.6,0.4c0.3-0.1,1.5-0.7,2.2-0.6
		c0.8,0.2,1.2,0.3,1.4,0.4C12.7,26.3,13.1,26.3,13,25.9C13,25.9,13,25.9,13,25.9z M12.8,16.1c-0.2,0.3-0.5,0.9-0.8,1.4
		c-0.3,0.5-0.5,1.1-1,1.6c-0.4,0.4-0.7,0.2-0.8-0.1c-0.2,0.5,0.2,0.9,0.7,0.4c0.5-0.5,0.7-1.1,1-1.6c0.3-0.5,0.6-1.1,0.8-1.4
		c0.1-0.2,0.6-0.1,0.7,0.2c0,0,0-0.1,0-0.1C13.5,16.1,12.9,15.9,12.8,16.1z M13.8,23.8c-0.1,0.2-0.4,0.4-0.4,0.6
		c0,0.2-0.4,0.8-0.3,1.2c0.1-0.3,0.3-0.7,0.3-0.9C13.4,24.4,13.9,24.2,13.8,23.8C13.8,23.9,13.8,23.8,13.8,23.8z M14.9,26.9
		c-0.1,0.1-0.2,0.2-0.3,0.3c-0.2,0.2-0.4,0.6-0.6,0.6c-0.2,0.1-0.4-0.1-0.6-0.1c-0.2,0-0.4,0.5-0.4,0.5s0,0.1,0,0.2
		c0.1-0.1,0.2-0.4,0.4-0.4c0.2,0,0.5,0.1,0.6,0.1c0.1,0,0.3-0.5,0.5-0.6C14.8,27.3,15,27.2,14.9,26.9z M16,25.8
		C16,25.9,16,25.9,16,25.8c-0.2,0.2-0.5,0.2-0.8,0.3c-0.2,0.1-0.4,0.2-0.3,0.4c0,0,0,0,0,0.1c0.1-0.1,0.2-0.2,0.2-0.2
		c0.3-0.1,0.7-0.1,0.8-0.2C16,26.2,16.1,26,16,25.8z M17.9,27.1c0,0.1,0,0.1,0,0.2c0,0.2,0,0.5,0,0.9C17.9,27.8,17.9,27.4,17.9,27.1
		z M17.8,24.6c-0.4,0-0.5-0.1-0.9-0.6c-0.3-0.4-0.4-0.5-0.8-0.7c-0.5-0.2-0.9-1-1.1-1.4c-0.2-0.4-0.6-0.5-0.9-0.7
		c-0.3-0.2-0.6-0.5-0.9-0.8c-0.3-0.3-0.5-0.3-0.9-0.5c-0.2-0.1-0.3-0.3-0.4-0.4c-0.1,0.3,0,0.5,0.3,0.7c0.4,0.3,0.6,0.2,0.9,0.5
		s0.6,0.7,0.9,0.8c0.3,0.1,0.8,0.3,1,0.7c0.2,0.4,0.5,1.2,1.1,1.4c0.4,0.2,0.6,0.3,0.8,0.7c0.4,0.5,0.6,0.6,0.9,0.6
		c0.4,0,0.4,0.4,0.5,0.8c0-0.1,0-0.2,0-0.2C18.2,25.1,18.2,24.6,17.8,24.6z"/>
	<path d="M77.3,31.2c-1.5-1.3-3.7-1.8-3.7-1.8s1.5-0.4,2.4-1.2c1.1-1,3-5.1-0.5-8.8c-1.8-1.9-6.3-2.1-6.3-2.1h-7.3
		c0,0-1.3-0.2-1.3,0.5c0,0.4,0,0.5,0.5,0.7c0.5,0.2,2.1,1.8,2.1,3.7c0,0.3,0,0.5,0,0.5V38c0,0,0,1.8-0.2,3c-0.2,1-0.6,2-1.2,2.5
		c-0.9,0.6-1.5,0.5-1.6,1.1c-0.1,0.7,0.9,0.6,0.9,0.6s1.4-0.1,4-0.2c3.1-0.1,2.6,0.3,5.6,0.4c3.3,0.1,6-0.4,8.1-3.7
		C81,38.2,79,32.8,77.3,31.2z M66.9,20c0,0,0-0.2,0.1-0.4c0.1-0.2,0.5-0.2,0.5-0.2h0.7c0,0,2,0,3.5,0.8c1.1,0.6,2,1.5,2,3.8
		c0,1-0.5,2.5-1.1,3.1c-0.7,0.9-1.9,1.6-2.4,1.7C69.7,29,68.9,29,68.9,29h-1.2c0,0-0.4-0.1-0.6-0.4C67,28.4,66.9,28,66.9,28L66.9,20
		z M74,42.2c-1.3,0.9-3,0.8-3,0.8h-2.3c0,0-0.5-0.1-1-0.3c-0.3-0.1-0.7-0.4-0.7-0.7V31.2h1.9c0,0,3.3-0.1,4.8,1.3
		c1.3,1.2,2.2,2.5,2.3,4.8C76,39,75.5,41.2,74,42.2z"/>
	<path d="M106.9,43.8c-0.7,0-1.3-0.6-1.9-1.2c-1.4-1.7-2.7-5.3-2.7-5.3l-8.2-20.1l-2.9,1c0,0-0.5,0.1-0.6,0.2
		c-0.2,0-0.5,0.1-0.5,0.1s0.1,0.4,0.1,0.8c0,0.5-0.1,1.1-0.1,1.1l-6.6,18c0,0-0.4,1.2-0.7,1.8c-0.6,1.2-1.2,2.1-2,3
		c-1.2,1.3-1.7,0.5-1.9,1.4c0,0.6,0.5,0.5,0.5,0.5s3-0.2,4.8-0.2s4.2,0.2,4.9,0.2c0.6,0,1.2-1.1,0.4-1.2c-0.8-0.1-2.4-0.3-3-1
		c-0.6-0.7-0.6-2.2-0.5-2.6c0.1-0.4,0.4-1.3,0.4-1.3l2.3-6.5h8l2.8,6.8c0,0,0.6,1.6,0.4,2.5c-0.3,1.2-1.8,1.8-3.1,2
		c-0.5,0.1-1.1-0.1-1.4,0.8c-0.2,0.6,0.7,0.6,0.7,0.6s3.9-0.1,6-0.2c1.9,0,4.1,0,4.7,0C107.4,45.1,108.1,43.9,106.9,43.8z
		 M89.3,30.4l3-8.4l3.4,8.4H89.3z"/>
	<path d="M105.6,17.8c0,0,0.8,0.1,1.8,0.1c1,0.1,2.5,0.1,2.5,0.1l10.8,0c0,0,1.8,0,3.5-0.1c1.4-0.1,3.5-0.3,3.5-0.3
		s-0.1,1.5-0.4,3.4c-0.3,1.9-0.6,3-0.6,3s-0.1,0.7-0.3,0.8c-0.2,0.1-1.2,0.5-1.2,0.5s0.2-1.3,0.2-1.9c-0.1-0.9-0.3-2.3-0.9-2.7
		c-1-0.7-2.2-0.7-3.2-0.7c-1-0.1-2.5,0-3,0.3c-0.4,0.3-0.4,1.1-0.4,1.1v18.2c0,0-0.1,2.3,1,3.1c0.9,0.7,2.4,1.1,2.4,1.1
		s1.1,0,0.8,0.8c-0.2,0.5-0.8,0.6-0.8,0.6s-3.8-0.1-5.7-0.1c-2.7,0-5,0.1-5.8,0.1c-1.1,0-0.8-1.3,0.2-1.4c0.5-0.1,2-0.2,3-1.2
		c1-1.1,1.2-3.4,1.2-3.4v-17c0,0-0.1-1.3-0.4-1.7c-0.7-0.7-2.4-0.7-3.7-0.5c-1.7,0.2-2.8,0.8-3.2,1.9c-0.5,1.2-0.7,2.7-1.1,2.8
		c-0.4,0.2-1.3,0.4-1.3,0.4s0.4-1.8,0.7-4C105.3,19.6,105.6,17.8,105.6,17.8z"/>
	<path d="M130.1,17.5c-0.9-0.1-1.1,1.2-0.6,1.4c0.7,0.1,1.2,0,1.8,0.7c0.7,0.8,0.5,2.6,0.5,2.6v16.5c0,0,0,1.8-0.1,2.8
		c-0.2,1.3-0.8,1.8-1.5,2.1c-0.6,0.3-1.2,0.3-1.2,1c-0.1,0.7,0.6,0.6,0.6,0.6s1.7-0.1,4-0.2c2.3,0,4.6,0.2,5.3,0.2
		c0.7,0,1.2-1.2,0.1-1.3c-1.2-0.2-2.3-0.4-3.1-1.1c-0.6-0.6-0.5-2.2-0.5-2.2v-9.8h13.1v9.8c0,0,0,2.2-1.1,2.5
		c-1.1,0.4-1.6,0.4-2.4,0.5c-0.8,0.1-1.5,1.6-0.6,1.6s3.7-0.2,5.9-0.2c1.3,0,3.4,0.1,3.7,0.2c0.7,0,0.9-0.3,1.1-0.7
		c0.2-0.5-0.5-0.6-0.9-0.8c-0.5-0.2-1-0.4-1.4-1c-0.5-0.8-0.4-2.5-0.4-2.5V22.3c0,0-0.1-1.7,0.5-2.5c0.6-0.9,0.9-0.8,1.4-1
		c0.7-0.2,0.9-1.3,0.2-1.2c-0.7,0.1-2.9,0.2-4.1,0.2c-1.9,0-4-0.1-4.5-0.2c-0.9,0-1.1,1.3-0.4,1.3c0.7,0,1.9,0.2,2.5,1
		c0.6,0.9,0.6,2.5,0.6,2.5v6h-13.1v-6.1c0,0-0.1-2.1,0.9-2.7c0.7-0.5,1.3-0.5,2.1-0.6c0.8-0.1,1.2-1.5,0.4-1.4
		c-0.8,0.1-3,0.1-4.9,0.1C131.9,17.6,130.8,17.6,130.1,17.5z"/>
	<path d="M61.7,5.3v0.5l0.7,0.1L62.5,6v3.6c0,0.8,0.1,1.4,0.5,2c0.4,0.5,1.2,0.9,2.3,0.9c2,0,2.8-0.9,2.8-2.8V6l0.1-0.2l0.6-0.1V5.3
		h-2.4v0.5l0.7,0.1L67.3,6v3.6c0,1.4-0.4,2.1-1.6,2.1c-1.3,0-1.7-0.6-1.7-2V6l0.1-0.1l0.7-0.1V5.3H61.7z"/>
	<polygon points="70.5,12.4 72.9,12.4 72.9,11.8 72.2,11.8 72.1,11.6 72.1,6.7 75.7,12.4 76.9,12.4 76.9,6.1 77.1,5.9 77.7,5.8
		77.7,5.3 75.3,5.3 75.3,5.8 75.9,5.9 76.1,6.1 76.1,10.6 72.9,5.6 72.9,5.3 70.5,5.3 70.5,5.8 71.2,5.8 71.3,6 71.3,11.6
		71.1,11.8 70.5,11.8 	"/>
	<polygon points="79.5,12.4 82.6,12.4 82.6,11.8 81.9,11.8 81.7,11.6 81.7,6 81.9,5.8 82.6,5.8 82.6,5.3 79.5,5.3 79.5,5.8
		80.2,5.8 80.3,6 80.3,11.6 80.2,11.8 79.5,11.8 	"/>
	<polygon points="83.9,5.3 83.9,5.8 84.6,5.9 87,12.4 88.1,12.4 90.4,5.9 91.1,5.8 91.1,5.3 88.8,5.3 88.8,5.8 89.4,5.8 89.5,6
		87.8,10.8 86.1,6 86.2,5.8 86.8,5.8 86.8,5.3 	"/>
	<polygon points="92.4,12.4 98.1,12.4 98.1,10.5 97.4,10.5 97.2,11.6 97,11.8 94.6,11.8 94.6,9 96,9 96.1,9.2 96.2,9.9 96.8,9.9
		96.8,7.5 96.2,7.5 96.1,8.2 96,8.4 94.6,8.4 94.6,5.9 96.7,5.9 96.8,6 97,6.9 97.7,6.9 97.7,5.3 92.4,5.3 92.4,5.8 93.1,5.8
		93.2,6 93.2,11.6 93.1,11.8 92.4,11.8 	"/>
	<path d="M106.8,11.8c-0.7,0-1-0.2-1.2-0.7c-0.2-0.5-0.3-1.1-0.6-1.6c-0.2-0.3-0.6-0.5-1.1-0.7c1.2-0.2,1.8-0.8,1.8-1.8
		c0-1.2-0.8-1.8-2.5-1.8H100v0.5l0.6,0.1l0.2,0.1v5.6l-0.2,0.2l-0.6,0v0.5h3v-0.5l-0.6,0l-0.2-0.2V9.2h0.2c1.1,0,1.3,0.5,1.7,1.5
		c0.2,0.5,0.3,1,0.8,1.4c0.2,0.2,0.6,0.3,1.1,0.3c0.3,0,0.7,0,1.1-0.1v-0.5H106.8z M102.5,8.6c-0.1,0-0.2,0-0.4,0V5.9h0.5
		c1,0,1.6,0.5,1.6,1.3C104.2,8.2,103.7,8.6,102.5,8.6z"/>
	<path d="M108.6,12.1c0.7,0.2,1.4,0.3,2,0.3c1.7,0,2.8-0.9,2.8-2.2c0-0.6-0.3-1.2-0.9-1.6c-0.6-0.4-1.2-0.6-1.5-0.8
		c-0.6-0.3-0.9-0.7-0.9-1.1c0-0.6,0.5-1,1.2-1c0.3,0,0.6,0.1,0.8,0.1l0.1,0.1l0.2,1.1h0.8V5.5c-0.7-0.2-1.3-0.4-2-0.4
		c-1.5,0-2.5,0.9-2.5,2.1c0,0.5,0.3,1,0.7,1.4c0.5,0.4,1,0.6,1.4,0.8c0.7,0.4,1.1,0.8,1.1,1.3c0,0.6-0.5,1-1.4,1
		c-0.3,0-0.6-0.1-0.9-0.1l-0.1-0.2l-0.2-1.3h-0.8L108.6,12.1L108.6,12.1z"/>
	<polygon points="115.6,12.4 118.7,12.4 118.7,11.8 118,11.8 117.8,11.6 117.8,6 118,5.8 118.7,5.8 118.7,5.3 115.6,5.3 115.6,5.8
		116.3,5.8 116.4,6 116.4,11.6 116.3,11.8 115.6,11.8 	"/>
	<polygon points="120.4,5.3 120.4,7.1 121.1,7.1 121.3,6 121.5,5.9 122.7,5.9 122.7,11.6 122.6,11.8 121.9,11.8 121.9,12.4
		125,12.4 125,11.8 124.3,11.8 124.2,11.6 124.2,5.9 125.4,5.9 125.6,6 125.8,7.1 126.5,7.1 126.5,5.3 	"/>
	<polygon points="127.7,5.3 127.7,5.8 128.4,5.9 130.4,9.6 130.4,11.6 130.3,11.8 129.6,11.8 129.6,12.4 132.7,12.4 132.7,11.8
		132,11.8 131.8,11.6 131.8,9.3 133.8,5.9 134.5,5.8 134.5,5.3 132.2,5.3 132.2,5.8 132.8,5.9 132.9,6.1 131.4,8.6 129.9,6 130,5.8
		130.6,5.8 130.6,5.3 	"/>
	<path d="M144.9,5.9c-0.6-0.5-1.4-0.8-2.3-0.8c-1,0-1.8,0.3-2.5,0.9c-0.7,0.7-1.1,1.6-1.1,2.8c0,2.2,1.4,3.7,3.6,3.7
		c0.9,0,1.7-0.3,2.4-0.9c0.7-0.7,1.1-1.6,1.1-2.8C146.2,7.7,145.7,6.6,144.9,5.9z M142.6,11.9c-1.1,0-2-1.1-2-3.1c0-1.9,0.8-3,2-3
		c1.2,0,2,1.1,2,3.1C144.6,10.7,143.8,11.9,142.6,11.9z"/>
	<polygon points="148.1,12.4 151.2,12.4 151.2,11.8 150.5,11.8 150.3,11.6 150.3,9.2 151.7,9.2 151.9,9.3 152,10.1 152.6,10.1
		152.6,7.6 152,7.6 151.9,8.4 151.7,8.5 150.3,8.5 150.3,5.9 152.4,5.9 152.5,6 152.6,7 153.4,7 153.4,5.3 148.1,5.3 148.1,5.8
		148.8,5.8 148.9,6 148.9,11.6 148.8,11.8 148.1,11.8 	"/>
	<rect x="60.7" y="50.6" width="94" height="2.1"/>
	<path d="M13,25.9c0-0.1,0-0.2,0-0.3c0,0,0,0,0,0.1C13.1,25.8,13,25.8,13,25.9z"/>
</g>
<g id="Uni_of_Bath_white" class="st0">
	<path class="st1" d="M27.6,1.2c-15,0-27.1,12.2-27.1,27.1s12.2,27.1,27.1,27.1c15,0,27.1-12.2,27.1-27.1S42.6,1.2,27.6,1.2z
		 M27.6,54C13.5,54,2,42.5,2,28.4S13.5,2.7,27.6,2.7c14.1,0,25.6,11.5,25.6,25.6S41.8,54,27.6,54z"/>
	<path class="st1" d="M32.5,48.4c0.4-0.2,1.1-0.7,1.1-0.9c0.1-0.2,0.3-0.2,0.4,0c0.1,0.2,0.2,0.7,0.3,0.8c0.1,0.2,0.1,0.3-0.1,0.3
		c-0.2,0.1-0.6,0-0.8,0.2c-0.3,0.2-0.6,0.2-0.8,0.3c-0.2,0.1-0.4,0.1-0.6,0.1c-0.3,0-0.4,0.1-0.6,0.1c-0.1,0-0.6,0-0.8,0
		c-0.2,0-0.5,0.1-0.7,0.1c-0.2,0-0.4-0.2-0.2-0.3c0.2-0.1,0.4-0.2,0.6-0.2c0.2,0,0.5-0.1,0.7-0.2c0.2-0.1,0.2-0.2,0.2-0.2
		s0.5,0,0.8-0.1C32.3,48.5,32.1,48.6,32.5,48.4z"/>
	<path class="st1" d="M27.8,38.6c0.2,0.1,0.8,0.4,0.8,0.6c0,0.2-0.3,0.9-0.6,0.9c-0.3,0-1.8-0.8-1.5-1.2
		C26.9,38.1,27.4,38.3,27.8,38.6z"/>
	<path class="st1" d="M38.2,18.8c-0.4-0.1-0.8-0.2-0.5-0.5c0.3-0.3,0.3-0.6,0.5-0.8c0.2-0.2,0.4-0.4,0.3-0.6
		c-0.1-0.2-0.5-0.5-0.3-0.7s0.6-0.8,0.7-1.2c0.2-0.5,1-2.3,1.1-2.7s0.2-0.8,0.4-1.1c0.2-0.3,1.2-1.7,1.8-1.8c0.5-0.1,0.9,0,0.9,0
		s1.4,1.1,1.7,1.4c0.4,0.4,3.1,3.8,3.5,4.3c0.2,0.3,2.3,4.4,2.6,5.4c0.1,0.4,0.5,1.5,0.7,2.1c0.1,0.2,0.5,3.2,0.5,3.2
		s-1,0.5-1.2-0.2c-0.1-0.4-0.4-1.9-0.5-2.2c-0.1-0.3-0.4-0.9-0.5-1.2c-0.1-0.3-0.3-1-0.4-1.3c-0.1-0.3-0.7-1.8-0.9-2.2
		s-0.3-0.9-0.3-1.1c-0.1-0.2-0.8-1.4-0.1-1.6c0.7-0.2-0.7-1.7-1-1.7c-0.7-0.1-2.2-0.8-2.7-0.6c-0.2,0.1-0.4,0.5-0.2,0.7
		c0.2,0.2,1.4,0.5,1.7,0.6c0.3,0.1,0.8,0.4,0.8,0.8c0,0.2-0.3,0.5,0,0.8c0.3,0.2,0.8,0.2,0.7,0.9c-0.1,0.7,0.1,0.9,0.4,1.3
		c0.3,0.4,0.3,0.9,0.5,1.3c0.1,0.3-0.8,0.1-0.9-0.2c-0.2-0.4-0.6-1.4-0.9-1.7c-0.2-0.2-0.6,0-0.6,0.2c0.1,0.3,0.6,1.3,0.8,1.7
		c0.3,0.4,1.1,0.7,1.3,1.1c0.2,0.4,0.6,0.9,0.8,1.2c0.2,0.3,0.8,0.8,0.8,1.9c0,0.7,0.4,1.4,0.5,1.7c0.1,0.3-0.5,0.3-0.7,0.2
		c-0.3-0.3-0.5-0.6-0.5-1.1c0-0.6-0.4-1.9-0.9-2.6c-0.6-0.8-0.9-1.2-1.1-1.4c-0.3-0.2-1-0.9-1.3-1.3c-0.3-0.4-0.7-1.1-0.9-1.6
		c-0.2-0.5-0.7-0.4-0.8,0.1c-0.1,0.4-0.1,0.8,0.5,1.5c0.6,0.7,0.8,1.2,1.2,1.3s0.7,0,1.1,0.6c0.4,0.6,1.3,2.1,1.3,2.5
		c0.1,0.4-0.9,0.3-1-0.2c-0.1-0.4-0.5-1.4-0.7-1.7c-0.2-0.3-0.3-0.6-0.6-0.4c-0.3,0.2,0.1,0.8,0.2,1c0.1,0.3-0.5,0.5-0.7,0.2
		c-0.3-0.3-0.4-0.9-0.6-1.2c-0.1-0.3-0.5-0.6-0.6-0.5c-0.3,0.2-0.1,0.7,0,1.2c0.1,0.4-0.2,0.6-0.5,0.4c-0.4-0.3-0.3-1.1-0.6-1.4
		c-0.3-0.4-0.7-0.6-0.7-0.9c-0.1-0.4,0-0.8,0.2-1c0.4-0.3,0.2-0.6,0.2-0.9c0-0.2-0.2-0.4-0.2-0.7c0-0.4,0.2-0.4,0.4-0.6
		c0.1-0.2,0.1-0.6,0-0.8c-0.1-0.2-0.3-0.5,0.1-0.6s0.6,0,0.8,0.1c0.3,0.1,0.9,0.5,1.1,0.5c0.2,0,0.9,0,0.8-0.6
		c0-0.2-0.6-0.5-0.8-0.4c-0.2,0.1-0.6,0.1-0.8-0.1c-0.3-0.2-1.1-1-1.2-1.1s0.4-1,0.8-1.2c0.4-0.2,1-0.3,0.8-0.6
		c-0.2-0.4-0.7-0.4-0.9-0.7c-0.2-0.3-0.6-0.7-0.9-0.5c-0.3,0.2-0.7,0.3-0.9,0.3c-0.2,0.1-0.6,0.4-0.7,0.8c-0.1,0.4-1,2-1,2.5
		c0,0.2-0.7,0.7-0.6,1c0.1,0.3,0.3,0.2,0.5,0.2c0.2,0.1,0.1,0.5-0.2,0.8s-0.3,0.7-0.4,0.8c-0.1,0.2-0.6,0.2-0.6,0.4
		C38.7,18.3,38.5,18.6,38.2,18.8z"/>
	<path class="st1" d="M41.4,8.3c0,0-1.7,0.9-2,1.2c-0.2,0.3-0.6,1.8-0.7,2s-0.2,0.4-0.2,0.7c0,0.3,0,0.5-0.2,1.2
		c-0.3,0.7-0.5,1.1-0.6,1.7c-0.1,0.6,0.2,0.9-0.1,1.4c-0.3,0.5-0.6,0.8-0.6,1.1c-0.1,0.3-0.3,0.6-0.4,0.9c-0.1,0.3-0.9,0.6-0.7,0.1
		c0.2-0.5,0.6-2,1-3.8c0.3-1.7,0.4-2.6,0.9-4.4c0.6-1.7,2.7-2.9,2.7-2.9L41.4,8.3z"/>
	<path class="st1" d="M50.5,33c-0.1,0.4-0.2,0.7-0.6,0.7c-0.4,0-0.3-0.2-0.6-0.5c-0.3-0.4-0.6-1.2-0.6-1.4c-0.1-0.2-0.4-0.3-0.5-0.6
		c-0.1-0.2-0.1-1-0.1-1l0.1-0.3c0,0-0.3-0.4-0.6-0.6c-0.3-0.2-0.4-0.8-0.6-1.4c-0.2-0.5,0.3-0.7,0.8-0.5c0.5,0.2,1,1.3,1.2,1.6
		c0.2,0.3,0.1,1.8,0.3,1.9c0.2,0.2,1,0.3,1.1-0.1c0-0.2-0.3-0.6-0.4-0.7c-0.1-0.2-0.1-0.4-0.1-0.8c0-0.3-0.2-0.6-0.6-1
		c-0.4-0.5-0.2-0.7-0.1-0.8c0.1-0.1,0.8,0.3,1.1,0.9c0.3,0.6,0.3,1.6,0.7,1.6c0.2,0,0.2-0.9,0.2-1.7c0-0.8-0.3-1.3-0.7-1.4
		c-0.6-0.2-2-0.6-2.4-0.7c-0.4-0.1-0.8-0.2-1.2-0.2c-0.3,0.1-0.5,0.1-0.6-0.2c-0.1-0.3,0.5-0.4,0.5-0.6s-0.4-0.3-0.7-0.4
		c-0.3-0.1-0.9-0.1-1,0c-0.2,0.1-0.2,0.3-0.6,0.4c-0.4,0.2-1.5,0.1-1.6-0.5c-0.2-0.6,0.3-1.2,0.2-1.3c-0.1-0.1-0.6,0.3-1,0.4
		c-0.3,0.1-1,0.3-1,0c0-0.3,0.8-0.6,0.8-0.6s0.4-0.3,0.5-0.6c0.1-0.2,0-1,0-1.2c0-0.2-0.6-0.3-0.6-0.2s-0.1,0.6-0.4,0.8
		c-0.3,0.2-0.8,0.4-1,0.5S39.7,23,39.5,23c-0.3,0-1,0.5-1.4,0.7c-0.3,0.2-0.2-0.4,0.1-0.5c0.2-0.2,0.5-0.3,0.7-0.3
		c0.3,0,0.4-0.4,0.6-0.6c0.3-0.2,0.8,0,1.2-0.2c0.2-0.1,0.3-1.2,0.3-1.4c0.1-0.2,0.3-0.8,0.5-1.1c0.2-0.3,0.1-0.6,0-1
		s0.4-0.5,0.4-0.8c0-0.3-0.1-1.4-0.2-1.9s0.5-0.5,0.6-0.8c0.1-0.3-0.2-0.8-0.1-1.1c0-0.4,0.4-0.6,0.6-1.1c0.2-0.5-0.3-0.6-0.5-0.4
		c-0.2,0.2-0.6,1-0.7,1.1c-0.1,0.1-0.2,0.4-0.3,0.7c0,0.2-0.1,0.9-0.2,1.9c-0.1,1-0.4,2.8-0.6,3.7c-0.2,0.9-0.4,1.1-0.9,1.2
		c-0.5,0-0.4-0.2-0.7-0.2c-0.2,0-0.3,0.2-0.4,0.4c-0.1,0.1-0.5,0.4-0.9,0.4c-0.3,0-0.2-0.3-0.2-0.4c0-0.1,0.6-0.3,0.8-0.4
		c0.2-0.2,0.4-0.5,0.1-0.6c-0.3-0.2-0.4,0-0.7,0.1c-0.8,0.5-0.7-0.1-0.6-0.3c0.1-0.2-0.6-0.3-0.9-0.3c-0.2,0-0.2,0.5-0.6,0.6
		c-0.4,0.1-0.6,0-0.9,0.1c-0.3,0,0,0.4,0.1,0.5c0.2,0.2,0.1,0.5,0.6,0.6c0.2,0.1,0.6,0.6,0.8,1.1c0.2,0.4,0.2,0.7,0.2,1.6
		c0,0.4-0.2,1.1-0.3,1.3c-0.1,0.5,0.3,0.9,0.3,1.1c0,0.3,0.1,0.5,0.2,1.1c0.1,0.5,0,0.7-0.2,1.3c-0.2,0.6-0.2,1-0.1,1.4
		c0.1,0.8-0.2,1.7-0.4,2.2c-0.2,0.4-0.2,1.1-0.2,1.2c0,0.1-0.3,0.4-0.3,0.6c-0.1,0.2,0.2,0.5,0.2,0.7c0,0.2-0.1,1-0.3,1
		c-0.3,0-0.9,0.2-1,0.3c-0.1,0.1,0.1,0.5-0.4,0.7c-0.5,0.2-1.1-0.1-1.6-0.4c-0.5-0.3-0.9-1.1-1-1.2c-0.1-0.1-0.3,0-0.4,0
		c-0.1,0-0.2-0.5-0.4-1.3c-0.2-0.8-0.2-1.2,0.2-1.2s1,0.8,1.5,1.3c0.5,0.6,1.3,1.5,1.6,1.1c0.3-0.3,0-0.6-0.3-1
		c-0.3-0.4-0.3-0.8-0.4-1.1C32.7,33,32,32.9,32,32.6c-0.1-0.2-0.1-0.4-0.4-0.6s-0.4-0.3-0.6-0.5c-0.2-0.2-0.4-0.6-0.5-0.8
		c0-0.2-0.2-0.6-0.6-0.5c-0.3,0-0.2,0.5,0,0.7c0.2,0.2,0.3,0.7,0.2,0.8c-0.1,0.2-0.6,0.3-1,0.2c-0.3-0.1-0.3-0.2-0.8-0.2
		c-0.4-0.1-0.5,0.3-0.9,0.2c-0.2-0.1-0.3-0.3-0.4-0.5c-0.1-0.2,0-0.6-0.3-0.7c-0.3-0.1-0.5,0-0.5-0.4c0.1-0.4,0.5-0.3,0.7-0.2
		c0.2,0,0.3-0.4,0.3-0.7c0-0.3-0.5,0-0.4-0.7c0-0.5,0.5-0.9,0.6-1.2c0.1-0.3-0.2-0.7-0.3-1.4c-0.1-0.7,0.1-1.4,0.4-1.4
		c0.3-0.1,0.9,0.6,1.3,1.3c0.4,0.6,0.6,1.2,1,1.6c0.3,0.3,0.7,0.6,1.2,0.8c0.4,0.1,1.2,0.1,1.6,0c0.3-0.1,0.6-0.6,0.9-0.6
		c0.3-0.1,0.3,0.2,0.6,0.3c0.2,0.1,0.3,0.1,0.5-0.1c0.1-0.2-0.5-0.7-0.7-0.8c-0.2-0.1-1-1-1.3-1c-0.5,0-0.7-0.1-0.8-0.3
		c0-0.2,0.7-0.2,0.9-0.2c0.2,0,0.4,0.3,0.6,0.4c0.2,0.2,0.7,0.4,0.9,0.2c0.2-0.2,0.1-0.5,0.1-0.8c0-0.4,0.3-0.4,0.2-0.8
		c-0.1-0.4-1.1,0.2-2.6,0.2c-1.5,0-2.2-0.4-2.8-0.7c-0.5-0.2-1.1-0.7-1.7-0.8c-0.8-0.1-2.2,1-2.6,1.1c-0.4,0.1-1.4,0.1-1.9,0
		c-0.5-0.1-1.2-0.4-1.8-0.4c-0.5,0-1.3,0.7-1.5,0.4c-0.4-0.4,0.4-0.8,0.7-0.9c0.4,0,1.4-0.1,1.3-0.6c-0.1-0.6-1.2-0.1-1.8,0.1
		c-0.6,0.1-0.2-0.4,0.1-0.5c0.3-0.1,0.9-0.4,1.4-0.9c0.4-0.4,0.5-1.1,0.5-1.2c0.3-0.6,0.7-1.6,1.4-2c0.5-0.3,1.2-1,2.1-1.1
		c0.3,0,1-0.3,1.5-0.6c0.3-0.2-0.1-0.3-0.6-0.4c-0.4-0.1-0.6-0.6-0.7-0.9c-0.1-0.3-0.4-0.4-0.6-0.6c-0.2-0.2-0.4-2.1-0.5-3
		c-0.1-0.9,0.1-1.5,0.4-1.5c0.6,0,0.2,0.9,0.3,1.5c0.1,0.3,0.5,0,0.6-0.4c0-0.3,0-2.4-0.3-2.8c-0.4-0.5-2.2-1.8-2.3-2
		c-0.1-0.2-0.1-0.8-0.4-0.9c-0.2-0.1-0.3,0.5-0.4,1c-0.1,0.5,0.7,1,1,1.4c0.3,0.4,0.6,0.9,0.5,1.4c-0.1,0.5-0.2,3.4-0.2,3.7
		c0,0.3-0.2,0.8-0.5,0.8c-0.3,0-0.4-0.8-0.5-1.1c0-0.3,0.1-0.4,0.3-0.5c0.1-0.1,0-1-0.2-1c-0.2,0-0.5,0.1-0.6-0.4
		c-0.1-0.8,0.4-0.5,0.5-1.1c0-0.5-0.3-1-0.5-1.1c-0.2-0.1-0.4-0.5-0.4-1.1c0-0.6-0.2-2.9,0.1-2.9c0.5,0,1.3,0.4,1.6,1
		s1.8,1.6,2.4,2.2c0.5,0.7,0.5,2.9,0.3,4.2c-0.2,1.4,0.4,2.1,0.8,2.7c0.4,0.6,1,1.2,1,1.5c0,0.2,0.2,0.5,0.5,0.6
		c0.2,0.1,1.3,0.4,1.8,0.6c0.5,0.2,1,0.8,1.6,1.1c0.5,0.3,2.2,0.8,2.6,0.8c1.3-0.1,0.7-0.5,0.7-0.7c-0.1-0.2,0.3-0.7,0.4-0.9
		c0.2-0.7-0.4-0.4-0.2-1c0.1-0.4-0.2-0.7-0.4-0.4c-0.2,0.2-0.2,1-0.3,1.3c-0.1,0.4-0.7,0.5-0.9,0.3c-0.2-0.2,0.2-0.4,0.4-0.8
		c0.2-0.3-0.3-0.4-0.7-0.3c-0.4,0.1-0.2-0.5,0.3-1c0.4-0.3,0.4-0.8,0.7-1.7c0.3-0.9,0.8-1.6,0.8-2.3c0-0.7-0.6-0.2-0.7,0.1
		c-0.2,0.3-0.4,1-0.6,1.5c-0.2,0.8-0.7,1.8-1,1.6c-0.3-0.1,0.3-1.3,0.4-2.4c0.1-1.2,0.6-3,1.1-4.3c0.6-1.2,1.6-0.9,2.2-0.9
		c0.5,0,1.1,0,1.7-0.5c0.3-0.3,0.8-0.2,1-0.2c-0.2-0.1-1.5-1-2.1-1.2c-0.7-0.2-3.1-1.2-3.5-1.3c-0.7-0.1-2.3-0.3-2.3-0.3
		s-0.2,1.5-0.1,1.6c0.2,0.2,0.9,0,1.2,0c0.2,0,1.1,0.1,1.2,0.3c0.1,0.2-0.2,0.5-0.7,0.5c-0.7,0.1-1.8,0.2-2.1,0.4
		c-0.3,0.2-0.2,0.8-0.2,0.9c0,0.2,0.1,0-0.5,1.4c-0.6,1.4-1.1,2.9-1.5,2.9c-0.3-0.1,0.1-0.9,0.2-1.9c0.1-1,0.7-2,0.5-2.3
		c-0.2-0.1-0.7,0.5-0.7,0c0-0.3,0.1-2.1,0-2.9c-0.1-0.8-0.8-0.9-1.1-1c-0.3,0-2.1-0.3-2.4,0.2c-0.3,0.5,0.9,0.9,1.6,1
		c0.7,0.1,1.1,0.7,1.2,1c0.1,0.3,0.1,2.2,0.1,2.7c-0.1,0.5-0.1,1.1-0.4,1.7c-0.3,0.6-0.3,2.3-0.7,2.3c-0.4,0-0.3-0.5-0.4-1.4
		c-0.1-0.9,0.1-1.3,0.1-1.3s1-1.6,0.5-2.9c-0.2-0.5-0.7-1.2-1.4-1.3c-0.4,0-1-0.1-1.5-0.2c-0.4-0.1-0.9-0.9-1.1-1
		c-0.3-0.3-1.8-0.7-2.1-0.5c-0.7,0.2-0.5,1.9-1,2.9c-0.4,0.7-0.5,0-0.8-0.5c-0.4-0.6,0.1-1.4,0.1-1.4S19,5.4,18.6,5.6
		c-0.4,0.2-2.2,0.9-2.2,0.9s0.9,0.5,1.1,0.6c0.3,0.2,1,0.9,1.6,0.6c0.2-0.1,1.4,0.8,1.6,1.2c0.2,0.3,0.1,1.8,0.2,2
		c0.1,0.2,0,0.4,0.2,0.7c0,0.6,0.4,1.3,0.6,2.2c0.3,1.5,1.5,2.7,1.4,3c-0.1,0.3-0.5,0.2-0.8-0.2c-0.3-0.3-1-1.5-1.1-1.8
		c-0.2-0.3,0-0.7-0.2-1.1c-0.1-0.3-0.4-0.5-0.5-0.9c-0.1-0.4-0.2-3-0.3-3.4C20,9,19.3,8.5,19.2,8.7c-0.2,0.1-0.3,0.7-0.1,1
		c0.2,0.3,0.6,2.1,0.4,3.1c-0.2,1-0.1,3.8,0.3,5.1c0.3,1.1-0.2,1.1-0.7,0.4c-0.3-0.4-0.9-4.7-1-5.2c-0.1-0.6-0.7-2.8-1-3.1
		c-0.2-0.2-0.5-0.5-0.6-0.8c-0.1-0.3-0.2-1-0.6-1.1c-0.2,0-0.4,0.6-0.6,0.6c-0.2,0.1-1.1-0.9-1.1-0.9s-0.6,0.2-0.9,0.6
		c-0.1,0.2-1,1-2.1,2l1.3-1.1c0,0,0.5,0.2,0.9,0.3c0.5,0.2,1.4-0.1,2.8,2.7c1.4,2.8,1.3,5.1,1.6,6.1s1.5,1.5,2.3,1.8
		c0.8,0.2,0.3,0.8,0.1,1c-0.2,0.2-1.3-0.2-1.7-0.3c-0.4-0.1-1-1-1.2-1.3c-0.2-0.2,0-0.7-0.1-0.9c-0.2-0.3-0.6-0.5-0.7-0.8
		c-0.1-0.3,0.2-1,0.2-1.2c0-0.2-0.3-0.9-0.3-0.9s-0.1-0.7-0.1-1s-0.1-1.3-0.4-1.4c-0.3-0.1-0.3,0.5-0.3,0.5c0,0.3,0,1.1-0.2,1.6
		c-0.2,0.5-0.5,1.6-0.2,3.4c0.2,1.8,2.1,3.1,2.5,3.5c0.4,0.5,0.6,1.3,0.4,1.4c-0.2,0.1-0.3-0.3-0.4-0.5c-0.2-0.2-1.4-1.2-1.9-1.9
		c-1.1-1.4-1-1.8-1.3-2.8c-0.5-2,0.3-4.8,0.4-5.7c0.1-0.5-0.2-0.8-0.5-1.3c-0.2-0.5-0.6-0.6-1-0.4c-0.5,0.2-1-0.1-1.2-0.7
		c-0.2-0.4-1-0.1-1.2-0.1c0,0,0,0,0,0c-1,0.9-2,1.9-2.6,2.6c-1.2,1.4-2.2,2.7-2.9,4.2c-0.7,1.6-1.7,4.2-1.8,4.8
		c-0.1,0.6-0.6,3.2-0.7,4c0,0.7-0.1,4-0.1,4.4c0,0.2,0.3,1.4,0.6,2.7c-0.1-0.8-0.2-2.1-0.2-2.4c0,0,0-0.1,0-0.1
		C3.5,30.2,3.9,30.1,4,30c0.2-0.1,1.6-0.7,1.8-0.8c0.3-0.2,1.3-1,1.4-1.2c0.1-0.2,0.1-0.7,0.2-1.2c0-0.2,0-0.4,0-0.5
		c0-0.2,0-0.3-0.2-0.3C7,25.9,6.7,26,6.7,26.3c-0.1,0.2-0.2,0.8-0.5,0.8c-0.4-0.1-0.7,0.7-0.7,1c0,0.5-1,0.6-0.9,0.2
		c0,0,0-0.1,0-0.2c0.1-0.5,0.4-1.5,0.4-2c0,0,0,0,0-0.1v0c-0.1-0.3-0.4-0.6-0.2-1c0,0,0,0,0-0.1c0.2-0.3,0.2-1.5,0.3-1.7
		C5.3,23,5.9,22.7,6,23.2c0,0.1,0,0.3-0.1,0.6c-0.1,0.1-0.1,0.3-0.1,0.4v0c-0.1,0.2,0,0.5,0.2,0.6c0.2,0.1,0.4,0.1,0.7-0.7
		c0.2-0.4,0.8-0.4,0.8,0.1c0,0.1,0,0.3-0.1,0.5c0,0,0,0.1,0,0.1c-0.2,0.6,0.5,0.5,0.7,0.6c0.2,0.1,0.2,0.4,0.2,0.7
		c0,0.3,0.3,0.4,0.6,0.4c0.3-0.1,1.5-0.7,2.2-0.6c0.8,0.2,1.2,0.3,1.4,0.4c0.2,0.1,0.7,0.1,0.6-0.3c0,0,0-0.1,0-0.1
		c0,0,0.1-0.1,0-0.2c0,0,0,0,0-0.1c0.1-0.3,0.3-0.7,0.3-0.9c0.1-0.3,0.6-0.5,0.5-0.8c0,0,0,0,0-0.1c-0.2-0.3-1-0.6-1.1-0.6
		c-0.2,0-0.4,0.8-0.5,1.2c0,0.5-0.8,0.5-0.9,0.1c-0.2-0.6-0.5-0.6-0.7-1.3c-0.1-0.5-0.5-0.5-0.9-0.8c-0.3-0.3-0.3-0.5-0.3-0.7
		c0-0.2,0.1-0.3,0.1-0.4c0,0,0-0.1,0-0.1v0c-0.2-0.5-0.7-0.5-0.9-0.3c-0.2,0.2-0.6,0-0.8-0.1c-0.3,0-1.2,0.1-1.6,0.2
		c-0.5,0.1-0.6,0.3-0.7,0.5c-0.2,0.5-1.2-0.2-1.2-0.2s0-0.1,0.1-0.3c0.3-0.7,1.2-2.6,1.4-3.2c0.2-0.7,1.3-2.3,1.4-2.5
		c0.1-0.3,0.4-0.1,0.4,0.3c0,0.2,0,0.5-0.2,0.8c-0.4,0.5-1.4,2.2-1.7,3.2v0c0,0,0,0,0,0c-0.2,0.6,0.8,0.5,0.9,0.1
		c0.1-0.2,1-2,1.4-2.7c0.4-0.7,1.4-2.4,1.6-2.8c0.2-0.4,0.6-0.8,0.8-1.2c0.1-0.3,0.6-0.4,0.7,0c0,0.1,0,0.3,0,0.5
		c-0.3,0.9-1.5,2.9-1.8,3.3c-0.3,0.4-1.2,2-1.3,2.3c0,0.1,0,0.1,0,0.2v0c0,0.2,0,0.4,0.1,0.5c0.1,0,0.9-0.2,1.1-0.5
		c0.2-0.3,1-2.3,1.2-2.7c0.3-0.3,0.8-1.5,1.1-1.9c0.2-0.3,0.7-0.1,0.8,0.3c0,0.1,0,0.3-0.1,0.4c-0.8,1.3-1.5,2.8-1.9,3.3
		c0,0.1-0.1,0.1-0.1,0.2c-0.2,0.5,0.2,0.9,0.7,0.4c0.5-0.5,0.7-1.1,1-1.6c0.3-0.5,0.6-1.1,0.8-1.4c0.1-0.2,0.6-0.1,0.7,0.2
		c0,0.1,0,0.1,0,0.2c-0.1,0.4-0.6,1.3-0.9,1.6s-0.5,0.7-0.6,1c0,0,0,0,0,0c-0.1,0.3,0,0.5,0.3,0.7c0.4,0.3,0.6,0.2,0.9,0.5
		s0.6,0.7,0.9,0.8c0.3,0.1,0.8,0.3,1,0.7c0.2,0.4,0.5,1.2,1.1,1.4c0.4,0.2,0.6,0.3,0.8,0.7c0.4,0.5,0.6,0.6,0.9,0.6
		c0.4,0,0.4,0.4,0.5,0.8c0,0,0,0.1,0,0.1c0,0.2-0.3,0.9-0.4,1.3v0c0,0.1,0,0.1,0,0.2c0,0.2,0,0.5,0,0.9c0,0.4-0.1,0.8-0.2,0.9
		c-0.2,0.1-0.8-0.2-1,0c-0.2,0.2-0.7,0.1-0.8-0.1c-0.2-0.3-0.6-0.3-0.7-0.2c-0.3,0.2-0.6,0.2-0.8,0c-0.1-0.1-0.5,0-0.7,0.1
		c-0.7,0.3-0.5-0.3-0.5-0.3s0,0,0-0.1c0.1-0.1,0.2-0.4,0.4-0.4c0.2,0,0.5,0.1,0.6,0.1c0.1,0,0.3-0.5,0.5-0.6
		c0.2-0.2,0.5-0.2,0.4-0.6c0-0.1,0-0.2,0-0.2c0.1-0.1,0.2-0.2,0.2-0.2c0.3-0.1,0.7-0.1,0.8-0.2c0,0,0.1-0.2,0-0.4
		c0-0.2-0.1-0.5-0.3-0.6c-0.4-0.3-1.3,0-1.4,0.7c-0.1,0.9-1,1.3-1.5,1.4c-0.7,0.2-0.9,0-1.5-0.3c-0.6-0.3-1.8-0.3-2.2-0.1
		c-0.2,0.1-0.4,0.3-0.4,0.4c-0.1,0.2-0.1,0.4,0.1,0.4c0.4,0,1.2,0.2,1.6,0.2c0.6,0,1,0.2,1.2,0.7c0,0,0,0.1,0.1,0.1
		c0.2,0.4,0.1,0.4-0.6,0.3c-1.5-0.2-2.9,0.1-3.8,0.3c-0.3,0.1-1.3,1-1.5,1.1c-0.1,0.1-0.9,0.5-1.4,0.9c-0.2,0.2-0.4,0.4-0.4,0.6
		c0,0,0,0,0,0c0,0.2,0,0.5,0,0.7c0,0.1,0.2,1,0.2,1.1c0,0,0.5-0.5,0.6-0.6c0.1-0.2,1.1-0.7,1.5-1.3c0.4-0.5,1.7-1.3,2.1-1.5
		c1.1-0.5,2.4-0.5,2.7-0.4c0.2,0.1,0.5,0.3,0.6,0.5c0.1,0.1,0,0.3-0.1,0.4c-0.4,0.4-1,0.9-1.3,1c-0.3,0.2-0.5,0-0.8,0.2
		c-0.2,0.2-0.7,0.6-0.9,0.6c-0.7,0-1.6,0.2-1.9,0.2c-0.5,0.1-1.4,0.4-1.7,0.7C5,33.7,4.7,34,4.6,34.2c0,0.1-0.1,0.1-0.1,0.2
		c0,0.2,0.4,0.4,0.5,0.6c0,0.1,0.1,0.2,0,0.2c0,0,0,0.1-0.1,0.1c-0.2,0.5,0.3,0.7,0.5,1c0,0.1,0.1,0.2,0,0.2
		c-0.2,0.4-0.4,0.9-0.6,0.8c-0.2-0.1-0.7-1.5-1-2.6c0.1,0.6,0.2,1.1,0.3,1.2c0.1,0.4,1.4,3.4,1.6,3.8c0.2,0.4,3.9,5.6,4.1,5.8
		c0.2,0.2,5.2,4.1,5.7,4.5c0.4,0.2,6.3,2.4,7.2,2.6c0.9,0.2,3.7,0.5,4.3,0.5c0.4,0,4.3-0.2,5.1-0.4c0.8-0.1,4.6-1.4,4.9-1.6
		c0.3-0.2,4.7-2.7,4.8-2.8c0-0.1,1.8-1.6,2.2-1.9c0.6-0.4,3.2-3.6,3.9-4.7c0.7-1.1,2.5-4.7,2.6-5c0.3-0.8,1.1-4.1,1.1-4.1
		S50.6,32.7,50.5,33z M30.7,26.8c0.3-0.3,0.8-0.2,0.6,0c-0.1,0.1-0.3,0.5-0.1,0.7c0.2,0.2,0.7,0.3,1,0c0.3-0.3,0-0.4,0-0.5
		c0-0.1,0-0.3,0.2-0.2c0.3,0.1,0.6,0.2,0.6,0.4c0,0.5-0.3,0.7-0.7,0.8c-0.5,0.2-1,0-1.3-0.1C30.6,27.8,30.3,27.1,30.7,26.8z
		 M30.3,11.3c1-2.7,2-3.4,2.6-3.8c0.6-0.3,0.9,0.4,0.5,0.7c-0.3,0.2-1.3,1.1-1.3,1.5c0,0.2,0.2,0.1,0.5,0.1c0.3,0,0.2,0.7,0.1,1.2
		c0,0.5-0.2,1.1-0.2,1.7c-0.1,0.7-0.2,1.9-0.5,2.3c-0.3,0.4-0.7,0.8-0.7,0.2c0.1-0.6,0-1-0.3-1c-0.4,0-0.6,0.5-0.9,1
		c-0.3,0.5-0.9,0.4-0.9-0.4C29.3,14,29.4,14,30.3,11.3z M37.8,25.2c0.3,0,0.6,0,1.2-0.3c0.6-0.3,1.1-0.1,1.8,0.1s1.4,1.2,1.8,1.3
		c0.2,0.1,1.9,0.2,2.1,0.2c0.2,0,0.1,0.4,0.1,0.5c0,0.2,0.3,0.1,1,0.3c0.7,0.2,0.4,1,0.4,1.2c0,0.2,0.3,0.5,0.4,0.6
		c0.1,0.2,0.1,0.4,0.1,0.5c0.1,0.2,0.4,0.6,0,0.7c-0.3,0.1-0.9-0.2-1.3-0.3c-0.4,0-1,0-1.2-0.1c-0.2,0-0.2-0.6-0.4-0.6
		c-0.2,0-0.7,0.2-1.3,0.3c-0.6,0.1-1.2,0.7-1.4,0.5c-0.3-0.2-0.6-0.3-0.9-0.1c-0.1,0.1-0.6,0.3-0.8,0.3c-0.3,0-0.5-0.3-0.4-0.4
		c0.1-0.1,0.5-0.2,0.7-0.3c0.2-0.2,0.1-0.5-0.4-0.4c-0.3,0-0.2-0.5,0.2-0.6c0.4,0,0.5-0.7,0.2-0.6c-0.3,0-0.7,0.1-0.9-0.1
		c-0.3-0.2,0-0.5,0.3-0.6c0.3-0.1,0.8,0.2,1.1,0.2c0.3,0,0.5-0.1,0.7-0.3c0.3-0.2,0.7-0.2,0.7-0.6c0-0.4-0.3-0.6-0.5-0.7
		c-0.1-0.1-0.9-0.5-1.5-0.6c-0.5-0.1-0.8,0.2-0.9,0.3C38.6,25.8,38.3,26,38,26C37.8,26.1,37.6,25.5,37.8,25.2z M34.9,37.1
		c0.3-0.2,0.6-0.5,0.9-0.7c0.2-0.3,0.4-0.4,0.4-0.7c0-0.4,0.2-0.5,0.5-0.6c0.4,0,0.6,0.2,0.6,0.8c-0.1,0.7-0.2,1.5,0.1,2
		c0.4,0.5,0.7,0.5,1.3,0.8c0.6,0.3,1.3,1,1.4,1.2c0.1,0.2-0.2,0.6-0.4,0.7s-0.4-0.4-0.4-0.7c0.1-0.3-0.4-0.4-0.8-0.5
		c-0.6-0.1-0.9-0.1-1.2-0.1c-0.3,0-0.8-0.3-1-1c-0.2-0.6-0.2-1-0.5-1c-0.3,0-0.5,0.3-0.4,0.7c0.1,0.3,0.1,0.7,0,0.8
		c-0.2,0-0.8-0.3-0.8-0.7C34.5,37.8,34.6,37.3,34.9,37.1z M39.3,43.9c-0.1-0.2-0.4-0.5-0.5-0.6c-0.1,0-1.3,0-1.6,0.1
		c-0.3,0.1-0.4-0.1-0.3-0.2c0.1-0.1,0.3-0.4,0.8-0.6c0.5-0.2,1.7-0.3,2-0.3c0.3,0,0.4,0.3,0.5,0.4c0,0.1,0.3,0.3,0.5,0.5
		c0.1,0.2,0.3,0.7,0.3,0.9c0,0.1,0.1,1.1-0.1,1.2c-0.5,0.2-0.3,0.5-0.7,0.6c-0.4,0.2-0.7,0-0.7-0.3c0-0.3,0.1-0.6,0.3-0.8
		C39.7,44.6,39.3,44,39.3,43.9z M31.3,46.8c-0.3,0-0.5-0.1-0.8-0.2c-0.2-0.1-0.5-0.3-0.7-0.1c-0.2,0.2-0.3,0.3-0.8,0.5
		c-0.4,0.1-0.8,0.3-1.1,0.3c-0.3,0-0.9,0.4-1.2,0.5c-0.3,0.1-0.9,0.3-1.2,0.2c-0.3-0.1-0.1-0.6,0-0.8c0.1-0.2,0.5-1,0.8-1
		c0.3-0.1,0.5,0,0.7,0s0.9-0.3,1.2-0.5c0.3-0.2,1.3-0.4,1.9-0.3c0.6,0.1,1.3,0.5,1.4,0.7c0.3,0.3,0.2,0.7,0.4,0.8
		c0.2,0.1,0.4,0,0.6-0.1c0.1-0.1,0.6-0.1,0.6-0.4c0-0.3-0.2-0.5-0.5-0.5c-0.2,0-0.6-0.1-0.7-0.2c-0.1-0.1-0.3-0.5-0.4-0.6
		c-0.2-0.1-0.4-0.6-0.2-0.6c0.2,0,0.8,0.1,0.9,0.3c0.2,0.2,0.5,0.5,0.6,0.4c0.2,0,0.3-0.1,0.4-0.1c0.1-0.1,0.4,0.1,0.5,0.4
		c0.1,0.2,0.1,0.3,0.2,0.4c0.1,0.1,0.5,0.5,0.5,0.8c0.1,0.3,0.1,1,0.2,1.1c0.1,0.1,0.5,0,0.8,0c0.5-0.1,0.8-0.4,1.1-0.5
		c0.3-0.2,0.5-0.1,0.7-0.3s0.4-0.7,0.4-1c0-0.4,0.7-0.3,0.7-0.1s-0.1,0.7,0,0.8c0.1,0.1,0.2,0.3,0.3,0.4c0,0.1,0,0.1-0.2,0.2
		c-0.3,0.1-0.6,0.1-0.8,0.3c-0.2,0.2-0.4,0.6-0.6,0.7c-0.3,0.1-0.9,0.3-1.3,0.5c-0.4,0.1-0.9,0.4-1,0.5c-0.2,0.1-0.4,0-0.8,0
		c-0.4,0-0.7,0-1.1,0.2c-0.4,0.2-1.4,0.2-2.2,0.2c-0.8-0.1-1.9,0.1-2.4,0.2c-0.5,0-1.1,0.1-1.4-0.1c-0.3-0.2-0.2-0.5,0-0.6
		c0.2-0.1,0.5-0.1,0.6-0.2c0.1-0.1,1-0.6,1.3-0.7c0.1-0.1,0.7-0.3,1-0.4c0.2,0,0.5-0.3,0.8-0.3c0.3-0.1,0.5-0.1,0.7-0.3
		C31.6,47,31.6,46.8,31.3,46.8z M26.2,43.3c-0.2-0.3-0.5-0.5-0.8-0.5c-0.3,0-0.5-0.7-0.3-0.9c0.2-0.1,0.5-0.2,0.6-0.4
		c0.2-0.2,0.6-0.2,0.6,0.1c0.1,0.3,0.2,0.8,0.4,1.1c0.1,0.3,0.5,0.3,0.6,0.5c0.1,0.2,0.3,0.5,0.7,0.7c0.3,0.2,1.7,0.4,2,0.4
		c0.3,0,0.6,0.4,0.2,0.4c-0.4,0-1.7,0-2.3-0.2c-0.5-0.2-0.8-0.4-1.1-0.6C26.6,43.9,26.3,43.6,26.2,43.3z M34.5,44.7
		c0-0.7,0.5-0.7,0.8-0.7c0.5,0,0.5,0.2,0.6,0.7c0.1,0.5,0.4,0.6,0.8,0.6c0.5,0.1,0.4,0.7,0,0.8c-0.3,0-0.8,0.1-1,0.1
		c-0.3-0.1-0.7-0.6-0.8-0.7C34.8,45.4,34.6,45,34.5,44.7z M31.8,38.8c0.5,0.1,0.9,0.4,1.1,0.5c0.3,0,0.7-0.4,0.9,0
		c0.1,0.3,0.4,0.9,0.9,1.1c0.5,0.2,1.5,0.2,2,0.1c0.5-0.1,0.6,0,0.9,0.1c0.3,0.1,0.5,0.2,0.7,0.1c0.2,0,0.5,0,0.7,0.2
		c0.1,0.2,0.2,0.5,0,0.6c-0.2,0.1-0.7-0.1-0.9,0c-0.2,0.1-1,0.3-1.4,0.5c-0.6,0.3-1.3,0.3-1.8,0.3c-0.5,0-1.2-0.1-1.6-0.5
		c-0.2-0.2-0.6-0.4-0.5-0.5c0-0.2,0.1-0.4-0.1-0.7c-0.2-0.2-0.2-0.4-0.4-0.4c-0.6,0.2-0.4-0.5-0.5-0.6c-0.1-0.1-0.4-0.4-0.4-0.6
		C31.3,39,31.2,38.7,31.8,38.8z M26.7,34.1c0.5,0,0.6,0.1,0.8,0c0.2-0.1,0.5-0.3,0.7-0.3c0.5,0,0.3,1.1,0.6,1.4
		c0.5,0.5,0.1,0.9-0.3,0.5c-0.2-0.3-0.4-0.2-0.6-0.2c-0.2,0-0.2-0.2-0.4-0.2c-0.1,0-0.7,0.2-0.9-0.3C26.4,34.6,26.2,34.1,26.7,34.1z
		 M22.4,26.8c0.5-0.4,0.8-0.4,0.6,0.1c-0.1,0.3-0.1,0.8,0.5,0.8c0.7,0,0.6-0.5,0.5-0.7c-0.1-0.2,0-0.5,0.2-0.4
		c0.3,0.1,0.4,0.3,0.4,0.5c0,0.3-0.3,0.8-0.6,0.9c-0.5,0.2-1.4,0-1.6-0.1C22.2,27.5,22.1,27.1,22.4,26.8z M21.6,28.1
		c0.4,0.1,0.5,0.2,0.8,0.2c0.3,0,1.5,0,1.8,0c0.4-0.1,0.8-0.3,0.9-0.7c0.1-0.4,0.1-0.8,0.4-0.7c0.3,0.1,0.6,0.3,0.6,0.7
		c0,0.4-0.7,0.8-0.9,1.2c-0.3,0.5,0.1,0.5,0,0.7c-0.1,0.3-0.2,0.8-0.2,1.4c0.1,0.5-0.9,1-0.9,1s-0.5,0.4-0.2,0.7
		c0.3,0.2,0.6,0.2,0.7,0.5c0.1,0.3,0.1,1-0.2,1.3c-0.3,0.2-0.7,0.4-0.9,0.3c-0.2-0.2-0.5-0.6-0.8-0.4c-0.4,0.3-0.2,0.5-0.2,0.8
		c0,0.3-0.5,0.5-0.8,0.7c-0.1,0.1-0.5,0.2-0.7,0.1c-0.5-0.1-0.7-0.6-0.9-0.8c-0.2-0.2-0.3-0.6,0-0.5c0.3,0,0.6,0.1,1,0.1
		c0.4,0,0.7-0.1,0.7-0.3c0-0.1-0.2-0.5-0.2-0.5s0-0.3,0.3-0.3s0.8,0,1-0.4c0.2-0.5,0.2-0.5,0.4-0.7c0.1-0.2-0.2-0.6-0.4-0.4
		c-0.3,0.2-0.6,0.5-0.7,0.3c-0.2-0.3-0.7-0.6-0.8-0.7c-0.1-0.1-0.5,0-0.7-0.2c-0.2-0.2-0.6-0.8-0.8-1c-0.2-0.2-0.4-0.8,0-1.2
		c0.3-0.3,0-0.5-0.2-0.6c-0.3-0.1,0-0.8,0.4-0.7c0.4,0.1,0.6,0.4,0.8,0.6c0.4,0.2,1.4,0.5,1.8,0.5c0.4,0,1.1,0.1,1.4,0.1
		c0.2,0,0.8,0.2,0.7-0.3c0-0.4-0.4-0.3-0.6-0.3c-0.2,0-0.9,0.1-1.3,0c-0.7-0.1-1.2-0.2-1.4-0.3C21.2,28.4,21.3,27.9,21.6,28.1z
		 M20.1,25c0.5-0.5,1.1-0.2,1.3,0c0.2,0.2,0,0.6-0.2,0.9c-0.2,0.3-0.5,0.9-0.8,0.9s-1-0.2-1.1-0.7C19.3,25.6,19.5,25.4,20.1,25z
		 M11.4,32c0.2-0.2,0.6-0.6,1-0.9c0.5-0.3,1.8-0.8,2.3-0.9c0.6-0.2,1.2-0.2,1.5-0.2c0.3,0,0.5,0,0.8-0.2c0.2-0.2,0.7,0,0.9,0
		c0.2,0.1,0.2,0.6,0.1,0.8c-0.1,0.2-0.5,0.5-0.6,0.8c-0.2,0.3-1.3,0.8-2.3,1c-1,0.2-2.5-0.2-2.8-0.3c-0.3,0-0.4,0-0.6,0.1
		C11.5,32.5,11.2,32.2,11.4,32z M7.8,38.7c-0.1,0.5-0.4,1-0.7,0.8c-0.3-0.3,0-1-0.3-1.1c-0.5-0.1-0.8-0.5-0.5-1
		c0.1-0.2,0.1-0.5,0.2-0.7c0.3-0.6-0.2-0.7,0-1.2C6.7,35.4,7.7,34.2,8,34c0.4-0.3,1.2-1,1.5-1c0.4-0.1,0.6,0.1,0.5,0.4
		c-0.1,0.3-0.7,0.8-0.9,1c-0.2,0.3-0.5,0.6-0.6,1.1c0,0.5-0.3,0.7-0.6,1.2C7.6,37.1,7.9,38.1,7.8,38.7z M8.2,40.8
		c0.1-0.4,0.9-2,1-2.3c0.1-0.4-0.5-0.8,0.4-0.8c0.2,0,0.2-0.2,0.1-0.5c-0.1-0.3-0.6-0.2-0.4-0.5c0.2-0.3,0.2-0.1,0.4-0.5
		c0.2-0.4,0.3-1.5,0.6-1.9c0.3-0.5,0.6-0.3,0.8-0.5c0.3-0.2,0.4-0.6,0.7-0.7s0.9,0,1.2,0.1c0.2,0.2,0.3,0.3,0.1,0.4
		c-0.2,0.1-0.7,0.1-0.7,0.4c0,0.3,0.3,0.5,0.5,0.6c0.3,0.1-0.4,1.4-0.5,1.8c-0.1,0.5-0.4,0.6-0.9,0.8C11,37.4,11,37.5,11,37.7
		c0.1,0.3,0.1,0.5-0.2,0.6c-0.3,0.1-0.5,0.3-0.9,1c-0.4,0.6-0.6,1.6-1,2C8.5,41.5,8.2,41.1,8.2,40.8z M13.8,48.5
		c-0.1-0.2-1-0.7-1.1-0.8c-0.2-0.2-0.6-0.6-0.9-0.8c-0.3-0.1-0.3-0.7-0.4-0.9c-0.1-0.2,0.2-1.5,0.6-1.2c0.4,0.3-0.1,0.8,1,1.4
		c0.3,0.2,1,0.5,1,1C14,47.7,13.8,48.5,13.8,48.5z M13.1,44.1c-0.2-0.3-0.4-0.5-0.9-0.8s-0.8-0.7-1.2-0.7s-1.5,0.2-1.5-0.3
		c0.1-0.5,0.3-0.6,0.6-0.7c0.2-0.1-0.1-0.3-0.1-0.6c0-0.3,0.4-0.3,1.2,0c0.8,0.3,0.5,0,1.1,0.1c0.5,0.1,0.8,1.2,1.1,1.4
		c0.3,0.3,1.5,1.9,1.9,2.5c0.4,0.5,0.5,0.9-0.2,0.5C14.8,45.4,13.3,44.4,13.1,44.1z M21,52.1c-0.8-0.2-3.4-1.6-3.8-1.8
		c-0.4-0.2-1.7-1-1.8-1.1c0,0,0.4-0.6,1.2-0.4c0.2,0.1,1.2,0.5,2.2,0.9c0.9,0.4,1.6,0.6,2.1,1C21.4,51,21.9,52.2,21,52.1z
		 M21.8,49.2c-0.2,0.4-0.8,0.4-1.2,0.2c-0.5-0.2-1-0.6-0.8-1c0.1-0.2,0.9-0.7,1.4-0.5C21.6,48.1,22,48.8,21.8,49.2z M22.1,46
		c-0.1,0.1-0.4,0.1-0.5,0.1c-0.3,0.1-0.8,0.2-1,0.3c-0.2,0.1-0.5,0.5-0.6,0.7c-0.1,0.2-0.8,0.4-1.4,0.6c-0.6,0.2-1.5,0.2-1.9,0.1
		c-0.3-0.1-0.2-0.3-0.1-0.5c0.1-0.2,0.8-0.3,1.2-0.4c0.4-0.1,0.7-0.3,0.7-0.5s-0.3-0.5-0.6-0.7c-0.3-0.2-0.3-0.4-0.4-0.6
		c-0.1-0.2-0.3-0.3-0.6-0.4c-0.3-0.1-0.4-0.2-0.5-0.4c-0.1-0.2,0-0.3-0.1-0.5c-0.1-0.1-0.4-0.5-0.4-0.8c0-0.2,0.1-1.1-0.1-1.3
		c-0.1-0.2-0.4-0.2-0.6-0.1c-0.2,0.1-0.4,0.1-0.6,0s-0.5-1.2-0.6-1.7s-0.7-2.1-0.6-2.3c0-0.2,0.1-0.8,0.2-1.2
		c0.1-0.4,0.2-0.6,0.4-0.8c0.2-0.2,0.5-0.8,0.5-1.1c0.1-0.3,0.2-0.5,0.5-0.9c0.2-0.3,0.7-0.3,1.1-0.2c0.4,0.1,0.9-0.1,1.1-0.2
		c0.2-0.1-0.1-0.6,0.8-0.5c0.5,0,0.8,0.5,1.1,0.9c0.4,0.4,0.1,0.8,0,1.1c-0.1,0.4-0.1,0.7,0,1.6c0,0.9-0.5,0.9-0.8,1
		c-0.3,0.1-0.7,0-0.8,0c-0.1-0.1-0.2,0-0.6,0.1c-0.4,0-0.3-0.1-0.3-0.3c0-0.2,0.4-0.8,0.6-1c0.2-0.2,0.5,0,0.5-0.2
		c0.1-0.1,0.1-0.9,0-1.1c-0.1-0.2-0.5-0.3-0.8-0.1c-0.4,0.2-0.9,1.2-1.1,1.4c-0.2,0.2-0.7,2-0.7,2.3c-0.1,0.2-0.2,1,0.1,1.3
		c0.4,0.3,0.7-0.2,0.6-0.4s0.1-0.4,0.2-0.7c0.1-0.3,1-0.2,1.5-0.2c0.7,0,1.1-0.3,1.3-0.4c0.4-0.1,0.7-0.1,1-0.2c0.2,0,0.5-0.1,1-0.3
		c0.5-0.3,1-0.1,1.1,0c0.2,0.1,0.3,0.7,0.5,0.9c0.1,0.2,0.4,0.1,0.6-0.1c0.2-0.1,0.2-0.6,0.4-0.7c0.3-0.1,0.6,0.2,1,0.4
		s0.7,0.5,0.8,0.5c0.1,0,0.4-0.1,0.5-0.2c0.1-0.1-0.2-0.3-0.4-0.5c-0.2-0.2-0.2-0.4-0.4-0.5c-0.1-0.2-0.4-0.1-0.6-0.2
		c-0.2,0,0-0.3,0.2-0.5c0.2-0.1,0.5-0.1,0.7,0c0.2,0.1,0.3,0.2,0.8,0.1c0.5,0,0.7,0.2,1,0.3s0.5,0,1,0c0.5-0.1,1.1,0.1,1.4,0.2
		c0.3,0.1,0.2,0.7,0.3,1.2c0.1,0.4,0.1,0.7,0.4,1.5c0.2,0.4,0.2,0.9,0.2,1.2c0,0.2-0.2,0.7,0.1,0.9c0.2,0.2,0.5,0.4,1,0.5
		c0.1,0,0.7,0.2,0.9,0.2c0.2,0,0.4,0.3,0.7,0.6c0.3,0.3,0.4,1,0.4,1.3c0,0.3-0.3,0.1-0.5,0c-0.2-0.2-0.2-0.2-0.5-0.4
		c-0.2-0.2-0.7-0.5-0.8-0.5c-0.2,0-1.2,0.2-1.5,0.2c-0.3-0.1-0.8-0.4-0.8-0.5c-0.1-0.1-0.5-0.1-0.7-0.3c-0.2-0.1-0.6-0.5-0.9-1
		c-0.3-0.5-0.6-1.3-0.8-1.5c-0.2-0.2-0.4-0.2-0.6-0.2c-0.2,0.1-0.5,0.5-1.1,0.3c-0.6-0.2-1.1,0.4-1.3,1c-0.1,0.2-0.2,0.6-1,0.7
		c-0.2,0-0.7-0.2-0.9-0.2s-0.6,0.1-0.8,0.2c-0.2,0.1-0.3-0.2-0.2-0.4c0-0.2-0.4-0.3-0.7-0.1c-0.3,0.2-0.1,1-0.1,1.2
		c0.1,0.2-0.1,0.6-0.3,0.7c-0.2,0.1-0.5,0.1-0.6,0c0-0.1-0.2-0.6-0.2-0.8c0-0.2-0.2-0.6,0.1-1.2c0.2-0.6,1-0.7,1.3-0.7
		c0.3,0,0.6,0.1,0.6,0.1s0.3-0.3,0.5-0.5c0.2-0.2,0.7-0.5,0.9-0.7c0.1-0.3-0.1-0.4-0.4-0.4c-0.4,0-1,0.4-1.3,0.6
		c-0.3,0.1-1.5-0.2-1.6-0.2c-0.1-0.1,0-0.5-0.1-0.6c-0.1-0.1-0.3,0-0.8,0.2c-0.5,0.1-1.1,0.6-1.2,0.8c-0.1,0.2,0,0.7-0.3,0.8
		c-0.3,0-0.4,0.3-0.4,0.6c0,0.2,0.4,0.3,0.6,0.4c0.2,0.1,0.3,0.7,0.6,1c0.2,0.2,0.2,0.5,0.3,0.8c0.1,0.2,0.3,0.2,0.4,0.2
		c0.1,0.1,0.1,0.2,0.2,0.4c0.1,0.1,0.3,0.2,0.5,0.3c0.2,0.1,0.2,0.4,0.4,0.6c0.2,0.2,0.6,0.2,0.8,0c0.2-0.2,0.2-0.4,0.3-0.6
		c0.1-0.2,0.4-0.4,0.7-0.6c0.3-0.2,0.6-0.3,1-0.5c0.5-0.2,0.9-0.4,1.3-0.4c0.4,0,1.1-0.1,1.1,0.3s-0.5,0.3-0.7,0.5
		c-0.1,0.2-0.1,0.6-0.4,0.7c-0.3,0.1-0.5,0.3-0.6,0.5C22.5,45.3,22.2,45.8,22.1,46z M34.1,51.9c-0.1,0-2.3,0.5-4.4,0.6
		c-1.5,0.1-2.3,0.1-2.4,0.1c-0.5-0.2-0.5-1.3-1.6-1.3c-0.5,0-0.8,1.2-0.7,1.3c0.1,0.2-0.8,0.2-1-0.2c-0.2-0.3,0-1.3,0-1.5
		c0-0.2,0-0.5-0.2-0.7s-0.5-0.4-0.6-0.7c-0.1-0.3-0.1-0.7-0.2-0.9c-0.3-0.7-0.4-1.3-0.3-1.8c0.2-0.4,0.4-1,0.5-1.2
		c0.1-0.2,0.8-0.9,1.2-1c0.5-0.2,1-0.4,1.3-0.2c0.3,0.2,0.5,0.5,0.5,0.7c0.1,0.3-0.6,0.4-0.8,0.6c-0.2,0.2-0.4,0.2-0.6,0.6
		c-0.2,0.4-0.5,1-0.5,1.4c0,0.2,0.1,0.9,0.2,1c0.1,0.1,0.3,0.4,0.2,0.6c0,0.2-0.2,0.5-0.2,0.6c0,0.2,0.4,0.2,1,0.4
		c0.7,0.1,0.9,0.3,1.3,0.6c0.2,0.1,0.7,0.6,1,0.6c0.4,0,3.6-0.2,4.1-0.2c0.4,0,1.8,0.7,2.5,0.4c0.5-0.2,0.9-0.3,1.2-0.4
		C35.1,51.5,34.2,51.9,34.1,51.9z M45.6,44.7c-0.1,0.1-0.5,0.8-0.7,0.6c-0.2-0.2-0.7-0.4-0.6-0.7c0.1-0.3-0.7-0.4-0.8-0.2
		c-0.1,0.2-0.1,0.6-0.2,0.8c-0.1,0.2-0.4,0.7-0.9,1.1c-0.2,0.1-1.3,0.8-1.6,1c-0.2,0.2-0.6,0.8-0.2,1.5c0.1,0.2-1.3,0.9-2.2,1.3
		c-0.9,0.4-2.1,0.9-2.2,0.9c0,0,0,0,0,0c-0.1,0.1-0.2,0.1-0.5,0.2c0.2-0.1,0.4-0.2,0.5-0.2c0.1-0.1,0.1-0.1,0.1-0.2
		c-0.1-1.6,2.8-1.7,2.9-2.4c0-0.3,0.7-1.2,0.9-1.3c0.1-0.1,0.7-0.6,0.8-0.8c0.1-0.1,1.1-0.2,0.9-0.6c-0.2-0.4-0.3-0.3-0.3-0.7
		c0-0.4,0.6-1,0.6-1.6c0-0.7-0.2-1.5-0.2-1.7c0-0.2,0.2-0.5,0.1-0.7c-0.1-0.3-0.5-0.2-0.8-0.7c-0.2-0.4-0.1-0.8-0.4-1.1
		C40.5,39,40.3,39,40,38.9c-0.2-0.1-0.4-0.4-0.6-0.6c-0.2-0.2-0.7-0.3-0.7-0.6c0-0.4,0.1-0.8-0.3-1.2c-0.4-0.3-0.6-0.3-0.3-0.8
		c0.4-0.2,0.3-0.2,0.6-0.1c0.3,0.2,0.8,0.4,1.5,0.6c0.6,0.1,2.1,0.1,2.3,0.2c0.2,0.1,0.3,0.2,0.5,0.3c0.2,0.1,1,0.5,1.1,0.9
		c0.1,0.4,0.1,0.9,0.1,1.1c0,0.2-0.5,0.1-0.6-0.2c-0.1-0.3-0.2-0.6-0.5-0.5c-0.3,0.1-0.1,1.2-0.1,1.5c0.1,0.3,0.2,0.7,0.1,1
		c-0.1,0.3-0.3,0.3-0.3,0.5c0,0.2,0.4,0.4,0.5,0.5c0.2,0.2,0.3,0.5,0.3,0.7c0,0.4,0.6,0.4,0.6,0.6c0,0.2-0.3,0.9,0.3,0.8
		C45.6,43.6,45.9,44.2,45.6,44.7z M48,41.8c-0.2,0.2-0.7,0.7-1.1,0.7c-0.2,0-0.4-0.9-0.2-1.1c0.4-0.4,0-1,0-1.2
		c0-0.2,0.4-0.2,0.4-0.6c0-0.4-0.4-0.5-0.3-0.9c0.2-0.6,0.1-1.8-0.1-2c-0.2-0.3-0.6-0.8-0.7-1c-0.1-0.3,0.1-0.4,0.2-0.5
		c0.4-0.2,0.7,0.2,0.8,0.3c0.1,0.1,0.2,0.2,0.2,0.2c0.1,0,0.3,0.4,0.4,0.6c0.1,0.2,0.2,0.7,0.4,1.1c0.3,0.4,0.4,0.4,0.5,0.6
		c0.1,0.2-0.2,0.8-0.2,1c-0.1,0.5,0.2,0.4,0.5,0.9C49.1,40.2,48.2,41.6,48,41.8z M50.1,35.2c-0.1,0.2-0.5,0.6-0.8,0.3
		c-0.2-0.2-0.8-0.8-1.3-1c-0.4-0.2-0.9-0.1-1.1-0.1c-0.1,0-0.1-0.3-0.4-0.4c-0.4,0-0.6-0.1-0.7-0.1c-0.4-0.1,0-0.5-0.2-0.7
		c-0.2-0.2-0.8,0.2-0.9,0.2c-0.2,0-0.8-0.2-0.3-0.4c0.5-0.1,0.1-0.4-0.1-0.6c-0.2-0.1-0.5,0.3-0.8,0.2c-0.2-0.1,0.2-0.5-0.1-0.7
		c-0.1-0.1-0.5,0.3-0.9,0.5c-0.2,0.1-0.7,0.3-0.5,0.5c0.2,0.2,0.5,0.1,0.6,0.3c0.1,0.2,0.4,0.4,0.7,0.6c0.3,0.2,1.8,0.8,2.1,1.5
		c0.3,0.7,0.9,1.9,0.7,3.1c-0.2,1.2-0.4,1.1-0.4,1.8s0.1,1,0.3,1.4c0.2,0.4,0.1,0.4-0.1,0.6c-0.2,0.2-0.2,0.4-0.2,0.5
		c0,0.2-0.5,0.4-0.6,0c-0.1-0.3-0.6-2.1-0.5-2.8c0.1-0.7,0.5-1,0.5-1.9c-0.1-0.9-0.6-2-1.1-2.3c-0.5-0.3-1.6-1.1-3.4-1
		c-1.3,0.1-1.1,0-1.5,0.1c-0.3,0.1-0.9,0-0.8-0.5c0.1-0.2,1.7-0.1,1.5-0.2c-0.2-0.1-0.3-0.5-0.3-0.7c0.1-0.2,0.2-0.5,0-0.6
		c-0.2-0.1-1,0.1-1.2,0c-0.2-0.1-0.5-0.1-0.6-0.3c-0.1-0.2,0.2-0.6,0.4-0.5s0.4,0.3,0.7,0.3c0.2,0,0.6-0.2,0.4-0.4
		c-0.2-0.3-0.7-0.3-1.1-0.4c-0.4-0.1-0.7-0.4-0.4-0.5c0.3-0.1,0.5-0.2,0.9,0c0.4,0.2,0.5,0.3,0.8,0.4c0.3,0.1,0.5,0,0.8,0.2
		c0.3,0.2,0.6,0.5,0.9,0.5c0.3,0,1.8-1,2.6-1.1c0.9-0.1,1.5-0.2,2.3,0.2c0.8,0.4,1.5,1.2,1.7,1.3c0.2,0.1,0.9,1.1,1,1.3
		c0.1,0.2,0.2,0.7,0.6,0.9c0.2,0.2,0.5,0,0.7-0.1C50,34.6,50.2,35,50.1,35.2z M5.1,26c-0.1,0.6-0.4,1.7-0.4,1.9c0,0,0,0.1,0,0.1
		C4.8,27.5,5.1,26.5,5.1,26C5.1,26,5.1,26,5.1,26z M4.6,34.2c0,0.1-0.1,0.1-0.1,0.2c0,0.2,0.4,0.4,0.5,0.6c0,0,0,0,0-0.1
		C5.3,34.7,4.8,34.5,4.6,34.2z M5.1,35.4c-0.2,0.5,0.3,0.7,0.5,1c0,0,0,0,0-0.1C5.7,36.1,5.2,35.8,5.1,35.4z M5.2,22.9
		c0,0.2-0.1,1.4-0.3,1.7c-0.1,0.1-0.1,0.2,0,0.4c0,0,0,0,0-0.1c0.2-0.3,0.2-1.5,0.3-1.7C5.3,23,5.9,22.7,6,23.2
		C6.1,22.3,5.3,22.6,5.2,22.9z M7.4,26.5c0,0.4-0.1,1-0.2,1.2c-0.1,0.2-1.1,1.1-1.4,1.2C5.6,29,4.2,29.6,4,29.7c0,0-0.6,0.2-0.6,0.7
		v0.2C3.5,30.2,3.9,30.1,4,30c0.2-0.1,1.6-0.7,1.8-0.8c0.3-0.2,1.3-1,1.4-1.2c0.1-0.2,0.1-0.7,0.2-1.2c0-0.2,0-0.4,0-0.5
		C7.4,26.3,7.4,26.4,7.4,26.5z M6.7,23.8c-0.4,0.8-0.5,0.8-0.7,0.7c-0.1,0-0.2-0.1-0.2-0.2c-0.1,0.2,0,0.5,0.2,0.6
		c0.2,0.1,0.4,0.1,0.7-0.7c0.2-0.4,0.8-0.4,0.8,0.1C7.7,23.5,6.9,23.3,6.7,23.8z M7.4,15.1c-0.1,0.2-1.2,1.8-1.4,2.5
		C5.7,18.3,4.5,21,4.5,21s0,0,0.1,0c0.3-0.7,1.2-2.6,1.4-3.2c0.2-0.7,1.3-2.3,1.4-2.5c0.1-0.3,0.4-0.1,0.4,0.3
		C7.9,15.1,7.5,14.8,7.4,15.1z M9.5,21.2c-0.1,0.1-0.2,0.3-0.1,0.5c0-0.2,0.1-0.3,0.1-0.4C9.5,21.3,9.5,21.3,9.5,21.2z M10.5,12.8
		c-0.2,0.4-0.6,0.8-0.8,1.2c-0.2,0.4-1.1,2.1-1.5,2.8c-0.4,0.7-1.3,2.5-1.4,2.7c-0.1,0.3-0.8,0.4-0.9,0.1c0,0,0,0,0,0
		c-0.2,0.6,0.8,0.5,0.9,0.1c0.1-0.2,1-2,1.4-2.7c0.4-0.7,1.4-2.4,1.6-2.8c0.2-0.4,0.6-0.8,0.8-1.2c0.1-0.3,0.6-0.4,0.7,0
		C11.3,12.4,10.7,12.4,10.5,12.8z M11.6,28.2c-0.2-0.5-0.7-0.7-1.2-0.7c-0.4,0-1.3-0.2-1.7-0.2c-0.1,0-0.1,0-0.1-0.1
		c-0.1,0.2-0.1,0.4,0.1,0.4c0.4,0,1.2,0.2,1.6,0.2c0.6,0,1,0.2,1.2,0.7c0,0,0,0.1,0.1,0.1C11.8,28.6,11.8,28.5,11.6,28.2z
		 M11.3,29.6c-0.3-0.1-1.6-0.2-2.7,0.4c-0.4,0.2-1.7,0.9-2.1,1.5C6,32,5.1,32.5,5,32.7c-0.1,0.1-0.6,0.6-0.6,0.6
		c0-0.1-0.2-1-0.2-1.1c0-0.2,0-0.3-0.1-0.4c0,0.2,0,0.5,0,0.7c0,0.1,0.2,1,0.2,1.1c0,0,0.5-0.5,0.6-0.6c0.1-0.2,1.1-0.7,1.5-1.3
		c0.4-0.5,1.7-1.3,2.1-1.5c1.1-0.5,2.4-0.5,2.7-0.4c0.2,0.1,0.5,0.3,0.6,0.5C12.1,30,11.6,29.7,11.3,29.6z M11.5,14.5
		c-0.3,0.4-0.9,1.5-1.1,1.9s-1,2.3-1.2,2.7c-0.2,0.3-0.9,0.6-1.1,0.5c0,0-0.1-0.1-0.1-0.2c0,0.2,0,0.4,0.1,0.5
		c0.1,0,0.9-0.2,1.1-0.5c0.2-0.3,1-2.3,1.2-2.7c0.3-0.3,0.8-1.5,1.1-1.9c0.2-0.3,0.7-0.1,0.8,0.3C12.4,14.5,11.8,14.1,11.5,14.5z
		 M13,25.9c-0.1,0.1-0.4,0.1-0.5,0c-0.3-0.1-0.6-0.2-1.4-0.4c-0.7-0.1-1.9,0.5-2.2,0.6c-0.3,0.1-0.7,0-0.6-0.4c0-0.2,0-0.6-0.2-0.7
		c-0.1-0.1-0.6,0-0.7-0.3c-0.2,0.6,0.5,0.5,0.7,0.6c0.2,0.1,0.2,0.4,0.2,0.7c0,0.3,0.3,0.4,0.6,0.4c0.3-0.1,1.5-0.7,2.2-0.6
		c0.8,0.2,1.2,0.3,1.4,0.4C12.7,26.3,13.1,26.3,13,25.9C13,25.9,13,25.9,13,25.9z M12.8,16.1c-0.2,0.3-0.5,0.9-0.8,1.4
		c-0.3,0.5-0.5,1.1-1,1.6c-0.4,0.4-0.7,0.2-0.8-0.1c-0.2,0.5,0.2,0.9,0.7,0.4c0.5-0.5,0.7-1.1,1-1.6c0.3-0.5,0.6-1.1,0.8-1.4
		c0.1-0.2,0.6-0.1,0.7,0.2c0,0,0-0.1,0-0.1C13.5,16.1,12.9,15.9,12.8,16.1z M13.8,23.8c-0.1,0.2-0.4,0.4-0.4,0.6
		c0,0.2-0.4,0.8-0.3,1.2c0.1-0.3,0.3-0.7,0.3-0.9C13.4,24.4,13.9,24.2,13.8,23.8C13.8,23.9,13.8,23.8,13.8,23.8z M14.9,26.9
		c-0.1,0.1-0.2,0.2-0.3,0.3c-0.2,0.2-0.4,0.6-0.6,0.6c-0.2,0.1-0.4-0.1-0.6-0.1c-0.2,0-0.4,0.5-0.4,0.5s0,0.1,0,0.2
		c0.1-0.1,0.2-0.4,0.4-0.4c0.2,0,0.5,0.1,0.6,0.1c0.1,0,0.3-0.5,0.5-0.6C14.8,27.3,15,27.2,14.9,26.9z M16,25.8
		C16,25.9,16,25.9,16,25.8c-0.2,0.2-0.5,0.2-0.8,0.3c-0.2,0.1-0.4,0.2-0.3,0.4c0,0,0,0,0,0.1c0.1-0.1,0.2-0.2,0.2-0.2
		c0.3-0.1,0.7-0.1,0.8-0.2C16,26.2,16.1,26,16,25.8z M17.9,27.1c0,0.1,0,0.1,0,0.2c0,0.2,0,0.5,0,0.9C17.9,27.8,17.9,27.4,17.9,27.1
		z M17.8,24.6c-0.4,0-0.5-0.1-0.9-0.6c-0.3-0.4-0.4-0.5-0.8-0.7c-0.5-0.2-0.9-1-1.1-1.4c-0.2-0.4-0.6-0.5-0.9-0.7
		c-0.3-0.2-0.6-0.5-0.9-0.8c-0.3-0.3-0.5-0.3-0.9-0.5c-0.2-0.1-0.3-0.3-0.4-0.4c-0.1,0.3,0,0.5,0.3,0.7c0.4,0.3,0.6,0.2,0.9,0.5
		s0.6,0.7,0.9,0.8c0.3,0.1,0.8,0.3,1,0.7c0.2,0.4,0.5,1.2,1.1,1.4c0.4,0.2,0.6,0.3,0.8,0.7c0.4,0.5,0.6,0.6,0.9,0.6
		c0.4,0,0.4,0.4,0.5,0.8c0-0.1,0-0.2,0-0.2C18.2,25.1,18.2,24.6,17.8,24.6z"/>
	<path class="st1" d="M77.3,31.2c-1.5-1.3-3.7-1.8-3.7-1.8s1.5-0.4,2.4-1.2c1.1-1,3-5.1-0.5-8.8c-1.8-1.9-6.3-2.1-6.3-2.1h-7.3
		c0,0-1.3-0.2-1.3,0.5c0,0.4,0,0.5,0.5,0.7c0.5,0.2,2.1,1.8,2.1,3.7c0,0.3,0,0.5,0,0.5V38c0,0,0,1.8-0.2,3c-0.2,1-0.6,2-1.2,2.5
		c-0.9,0.6-1.5,0.5-1.6,1.1c-0.1,0.7,0.9,0.6,0.9,0.6s1.4-0.1,4-0.2c3.1-0.1,2.6,0.3,5.6,0.4c3.3,0.1,6-0.4,8.1-3.7
		C81,38.2,79,32.8,77.3,31.2z M66.9,20c0,0,0-0.2,0.1-0.4c0.1-0.2,0.5-0.2,0.5-0.2h0.7c0,0,2,0,3.5,0.8c1.1,0.6,2,1.5,2,3.8
		c0,1-0.5,2.5-1.1,3.1c-0.7,0.9-1.9,1.6-2.4,1.7C69.7,29,68.9,29,68.9,29h-1.2c0,0-0.4-0.1-0.6-0.4C67,28.4,66.9,28,66.9,28L66.9,20
		z M74,42.2c-1.3,0.9-3,0.8-3,0.8h-2.3c0,0-0.5-0.1-1-0.3c-0.3-0.1-0.7-0.4-0.7-0.7V31.2h1.9c0,0,3.3-0.1,4.8,1.3
		c1.3,1.2,2.2,2.5,2.3,4.8C76,39,75.5,41.2,74,42.2z"/>
	<path class="st1" d="M106.9,43.8c-0.7,0-1.3-0.6-1.9-1.2c-1.4-1.7-2.7-5.3-2.7-5.3l-8.2-20.1l-2.9,1c0,0-0.5,0.1-0.6,0.2
		c-0.2,0-0.5,0.1-0.5,0.1s0.1,0.4,0.1,0.8c0,0.5-0.1,1.1-0.1,1.1l-6.6,18c0,0-0.4,1.2-0.7,1.8c-0.6,1.2-1.2,2.1-2,3
		c-1.2,1.3-1.7,0.5-1.9,1.4c0,0.6,0.5,0.5,0.5,0.5s3-0.2,4.8-0.2s4.2,0.2,4.9,0.2c0.6,0,1.2-1.1,0.4-1.2c-0.8-0.1-2.4-0.3-3-1
		c-0.6-0.7-0.6-2.2-0.5-2.6c0.1-0.4,0.4-1.3,0.4-1.3l2.3-6.5h8l2.8,6.8c0,0,0.6,1.6,0.4,2.5c-0.3,1.2-1.8,1.8-3.1,2
		c-0.5,0.1-1.1-0.1-1.4,0.8c-0.2,0.6,0.7,0.6,0.7,0.6s3.9-0.1,6-0.2c1.9,0,4.1,0,4.7,0C107.4,45.1,108.1,43.9,106.9,43.8z
		 M89.3,30.4l3-8.4l3.4,8.4H89.3z"/>
	<path class="st1" d="M105.6,17.8c0,0,0.8,0.1,1.8,0.1c1,0.1,2.5,0.1,2.5,0.1l10.8,0c0,0,1.8,0,3.5-0.1c1.4-0.1,3.5-0.3,3.5-0.3
		s-0.1,1.5-0.4,3.4c-0.3,1.9-0.6,3-0.6,3s-0.1,0.7-0.3,0.8c-0.2,0.1-1.2,0.5-1.2,0.5s0.2-1.3,0.2-1.9c-0.1-0.9-0.3-2.3-0.9-2.7
		c-1-0.7-2.2-0.7-3.2-0.7c-1-0.1-2.5,0-3,0.3c-0.4,0.3-0.4,1.1-0.4,1.1v18.2c0,0-0.1,2.3,1,3.1c0.9,0.7,2.4,1.1,2.4,1.1
		s1.1,0,0.8,0.8c-0.2,0.5-0.8,0.6-0.8,0.6s-3.8-0.1-5.7-0.1c-2.7,0-5,0.1-5.8,0.1c-1.1,0-0.8-1.3,0.2-1.4c0.5-0.1,2-0.2,3-1.2
		c1-1.1,1.2-3.4,1.2-3.4v-17c0,0-0.1-1.3-0.4-1.7c-0.7-0.7-2.4-0.7-3.7-0.5c-1.7,0.2-2.8,0.8-3.2,1.9c-0.5,1.2-0.7,2.7-1.1,2.8
		c-0.4,0.2-1.3,0.4-1.3,0.4s0.4-1.8,0.7-4C105.3,19.6,105.6,17.8,105.6,17.8z"/>
	<path class="st1" d="M130.1,17.5c-0.9-0.1-1.1,1.2-0.6,1.4c0.7,0.1,1.2,0,1.8,0.7c0.7,0.8,0.5,2.6,0.5,2.6v16.5c0,0,0,1.8-0.1,2.8
		c-0.2,1.3-0.8,1.8-1.5,2.1c-0.6,0.3-1.2,0.3-1.2,1c-0.1,0.7,0.6,0.6,0.6,0.6s1.7-0.1,4-0.2c2.3,0,4.6,0.2,5.3,0.2
		c0.7,0,1.2-1.2,0.1-1.3c-1.2-0.2-2.3-0.4-3.1-1.1c-0.6-0.6-0.5-2.2-0.5-2.2v-9.8h13.1v9.8c0,0,0,2.2-1.1,2.5
		c-1.1,0.4-1.6,0.4-2.4,0.5c-0.8,0.1-1.5,1.6-0.6,1.6s3.7-0.2,5.9-0.2c1.3,0,3.4,0.1,3.7,0.2c0.7,0,0.9-0.3,1.1-0.7
		c0.2-0.5-0.5-0.6-0.9-0.8c-0.5-0.2-1-0.4-1.4-1c-0.5-0.8-0.4-2.5-0.4-2.5V22.3c0,0-0.1-1.7,0.5-2.5c0.6-0.9,0.9-0.8,1.4-1
		c0.7-0.2,0.9-1.3,0.2-1.2c-0.7,0.1-2.9,0.2-4.1,0.2c-1.9,0-4-0.1-4.5-0.2c-0.9,0-1.1,1.3-0.4,1.3c0.7,0,1.9,0.2,2.5,1
		c0.6,0.9,0.6,2.5,0.6,2.5v6h-13.1v-6.1c0,0-0.1-2.1,0.9-2.7c0.7-0.5,1.3-0.5,2.1-0.6c0.8-0.1,1.2-1.5,0.4-1.4
		c-0.8,0.1-3,0.1-4.9,0.1C131.9,17.6,130.8,17.6,130.1,17.5z"/>
	<path class="st1" d="M61.7,5.3v0.5l0.7,0.1L62.5,6v3.6c0,0.8,0.1,1.4,0.5,2c0.4,0.5,1.2,0.9,2.3,0.9c2,0,2.8-0.9,2.8-2.8V6l0.1-0.2
		l0.6-0.1V5.3h-2.4v0.5l0.7,0.1L67.3,6v3.6c0,1.4-0.4,2.1-1.6,2.1c-1.3,0-1.7-0.6-1.7-2V6l0.1-0.1l0.7-0.1V5.3H61.7z"/>
	<polygon class="st1" points="70.5,12.4 72.9,12.4 72.9,11.8 72.2,11.8 72.1,11.6 72.1,6.7 75.7,12.4 76.9,12.4 76.9,6.1 77.1,5.9
		77.7,5.8 77.7,5.3 75.3,5.3 75.3,5.8 75.9,5.9 76.1,6.1 76.1,10.6 72.9,5.6 72.9,5.3 70.5,5.3 70.5,5.8 71.2,5.8 71.3,6 71.3,11.6
		71.1,11.8 70.5,11.8 	"/>
	<polygon class="st1" points="79.5,12.4 82.6,12.4 82.6,11.8 81.9,11.8 81.7,11.6 81.7,6 81.9,5.8 82.6,5.8 82.6,5.3 79.5,5.3
		79.5,5.8 80.2,5.8 80.3,6 80.3,11.6 80.2,11.8 79.5,11.8 	"/>
	<polygon class="st1" points="83.9,5.3 83.9,5.8 84.6,5.9 87,12.4 88.1,12.4 90.4,5.9 91.1,5.8 91.1,5.3 88.8,5.3 88.8,5.8
		89.4,5.8 89.5,6 87.8,10.8 86.1,6 86.2,5.8 86.8,5.8 86.8,5.3 	"/>
	<polygon class="st1" points="92.4,12.4 98.1,12.4 98.1,10.5 97.4,10.5 97.2,11.6 97,11.8 94.6,11.8 94.6,9 96,9 96.1,9.2 96.2,9.9
		96.8,9.9 96.8,7.5 96.2,7.5 96.1,8.2 96,8.4 94.6,8.4 94.6,5.9 96.7,5.9 96.8,6 97,6.9 97.7,6.9 97.7,5.3 92.4,5.3 92.4,5.8
		93.1,5.8 93.2,6 93.2,11.6 93.1,11.8 92.4,11.8 	"/>
	<path class="st1" d="M106.8,11.8c-0.7,0-1-0.2-1.2-0.7c-0.2-0.5-0.3-1.1-0.6-1.6c-0.2-0.3-0.6-0.5-1.1-0.7c1.2-0.2,1.8-0.8,1.8-1.8
		c0-1.2-0.8-1.8-2.5-1.8H100v0.5l0.6,0.1l0.2,0.1v5.6l-0.2,0.2l-0.6,0v0.5h3v-0.5l-0.6,0l-0.2-0.2V9.2h0.2c1.1,0,1.3,0.5,1.7,1.5
		c0.2,0.5,0.3,1,0.8,1.4c0.2,0.2,0.6,0.3,1.1,0.3c0.3,0,0.7,0,1.1-0.1v-0.5H106.8z M102.5,8.6c-0.1,0-0.2,0-0.4,0V5.9h0.5
		c1,0,1.6,0.5,1.6,1.3C104.2,8.2,103.7,8.6,102.5,8.6z"/>
	<path class="st1" d="M108.6,12.1c0.7,0.2,1.4,0.3,2,0.3c1.7,0,2.8-0.9,2.8-2.2c0-0.6-0.3-1.2-0.9-1.6c-0.6-0.4-1.2-0.6-1.5-0.8
		c-0.6-0.3-0.9-0.7-0.9-1.1c0-0.6,0.5-1,1.2-1c0.3,0,0.6,0.1,0.8,0.1l0.1,0.1l0.2,1.1h0.8V5.5c-0.7-0.2-1.3-0.4-2-0.4
		c-1.5,0-2.5,0.9-2.5,2.1c0,0.5,0.3,1,0.7,1.4c0.5,0.4,1,0.6,1.4,0.8c0.7,0.4,1.1,0.8,1.1,1.3c0,0.6-0.5,1-1.4,1
		c-0.3,0-0.6-0.1-0.9-0.1l-0.1-0.2l-0.2-1.3h-0.8L108.6,12.1L108.6,12.1z"/>
	<polygon class="st1" points="115.6,12.4 118.7,12.4 118.7,11.8 118,11.8 117.8,11.6 117.8,6 118,5.8 118.7,5.8 118.7,5.3
		115.6,5.3 115.6,5.8 116.3,5.8 116.4,6 116.4,11.6 116.3,11.8 115.6,11.8 	"/>
	<polygon class="st1" points="120.4,5.3 120.4,7.1 121.1,7.1 121.3,6 121.5,5.9 122.7,5.9 122.7,11.6 122.6,11.8 121.9,11.8
		121.9,12.4 125,12.4 125,11.8 124.3,11.8 124.2,11.6 124.2,5.9 125.4,5.9 125.6,6 125.8,7.1 126.5,7.1 126.5,5.3 	"/>
	<polygon class="st1" points="127.7,5.3 127.7,5.8 128.4,5.9 130.4,9.6 130.4,11.6 130.3,11.8 129.6,11.8 129.6,12.4 132.7,12.4
		132.7,11.8 132,11.8 131.8,11.6 131.8,9.3 133.8,5.9 134.5,5.8 134.5,5.3 132.2,5.3 132.2,5.8 132.8,5.9 132.9,6.1 131.4,8.6
		129.9,6 130,5.8 130.6,5.8 130.6,5.3 	"/>
	<path class="st1" d="M144.9,5.9c-0.6-0.5-1.4-0.8-2.3-0.8c-1,0-1.8,0.3-2.5,0.9c-0.7,0.7-1.1,1.6-1.1,2.8c0,2.2,1.4,3.7,3.6,3.7
		c0.9,0,1.7-0.3,2.4-0.9c0.7-0.7,1.1-1.6,1.1-2.8C146.2,7.7,145.7,6.6,144.9,5.9z M142.6,11.9c-1.1,0-2-1.1-2-3.1c0-1.9,0.8-3,2-3
		c1.2,0,2,1.1,2,3.1C144.6,10.7,143.8,11.9,142.6,11.9z"/>
	<polygon class="st1" points="148.1,12.4 151.2,12.4 151.2,11.8 150.5,11.8 150.3,11.6 150.3,9.2 151.7,9.2 151.9,9.3 152,10.1
		152.6,10.1 152.6,7.6 152,7.6 151.9,8.4 151.7,8.5 150.3,8.5 150.3,5.9 152.4,5.9 152.5,6 152.6,7 153.4,7 153.4,5.3 148.1,5.3
		148.1,5.8 148.8,5.8 148.9,6 148.9,11.6 148.8,11.8 148.1,11.8 	"/>
	<rect x="60.7" y="50.6" class="st1" width="94" height="2.1"/>
	<path class="st1" d="M13,25.9c0-0.1,0-0.2,0-0.3c0,0,0,0,0,0.1C13.1,25.8,13,25.8,13,25.9z"/>
</g>
</svg>
